<?xml version="1.0" standalone="no"?>
<!-- Licensee: Remeike Forbes (#29020) - http://vllg.com -->
<!DOCTYPE svg PUBLIC "-//W3C//DTD SVG 1.1//EN" "http://www.w3.org/Graphics/SVG/1.1/DTD/svg11.dtd" ><svg version="1.1" xmlns="http://www.w3.org/2000/svg"><defs><font horiz-adv-x="0" id="font"><font-face ascent="750" bbox="-192 -386 1376 1032" cap-height="711" descent="-250" font-family="Antwerp" font-stretch="normal" font-style="normal" font-weight="600" units-per-em="1000" x-height="497" /><missing-glyph horiz-adv-x="0" /><glyph d="M334 620 232 333H437ZM215 281Q198 238 187.5 204.5Q177 171 169 148Q160 121 155 99Q147 77 157 66Q167 55 193 51L260 41V-5L83 0L-16 -5V41L31 51Q54 56 65 66Q76 76 84 98Q104 150 124.5 204Q145 258 165 310.5Q185 363 203.5 413Q222 463 239 507Q278 610 314 707L455 726Q487 640 525 540Q557 454 600.5 340.5Q644 227 695 99Q704 77 713.5 66.5Q723 56 746 51L793 41V-5L609 0L426 -5V41L478 51Q504 56 515 66.5Q526 77 518 99L453 281Z" glyph-name="A" horiz-adv-x="776" unicode="A" /><glyph d="M272 496 194 266H354ZM181 222 165 171Q157 145 151.5 128Q146 111 143 100Q139 88 137 81Q131 61 138 53.5Q145 46 165 43L222 35V-4L92 0L-5 -4V35L31 43Q50 47 58 55Q66 63 73 81Q77 93 87.5 120.5Q98 148 111.5 184.5Q125 221 140.5 263.5Q156 306 171 348Q207 447 250 566L394 581Q419 513 449 433Q475 364 509 274Q543 184 583 82Q590 65 597 56Q604 47 623 43L660 35V-4L496 0L342 -4V35L384 43Q404 48 412.5 56Q421 64 415 82Q411 93 403.5 115.5Q396 138 388 162Q378 189 367 222Z" glyph-name="A.smcp" horiz-adv-x="653" /><glyph d="M441 647 280 333H471V349Q471 411 470.5 460.5Q470 510 469 545Q468 586 467 618Q467 633 460.5 639Q454 645 449 646ZM629 119Q629 87 645.5 71.5Q662 56 698 56H803Q821 56 837.5 58.5Q854 61 869 69Q884 77 898.5 93Q913 109 927 136L965 212H1012Q1007 170 1003 130Q999 96 995 59Q991 22 989 -5Q949 -4 912 -3Q880 -2 847 -1Q814 0 793 0H555L371 -5V41L422 51Q448 56 458.5 66Q469 76 469 99Q470 118 470 145Q470 168 470 201.5Q470 235 471 280H255L169 98Q159 77 166.5 66.5Q174 56 200 51L255 41L253 -5L79 0L-30 -5L-28 41L19 51Q42 56 60 66Q78 76 90 98Q96 109 112 139Q128 169 150 210Q172 251 197.5 300Q223 349 249 398Q310 513 382 653L330 659V705L555 700H822Q843 700 869 701.5Q895 703 918 705Q945 708 973 711Q971 692 968 663Q966 638 962.5 600Q959 562 956 508H907L896 547Q882 594 867 619.5Q852 645 823 645H646Q634 645 631.5 641Q629 637 629 629V388H662Q677 388 696.5 388.5Q716 389 737 391Q760 393 770.5 403.5Q781 414 788 442L801 497H849L844 359L849 227H801L788 282Q781 310 770.5 320.5Q760 331 737 333Q716 334 696.5 335Q677 336 662 336H629Z" glyph-name="AE" horiz-adv-x="1049" unicode="&#198;" /><glyph d="M380 488Q380 502 369.5 504.5Q359 507 348 507L231 265H379Q379 325 379 362.5Q379 400 379.5 423.5Q380 447 380 461Q380 475 380 488ZM663 47Q677 47 690.5 49Q704 51 716.5 57.5Q729 64 740.5 76.5Q752 89 762 111L790 170H832Q829 143 826 114Q824 89 821 58Q818 27 816 -4Q784 -3 755 -2Q730 -1 704 -0.5Q678 0 661 0H465L301 -4V35L341 43Q360 47 368 54.5Q376 62 377 78Q377 82 378 117.5Q379 153 379 220H209L147 81Q139 64 143.5 56Q148 48 171 43L214 35L212 -4L79 0L-17 -4L-15 35L22 43Q42 47 54.5 55.5Q67 64 78 81Q80 84 95 112.5Q110 141 131 183.5Q152 226 177.5 275.5Q203 325 226 371.5Q249 418 267.5 455.5Q286 493 294 509L222 525V564L465 560H683Q700 560 720 561Q740 562 758 564Q779 566 800 569Q798 553 796 530Q794 510 791.5 479.5Q789 449 787 406H744L735 435Q723 473 712.5 493Q702 513 678 513H545Q534 513 532 510Q530 507 530 501V313H554Q565 313 579.5 313Q594 313 611 315Q629 317 637 325.5Q645 334 650 356L660 400H703L699 287L703 182H660L650 226Q645 248 637 256.5Q629 265 611 266Q594 267 579.5 268Q565 269 554 269H530V98Q530 47 587 47Z" glyph-name="AE.smcp" horiz-adv-x="871" /><glyph d="M327 970H517L322 781L273 787ZM334 620 232 333H437ZM215 281Q198 238 187.5 204.5Q177 171 169 148Q160 121 155 99Q147 77 157 66Q167 55 193 51L260 41V-5L83 0L-16 -5V41L31 51Q54 56 65 66Q76 76 84 98Q104 150 124.5 204Q145 258 165 310.5Q185 363 203.5 413Q222 463 239 507Q278 610 314 707L455 726Q487 640 525 540Q557 454 600.5 340.5Q644 227 695 99Q704 77 713.5 66.5Q723 56 746 51L793 41V-5L609 0L426 -5V41L478 51Q504 56 515 66.5Q526 77 518 99L453 281Z" glyph-name="Aacute" horiz-adv-x="776" unicode="&#193;" /><glyph d="M272 496 194 266H354ZM181 222 165 171Q157 145 151.5 128Q146 111 143 100Q139 88 137 81Q131 61 138 53.5Q145 46 165 43L222 35V-4L92 0L-5 -4V35L31 43Q50 47 58 55Q66 63 73 81Q77 93 87.5 120.5Q98 148 111.5 184.5Q125 221 140.5 263.5Q156 306 171 348Q207 447 250 566L394 581Q419 513 449 433Q475 364 509 274Q543 184 583 82Q590 65 597 56Q604 47 623 43L660 35V-4L496 0L342 -4V35L384 43Q404 48 412.5 56Q421 64 415 82Q411 93 403.5 115.5Q396 138 388 162Q378 189 367 222ZM277 825H467L270 636L221 642Z" glyph-name="Aacute.smcp" horiz-adv-x="653" /><glyph d="M389 891Q424 891 444.5 898.5Q465 906 475.5 918.5Q486 931 489 947Q492 963 492 980V985H543V945Q543 908 533 877Q523 846 503.5 823.5Q484 801 455 788.5Q426 776 389 776Q352 776 323.5 788.5Q295 801 275.5 823.5Q256 846 246 877Q236 908 236 945V985H287V980Q287 963 290 947Q293 931 303.5 918.5Q314 906 334 898.5Q354 891 389 891ZM334 620 232 333H437ZM215 281Q198 238 187.5 204.5Q177 171 169 148Q160 121 155 99Q147 77 157 66Q167 55 193 51L260 41V-5L83 0L-16 -5V41L31 51Q54 56 65 66Q76 76 84 98Q104 150 124.5 204Q145 258 165 310.5Q185 363 203.5 413Q222 463 239 507Q278 610 314 707L455 726Q487 640 525 540Q557 454 600.5 340.5Q644 227 695 99Q704 77 713.5 66.5Q723 56 746 51L793 41V-5L609 0L426 -5V41L478 51Q504 56 515 66.5Q526 77 518 99L453 281Z" glyph-name="Abreve" horiz-adv-x="776" unicode="&#258;" /><glyph d="M272 496 194 266H354ZM181 222 165 171Q157 145 151.5 128Q146 111 143 100Q139 88 137 81Q131 61 138 53.5Q145 46 165 43L222 35V-4L92 0L-5 -4V35L31 43Q50 47 58 55Q66 63 73 81Q77 93 87.5 120.5Q98 148 111.5 184.5Q125 221 140.5 263.5Q156 306 171 348Q207 447 250 566L394 581Q419 513 449 433Q475 364 509 274Q543 184 583 82Q590 65 597 56Q604 47 623 43L660 35V-4L496 0L342 -4V35L384 43Q404 48 412.5 56Q421 64 415 82Q411 93 403.5 115.5Q396 138 388 162Q378 189 367 222ZM328 746Q363 746 384 753.5Q405 761 415.5 773.5Q426 786 429 802Q432 818 432 835V840H484V800Q484 763 474 732Q464 701 444 678.5Q424 656 395 643.5Q366 631 328 631Q290 631 261.5 643.5Q233 656 213 678.5Q193 701 183 732Q173 763 173 800V840H224V835Q224 818 227 802Q230 786 240.5 773.5Q251 761 272 753.5Q293 746 328 746Z" glyph-name="Abreve.smcp" horiz-adv-x="653" /><glyph d="M359 976H419L564 782L541 762L391 849H389L243 763L216 782ZM334 620 232 333H437ZM215 281Q198 238 187.5 204.5Q177 171 169 148Q160 121 155 99Q147 77 157 66Q167 55 193 51L260 41V-5L83 0L-16 -5V41L31 51Q54 56 65 66Q76 76 84 98Q104 150 124.5 204Q145 258 165 310.5Q185 363 203.5 413Q222 463 239 507Q278 610 314 707L455 726Q487 640 525 540Q557 454 600.5 340.5Q644 227 695 99Q704 77 713.5 66.5Q723 56 746 51L793 41V-5L609 0L426 -5V41L478 51Q504 56 515 66.5Q526 77 518 99L453 281Z" glyph-name="Acircumflex" horiz-adv-x="776" unicode="&#194;" /><glyph d="M272 496 194 266H354ZM181 222 165 171Q157 145 151.5 128Q146 111 143 100Q139 88 137 81Q131 61 138 53.5Q145 46 165 43L222 35V-4L92 0L-5 -4V35L31 43Q50 47 58 55Q66 63 73 81Q77 93 87.5 120.5Q98 148 111.5 184.5Q125 221 140.5 263.5Q156 306 171 348Q207 447 250 566L394 581Q419 513 449 433Q475 364 509 274Q543 184 583 82Q590 65 597 56Q604 47 623 43L660 35V-4L496 0L342 -4V35L384 43Q404 48 412.5 56Q421 64 415 82Q411 93 403.5 115.5Q396 138 388 162Q378 189 367 222ZM297 831H358L505 637L482 617L330 704H328L180 618L153 637Z" glyph-name="Acircumflex.smcp" horiz-adv-x="653" /><glyph d="M409 857Q409 892 432.5 916Q456 940 491 940Q526 940 550 916Q574 892 574 857Q574 822 550 798Q526 774 491 774Q456 774 432.5 798Q409 822 409 857ZM206 857Q206 892 229.5 916Q253 940 288 940Q325 940 348.5 916Q372 892 372 857Q372 822 348.5 798Q325 774 288 774Q253 774 229.5 798Q206 822 206 857ZM334 620 232 333H437ZM215 281Q198 238 187.5 204.5Q177 171 169 148Q160 121 155 99Q147 77 157 66Q167 55 193 51L260 41V-5L83 0L-16 -5V41L31 51Q54 56 65 66Q76 76 84 98Q104 150 124.5 204Q145 258 165 310.5Q185 363 203.5 413Q222 463 239 507Q278 610 314 707L455 726Q487 640 525 540Q557 454 600.5 340.5Q644 227 695 99Q704 77 713.5 66.5Q723 56 746 51L793 41V-5L609 0L426 -5V41L478 51Q504 56 515 66.5Q526 77 518 99L453 281Z" glyph-name="Adieresis" horiz-adv-x="776" unicode="&#196;" /><glyph d="M272 496 194 266H354ZM181 222 165 171Q157 145 151.5 128Q146 111 143 100Q139 88 137 81Q131 61 138 53.5Q145 46 165 43L222 35V-4L92 0L-5 -4V35L31 43Q50 47 58 55Q66 63 73 81Q77 93 87.5 120.5Q98 148 111.5 184.5Q125 221 140.5 263.5Q156 306 171 348Q207 447 250 566L394 581Q419 513 449 433Q475 364 509 274Q543 184 583 82Q590 65 597 56Q604 47 623 43L660 35V-4L496 0L342 -4V35L384 43Q404 48 412.5 56Q421 64 415 82Q411 93 403.5 115.5Q396 138 388 162Q378 189 367 222ZM350 712Q350 747 374 771Q398 795 433 795Q468 795 492 771Q516 747 516 712Q516 677 492 653Q468 629 433 629Q398 629 374 653Q350 677 350 712ZM144 712Q144 747 168 771Q192 795 227 795Q262 795 286 771Q310 747 310 712Q310 677 286 653Q262 629 227 629Q192 629 168 653Q144 677 144 712Z" glyph-name="Adieresis.smcp" horiz-adv-x="653" /><glyph d="M507 787 458 781 263 970H453ZM334 620 232 333H437ZM215 281Q198 238 187.5 204.5Q177 171 169 148Q160 121 155 99Q147 77 157 66Q167 55 193 51L260 41V-5L83 0L-16 -5V41L31 51Q54 56 65 66Q76 76 84 98Q104 150 124.5 204Q145 258 165 310.5Q185 363 203.5 413Q222 463 239 507Q278 610 314 707L455 726Q487 640 525 540Q557 454 600.5 340.5Q644 227 695 99Q704 77 713.5 66.5Q723 56 746 51L793 41V-5L609 0L426 -5V41L478 51Q504 56 515 66.5Q526 77 518 99L453 281Z" glyph-name="Agrave" horiz-adv-x="776" unicode="&#192;" /><glyph d="M272 496 194 266H354ZM181 222 165 171Q157 145 151.5 128Q146 111 143 100Q139 88 137 81Q131 61 138 53.5Q145 46 165 43L222 35V-4L92 0L-5 -4V35L31 43Q50 47 58 55Q66 63 73 81Q77 93 87.5 120.5Q98 148 111.5 184.5Q125 221 140.5 263.5Q156 306 171 348Q207 447 250 566L394 581Q419 513 449 433Q475 364 509 274Q543 184 583 82Q590 65 597 56Q604 47 623 43L660 35V-4L496 0L342 -4V35L384 43Q404 48 412.5 56Q421 64 415 82Q411 93 403.5 115.5Q396 138 388 162Q378 189 367 222ZM444 642 394 636 197 825H387Z" glyph-name="Agrave.smcp" horiz-adv-x="653" /><glyph d="M230 793V869H549V793ZM334 620 232 333H437ZM215 281Q198 238 187.5 204.5Q177 171 169 148Q160 121 155 99Q147 77 157 66Q167 55 193 51L260 41V-5L83 0L-16 -5V41L31 51Q54 56 65 66Q76 76 84 98Q104 150 124.5 204Q145 258 165 310.5Q185 363 203.5 413Q222 463 239 507Q278 610 314 707L455 726Q487 640 525 540Q557 454 600.5 340.5Q644 227 695 99Q704 77 713.5 66.5Q723 56 746 51L793 41V-5L609 0L426 -5V41L478 51Q504 56 515 66.5Q526 77 518 99L453 281Z" glyph-name="Amacron" horiz-adv-x="776" unicode="&#256;" /><glyph d="M272 496 194 266H354ZM181 222 165 171Q157 145 151.5 128Q146 111 143 100Q139 88 137 81Q131 61 138 53.5Q145 46 165 43L222 35V-4L92 0L-5 -4V35L31 43Q50 47 58 55Q66 63 73 81Q77 93 87.5 120.5Q98 148 111.5 184.5Q125 221 140.5 263.5Q156 306 171 348Q207 447 250 566L394 581Q419 513 449 433Q475 364 509 274Q543 184 583 82Q590 65 597 56Q604 47 623 43L660 35V-4L496 0L342 -4V35L384 43Q404 48 412.5 56Q421 64 415 82Q411 93 403.5 115.5Q396 138 388 162Q378 189 367 222ZM165 648V724H488V648Z" glyph-name="Amacron.smcp" horiz-adv-x="653" /><glyph d="M334 620 232 333H437ZM215 281Q198 238 187.5 204.5Q177 171 169 148Q160 121 155 99Q147 77 157 66Q167 55 193 51L260 41V-5L83 0L-16 -5V41L31 51Q54 56 65 66Q76 76 84 98Q104 150 124.5 204Q145 258 165 310.5Q185 363 203.5 413Q222 463 239 507Q278 610 314 707L455 726Q487 640 525 540Q557 454 600.5 340.5Q644 227 695 99Q704 77 713.5 66.5Q723 56 746 51L793 41V-5L724 -3Q712 -15 699 -28.5Q686 -42 675.5 -58.5Q665 -75 658 -94.5Q651 -114 651 -138Q651 -183 678.5 -203.5Q706 -224 758 -224Q766 -224 774.5 -223.5Q783 -223 793 -222L774 -256Q762 -260 747 -263Q732 -266 716 -268Q700 -270 685.5 -271Q671 -272 661 -272Q633 -272 608.5 -265Q584 -258 565.5 -244.5Q547 -231 536 -210Q525 -189 525 -162Q525 -137 535.5 -113Q546 -89 565 -68.5Q584 -48 609 -30.5Q634 -13 663 -1L609 0L426 -5V41L478 51Q504 56 515 66.5Q526 77 518 99L453 281Z" glyph-name="Aogonek" horiz-adv-x="776" unicode="&#260;" /><glyph d="M272 496 194 266H354ZM181 222 165 171Q157 145 151.5 128Q146 111 143 100Q139 88 137 81Q131 61 138 53.5Q145 46 165 43L222 35V-4L92 0L-5 -4V35L31 43Q50 47 58 55Q66 63 73 81Q77 93 87.5 120.5Q98 148 111.5 184.5Q125 221 140.5 263.5Q156 306 171 348Q207 447 250 566L394 581Q419 513 449 433Q475 364 509 274Q543 184 583 82Q590 65 597 56Q604 47 623 43L660 35V-4L585 -2Q572 -14 559 -27.5Q546 -41 535 -57.5Q524 -74 517 -94Q510 -114 510 -138Q510 -183 538 -203.5Q566 -224 618 -224Q626 -224 635 -223.5Q644 -223 654 -222L634 -256Q622 -260 607 -263Q592 -266 576 -268Q560 -270 545.5 -271Q531 -272 521 -272Q493 -272 468 -265Q443 -258 424.5 -244.5Q406 -231 395 -210Q384 -189 384 -162Q384 -136 395 -112Q406 -88 425 -67.5Q444 -47 469.5 -29.5Q495 -12 525 0H496L342 -4V35L384 43Q404 48 412.5 56Q421 64 415 82Q411 93 403.5 115.5Q396 138 388 162Q378 189 367 222Z" glyph-name="Aogonek.smcp" horiz-adv-x="653" /><glyph d="M286 787Q286 742 312 712.5Q338 683 384 683Q430 683 456 712.5Q482 742 482 787Q482 831 456 860.5Q430 890 384 890Q338 890 312 860.5Q286 831 286 787ZM335 620 233 333H438ZM216 281Q199 238 188.5 204.5Q178 171 170 148Q161 121 156 99Q148 77 158 66Q168 55 194 51L261 41V-5L84 0L-15 -5V41L32 51Q55 56 66 66Q77 76 85 98Q116 179 148 263Q180 347 208.5 423Q237 499 260.5 561Q284 623 298 661Q267 681 249 713Q231 745 231 787Q231 819 243 846.5Q255 874 276 894Q297 914 324.5 925.5Q352 937 384 937Q416 937 444 925.5Q472 914 492.5 894Q513 874 525 846.5Q537 819 537 787Q537 749 521 717.5Q505 686 478 666Q492 628 514 569.5Q536 511 564 437.5Q592 364 625.5 278Q659 192 696 99Q705 77 714.5 66.5Q724 56 747 51L794 41V-5L610 0L427 -5V41L479 51Q505 56 516 66.5Q527 77 519 99L454 281Z" glyph-name="Aring" horiz-adv-x="778" unicode="&#197;" /><glyph d="M272 496 194 266H354ZM180 642Q180 671 191 696Q202 721 220.5 739Q239 757 264.5 767.5Q290 778 319 778Q349 778 374.5 767.5Q400 757 419 739Q438 721 449 696Q460 671 460 642Q460 609 446.5 582Q433 555 410 537Q421 507 438.5 460.5Q456 414 478.5 355Q501 296 527.5 226.5Q554 157 583 82Q590 65 597 56Q604 47 623 43L660 35V-4L496 0L342 -4V35L384 43Q404 48 412.5 56Q421 64 415 82Q411 93 403.5 115.5Q396 138 388 162Q378 189 367 222H181L165 171Q157 145 151.5 128Q146 111 143 100Q139 88 137 81Q131 61 138 53.5Q145 46 165 43L222 35V-4L92 0L-5 -4V35L31 43Q50 47 58 55Q66 63 73 81L237 531Q211 549 195.5 578Q180 607 180 642ZM237 642Q237 605 259 580.5Q281 556 319 556Q357 556 380 580.5Q403 605 403 642Q403 679 380 703Q357 727 319 727Q281 727 259 703Q237 679 237 642Z" glyph-name="Aring.smcp" horiz-adv-x="653" /><glyph d="M478 888Q490 888 497.5 889Q505 890 511 893.5Q517 897 522.5 905Q528 913 536 927L569 915Q564 896 554 873Q544 850 529 830Q514 810 493.5 796.5Q473 783 446 783Q428 783 409 789.5Q390 796 372 804.5Q354 813 338 819.5Q322 826 310 826Q289 826 274 820.5Q259 815 244 788L211 800Q215 819 226 842.5Q237 866 252.5 886Q268 906 289 919.5Q310 933 335 933Q351 933 372 926Q393 919 413 910.5Q433 902 450.5 895Q468 888 478 888ZM334 620 232 333H437ZM215 281Q198 238 187.5 204.5Q177 171 169 148Q160 121 155 99Q147 77 157 66Q167 55 193 51L260 41V-5L83 0L-16 -5V41L31 51Q54 56 65 66Q76 76 84 98Q104 150 124.5 204Q145 258 165 310.5Q185 363 203.5 413Q222 463 239 507Q278 610 314 707L455 726Q487 640 525 540Q557 454 600.5 340.5Q644 227 695 99Q704 77 713.5 66.5Q723 56 746 51L793 41V-5L609 0L426 -5V41L478 51Q504 56 515 66.5Q526 77 518 99L453 281Z" glyph-name="Atilde" horiz-adv-x="776" unicode="&#195;" /><glyph d="M272 496 194 266H354ZM181 222 165 171Q157 145 151.5 128Q146 111 143 100Q139 88 137 81Q131 61 138 53.5Q145 46 165 43L222 35V-4L92 0L-5 -4V35L31 43Q50 47 58 55Q66 63 73 81Q77 93 87.5 120.5Q98 148 111.5 184.5Q125 221 140.5 263.5Q156 306 171 348Q207 447 250 566L394 581Q419 513 449 433Q475 364 509 274Q543 184 583 82Q590 65 597 56Q604 47 623 43L660 35V-4L496 0L342 -4V35L384 43Q404 48 412.5 56Q421 64 415 82Q411 93 403.5 115.5Q396 138 388 162Q378 189 367 222ZM412 743Q424 743 432 744Q440 745 446 748.5Q452 752 457.5 760Q463 768 471 782L504 770Q499 751 489 728Q479 705 464 685Q449 665 428 651.5Q407 638 380 638Q362 638 343 644.5Q324 651 305.5 659.5Q287 668 270.5 674.5Q254 681 242 681Q220 681 205 675.5Q190 670 175 643Q174 643 169 645Q164 647 158 649L142 655Q146 674 157 697.5Q168 721 183.5 741Q199 761 220 774.5Q241 788 267 788Q283 788 304.5 781Q326 774 346.5 765.5Q367 757 384.5 750Q402 743 412 743Z" glyph-name="Atilde.smcp" horiz-adv-x="653" /><glyph d="M38 705 184 700Q239 701 290 702Q312 702 335 702.5Q358 703 379.5 703.5Q401 704 420.5 704Q440 704 455 704Q497 704 534 693Q571 682 598 661Q625 640 641 609.5Q657 579 657 540Q657 479 618.5 436Q580 393 496 378V371Q537 367 573 352Q609 337 635.5 313.5Q662 290 677.5 258.5Q693 227 693 190Q693 158 681.5 123.5Q670 89 642 59.5Q614 30 565.5 11Q517 -8 444 -8Q437 -8 417.5 -7.5Q398 -7 371.5 -6.5Q345 -6 315 -5Q285 -4 258.5 -3Q232 -2 211.5 -1Q191 0 184 0L38 -5V41L89 51Q115 56 125 66Q135 76 136 99Q136 125 137 162Q138 194 138.5 240Q139 286 139 349Q139 411 138.5 457.5Q138 504 137 536Q136 573 136 600Q134 626 124.5 635Q115 644 89 649L38 659ZM297 400Q304 396 315 393Q324 391 338 389Q352 387 372 387Q404 387 427 394Q450 401 465 417.5Q480 434 487 461Q494 488 494 528Q494 592 456.5 624Q419 656 347 656Q333 656 320.5 654.5Q308 653 297 652ZM299 119Q299 76 320 60Q341 44 382 44Q411 44 437 53Q463 62 482.5 80Q502 98 513.5 125Q525 152 525 188Q525 219 516.5 246Q508 273 489 293.5Q470 314 438.5 325.5Q407 337 362 337H297Q297 302 297 263.5Q297 225 298 193Q298 155 299 119Z" glyph-name="B" horiz-adv-x="746" unicode="B" /><glyph d="M39 564 154 560Q206 560 253 561Q273 561 293.5 561.5Q314 562 333.5 562.5Q353 563 369.5 563Q386 563 398 563Q431 563 460.5 554.5Q490 546 512 529.5Q534 513 547 488.5Q560 464 560 433Q560 384 528 350.5Q496 317 430 305V299Q462 296 491 284.5Q520 273 542 254.5Q564 236 577 210Q590 184 590 152Q590 122 578 93Q566 64 540 42Q514 20 473.5 6.5Q433 -7 375 -7Q369 -7 352.5 -6.5Q336 -6 313 -5.5Q290 -5 264.5 -4Q239 -3 216.5 -2.5Q194 -2 177 -1Q160 0 154 0L39 -4V35L79 43Q100 48 108 56Q116 64 117 82Q117 102 118 131Q118 156 118.5 192.5Q119 229 119 279Q119 329 118.5 365.5Q118 402 118 427Q117 456 117 477Q115 498 107.5 505Q100 512 79 517L39 525ZM270 321Q276 318 284 316Q299 311 321 311Q361 311 386 335.5Q411 360 411 419Q411 470 378 495.5Q345 521 297 521Q287 521 280 520Q273 519 270 518ZM272 98Q272 66 285 52Q298 38 324 38Q344 38 363.5 45Q383 52 398 65.5Q413 79 422 100Q431 121 431 150Q431 175 424.5 196.5Q418 218 403 234Q388 250 363.5 259Q339 268 303 268H270Q270 240 270 210Q270 180 271 155Q271 126 272 98Z" glyph-name="B.smcp" horiz-adv-x="641" /><glyph d="M211 375Q211 303 229.5 244.5Q248 186 283.5 145Q319 104 369.5 82Q420 60 484 60Q532 60 584 73L651 231H703Q702 206 700 175Q698 149 697 113.5Q696 78 694 36Q628 9 556 -3Q484 -15 422 -15Q352 -15 284 5.5Q216 26 163 69.5Q110 113 77 182Q44 251 44 347Q44 426 71 493Q98 560 148 609.5Q198 659 268 687Q338 715 425 715Q476 715 527 707.5Q578 700 626 687L701 700L680 489H631L614 539Q592 604 546.5 633Q501 662 435 662Q378 662 335.5 638Q293 614 265.5 574.5Q238 535 224.5 483Q211 431 211 375Z" glyph-name="C" horiz-adv-x="751" unicode="C" /><glyph d="M202 304Q202 247 215 199.5Q228 152 253.5 118.5Q279 85 316.5 66.5Q354 48 403 48Q423 48 441.5 50.5Q460 53 479 57L539 190H586Q585 179 584 167Q583 155 582 137Q581 119 579.5 92Q578 65 576 25Q533 8 481 -2Q429 -12 370 -12Q311 -12 253 3Q195 18 148 52.5Q101 87 72 142.5Q43 198 43 279Q43 346 64 400Q85 454 124.5 492Q164 530 222 551Q280 572 354 572Q389 572 432.5 566.5Q476 561 523 549L583 560L566 391H521L507 430Q489 481 451.5 502.5Q414 524 366 524Q313 524 280.5 500.5Q248 477 230.5 443Q213 409 207.5 371Q202 333 202 304Z" glyph-name="C.smcp" horiz-adv-x="631" /><glyph d="M310 970H500L305 781L256 787ZM211 375Q211 303 229.5 244.5Q248 186 283.5 145Q319 104 369.5 82Q420 60 484 60Q532 60 584 73L651 231H703Q702 206 700 175Q698 149 697 113.5Q696 78 694 36Q628 9 556 -3Q484 -15 422 -15Q352 -15 284 5.5Q216 26 163 69.5Q110 113 77 182Q44 251 44 347Q44 426 71 493Q98 560 148 609.5Q198 659 268 687Q338 715 425 715Q476 715 527 707.5Q578 700 626 687L701 700L680 489H631L614 539Q592 604 546.5 633Q501 662 435 662Q378 662 335.5 638Q293 614 265.5 574.5Q238 535 224.5 483Q211 431 211 375Z" glyph-name="Cacute" horiz-adv-x="751" unicode="&#262;" /><glyph d="M254 825H444L247 636L198 642ZM202 304Q202 247 215 199.5Q228 152 253.5 118.5Q279 85 316.5 66.5Q354 48 403 48Q423 48 441.5 50.5Q460 53 479 57L539 190H586Q585 179 584 167Q583 155 582 137Q581 119 579.5 92Q578 65 576 25Q533 8 481 -2Q429 -12 370 -12Q311 -12 253 3Q195 18 148 52.5Q101 87 72 142.5Q43 198 43 279Q43 346 64 400Q85 454 124.5 492Q164 530 222 551Q280 572 354 572Q389 572 432.5 566.5Q476 561 523 549L583 560L566 391H521L507 430Q489 481 451.5 502.5Q414 524 366 524Q313 524 280.5 500.5Q248 477 230.5 443Q213 409 207.5 371Q202 333 202 304Z" glyph-name="Cacute.smcp" horiz-adv-x="631" /><glyph d="M199 957 226 976 372 889H374L524 977L547 957L402 763H342ZM211 375Q211 303 229.5 244.5Q248 186 283.5 145Q319 104 369.5 82Q420 60 484 60Q532 60 584 73L651 231H703Q702 206 700 175Q698 149 697 113.5Q696 78 694 36Q628 9 556 -3Q484 -15 422 -15Q352 -15 284 5.5Q216 26 163 69.5Q110 113 77 182Q44 251 44 347Q44 426 71 493Q98 560 148 609.5Q198 659 268 687Q338 715 425 715Q476 715 527 707.5Q578 700 626 687L701 700L680 489H631L614 539Q592 604 546.5 633Q501 662 435 662Q378 662 335.5 638Q293 614 265.5 574.5Q238 535 224.5 483Q211 431 211 375Z" glyph-name="Ccaron" horiz-adv-x="751" unicode="&#268;" /><glyph d="M131 812 158 831 306 744H308L460 832L483 812L336 618H275ZM202 304Q202 247 215 199.5Q228 152 253.5 118.5Q279 85 316.5 66.5Q354 48 403 48Q423 48 441.5 50.5Q460 53 479 57L539 190H586Q585 179 584 167Q583 155 582 137Q581 119 579.5 92Q578 65 576 25Q533 8 481 -2Q429 -12 370 -12Q311 -12 253 3Q195 18 148 52.5Q101 87 72 142.5Q43 198 43 279Q43 346 64 400Q85 454 124.5 492Q164 530 222 551Q280 572 354 572Q389 572 432.5 566.5Q476 561 523 549L583 560L566 391H521L507 430Q489 481 451.5 502.5Q414 524 366 524Q313 524 280.5 500.5Q248 477 230.5 443Q213 409 207.5 371Q202 333 202 304Z" glyph-name="Ccaron.smcp" horiz-adv-x="631" /><glyph d="M211 375Q211 303 229.5 244.5Q248 186 283.5 145Q319 104 369.5 82Q420 60 484 60Q532 60 584 73L651 231H703Q702 206 700 175Q698 149 697 113.5Q696 78 694 36Q628 9 556 -3Q484 -15 422 -15Q416 -15 409.5 -14.5Q403 -14 397 -14L362 -55Q379 -55 404.5 -59.5Q430 -64 454 -77Q478 -90 495 -112.5Q512 -135 512 -171Q512 -204 498.5 -227Q485 -250 462.5 -264.5Q440 -279 412 -285.5Q384 -292 355 -292Q321 -292 290.5 -284.5Q260 -277 239 -264L246 -228Q260 -234 271 -238.5Q282 -243 303 -243Q335 -243 356 -229Q377 -215 377 -183Q377 -158 363 -140Q349 -122 329.5 -110Q310 -98 290.5 -91Q271 -84 259 -81L347 -9Q287 0 232 25.5Q177 51 135.5 94.5Q94 138 69 200.5Q44 263 44 347Q44 426 71 493Q98 560 148 609.5Q198 659 268 687Q338 715 425 715Q476 715 527 707.5Q578 700 626 687L701 700L680 489H631L614 539Q592 604 546.5 633Q501 662 435 662Q378 662 335.5 638Q293 614 265.5 574.5Q238 535 224.5 483Q211 431 211 375Z" glyph-name="Ccedilla" horiz-adv-x="751" unicode="&#199;" /><glyph d="M202 304Q202 247 215 199.5Q228 152 253.5 118.5Q279 85 316.5 66.5Q354 48 403 48Q423 48 441.5 50.5Q460 53 479 57L539 190H586Q585 179 584 167Q583 155 582 137Q581 119 579.5 92Q578 65 576 25Q533 8 481 -2Q429 -12 370 -12H353L316 -55Q333 -55 359 -59.5Q385 -64 409 -77Q433 -90 450.5 -112.5Q468 -135 468 -171Q468 -204 454 -227Q440 -250 417.5 -264.5Q395 -279 366.5 -285.5Q338 -292 309 -292Q274 -292 243 -284.5Q212 -277 191 -264L198 -228Q212 -234 224 -238.5Q236 -243 257 -243Q289 -243 310.5 -229Q332 -215 332 -183Q332 -158 317.5 -140Q303 -122 283.5 -110Q264 -98 243.5 -91Q223 -84 211 -81L303 -7Q253 0 206 19.5Q159 39 123 73.5Q87 108 65 159Q43 210 43 279Q43 346 64 400Q85 454 124.5 492Q164 530 222 551Q280 572 354 572Q389 572 432.5 566.5Q476 561 523 549L583 560L566 391H521L507 430Q489 481 451.5 502.5Q414 524 366 524Q313 524 280.5 500.5Q248 477 230.5 443Q213 409 207.5 371Q202 333 202 304Z" glyph-name="Ccedilla.smcp" horiz-adv-x="631" /><glyph d="M342 976H402L547 782L524 762L374 849H372L226 763L199 782ZM211 375Q211 303 229.5 244.5Q248 186 283.5 145Q319 104 369.5 82Q420 60 484 60Q532 60 584 73L651 231H703Q702 206 700 175Q698 149 697 113.5Q696 78 694 36Q628 9 556 -3Q484 -15 422 -15Q352 -15 284 5.5Q216 26 163 69.5Q110 113 77 182Q44 251 44 347Q44 426 71 493Q98 560 148 609.5Q198 659 268 687Q338 715 425 715Q476 715 527 707.5Q578 700 626 687L701 700L680 489H631L614 539Q592 604 546.5 633Q501 662 435 662Q378 662 335.5 638Q293 614 265.5 574.5Q238 535 224.5 483Q211 431 211 375Z" glyph-name="Ccircumflex" horiz-adv-x="751" unicode="&#264;" /><glyph d="M202 304Q202 247 215 199.5Q228 152 253.5 118.5Q279 85 316.5 66.5Q354 48 403 48Q423 48 441.5 50.5Q460 53 479 57L539 190H586Q585 179 584 167Q583 155 582 137Q581 119 579.5 92Q578 65 576 25Q533 8 481 -2Q429 -12 370 -12Q311 -12 253 3Q195 18 148 52.5Q101 87 72 142.5Q43 198 43 279Q43 346 64 400Q85 454 124.5 492Q164 530 222 551Q280 572 354 572Q389 572 432.5 566.5Q476 561 523 549L583 560L566 391H521L507 430Q489 481 451.5 502.5Q414 524 366 524Q313 524 280.5 500.5Q248 477 230.5 443Q213 409 207.5 371Q202 333 202 304ZM276 831H337L484 637L461 617L309 704H307L159 618L132 637Z" glyph-name="Ccircumflex.smcp" horiz-adv-x="631" /><glyph d="M280 875Q280 894 287.5 911Q295 928 307.5 940.5Q320 953 337 960.5Q354 968 373 968Q392 968 409 960.5Q426 953 438.5 940.5Q451 928 458.5 911Q466 894 466 875Q466 856 458.5 839Q451 822 438.5 809.5Q426 797 409 789.5Q392 782 373 782Q354 782 337 789.5Q320 797 307.5 809.5Q295 822 287.5 839Q280 856 280 875ZM211 375Q211 303 229.5 244.5Q248 186 283.5 145Q319 104 369.5 82Q420 60 484 60Q532 60 584 73L651 231H703Q702 206 700 175Q698 149 697 113.5Q696 78 694 36Q628 9 556 -3Q484 -15 422 -15Q352 -15 284 5.5Q216 26 163 69.5Q110 113 77 182Q44 251 44 347Q44 426 71 493Q98 560 148 609.5Q198 659 268 687Q338 715 425 715Q476 715 527 707.5Q578 700 626 687L701 700L680 489H631L614 539Q592 604 546.5 633Q501 662 435 662Q378 662 335.5 638Q293 614 265.5 574.5Q238 535 224.5 483Q211 431 211 375Z" glyph-name="Cdotaccent" horiz-adv-x="751" unicode="&#266;" /><glyph d="M202 304Q202 247 215 199.5Q228 152 253.5 118.5Q279 85 316.5 66.5Q354 48 403 48Q423 48 441.5 50.5Q460 53 479 57L539 190H586Q585 179 584 167Q583 155 582 137Q581 119 579.5 92Q578 65 576 25Q533 8 481 -2Q429 -12 370 -12Q311 -12 253 3Q195 18 148 52.5Q101 87 72 142.5Q43 198 43 279Q43 346 64 400Q85 454 124.5 492Q164 530 222 551Q280 572 354 572Q389 572 432.5 566.5Q476 561 523 549L583 560L566 391H521L507 430Q489 481 451.5 502.5Q414 524 366 524Q313 524 280.5 500.5Q248 477 230.5 443Q213 409 207.5 371Q202 333 202 304ZM218 717Q218 736 225.5 753Q233 770 245.5 782.5Q258 795 275 802.5Q292 810 312 810Q331 810 348 802.5Q365 795 378 782.5Q391 770 398.5 753Q406 736 406 717Q406 698 398.5 681Q391 664 378 651.5Q365 639 348 631.5Q331 624 312 624Q292 624 275 631.5Q258 639 245.5 651.5Q233 664 225.5 681Q218 698 218 717Z" glyph-name="Cdotaccent.smcp" horiz-adv-x="631" /><glyph d="M314 656Q302 656 299.5 652Q297 648 297 640L298 119Q298 93 302.5 77.5Q307 62 319.5 54.5Q332 47 354 45Q376 43 412 43Q453 43 494 53Q535 63 568 94.5Q601 126 621.5 183.5Q642 241 642 337Q642 413 629.5 472.5Q617 532 587.5 572.5Q558 613 509 634Q460 655 386 655Q361 655 346 655.5Q331 656 314 656ZM38 -5V41L89 51Q115 56 125 66Q135 76 136 99Q136 125 137 162Q138 194 138.5 240Q139 286 139 349Q139 411 138.5 457.5Q138 504 137 536Q136 573 136 600Q134 626 124.5 635Q115 644 89 649L38 659V705L184 700Q219 703 261 705Q303 707 342 708Q381 709 411.5 709.5Q442 710 455 710Q546 710 613.5 681Q681 652 725.5 603.5Q770 555 792 491.5Q814 428 814 358Q814 280 790 213Q766 146 717.5 97Q669 48 594.5 20Q520 -8 419 -8Q408 -8 374.5 -7Q341 -6 302 -4.5Q263 -3 229 -2Q195 -1 184 0Z" glyph-name="D" horiz-adv-x="859" unicode="D" /><glyph d="M283 521Q274 521 272 517.5Q270 514 270 508V103Q270 82 272.5 69Q275 56 283.5 49Q292 42 308.5 39.5Q325 37 353 37Q385 37 414.5 44.5Q444 52 466 77Q488 102 501 147.5Q514 193 514 270Q514 331 507.5 378Q501 425 481.5 456.5Q462 488 426 504.5Q390 521 332 521ZM39 -4V35L79 43Q100 48 108 56Q116 64 117 82Q117 102 118 131Q118 156 118.5 192.5Q119 229 119 279Q119 329 118.5 365.5Q118 402 118 427Q117 456 117 477Q115 498 107.5 505Q100 512 79 517L39 525V564L204 560Q260 565 303 566.5Q346 568 394 568Q466 568 519 545Q572 522 607 483Q642 444 659.5 393Q677 342 677 286Q677 224 658 170.5Q639 117 601 78Q563 39 504 16.5Q445 -6 366 -6Q358 -6 327 -5.5Q296 -5 260.5 -4Q225 -3 194 -2Q163 -1 154 0Z" glyph-name="D.smcp" horiz-adv-x="720" /><glyph d="M257 957 284 976 430 889H432L582 977L605 957L460 763H400ZM314 656Q302 656 299.5 652Q297 648 297 640L298 119Q298 93 302.5 77.5Q307 62 319.5 54.5Q332 47 354 45Q376 43 412 43Q453 43 494 53Q535 63 568 94.5Q601 126 621.5 183.5Q642 241 642 337Q642 413 629.5 472.5Q617 532 587.5 572.5Q558 613 509 634Q460 655 386 655Q361 655 346 655.5Q331 656 314 656ZM38 -5V41L89 51Q115 56 125 66Q135 76 136 99Q136 125 137 162Q138 194 138.5 240Q139 286 139 349Q139 411 138.5 457.5Q138 504 137 536Q136 573 136 600Q134 626 124.5 635Q115 644 89 649L38 659V705L184 700Q219 703 261 705Q303 707 342 708Q381 709 411.5 709.5Q442 710 455 710Q546 710 613.5 681Q681 652 725.5 603.5Q770 555 792 491.5Q814 428 814 358Q814 280 790 213Q766 146 717.5 97Q669 48 594.5 20Q520 -8 419 -8Q408 -8 374.5 -7Q341 -6 302 -4.5Q263 -3 229 -2Q195 -1 184 0Z" glyph-name="Dcaron" horiz-adv-x="859" unicode="&#270;" /><glyph d="M184 812 211 831 359 744H361L513 832L536 812L389 618H328ZM283 521Q274 521 272 517.5Q270 514 270 508V103Q270 82 272.5 69Q275 56 283.5 49Q292 42 308.5 39.5Q325 37 353 37Q385 37 414.5 44.5Q444 52 466 77Q488 102 501 147.5Q514 193 514 270Q514 331 507.5 378Q501 425 481.5 456.5Q462 488 426 504.5Q390 521 332 521ZM39 -4V35L79 43Q100 48 108 56Q116 64 117 82Q117 102 118 131Q118 156 118.5 192.5Q119 229 119 279Q119 329 118.5 365.5Q118 402 118 427Q117 456 117 477Q115 498 107.5 505Q100 512 79 517L39 525V564L204 560Q260 565 303 566.5Q346 568 394 568Q466 568 519 545Q572 522 607 483Q642 444 659.5 393Q677 342 677 286Q677 224 658 170.5Q639 117 601 78Q563 39 504 16.5Q445 -6 366 -6Q358 -6 327 -5.5Q296 -5 260.5 -4Q225 -3 194 -2Q163 -1 154 0Z" glyph-name="Dcaron.smcp" horiz-adv-x="720" /><glyph d="M319 656Q307 656 304.5 652Q302 648 302 640V389H480V335H302L303 119Q303 93 307.5 77.5Q312 62 324.5 54.5Q337 47 359 45Q381 43 417 43Q458 43 499 53Q540 63 573 94.5Q606 126 626.5 183.5Q647 241 647 337Q647 413 634.5 472.5Q622 532 592.5 572.5Q563 613 514 634Q465 655 391 655Q366 655 351 655.5Q336 656 319 656ZM43 -5V41L94 51Q120 56 130 66Q140 76 141 99Q141 124 142 159Q143 189 143.5 232.5Q144 276 144 335H38V389H144Q143 440 143 479.5Q143 519 142 546Q141 578 141 600Q139 626 129.5 635Q120 644 94 649L43 659V705L189 700Q224 703 266 705Q308 707 347 708Q386 709 416.5 709.5Q447 710 460 710Q551 710 618.5 681Q686 652 730.5 603.5Q775 555 797 491.5Q819 428 819 358Q819 280 795 213Q771 146 722.5 97Q674 48 599.5 20Q525 -8 424 -8Q413 -8 379.5 -7Q346 -6 307 -4.5Q268 -3 234 -2Q200 -1 189 0Z" glyph-name="Dcroat" horiz-adv-x="864" unicode="&#272;" /><glyph d="M283 521Q274 521 272 517.5Q270 514 270 508V314H392V268H270V103Q270 82 272.5 69Q275 56 283.5 49Q292 42 308.5 39.5Q325 37 353 37Q385 37 414.5 44.5Q444 52 466 77Q488 102 501 147.5Q514 193 514 270Q514 331 507.5 378Q501 425 481.5 456.5Q462 488 426 504.5Q390 521 332 521ZM39 -4V35L79 43Q100 48 108 56Q116 64 117 82Q117 101 118 128Q118 151 118.5 186Q119 221 119 268H19V314H119Q118 354 118 385Q118 416 118 436Q118 460 117 477Q115 498 107.5 505Q100 512 79 517L39 525V564L204 560Q260 565 303 566.5Q346 568 394 568Q466 568 519 545Q572 522 607 483Q642 444 659.5 393Q677 342 677 286Q677 224 658 170.5Q639 117 601 78Q563 39 504 16.5Q445 -6 366 -6Q358 -6 327 -5.5Q296 -5 260.5 -4Q225 -3 194 -2Q163 -1 154 0Z" glyph-name="Dcroat.smcp" horiz-adv-x="719" /><glyph d="M362 650 85 51H638ZM28 47 341 718H503L817 48V0H29Z" glyph-name="Delta" horiz-adv-x="845" unicode="&#8710;" /><glyph d="M297 388H329Q344 388 363.5 388.5Q383 389 404 391Q427 393 438 403.5Q449 414 455 442L468 497H516L511 359L516 227H468L455 282Q448 310 437.5 320.5Q427 331 404 333Q383 334 363.5 335Q344 336 329 336H297V119Q297 87 313.5 71.5Q330 56 367 56H470Q488 56 504.5 58.5Q521 61 536 69Q551 77 565.5 93Q580 109 594 136L632 212H679Q674 170 670 130Q666 96 662 59Q658 22 656 -5Q617 -4 580 -3Q548 -2 515 -1Q482 0 461 0H203L38 -5V41L89 51Q115 56 125.5 66Q136 76 136 99Q136 125 137 162Q138 194 138.5 240Q139 286 139 349Q139 411 138.5 457.5Q138 504 137 536Q136 573 136 600Q134 626 124.5 635Q115 644 89 649L38 659V705L203 700H489Q510 700 536 701.5Q562 703 585 705Q612 708 640 711Q638 692 635 663Q633 638 630 600Q627 562 623 508H574L563 547Q549 594 534 619.5Q519 645 490 645H314Q302 645 299.5 641Q297 637 297 629Z" glyph-name="E" horiz-adv-x="716" unicode="E" /><glyph d="M528 170H570Q567 143 564 114Q562 89 559 58Q556 27 554 -4Q522 -3 493 -2Q468 -1 442 -0.5Q416 0 399 0H179L39 -4V35L79 43Q100 48 108.5 56Q117 64 117 82Q117 102 118 131Q118 156 118.5 192.5Q119 229 119 279Q119 329 118.5 365.5Q118 402 118 427Q117 456 117 477Q115 498 107.5 505Q100 512 79 517L39 525V564L179 560H421Q438 560 458 561Q478 562 496 564Q517 566 539 569Q537 553 535 530Q533 510 531 479.5Q529 449 526 406H483L474 435Q463 473 451.5 493Q440 513 417 513H283Q274 513 272 510Q270 507 270 501V313H293Q304 313 318 313Q332 313 349 315Q366 317 375 325.5Q384 334 389 356L398 400H442L438 287L442 182H398L389 226Q384 248 375.5 256.5Q367 265 349 266Q332 267 318 268Q304 269 293 269H270V98Q270 72 282.5 59.5Q295 47 324 47H401Q415 47 428.5 49Q442 51 454.5 57.5Q467 64 478.5 76.5Q490 89 500 111Z" glyph-name="E.smcp" horiz-adv-x="609" /><glyph d="M342 970H532L337 781L288 787ZM297 388H329Q344 388 363.5 388.5Q383 389 404 391Q427 393 438 403.5Q449 414 455 442L468 497H516L511 359L516 227H468L455 282Q448 310 437.5 320.5Q427 331 404 333Q383 334 363.5 335Q344 336 329 336H297V119Q297 87 313.5 71.5Q330 56 367 56H470Q488 56 504.5 58.5Q521 61 536 69Q551 77 565.5 93Q580 109 594 136L632 212H679Q674 170 670 130Q666 96 662 59Q658 22 656 -5Q617 -4 580 -3Q548 -2 515 -1Q482 0 461 0H203L38 -5V41L89 51Q115 56 125.5 66Q136 76 136 99Q136 125 137 162Q138 194 138.5 240Q139 286 139 349Q139 411 138.5 457.5Q138 504 137 536Q136 573 136 600Q134 626 124.5 635Q115 644 89 649L38 659V705L203 700H489Q510 700 536 701.5Q562 703 585 705Q612 708 640 711Q638 692 635 663Q633 638 630 600Q627 562 623 508H574L563 547Q549 594 534 619.5Q519 645 490 645H314Q302 645 299.5 641Q297 637 297 629Z" glyph-name="Eacute" horiz-adv-x="716" unicode="&#201;" /><glyph d="M528 170H570Q567 143 564 114Q562 89 559 58Q556 27 554 -4Q522 -3 493 -2Q468 -1 442 -0.5Q416 0 399 0H179L39 -4V35L79 43Q100 48 108.5 56Q117 64 117 82Q117 102 118 131Q118 156 118.5 192.5Q119 229 119 279Q119 329 118.5 365.5Q118 402 118 427Q117 456 117 477Q115 498 107.5 505Q100 512 79 517L39 525V564L179 560H421Q438 560 458 561Q478 562 496 564Q517 566 539 569Q537 553 535 530Q533 510 531 479.5Q529 449 526 406H483L474 435Q463 473 451.5 493Q440 513 417 513H283Q274 513 272 510Q270 507 270 501V313H293Q304 313 318 313Q332 313 349 315Q366 317 375 325.5Q384 334 389 356L398 400H442L438 287L442 182H398L389 226Q384 248 375.5 256.5Q367 265 349 266Q332 267 318 268Q304 269 293 269H270V98Q270 72 282.5 59.5Q295 47 324 47H401Q415 47 428.5 49Q442 51 454.5 57.5Q467 64 478.5 76.5Q490 89 500 111ZM295 829H485L288 640L239 646Z" glyph-name="Eacute.smcp" horiz-adv-x="609" /><glyph d="M357 891Q392 891 412.5 898.5Q433 906 443.5 918.5Q454 931 457 947Q460 963 460 980V985H511V945Q511 908 501 877Q491 846 471.5 823.5Q452 801 423 788.5Q394 776 357 776Q320 776 291.5 788.5Q263 801 243.5 823.5Q224 846 214 877Q204 908 204 945V985H255V980Q255 963 258 947Q261 931 271.5 918.5Q282 906 302 898.5Q322 891 357 891ZM297 388H329Q344 388 363.5 388.5Q383 389 404 391Q427 393 438 403.5Q449 414 455 442L468 497H516L511 359L516 227H468L455 282Q448 310 437.5 320.5Q427 331 404 333Q383 334 363.5 335Q344 336 329 336H297V119Q297 87 313.5 71.5Q330 56 367 56H470Q488 56 504.5 58.5Q521 61 536 69Q551 77 565.5 93Q580 109 594 136L632 212H679Q674 170 670 130Q666 96 662 59Q658 22 656 -5Q617 -4 580 -3Q548 -2 515 -1Q482 0 461 0H203L38 -5V41L89 51Q115 56 125.5 66Q136 76 136 99Q136 125 137 162Q138 194 138.5 240Q139 286 139 349Q139 411 138.5 457.5Q138 504 137 536Q136 573 136 600Q134 626 124.5 635Q115 644 89 649L38 659V705L203 700H489Q510 700 536 701.5Q562 703 585 705Q612 708 640 711Q638 692 635 663Q633 638 630 600Q627 562 623 508H574L563 547Q549 594 534 619.5Q519 645 490 645H314Q302 645 299.5 641Q297 637 297 629Z" glyph-name="Ebreve" horiz-adv-x="716" unicode="&#276;" /><glyph d="M528 170H570Q567 143 564 114Q562 89 559 58Q556 27 554 -4Q522 -3 493 -2Q468 -1 442 -0.5Q416 0 399 0H179L39 -4V35L79 43Q100 48 108.5 56Q117 64 117 82Q117 102 118 131Q118 156 118.5 192.5Q119 229 119 279Q119 329 118.5 365.5Q118 402 118 427Q117 456 117 477Q115 498 107.5 505Q100 512 79 517L39 525V564L179 560H421Q438 560 458 561Q478 562 496 564Q517 566 539 569Q537 553 535 530Q533 510 531 479.5Q529 449 526 406H483L474 435Q463 473 451.5 493Q440 513 417 513H283Q274 513 272 510Q270 507 270 501V313H293Q304 313 318 313Q332 313 349 315Q366 317 375 325.5Q384 334 389 356L398 400H442L438 287L442 182H398L389 226Q384 248 375.5 256.5Q367 265 349 266Q332 267 318 268Q304 269 293 269H270V98Q270 72 282.5 59.5Q295 47 324 47H401Q415 47 428.5 49Q442 51 454.5 57.5Q467 64 478.5 76.5Q490 89 500 111ZM313 746Q348 746 369 753.5Q390 761 400.5 773.5Q411 786 414 802Q417 818 417 835V840H469V800Q469 763 459 732Q449 701 429 678.5Q409 656 380 643.5Q351 631 313 631Q275 631 246.5 643.5Q218 656 198 678.5Q178 701 168 732Q158 763 158 800V840H209V835Q209 818 212 802Q215 786 225.5 773.5Q236 761 257 753.5Q278 746 313 746Z" glyph-name="Ebreve.smcp" horiz-adv-x="609" /><glyph d="M183 957 210 976 356 889H358L508 977L531 957L386 763H326ZM297 388H329Q344 388 363.5 388.5Q383 389 404 391Q427 393 438 403.5Q449 414 455 442L468 497H516L511 359L516 227H468L455 282Q448 310 437.5 320.5Q427 331 404 333Q383 334 363.5 335Q344 336 329 336H297V119Q297 87 313.5 71.5Q330 56 367 56H470Q488 56 504.5 58.5Q521 61 536 69Q551 77 565.5 93Q580 109 594 136L632 212H679Q674 170 670 130Q666 96 662 59Q658 22 656 -5Q617 -4 580 -3Q548 -2 515 -1Q482 0 461 0H203L38 -5V41L89 51Q115 56 125.5 66Q136 76 136 99Q136 125 137 162Q138 194 138.5 240Q139 286 139 349Q139 411 138.5 457.5Q138 504 137 536Q136 573 136 600Q134 626 124.5 635Q115 644 89 649L38 659V705L203 700H489Q510 700 536 701.5Q562 703 585 705Q612 708 640 711Q638 692 635 663Q633 638 630 600Q627 562 623 508H574L563 547Q549 594 534 619.5Q519 645 490 645H314Q302 645 299.5 641Q297 637 297 629Z" glyph-name="Ecaron" horiz-adv-x="716" unicode="&#282;" /><glyph d="M528 170H570Q567 143 564 114Q562 89 559 58Q556 27 554 -4Q522 -3 493 -2Q468 -1 442 -0.5Q416 0 399 0H179L39 -4V35L79 43Q100 48 108.5 56Q117 64 117 82Q117 102 118 131Q118 156 118.5 192.5Q119 229 119 279Q119 329 118.5 365.5Q118 402 118 427Q117 456 117 477Q115 498 107.5 505Q100 512 79 517L39 525V564L179 560H421Q438 560 458 561Q478 562 496 564Q517 566 539 569Q537 553 535 530Q533 510 531 479.5Q529 449 526 406H483L474 435Q463 473 451.5 493Q440 513 417 513H283Q274 513 272 510Q270 507 270 501V313H293Q304 313 318 313Q332 313 349 315Q366 317 375 325.5Q384 334 389 356L398 400H442L438 287L442 182H398L389 226Q384 248 375.5 256.5Q367 265 349 266Q332 267 318 268Q304 269 293 269H270V98Q270 72 282.5 59.5Q295 47 324 47H401Q415 47 428.5 49Q442 51 454.5 57.5Q467 64 478.5 76.5Q490 89 500 111ZM125 812 152 831 300 744H302L454 832L477 812L330 618H269Z" glyph-name="Ecaron.smcp" horiz-adv-x="609" /><glyph d="M326 976H386L531 782L508 762L358 849H356L210 763L183 782ZM297 388H329Q344 388 363.5 388.5Q383 389 404 391Q427 393 438 403.5Q449 414 455 442L468 497H516L511 359L516 227H468L455 282Q448 310 437.5 320.5Q427 331 404 333Q383 334 363.5 335Q344 336 329 336H297V119Q297 87 313.5 71.5Q330 56 367 56H470Q488 56 504.5 58.5Q521 61 536 69Q551 77 565.5 93Q580 109 594 136L632 212H679Q674 170 670 130Q666 96 662 59Q658 22 656 -5Q617 -4 580 -3Q548 -2 515 -1Q482 0 461 0H203L38 -5V41L89 51Q115 56 125.5 66Q136 76 136 99Q136 125 137 162Q138 194 138.5 240Q139 286 139 349Q139 411 138.5 457.5Q138 504 137 536Q136 573 136 600Q134 626 124.5 635Q115 644 89 649L38 659V705L203 700H489Q510 700 536 701.5Q562 703 585 705Q612 708 640 711Q638 692 635 663Q633 638 630 600Q627 562 623 508H574L563 547Q549 594 534 619.5Q519 645 490 645H314Q302 645 299.5 641Q297 637 297 629Z" glyph-name="Ecircumflex" horiz-adv-x="716" unicode="&#202;" /><glyph d="M528 170H570Q567 143 564 114Q562 89 559 58Q556 27 554 -4Q522 -3 493 -2Q468 -1 442 -0.5Q416 0 399 0H179L39 -4V35L79 43Q100 48 108.5 56Q117 64 117 82Q117 102 118 131Q118 156 118.5 192.5Q119 229 119 279Q119 329 118.5 365.5Q118 402 118 427Q117 456 117 477Q115 498 107.5 505Q100 512 79 517L39 525V564L179 560H421Q438 560 458 561Q478 562 496 564Q517 566 539 569Q537 553 535 530Q533 510 531 479.5Q529 449 526 406H483L474 435Q463 473 451.5 493Q440 513 417 513H283Q274 513 272 510Q270 507 270 501V313H293Q304 313 318 313Q332 313 349 315Q366 317 375 325.5Q384 334 389 356L398 400H442L438 287L442 182H398L389 226Q384 248 375.5 256.5Q367 265 349 266Q332 267 318 268Q304 269 293 269H270V98Q270 72 282.5 59.5Q295 47 324 47H401Q415 47 428.5 49Q442 51 454.5 57.5Q467 64 478.5 76.5Q490 89 500 111ZM263 835H324L471 641L448 621L296 708H294L146 622L119 641Z" glyph-name="Ecircumflex.smcp" horiz-adv-x="609" /><glyph d="M376 857Q376 892 399.5 916Q423 940 458 940Q493 940 517 916Q541 892 541 857Q541 822 517 798Q493 774 458 774Q423 774 399.5 798Q376 822 376 857ZM173 857Q173 892 196.5 916Q220 940 255 940Q292 940 315.5 916Q339 892 339 857Q339 822 315.5 798Q292 774 255 774Q220 774 196.5 798Q173 822 173 857ZM297 388H329Q344 388 363.5 388.5Q383 389 404 391Q427 393 438 403.5Q449 414 455 442L468 497H516L511 359L516 227H468L455 282Q448 310 437.5 320.5Q427 331 404 333Q383 334 363.5 335Q344 336 329 336H297V119Q297 87 313.5 71.5Q330 56 367 56H470Q488 56 504.5 58.5Q521 61 536 69Q551 77 565.5 93Q580 109 594 136L632 212H679Q674 170 670 130Q666 96 662 59Q658 22 656 -5Q617 -4 580 -3Q548 -2 515 -1Q482 0 461 0H203L38 -5V41L89 51Q115 56 125.5 66Q136 76 136 99Q136 125 137 162Q138 194 138.5 240Q139 286 139 349Q139 411 138.5 457.5Q138 504 137 536Q136 573 136 600Q134 626 124.5 635Q115 644 89 649L38 659V705L203 700H489Q510 700 536 701.5Q562 703 585 705Q612 708 640 711Q638 692 635 663Q633 638 630 600Q627 562 623 508H574L563 547Q549 594 534 619.5Q519 645 490 645H314Q302 645 299.5 641Q297 637 297 629Z" glyph-name="Edieresis" horiz-adv-x="716" unicode="&#203;" /><glyph d="M528 170H570Q567 143 564 114Q562 89 559 58Q556 27 554 -4Q522 -3 493 -2Q468 -1 442 -0.5Q416 0 399 0H179L39 -4V35L79 43Q100 48 108.5 56Q117 64 117 82Q117 102 118 131Q118 156 118.5 192.5Q119 229 119 279Q119 329 118.5 365.5Q118 402 118 427Q117 456 117 477Q115 498 107.5 505Q100 512 79 517L39 525V564L179 560H421Q438 560 458 561Q478 562 496 564Q517 566 539 569Q537 553 535 530Q533 510 531 479.5Q529 449 526 406H483L474 435Q463 473 451.5 493Q440 513 417 513H283Q274 513 272 510Q270 507 270 501V313H293Q304 313 318 313Q332 313 349 315Q366 317 375 325.5Q384 334 389 356L398 400H442L438 287L442 182H398L389 226Q384 248 375.5 256.5Q367 265 349 266Q332 267 318 268Q304 269 293 269H270V98Q270 72 282.5 59.5Q295 47 324 47H401Q415 47 428.5 49Q442 51 454.5 57.5Q467 64 478.5 76.5Q490 89 500 111ZM325 716Q325 751 349 775Q373 799 408 799Q443 799 467 775Q491 751 491 716Q491 681 467 657Q443 633 408 633Q373 633 349 657Q325 681 325 716ZM119 716Q119 751 143 775Q167 799 202 799Q237 799 261 775Q285 751 285 716Q285 681 261 657Q237 633 202 633Q167 633 143 657Q119 681 119 716Z" glyph-name="Edieresis.smcp" horiz-adv-x="609" /><glyph d="M264 875Q264 894 271.5 911Q279 928 291.5 940.5Q304 953 321 960.5Q338 968 357 968Q376 968 393 960.5Q410 953 422.5 940.5Q435 928 442.5 911Q450 894 450 875Q450 856 442.5 839Q435 822 422.5 809.5Q410 797 393 789.5Q376 782 357 782Q338 782 321 789.5Q304 797 291.5 809.5Q279 822 271.5 839Q264 856 264 875ZM297 388H329Q344 388 363.5 388.5Q383 389 404 391Q427 393 438 403.5Q449 414 455 442L468 497H516L511 359L516 227H468L455 282Q448 310 437.5 320.5Q427 331 404 333Q383 334 363.5 335Q344 336 329 336H297V119Q297 87 313.5 71.5Q330 56 367 56H470Q488 56 504.5 58.5Q521 61 536 69Q551 77 565.5 93Q580 109 594 136L632 212H679Q674 170 670 130Q666 96 662 59Q658 22 656 -5Q617 -4 580 -3Q548 -2 515 -1Q482 0 461 0H203L38 -5V41L89 51Q115 56 125.5 66Q136 76 136 99Q136 125 137 162Q138 194 138.5 240Q139 286 139 349Q139 411 138.5 457.5Q138 504 137 536Q136 573 136 600Q134 626 124.5 635Q115 644 89 649L38 659V705L203 700H489Q510 700 536 701.5Q562 703 585 705Q612 708 640 711Q638 692 635 663Q633 638 630 600Q627 562 623 508H574L563 547Q549 594 534 619.5Q519 645 490 645H314Q302 645 299.5 641Q297 637 297 629Z" glyph-name="Edotaccent" horiz-adv-x="716" unicode="&#278;" /><glyph d="M528 170H570Q567 143 564 114Q562 89 559 58Q556 27 554 -4Q522 -3 493 -2Q468 -1 442 -0.5Q416 0 399 0H179L39 -4V35L79 43Q100 48 108.5 56Q117 64 117 82Q117 102 118 131Q118 156 118.5 192.5Q119 229 119 279Q119 329 118.5 365.5Q118 402 118 427Q117 456 117 477Q115 498 107.5 505Q100 512 79 517L39 525V564L179 560H421Q438 560 458 561Q478 562 496 564Q517 566 539 569Q537 553 535 530Q533 510 531 479.5Q529 449 526 406H483L474 435Q463 473 451.5 493Q440 513 417 513H283Q274 513 272 510Q270 507 270 501V313H293Q304 313 318 313Q332 313 349 315Q366 317 375 325.5Q384 334 389 356L398 400H442L438 287L442 182H398L389 226Q384 248 375.5 256.5Q367 265 349 266Q332 267 318 268Q304 269 293 269H270V98Q270 72 282.5 59.5Q295 47 324 47H401Q415 47 428.5 49Q442 51 454.5 57.5Q467 64 478.5 76.5Q490 89 500 111ZM208 717Q208 736 215.5 753Q223 770 235.5 782.5Q248 795 265 802.5Q282 810 302 810Q321 810 338 802.5Q355 795 368 782.5Q381 770 388.5 753Q396 736 396 717Q396 698 388.5 681Q381 664 368 651.5Q355 639 338 631.5Q321 624 302 624Q282 624 265 631.5Q248 639 235.5 651.5Q223 664 215.5 681Q208 698 208 717Z" glyph-name="Edotaccent.smcp" horiz-adv-x="609" /><glyph d="M474 787 425 781 230 970H420ZM297 388H329Q344 388 363.5 388.5Q383 389 404 391Q427 393 438 403.5Q449 414 455 442L468 497H516L511 359L516 227H468L455 282Q448 310 437.5 320.5Q427 331 404 333Q383 334 363.5 335Q344 336 329 336H297V119Q297 87 313.5 71.5Q330 56 367 56H470Q488 56 504.5 58.5Q521 61 536 69Q551 77 565.5 93Q580 109 594 136L632 212H679Q674 170 670 130Q666 96 662 59Q658 22 656 -5Q617 -4 580 -3Q548 -2 515 -1Q482 0 461 0H203L38 -5V41L89 51Q115 56 125.5 66Q136 76 136 99Q136 125 137 162Q138 194 138.5 240Q139 286 139 349Q139 411 138.5 457.5Q138 504 137 536Q136 573 136 600Q134 626 124.5 635Q115 644 89 649L38 659V705L203 700H489Q510 700 536 701.5Q562 703 585 705Q612 708 640 711Q638 692 635 663Q633 638 630 600Q627 562 623 508H574L563 547Q549 594 534 619.5Q519 645 490 645H314Q302 645 299.5 641Q297 637 297 629Z" glyph-name="Egrave" horiz-adv-x="716" unicode="&#200;" /><glyph d="M528 170H570Q567 143 564 114Q562 89 559 58Q556 27 554 -4Q522 -3 493 -2Q468 -1 442 -0.5Q416 0 399 0H179L39 -4V35L79 43Q100 48 108.5 56Q117 64 117 82Q117 102 118 131Q118 156 118.5 192.5Q119 229 119 279Q119 329 118.5 365.5Q118 402 118 427Q117 456 117 477Q115 498 107.5 505Q100 512 79 517L39 525V564L179 560H421Q438 560 458 561Q478 562 496 564Q517 566 539 569Q537 553 535 530Q533 510 531 479.5Q529 449 526 406H483L474 435Q463 473 451.5 493Q440 513 417 513H283Q274 513 272 510Q270 507 270 501V313H293Q304 313 318 313Q332 313 349 315Q366 317 375 325.5Q384 334 389 356L398 400H442L438 287L442 182H398L389 226Q384 248 375.5 256.5Q367 265 349 266Q332 267 318 268Q304 269 293 269H270V98Q270 72 282.5 59.5Q295 47 324 47H401Q415 47 428.5 49Q442 51 454.5 57.5Q467 64 478.5 76.5Q490 89 500 111ZM421 646 371 640 174 829H364Z" glyph-name="Egrave.smcp" horiz-adv-x="609" /><glyph d="M199 793V869H518V793ZM297 388H329Q344 388 363.5 388.5Q383 389 404 391Q427 393 438 403.5Q449 414 455 442L468 497H516L511 359L516 227H468L455 282Q448 310 437.5 320.5Q427 331 404 333Q383 334 363.5 335Q344 336 329 336H297V119Q297 87 313.5 71.5Q330 56 367 56H470Q488 56 504.5 58.5Q521 61 536 69Q551 77 565.5 93Q580 109 594 136L632 212H679Q674 170 670 130Q666 96 662 59Q658 22 656 -5Q617 -4 580 -3Q548 -2 515 -1Q482 0 461 0H203L38 -5V41L89 51Q115 56 125.5 66Q136 76 136 99Q136 125 137 162Q138 194 138.5 240Q139 286 139 349Q139 411 138.5 457.5Q138 504 137 536Q136 573 136 600Q134 626 124.5 635Q115 644 89 649L38 659V705L203 700H489Q510 700 536 701.5Q562 703 585 705Q612 708 640 711Q638 692 635 663Q633 638 630 600Q627 562 623 508H574L563 547Q549 594 534 619.5Q519 645 490 645H314Q302 645 299.5 641Q297 637 297 629Z" glyph-name="Emacron" horiz-adv-x="716" unicode="&#274;" /><glyph d="M528 170H570Q567 143 564 114Q562 89 559 58Q556 27 554 -4Q522 -3 493 -2Q468 -1 442 -0.5Q416 0 399 0H179L39 -4V35L79 43Q100 48 108.5 56Q117 64 117 82Q117 102 118 131Q118 156 118.5 192.5Q119 229 119 279Q119 329 118.5 365.5Q118 402 118 427Q117 456 117 477Q115 498 107.5 505Q100 512 79 517L39 525V564L179 560H421Q438 560 458 561Q478 562 496 564Q517 566 539 569Q537 553 535 530Q533 510 531 479.5Q529 449 526 406H483L474 435Q463 473 451.5 493Q440 513 417 513H283Q274 513 272 510Q270 507 270 501V313H293Q304 313 318 313Q332 313 349 315Q366 317 375 325.5Q384 334 389 356L398 400H442L438 287L442 182H398L389 226Q384 248 375.5 256.5Q367 265 349 266Q332 267 318 268Q304 269 293 269H270V98Q270 72 282.5 59.5Q295 47 324 47H401Q415 47 428.5 49Q442 51 454.5 57.5Q467 64 478.5 76.5Q490 89 500 111ZM140 648V724H463V648Z" glyph-name="Emacron.smcp" horiz-adv-x="609" /><glyph d="M140 600Q140 623 130.5 633.5Q121 644 95 649L46 659V705L187 700L340 705Q345 690 352 674Q358 660 367 644Q376 628 387 613L708 174L702 600Q701 624 691.5 634Q682 644 656 649L604 659V705L736 700L864 705V659L813 649Q786 644 776 634Q766 624 766 600Q765 479 764 361Q764 311 763 256.5Q762 202 761.5 148Q761 94 760 42.5Q759 -9 759 -52Q757 -148 689 -196Q621 -244 487 -242L471 -197Q501 -190 524.5 -183Q548 -176 564 -161Q580 -146 588.5 -119.5Q597 -93 597 -47V66Q510 184 436.5 284.5Q363 385 309 458Q246 543 193 613V406Q193 364 193 320Q193 276 193.5 235.5Q194 195 194 159.5Q194 124 194 99Q194 76 204 66Q214 56 240 51L292 41V-5L160 0L33 -5V41L84 51Q111 56 120.5 66Q130 76 131 99Q134 162 135.5 222.5Q137 283 138 343.5Q139 404 139.5 467.5Q140 531 140 600Z" glyph-name="Eng" horiz-adv-x="890" unicode="&#330;" /><glyph d="M121 477Q121 496 112.5 504Q104 512 84 517L45 525V564L165 560L311 564Q314 552 319 539Q324 528 331 514Q338 500 349 485L597 145Q596 220 595 285Q595 313 594.5 341.5Q594 370 593.5 395.5Q593 421 593 442.5Q593 464 593 477Q593 497 585.5 504.5Q578 512 557 517L516 525V564L622 560L724 564V525L683 517Q661 512 653.5 504.5Q646 497 646 477Q644 384 643 295Q642 257 641.5 216.5Q641 176 640.5 136.5Q640 97 640 61Q640 25 640 -4Q640 -47 629.5 -81.5Q619 -116 593.5 -140Q568 -164 526.5 -177Q485 -190 423 -190Q417 -190 410.5 -189.5Q404 -189 397 -189L384 -151Q398 -148 410.5 -145.5Q423 -143 434 -140Q465 -131 479.5 -112.5Q494 -94 494 -47V49Q426 141 367 220.5Q308 300 263 360Q211 430 167 488V325Q167 292 167 257.5Q167 223 167.5 190.5Q168 158 168 130Q168 102 168 82Q168 63 176 55.5Q184 48 204 43L246 35V-4L142 0L35 -4V35L75 43Q97 48 104.5 55.5Q112 63 113 82Q113 94 114 121.5Q115 149 115.5 184.5Q116 220 117 261Q118 302 119 341.5Q120 381 120.5 416.5Q121 452 121 477Z" glyph-name="Eng.smcp" horiz-adv-x="753" /><glyph d="M297 388H329Q344 388 363.5 388.5Q383 389 404 391Q427 393 438 403.5Q449 414 455 442L468 497H516L511 359L516 227H468L455 282Q448 310 437.5 320.5Q427 331 404 333Q383 334 363.5 335Q344 336 329 336H297V119Q297 87 313.5 71.5Q330 56 367 56H470Q488 56 504.5 58.5Q521 61 536 69Q551 77 565.5 93Q580 109 594 136L632 212H679Q674 170 670 130Q666 96 662 59Q658 22 656 -5Q650 -4 643 -4Q637 -4 628 -4Q619 -4 609 -3Q597 -15 584 -28.5Q571 -42 560.5 -58.5Q550 -75 543.5 -94.5Q537 -114 537 -138Q537 -183 564.5 -203.5Q592 -224 644 -224Q652 -224 660.5 -223.5Q669 -223 679 -222L660 -256Q648 -260 633 -263Q618 -266 602 -268Q586 -270 571.5 -271Q557 -272 547 -272Q519 -272 494.5 -265Q470 -258 451.5 -244.5Q433 -231 422 -210Q411 -189 411 -162Q411 -137 421.5 -113Q432 -89 451 -68.5Q470 -48 495 -30.5Q520 -13 549 -1Q524 0 500.5 0Q477 0 461 0H203L38 -5V41L89 51Q115 56 125.5 66Q136 76 136 99Q136 125 137 162Q138 194 138.5 240Q139 286 139 349Q139 411 138.5 457.5Q138 504 137 536Q136 573 136 600Q134 626 124.5 635Q115 644 89 649L38 659V705L203 700H489Q510 700 536 701.5Q562 703 585 705Q612 708 640 711Q638 692 635 663Q633 638 630 600Q627 562 623 508H574L563 547Q549 594 534 619.5Q519 645 490 645H314Q302 645 299.5 641Q297 637 297 629Z" glyph-name="Eogonek" horiz-adv-x="716" unicode="&#280;" /><glyph d="M528 170H570Q567 143 564 114Q562 89 559 58Q556 27 554 -4Q547 -3 539 -3Q532 -3 523 -3Q514 -3 504 -2Q491 -14 478 -27.5Q465 -41 454 -57.5Q443 -74 436 -94Q429 -114 429 -138Q429 -183 457 -203.5Q485 -224 537 -224Q545 -224 554 -223.5Q563 -223 573 -222L553 -256Q541 -260 526 -263Q511 -266 495 -268Q479 -270 464.5 -271Q450 -272 440 -272Q412 -272 387 -265Q362 -258 343.5 -244.5Q325 -231 314 -210Q303 -189 303 -162Q303 -136 314 -112Q325 -88 344 -67.5Q363 -47 388.5 -29.5Q414 -12 444 0H399H179L39 -4V35L79 43Q100 48 108.5 56Q117 64 117 82Q117 102 118 131Q118 156 118.5 192.5Q119 229 119 279Q119 329 118.5 365.5Q118 402 118 427Q117 456 117 477Q115 498 107.5 505Q100 512 79 517L39 525V564L179 560H421Q438 560 458 561Q478 562 496 564Q517 566 539 569Q537 553 535 530Q533 510 531 479.5Q529 449 526 406H483L474 435Q463 473 451.5 493Q440 513 417 513H283Q274 513 272 510Q270 507 270 501V313H293Q304 313 318 313Q332 313 349 315Q366 317 375 325.5Q384 334 389 356L398 400H442L438 287L442 182H398L389 226Q384 248 375.5 256.5Q367 265 349 266Q332 267 318 268Q304 269 293 269H270V98Q270 72 282.5 59.5Q295 47 324 47H401Q415 47 428.5 49Q442 51 454.5 57.5Q467 64 478.5 76.5Q490 89 500 111Z" glyph-name="Eogonek.smcp" horiz-adv-x="609" /><glyph d="M319 656Q307 656 304.5 652Q302 648 302 640V389H480V335H302L303 119Q303 93 307.5 77.5Q312 62 324.5 54.5Q337 47 359 45Q381 43 417 43Q458 43 499 53Q540 63 573 94.5Q606 126 626.5 183.5Q647 241 647 337Q647 413 634.5 472.5Q622 532 592.5 572.5Q563 613 514 634Q465 655 391 655Q366 655 351 655.5Q336 656 319 656ZM43 -5V41L94 51Q120 56 130 66Q140 76 141 99Q141 124 142 159Q143 189 143.5 232.5Q144 276 144 335H38V389H144Q143 440 143 479.5Q143 519 142 546Q141 578 141 600Q139 626 129.5 635Q120 644 94 649L43 659V705L189 700Q224 703 266 705Q308 707 347 708Q386 709 416.5 709.5Q447 710 460 710Q551 710 618.5 681Q686 652 730.5 603.5Q775 555 797 491.5Q819 428 819 358Q819 280 795 213Q771 146 722.5 97Q674 48 599.5 20Q525 -8 424 -8Q413 -8 379.5 -7Q346 -6 307 -4.5Q268 -3 234 -2Q200 -1 189 0Z" glyph-name="Eth" horiz-adv-x="864" unicode="&#208;" /><glyph d="M283 521Q274 521 272 517.5Q270 514 270 508V314H392V268H270V103Q270 82 272.5 69Q275 56 283.5 49Q292 42 308.5 39.5Q325 37 353 37Q385 37 414.5 44.5Q444 52 466 77Q488 102 501 147.5Q514 193 514 270Q514 331 507.5 378Q501 425 481.5 456.5Q462 488 426 504.5Q390 521 332 521ZM39 -4V35L79 43Q100 48 108 56Q116 64 117 82Q117 101 118 128Q118 151 118.5 186Q119 221 119 268H19V314H119Q118 354 118 385Q118 416 118 436Q118 460 117 477Q115 498 107.5 505Q100 512 79 517L39 525V564L204 560Q260 565 303 566.5Q346 568 394 568Q466 568 519 545Q572 522 607 483Q642 444 659.5 393Q677 342 677 286Q677 224 658 170.5Q639 117 601 78Q563 39 504 16.5Q445 -6 366 -6Q358 -6 327 -5.5Q296 -5 260.5 -4Q225 -3 194 -2Q163 -1 154 0Z" glyph-name="Eth.smcp" horiz-adv-x="719" /><glyph d="M65 454Q74 507 97 554.5Q120 602 156.5 637.5Q193 673 243 694Q293 715 356 715Q386 715 412.5 711Q439 707 460 701Q481 695 495.5 688.5Q510 682 517 677L572 702V482H528L525 499Q511 583 478.5 624.5Q446 666 372 666Q312 666 272.5 617.5Q233 569 222 454H417V405H220Q219 396 218.5 386.5Q218 377 218 368Q218 352 219 336Q220 320 221 304H417V255H225Q255 63 398 63Q448 63 489.5 91Q531 119 551 182L595 168Q586 123 563 88.5Q540 54 507 31Q474 8 434.5 -3.5Q395 -15 354 -15Q295 -15 244.5 4Q194 23 156 58Q118 93 93 143Q68 193 60 255H-8V304H56Q54 314 54 325Q54 336 54 347Q54 373 57 405H-8V454Z" glyph-name="Euro" horiz-adv-x="590" unicode="&#8364;" /><glyph d="M59 363Q66 402 84.5 439.5Q103 477 133 506.5Q163 536 205 554Q247 572 301 572Q353 572 389.5 560.5Q426 549 437 541L482 562V395L441 393L437 417Q429 468 401.5 498Q374 528 318 528Q270 528 240.5 490Q211 452 203 363H350V319H202Q201 314 201 309Q200 304 200 297Q200 290 200 281Q200 273 200 266Q200 259 201 254Q201 248 202 243H350V199H205Q216 129 249 91.5Q282 54 345 54Q390 54 417.5 78.5Q445 103 456 136L496 124Q490 88 470.5 62Q451 36 424 19.5Q397 3 364.5 -4.5Q332 -12 299 -12Q252 -12 210.5 1.5Q169 15 137 41.5Q105 68 83.5 107.5Q62 147 55 199H2V243H52Q51 252 50.5 261Q50 270 50 278Q50 298 53 319H2V363Z" glyph-name="Euro.smcp" horiz-adv-x="500" /><glyph d="M38 -5V41L89 51Q115 56 125 66Q135 76 136 99Q136 125 137 162Q138 194 138.5 240Q139 286 139 349Q139 411 138.5 457.5Q138 504 137 536Q136 573 136 600Q134 626 124.5 635Q115 644 89 649L38 659V705L222 700H498Q519 700 547 701.5Q575 703 600 705Q629 708 659 711Q657 692 654 663Q652 638 649 600Q646 562 642 508H593L581 557Q569 605 553.5 625Q538 645 509 645H314Q302 645 299.5 641Q297 637 297 629V368H334Q351 368 371.5 368.5Q392 369 413 371Q436 373 447 383.5Q458 394 464 422L477 477H525L520 339L525 207H477L464 262Q457 290 446.5 300.5Q436 311 413 313Q392 314 371.5 315Q351 316 334 316H297L298 99Q298 76 308 66Q318 56 344 51L406 41V-5L222 0Z" glyph-name="F" horiz-adv-x="683" unicode="F" /><glyph d="M39 -4V35L79 43Q100 48 108 56Q116 64 117 82Q117 102 118 131Q118 156 118.5 192.5Q119 229 119 279Q119 329 118.5 365.5Q118 402 118 427Q117 456 117 477Q115 498 107.5 505Q100 512 79 517L39 525V564L203 560H426Q443 560 465 561Q487 562 507 564Q531 566 555 569Q553 553 551 530Q549 510 547 479.5Q545 449 542 406H497L488 446Q479 484 467 498.5Q455 513 432 513H283Q274 513 272 510Q270 507 270 501V297H293Q304 297 318 297Q332 297 349 299Q367 301 375.5 309.5Q384 318 389 340L399 384H442L438 271L442 166H399L389 210Q384 232 375.5 240.5Q367 249 349 250Q332 251 318 252Q304 253 293 253H270V82Q270 64 278.5 55.5Q287 47 307 43L356 35V-4L194 0Z" glyph-name="F.smcp" horiz-adv-x="581" /><glyph d="M585 218Q585 242 575 250Q565 258 538 263L478 273V321L661 316L827 321V273L795 263Q769 255 758.5 246.5Q748 238 748 214V43Q699 26 649 14Q605 3 553.5 -6Q502 -15 453 -15Q371 -15 308.5 1.5Q246 18 200.5 46Q155 74 124.5 111Q94 148 76 188.5Q58 229 50.5 270.5Q43 312 43 349Q43 439 78 507.5Q113 576 170.5 622Q228 668 301.5 691.5Q375 715 453 715Q536 715 587.5 705Q639 695 664 687L740 703L719 489H670L638 613Q637 616 624.5 623.5Q612 631 590.5 638.5Q569 646 539 652Q509 658 474 658Q348 658 278.5 580.5Q209 503 209 366Q209 316 222.5 260.5Q236 205 269 158Q302 111 358 80Q414 49 498 49Q513 49 528.5 49.5Q544 50 556.5 53Q569 56 577 61.5Q585 67 585 78Z" glyph-name="G" horiz-adv-x="846" unicode="G" /><glyph d="M468 174Q468 193 459.5 198.5Q451 204 430 208L383 216V257L534 253L684 257V216L659 208Q639 201 630.5 194.5Q622 188 622 169V34Q621 34 598 27Q575 20 540 11Q505 2 461.5 -5Q418 -12 376 -12Q275 -12 210.5 17Q146 46 108.5 89.5Q71 133 57 184Q43 235 43 280Q43 354 73 409Q103 464 150.5 500Q198 536 257 554Q316 572 373 572Q458 572 500.5 562.5Q543 553 554 549L615 563L595 386H549L531 468Q519 521 405 521Q353 521 314 504.5Q275 488 249.5 458Q224 428 211.5 386Q199 344 199 293Q199 259 208 216Q217 173 241 135Q265 97 306.5 71Q348 45 413 45Q436 45 452 46.5Q468 48 468 65Z" glyph-name="G.smcp" horiz-adv-x="707" /><glyph d="M410 891Q445 891 465.5 898.5Q486 906 496.5 918.5Q507 931 510 947Q513 963 513 980V985H564V945Q564 908 554 877Q544 846 524.5 823.5Q505 801 476 788.5Q447 776 410 776Q373 776 344.5 788.5Q316 801 296.5 823.5Q277 846 267 877Q257 908 257 945V985H308V980Q308 963 311 947Q314 931 324.5 918.5Q335 906 355 898.5Q375 891 410 891ZM585 218Q585 242 575 250Q565 258 538 263L478 273V321L661 316L827 321V273L795 263Q769 255 758.5 246.5Q748 238 748 214V43Q699 26 649 14Q605 3 553.5 -6Q502 -15 453 -15Q371 -15 308.5 1.5Q246 18 200.5 46Q155 74 124.5 111Q94 148 76 188.5Q58 229 50.5 270.5Q43 312 43 349Q43 439 78 507.5Q113 576 170.5 622Q228 668 301.5 691.5Q375 715 453 715Q536 715 587.5 705Q639 695 664 687L740 703L719 489H670L638 613Q637 616 624.5 623.5Q612 631 590.5 638.5Q569 646 539 652Q509 658 474 658Q348 658 278.5 580.5Q209 503 209 366Q209 316 222.5 260.5Q236 205 269 158Q302 111 358 80Q414 49 498 49Q513 49 528.5 49.5Q544 50 556.5 53Q569 56 577 61.5Q585 67 585 78Z" glyph-name="Gbreve" horiz-adv-x="846" unicode="&#286;" /><glyph d="M341 746Q376 746 397 753.5Q418 761 428.5 773.5Q439 786 442 802Q445 818 445 835V840H497V800Q497 763 487 732Q477 701 457 678.5Q437 656 408 643.5Q379 631 341 631Q303 631 274.5 643.5Q246 656 226 678.5Q206 701 196 732Q186 763 186 800V840H237V835Q237 818 240 802Q243 786 253.5 773.5Q264 761 285 753.5Q306 746 341 746ZM468 174Q468 193 459.5 198.5Q451 204 430 208L383 216V257L534 253L684 257V216L659 208Q639 201 630.5 194.5Q622 188 622 169V34Q621 34 598 27Q575 20 540 11Q505 2 461.5 -5Q418 -12 376 -12Q275 -12 210.5 17Q146 46 108.5 89.5Q71 133 57 184Q43 235 43 280Q43 354 73 409Q103 464 150.5 500Q198 536 257 554Q316 572 373 572Q458 572 500.5 562.5Q543 553 554 549L615 563L595 386H549L531 468Q519 521 405 521Q353 521 314 504.5Q275 488 249.5 458Q224 428 211.5 386Q199 344 199 293Q199 259 208 216Q217 173 241 135Q265 97 306.5 71Q348 45 413 45Q436 45 452 46.5Q468 48 468 65Z" glyph-name="Gbreve.smcp" horiz-adv-x="707" /><glyph d="M389 976H449L594 782L571 762L421 849H419L273 763L246 782ZM585 218Q585 242 575 250Q565 258 538 263L478 273V321L661 316L827 321V273L795 263Q769 255 758.5 246.5Q748 238 748 214V43Q699 26 649 14Q605 3 553.5 -6Q502 -15 453 -15Q371 -15 308.5 1.5Q246 18 200.5 46Q155 74 124.5 111Q94 148 76 188.5Q58 229 50.5 270.5Q43 312 43 349Q43 439 78 507.5Q113 576 170.5 622Q228 668 301.5 691.5Q375 715 453 715Q536 715 587.5 705Q639 695 664 687L740 703L719 489H670L638 613Q637 616 624.5 623.5Q612 631 590.5 638.5Q569 646 539 652Q509 658 474 658Q348 658 278.5 580.5Q209 503 209 366Q209 316 222.5 260.5Q236 205 269 158Q302 111 358 80Q414 49 498 49Q513 49 528.5 49.5Q544 50 556.5 53Q569 56 577 61.5Q585 67 585 78Z" glyph-name="Gcircumflex" horiz-adv-x="846" unicode="&#284;" /><glyph d="M322 831H383L530 637L507 617L355 704H353L205 618L178 637ZM468 174Q468 193 459.5 198.5Q451 204 430 208L383 216V257L534 253L684 257V216L659 208Q639 201 630.5 194.5Q622 188 622 169V34Q621 34 598 27Q575 20 540 11Q505 2 461.5 -5Q418 -12 376 -12Q275 -12 210.5 17Q146 46 108.5 89.5Q71 133 57 184Q43 235 43 280Q43 354 73 409Q103 464 150.5 500Q198 536 257 554Q316 572 373 572Q458 572 500.5 562.5Q543 553 554 549L615 563L595 386H549L531 468Q519 521 405 521Q353 521 314 504.5Q275 488 249.5 458Q224 428 211.5 386Q199 344 199 293Q199 259 208 216Q217 173 241 135Q265 97 306.5 71Q348 45 413 45Q436 45 452 46.5Q468 48 468 65Z" glyph-name="Gcircumflex.smcp" horiz-adv-x="707" /><glyph d="M314 -361Q364 -340 389 -309Q414 -278 414 -247Q414 -219 394 -195Q374 -171 327 -154Q331 -138 341 -122.5Q351 -107 365 -95Q379 -83 394.5 -75.5Q410 -68 425 -68Q442 -68 460.5 -76Q479 -84 494.5 -99Q510 -114 520 -135Q530 -156 530 -181Q530 -217 513 -249.5Q496 -282 469 -309Q442 -336 407.5 -356Q373 -376 339 -386ZM585 218Q585 242 575 250Q565 258 538 263L478 273V321L661 316L827 321V273L795 263Q769 255 758.5 246.5Q748 238 748 214V43Q699 26 649 14Q605 3 553.5 -6Q502 -15 453 -15Q371 -15 308.5 1.5Q246 18 200.5 46Q155 74 124.5 111Q94 148 76 188.5Q58 229 50.5 270.5Q43 312 43 349Q43 439 78 507.5Q113 576 170.5 622Q228 668 301.5 691.5Q375 715 453 715Q536 715 587.5 705Q639 695 664 687L740 703L719 489H670L638 613Q637 616 624.5 623.5Q612 631 590.5 638.5Q569 646 539 652Q509 658 474 658Q348 658 278.5 580.5Q209 503 209 366Q209 316 222.5 260.5Q236 205 269 158Q302 111 358 80Q414 49 498 49Q513 49 528.5 49.5Q544 50 556.5 53Q569 56 577 61.5Q585 67 585 78Z" glyph-name="Gcommaaccent" horiz-adv-x="846" unicode="&#290;" /><glyph d="M248 -361Q298 -340 323.5 -309Q349 -278 349 -247Q349 -219 328.5 -195Q308 -171 261 -154Q265 -138 275 -122.5Q285 -107 299 -95Q313 -83 328.5 -75.5Q344 -68 359 -68Q376 -68 395 -76Q414 -84 429.5 -99Q445 -114 455 -135Q465 -156 465 -181Q465 -217 448 -249.5Q431 -282 403.5 -309Q376 -336 341.5 -356Q307 -376 273 -386ZM468 174Q468 193 459.5 198.5Q451 204 430 208L383 216V257L534 253L684 257V216L659 208Q639 201 630.5 194.5Q622 188 622 169V34Q621 34 598 27Q575 20 540 11Q505 2 461.5 -5Q418 -12 376 -12Q275 -12 210.5 17Q146 46 108.5 89.5Q71 133 57 184Q43 235 43 280Q43 354 73 409Q103 464 150.5 500Q198 536 257 554Q316 572 373 572Q458 572 500.5 562.5Q543 553 554 549L615 563L595 386H549L531 468Q519 521 405 521Q353 521 314 504.5Q275 488 249.5 458Q224 428 211.5 386Q199 344 199 293Q199 259 208 216Q217 173 241 135Q265 97 306.5 71Q348 45 413 45Q436 45 452 46.5Q468 48 468 65Z" glyph-name="Gcommaaccent.smcp" horiz-adv-x="707" /><glyph d="M327 875Q327 894 334.5 911Q342 928 354.5 940.5Q367 953 384 960.5Q401 968 420 968Q439 968 456 960.5Q473 953 485.5 940.5Q498 928 505.5 911Q513 894 513 875Q513 856 505.5 839Q498 822 485.5 809.5Q473 797 456 789.5Q439 782 420 782Q401 782 384 789.5Q367 797 354.5 809.5Q342 822 334.5 839Q327 856 327 875ZM585 218Q585 242 575 250Q565 258 538 263L478 273V321L661 316L827 321V273L795 263Q769 255 758.5 246.5Q748 238 748 214V43Q699 26 649 14Q605 3 553.5 -6Q502 -15 453 -15Q371 -15 308.5 1.5Q246 18 200.5 46Q155 74 124.5 111Q94 148 76 188.5Q58 229 50.5 270.5Q43 312 43 349Q43 439 78 507.5Q113 576 170.5 622Q228 668 301.5 691.5Q375 715 453 715Q536 715 587.5 705Q639 695 664 687L740 703L719 489H670L638 613Q637 616 624.5 623.5Q612 631 590.5 638.5Q569 646 539 652Q509 658 474 658Q348 658 278.5 580.5Q209 503 209 366Q209 316 222.5 260.5Q236 205 269 158Q302 111 358 80Q414 49 498 49Q513 49 528.5 49.5Q544 50 556.5 53Q569 56 577 61.5Q585 67 585 78Z" glyph-name="Gdotaccent" horiz-adv-x="846" unicode="&#288;" /><glyph d="M260 714Q260 733 267.5 750Q275 767 287.5 779.5Q300 792 317 799.5Q334 807 354 807Q373 807 390 799.5Q407 792 420 779.5Q433 767 440.5 750Q448 733 448 714Q448 695 440.5 678Q433 661 420 648.5Q407 636 390 628.5Q373 621 354 621Q334 621 317 628.5Q300 636 287.5 648.5Q275 661 267.5 678Q260 695 260 714ZM468 174Q468 193 459.5 198.5Q451 204 430 208L383 216V257L534 253L684 257V216L659 208Q639 201 630.5 194.5Q622 188 622 169V34Q621 34 598 27Q575 20 540 11Q505 2 461.5 -5Q418 -12 376 -12Q275 -12 210.5 17Q146 46 108.5 89.5Q71 133 57 184Q43 235 43 280Q43 354 73 409Q103 464 150.5 500Q198 536 257 554Q316 572 373 572Q458 572 500.5 562.5Q543 553 554 549L615 563L595 386H549L531 468Q519 521 405 521Q353 521 314 504.5Q275 488 249.5 458Q224 428 211.5 386Q199 344 199 293Q199 259 208 216Q217 173 241 135Q265 97 306.5 71Q348 45 413 45Q436 45 452 46.5Q468 48 468 65Z" glyph-name="Gdotaccent.smcp" horiz-adv-x="707" /><glyph d="M599 389Q599 443 598.5 483Q598 523 597 549Q596 580 596 600Q594 625 585 634.5Q576 644 550 649L499 659V705L677 700L859 705V659L807 649Q781 644 772 635Q763 626 761 600Q760 573 759 536Q758 504 758 457.5Q758 411 758 349Q758 286 758 240Q758 194 759 162Q760 125 761 99Q762 76 771.5 66Q781 56 807 51L859 41V-5L677 0L499 -5V41L550 51Q576 56 586 66Q596 76 596 99Q596 123 597 158Q598 187 598.5 231.5Q599 276 599 335H297Q297 276 297 231.5Q297 187 298 158Q299 123 300 99Q301 76 310 66Q319 56 345 51L396 41V-5L217 0L38 -5V41L89 51Q115 56 125 66Q135 76 136 99Q136 125 137 162Q138 194 138.5 240Q139 286 139 349Q139 411 138.5 457.5Q138 504 137 536Q136 573 136 600Q134 626 124.5 635Q115 644 89 649L38 659V705L217 700L396 705V659L345 649Q319 644 310.5 635Q302 626 300 600Q299 580 298 549Q297 523 297 483Q297 443 297 389Z" glyph-name="H" horiz-adv-x="897" unicode="H" /><glyph d="M480 314Q480 358 479.5 388.5Q479 419 478 439Q477 462 477 477Q475 498 468.5 505Q462 512 442 517L402 525V564L556 560L711 564V525L671 517Q650 512 642.5 505Q635 498 633 477Q632 456 632 427Q631 402 631 365.5Q631 329 631 279Q631 229 631 192.5Q631 156 632 131Q632 102 633 82Q634 64 642 56Q650 48 671 43L711 35V-4L556 0L402 -4V35L442 43Q462 48 469 56Q476 64 477 82Q477 101 478 128Q479 151 479.5 185.5Q480 220 480 268H270Q270 220 270 185.5Q270 151 271 128Q272 101 273 82Q274 64 281 56Q288 48 308 43L348 35V-4L194 0L39 -4V35L79 43Q100 48 108 56Q116 64 117 82Q117 102 118 131Q118 156 118.5 192.5Q119 229 119 279Q119 329 118.5 365.5Q118 402 118 427Q117 456 117 477Q115 498 107.5 505Q100 512 79 517L39 525V564L194 560L348 564V525L308 517Q288 512 281.5 505Q275 498 273 477Q272 462 271 439Q270 419 270 388.5Q270 358 270 314Z" glyph-name="H.smcp" horiz-adv-x="750" /><glyph d="M599 389Q599 417 599 441Q599 465 598 485H295V389ZM756 485V349Q756 286 756 240Q756 194 757 162Q758 125 759 99Q760 76 769.5 66Q779 56 805 51L857 41V-5L677 0L499 -5V41L550 51Q576 56 586 66Q596 76 596 99Q596 123 597 158Q598 187 598.5 231.5Q599 276 599 335H295Q295 276 295 231.5Q295 187 296 158Q297 123 298 99Q299 76 309 66Q319 56 345 51L396 41V-5L217 0L38 -5V41L89 51Q115 56 125 66Q135 76 136 99Q136 125 137 162Q138 194 138.5 240Q139 286 139 349Q139 390 139 423.5Q139 457 138 485H58V539H137Q137 554 136.5 565Q136 576 136 584V600Q134 626 124.5 635Q115 644 89 649L38 659V705L217 700L396 705V659L345 649Q319 644 309.5 635Q300 626 298 600Q297 593 297 584Q297 576 296.5 564.5Q296 553 296 539H598Q597 554 597 565.5Q597 577 597 585Q597 594 596 600Q594 625 585 634.5Q576 644 550 649L499 659V705L677 700L857 705V659L805 649Q779 644 770 635Q761 626 759 600Q758 593 758 584Q758 576 757.5 564.5Q757 553 757 539H837V485Z" glyph-name="Hbar" horiz-adv-x="895" unicode="&#294;" /><glyph d="M480 314V385H270Q269 369 269.5 352Q270 335 270 314ZM61 431H118Q117 442 117 450.5Q117 459 117 465V477Q115 498 107.5 505Q100 512 79 517L39 525V564L194 560L348 564V525L308 517Q288 512 281.5 505Q275 498 273 477Q272 472 272 465Q272 459 271.5 450.5Q271 442 271 431H479Q478 442 478 451Q478 460 478 466Q478 473 477 477Q475 498 468.5 505Q462 512 442 517L402 525V564L556 560L711 564V525L671 517Q650 512 642.5 505Q635 498 633 477Q632 471 632 464V431H689V385H631V279Q631 229 631 192.5Q631 156 632 131Q632 102 633 82Q634 64 642 56Q650 48 671 43L711 35V-4L556 0L402 -4V35L442 43Q462 48 469 56Q476 64 477 82Q477 101 478 128Q479 151 479.5 185.5Q480 220 480 268H270Q270 220 270 185.5Q270 151 271 128Q272 101 273 82Q274 64 281 56Q288 48 308 43L348 35V-4L194 0L39 -4V35L79 43Q100 48 108 56Q116 64 117 82Q117 102 118 131Q118 156 118.5 192.5Q119 229 119 279Q119 311 119 337Q119 363 118 385H61Z" glyph-name="Hbar.smcp" horiz-adv-x="750" /><glyph d="M419 976H479L624 782L601 762L451 849H449L303 763L276 782ZM599 389Q599 443 598.5 483Q598 523 597 549Q596 580 596 600Q594 625 585 634.5Q576 644 550 649L499 659V705L677 700L859 705V659L807 649Q781 644 772 635Q763 626 761 600Q760 573 759 536Q758 504 758 457.5Q758 411 758 349Q758 286 758 240Q758 194 759 162Q760 125 761 99Q762 76 771.5 66Q781 56 807 51L859 41V-5L677 0L499 -5V41L550 51Q576 56 586 66Q596 76 596 99Q596 123 597 158Q598 187 598.5 231.5Q599 276 599 335H297Q297 276 297 231.5Q297 187 298 158Q299 123 300 99Q301 76 310 66Q319 56 345 51L396 41V-5L217 0L38 -5V41L89 51Q115 56 125 66Q135 76 136 99Q136 125 137 162Q138 194 138.5 240Q139 286 139 349Q139 411 138.5 457.5Q138 504 137 536Q136 573 136 600Q134 626 124.5 635Q115 644 89 649L38 659V705L217 700L396 705V659L345 649Q319 644 310.5 635Q302 626 300 600Q299 580 298 549Q297 523 297 483Q297 443 297 389Z" glyph-name="Hcircumflex" horiz-adv-x="897" unicode="&#292;" /><glyph d="M480 314Q480 358 479.5 388.5Q479 419 478 439Q477 462 477 477Q475 498 468.5 505Q462 512 442 517L402 525V564L556 560L711 564V525L671 517Q650 512 642.5 505Q635 498 633 477Q632 456 632 427Q631 402 631 365.5Q631 329 631 279Q631 229 631 192.5Q631 156 632 131Q632 102 633 82Q634 64 642 56Q650 48 671 43L711 35V-4L556 0L402 -4V35L442 43Q462 48 469 56Q476 64 477 82Q477 101 478 128Q479 151 479.5 185.5Q480 220 480 268H270Q270 220 270 185.5Q270 151 271 128Q272 101 273 82Q274 64 281 56Q288 48 308 43L348 35V-4L194 0L39 -4V35L79 43Q100 48 108 56Q116 64 117 82Q117 102 118 131Q118 156 118.5 192.5Q119 229 119 279Q119 329 118.5 365.5Q118 402 118 427Q117 456 117 477Q115 498 107.5 505Q100 512 79 517L39 525V564L194 560L348 564V525L308 517Q288 512 281.5 505Q275 498 273 477Q272 462 271 439Q270 419 270 388.5Q270 358 270 314ZM348 831H409L556 637L533 617L381 704H379L231 618L204 637Z" glyph-name="Hcircumflex.smcp" horiz-adv-x="753" /><glyph d="M38 -5V41L89 51Q115 56 125 66Q135 76 136 99Q136 125 137 162Q138 194 138.5 240Q139 286 139 349Q139 411 138.5 457.5Q138 504 137 536Q136 573 136 600Q134 626 124.5 635Q115 644 89 649L38 659V705L217 700L398 705V659L347 649Q321 644 311.5 635Q302 626 300 600Q299 573 298 536Q297 504 297 457.5Q297 411 297 349Q297 286 297 240Q297 194 298 162Q299 125 300 99Q301 76 311 66Q321 56 347 51L398 41V-5L217 0Z" glyph-name="I" horiz-adv-x="436" unicode="I" /><glyph d="M39 -4V35L79 43Q100 48 108 56Q116 64 117 82Q117 102 118 131Q118 156 118.5 192.5Q119 229 119 279Q119 329 118.5 365.5Q118 402 118 427Q117 456 117 477Q115 498 107.5 505Q100 512 79 517L39 525V564L194 560L350 564V525L310 517Q290 512 282.5 505Q275 498 273 477Q272 456 271 427Q270 402 270 365.5Q270 329 270 279Q270 229 270 192.5Q270 156 271 131Q272 102 273 82Q274 64 282 56Q290 48 310 43L350 35V-4L194 0Z" glyph-name="I.smcp" horiz-adv-x="389" /><glyph d="M705 349V181Q705 139 706 101Q707 78 717 67.5Q727 57 754 53L805 46V0H705Q699 -53 674 -88Q649 -123 612.5 -144.5Q576 -166 530.5 -176.5Q485 -187 437 -190L421 -145Q451 -138 474 -126.5Q497 -115 512.5 -94Q528 -73 536 -42Q544 -11 544 35Q544 85 545 138Q546 183 546.5 238.5Q547 294 547 349Q547 411 546.5 457.5Q546 504 545 536Q544 573 544 600Q543 624 533.5 633.5Q524 643 498 649L451 659V705L627 700L805 705V659L754 649Q727 644 718 634.5Q709 625 708 600Q707 573 706 536Q705 504 705 457.5Q705 411 705 349ZM38 -5V41L89 51Q115 56 125 66Q135 76 136 99Q136 125 137 162Q138 194 138.5 240Q139 286 139 349Q139 411 138.5 457.5Q138 504 137 536Q136 573 136 600Q134 626 124.5 635Q115 644 89 649L38 659V705L217 700L398 705V659L347 649Q321 644 311.5 635Q302 626 300 600Q299 573 298 536Q297 504 297 457.5Q297 411 297 349Q297 286 297 240Q297 194 298 162Q299 125 300 99Q301 76 311 66Q321 56 347 51L398 41V-5L217 0Z" glyph-name="IJ" horiz-adv-x="843" unicode="&#306;" /><glyph d="M39 -4V35L79 43Q100 48 108 56Q116 64 117 82Q117 102 118 131Q118 156 118.5 192.5Q119 229 119 279Q119 329 118.5 365.5Q118 402 118 427Q117 456 117 477Q115 498 107.5 505Q100 512 79 517L39 525V564L194 560L350 564V525L310 517Q290 512 282.5 505Q275 498 273 477Q272 456 271 427Q270 402 270 365.5Q270 329 270 279Q270 229 270 192.5Q270 156 271 131Q272 102 273 82Q274 64 282 56Q290 48 310 43L350 35V-4L194 0ZM609 83Q610 65 617.5 56.5Q625 48 647 45L688 39V0H609Q603 -45 579 -73.5Q555 -102 521.5 -119Q488 -136 448 -144Q408 -152 371 -155L359 -116Q383 -111 401 -101.5Q419 -92 431 -75.5Q443 -59 449 -34Q455 -9 455 28Q455 80 456 128Q456 169 456.5 211Q457 253 457 279Q457 329 456.5 365.5Q456 402 456 427Q455 456 455 477Q455 499 447.5 505.5Q440 512 420 517L382 525V564L534 560L688 564V525L647 517Q625 512 618.5 505Q612 498 611 477Q610 456 610 427Q609 402 609 365.5Q609 329 609 279Z" glyph-name="IJ.smcp" horiz-adv-x="717" /><glyph d="M150 970H340L145 781L96 787ZM38 -5V41L89 51Q115 56 125 66Q135 76 136 99Q136 125 137 162Q138 194 138.5 240Q139 286 139 349Q139 411 138.5 457.5Q138 504 137 536Q136 573 136 600Q134 626 124.5 635Q115 644 89 649L38 659V705L217 700L398 705V659L347 649Q321 644 311.5 635Q302 626 300 600Q299 573 298 536Q297 504 297 457.5Q297 411 297 349Q297 286 297 240Q297 194 298 162Q299 125 300 99Q301 76 311 66Q321 56 347 51L398 41V-5L217 0Z" glyph-name="Iacute" horiz-adv-x="436" unicode="&#205;" /><glyph d="M39 -4V35L79 43Q100 48 108 56Q116 64 117 82Q117 102 118 131Q118 156 118.5 192.5Q119 229 119 279Q119 329 118.5 365.5Q118 402 118 427Q117 456 117 477Q115 498 107.5 505Q100 512 79 517L39 525V564L194 560L350 564V525L310 517Q290 512 282.5 505Q275 498 273 477Q272 456 271 427Q270 402 270 365.5Q270 329 270 279Q270 229 270 192.5Q270 156 271 131Q272 102 273 82Q274 64 282 56Q290 48 310 43L350 35V-4L194 0ZM153 823H343L146 634L97 640Z" glyph-name="Iacute.smcp" horiz-adv-x="389" /><glyph d="M217 891Q252 891 272.5 898.5Q293 906 303.5 918.5Q314 931 317 947Q320 963 320 980V985H371V945Q371 908 361 877Q351 846 331.5 823.5Q312 801 283 788.5Q254 776 217 776Q180 776 151.5 788.5Q123 801 103.5 823.5Q84 846 74 877Q64 908 64 945V985H115V980Q115 963 118 947Q121 931 131.5 918.5Q142 906 162 898.5Q182 891 217 891ZM38 -5V41L89 51Q115 56 125 66Q135 76 136 99Q136 125 137 162Q138 194 138.5 240Q139 286 139 349Q139 411 138.5 457.5Q138 504 137 536Q136 573 136 600Q134 626 124.5 635Q115 644 89 649L38 659V705L217 700L398 705V659L347 649Q321 644 311.5 635Q302 626 300 600Q299 573 298 536Q297 504 297 457.5Q297 411 297 349Q297 286 297 240Q297 194 298 162Q299 125 300 99Q301 76 311 66Q321 56 347 51L398 41V-5L217 0Z" glyph-name="Ibreve" horiz-adv-x="436" unicode="&#300;" /><glyph d="M193 746Q228 746 249 753.5Q270 761 280.5 773.5Q291 786 294 802Q297 818 297 835V840H349V800Q349 763 339 732Q329 701 309 678.5Q289 656 260 643.5Q231 631 193 631Q155 631 126.5 643.5Q98 656 78 678.5Q58 701 48 732Q38 763 38 800V840H89V835Q89 818 92 802Q95 786 105.5 773.5Q116 761 137 753.5Q158 746 193 746ZM39 -4V35L79 43Q100 48 108 56Q116 64 117 82Q117 102 118 131Q118 156 118.5 192.5Q119 229 119 279Q119 329 118.5 365.5Q118 402 118 427Q117 456 117 477Q115 498 107.5 505Q100 512 79 517L39 525V564L194 560L350 564V525L310 517Q290 512 282.5 505Q275 498 273 477Q272 456 271 427Q270 402 270 365.5Q270 329 270 279Q270 229 270 192.5Q270 156 271 131Q272 102 273 82Q274 64 282 56Q290 48 310 43L350 35V-4L194 0Z" glyph-name="Ibreve.smcp" horiz-adv-x="389" /><glyph d="M187 976H247L392 782L369 762L219 849H217L71 763L44 782ZM38 -5V41L89 51Q115 56 125 66Q135 76 136 99Q136 125 137 162Q138 194 138.5 240Q139 286 139 349Q139 411 138.5 457.5Q138 504 137 536Q136 573 136 600Q134 626 124.5 635Q115 644 89 649L38 659V705L217 700L398 705V659L347 649Q321 644 311.5 635Q302 626 300 600Q299 573 298 536Q297 504 297 457.5Q297 411 297 349Q297 286 297 240Q297 194 298 162Q299 125 300 99Q301 76 311 66Q321 56 347 51L398 41V-5L217 0Z" glyph-name="Icircumflex" horiz-adv-x="436" unicode="&#206;" /><glyph d="M39 -4V35L79 43Q100 48 108 56Q116 64 117 82Q117 102 118 131Q118 156 118.5 192.5Q119 229 119 279Q119 329 118.5 365.5Q118 402 118 427Q117 456 117 477Q115 498 107.5 505Q100 512 79 517L39 525V564L194 560L350 564V525L310 517Q290 512 282.5 505Q275 498 273 477Q272 456 271 427Q270 402 270 365.5Q270 329 270 279Q270 229 270 192.5Q270 156 271 131Q272 102 273 82Q274 64 282 56Q290 48 310 43L350 35V-4L194 0ZM162 829H223L370 635L347 615L195 702H193L45 616L18 635Z" glyph-name="Icircumflex.smcp" horiz-adv-x="389" /><glyph d="M237 857Q237 892 260.5 916Q284 940 319 940Q354 940 378 916Q402 892 402 857Q402 822 378 798Q354 774 319 774Q284 774 260.5 798Q237 822 237 857ZM34 857Q34 892 57.5 916Q81 940 116 940Q153 940 176.5 916Q200 892 200 857Q200 822 176.5 798Q153 774 116 774Q81 774 57.5 798Q34 822 34 857ZM38 -5V41L89 51Q115 56 125 66Q135 76 136 99Q136 125 137 162Q138 194 138.5 240Q139 286 139 349Q139 411 138.5 457.5Q138 504 137 536Q136 573 136 600Q134 626 124.5 635Q115 644 89 649L38 659V705L217 700L398 705V659L347 649Q321 644 311.5 635Q302 626 300 600Q299 573 298 536Q297 504 297 457.5Q297 411 297 349Q297 286 297 240Q297 194 298 162Q299 125 300 99Q301 76 311 66Q321 56 347 51L398 41V-5L217 0Z" glyph-name="Idieresis" horiz-adv-x="436" unicode="&#207;" /><glyph d="M215 710Q215 745 239 769Q263 793 298 793Q333 793 357 769Q381 745 381 710Q381 675 357 651Q333 627 298 627Q263 627 239 651Q215 675 215 710ZM9 710Q9 745 33 769Q57 793 92 793Q127 793 151 769Q175 745 175 710Q175 675 151 651Q127 627 92 627Q57 627 33 651Q9 675 9 710ZM39 -4V35L79 43Q100 48 108 56Q116 64 117 82Q117 102 118 131Q118 156 118.5 192.5Q119 229 119 279Q119 329 118.5 365.5Q118 402 118 427Q117 456 117 477Q115 498 107.5 505Q100 512 79 517L39 525V564L194 560L350 564V525L310 517Q290 512 282.5 505Q275 498 273 477Q272 456 271 427Q270 402 270 365.5Q270 329 270 279Q270 229 270 192.5Q270 156 271 131Q272 102 273 82Q274 64 282 56Q290 48 310 43L350 35V-4L194 0Z" glyph-name="Idieresis.smcp" horiz-adv-x="389" /><glyph d="M125 875Q125 894 132.5 911Q140 928 152.5 940.5Q165 953 182 960.5Q199 968 218 968Q237 968 254 960.5Q271 953 283.5 940.5Q296 928 303.5 911Q311 894 311 875Q311 856 303.5 839Q296 822 283.5 809.5Q271 797 254 789.5Q237 782 218 782Q199 782 182 789.5Q165 797 152.5 809.5Q140 822 132.5 839Q125 856 125 875ZM38 -5V41L89 51Q115 56 125 66Q135 76 136 99Q136 125 137 162Q138 194 138.5 240Q139 286 139 349Q139 411 138.5 457.5Q138 504 137 536Q136 573 136 600Q134 626 124.5 635Q115 644 89 649L38 659V705L217 700L398 705V659L347 649Q321 644 311.5 635Q302 626 300 600Q299 573 298 536Q297 504 297 457.5Q297 411 297 349Q297 286 297 240Q297 194 298 162Q299 125 300 99Q301 76 311 66Q321 56 347 51L398 41V-5L217 0Z" glyph-name="Idotaccent" horiz-adv-x="436" unicode="&#304;" /><glyph d="M39 -4V35L79 43Q100 48 108 56Q116 64 117 82Q117 102 118 131Q118 156 118.5 192.5Q119 229 119 279Q119 329 118.5 365.5Q118 402 118 427Q117 456 117 477Q115 498 107.5 505Q100 512 79 517L39 525V564L194 560L350 564V525L310 517Q290 512 282.5 505Q275 498 273 477Q272 456 271 427Q270 402 270 365.5Q270 329 270 279Q270 229 270 192.5Q270 156 271 131Q272 102 273 82Q274 64 282 56Q290 48 310 43L350 35V-4L194 0ZM100 714Q100 733 107.5 750Q115 767 127.5 779.5Q140 792 157 799.5Q174 807 194 807Q213 807 230 799.5Q247 792 260 779.5Q273 767 280.5 750Q288 733 288 714Q288 695 280.5 678Q273 661 260 648.5Q247 636 230 628.5Q213 621 194 621Q174 621 157 628.5Q140 636 127.5 648.5Q115 661 107.5 678Q100 695 100 714Z" glyph-name="Idotaccent.smcp" horiz-adv-x="389" /><glyph d="M340 787 291 781 96 970H286ZM38 -5V41L89 51Q115 56 125 66Q135 76 136 99Q136 125 137 162Q138 194 138.5 240Q139 286 139 349Q139 411 138.5 457.5Q138 504 137 536Q136 573 136 600Q134 626 124.5 635Q115 644 89 649L38 659V705L217 700L398 705V659L347 649Q321 644 311.5 635Q302 626 300 600Q299 573 298 536Q297 504 297 457.5Q297 411 297 349Q297 286 297 240Q297 194 298 162Q299 125 300 99Q301 76 311 66Q321 56 347 51L398 41V-5L217 0Z" glyph-name="Igrave" horiz-adv-x="436" unicode="&#204;" /><glyph d="M39 -4V35L79 43Q100 48 108 56Q116 64 117 82Q117 102 118 131Q118 156 118.5 192.5Q119 229 119 279Q119 329 118.5 365.5Q118 402 118 427Q117 456 117 477Q115 498 107.5 505Q100 512 79 517L39 525V564L194 560L350 564V525L310 517Q290 512 282.5 505Q275 498 273 477Q272 456 271 427Q270 402 270 365.5Q270 329 270 279Q270 229 270 192.5Q270 156 271 131Q272 102 273 82Q274 64 282 56Q290 48 310 43L350 35V-4L194 0ZM318 640 268 634 71 823H261Z" glyph-name="Igrave.smcp" horiz-adv-x="389" /><glyph d="M59 793V869H378V793ZM38 -5V41L89 51Q115 56 125 66Q135 76 136 99Q136 125 137 162Q138 194 138.5 240Q139 286 139 349Q139 411 138.5 457.5Q138 504 137 536Q136 573 136 600Q134 626 124.5 635Q115 644 89 649L38 659V705L217 700L398 705V659L347 649Q321 644 311.5 635Q302 626 300 600Q299 573 298 536Q297 504 297 457.5Q297 411 297 349Q297 286 297 240Q297 194 298 162Q299 125 300 99Q301 76 311 66Q321 56 347 51L398 41V-5L217 0Z" glyph-name="Imacron" horiz-adv-x="436" unicode="&#298;" /><glyph d="M36 648V724H359V648ZM39 -4V35L79 43Q100 48 108 56Q116 64 117 82Q117 102 118 131Q118 156 118.5 192.5Q119 229 119 279Q119 329 118.5 365.5Q118 402 118 427Q117 456 117 477Q115 498 107.5 505Q100 512 79 517L39 525V564L194 560L350 564V525L310 517Q290 512 282.5 505Q275 498 273 477Q272 456 271 427Q270 402 270 365.5Q270 329 270 279Q270 229 270 192.5Q270 156 271 131Q272 102 273 82Q274 64 282 56Q290 48 310 43L350 35V-4L194 0Z" glyph-name="Imacron.smcp" horiz-adv-x="389" /><glyph d="M38 -5V41L89 51Q115 56 125 66Q135 76 136 99Q136 125 137 162Q138 194 138.5 240Q139 286 139 349Q139 411 138.5 457.5Q138 504 137 536Q136 573 136 600Q134 626 124.5 635Q115 644 89 649L38 659V705L217 700L398 705V659L347 649Q321 644 311.5 635Q302 626 300 600Q299 573 298 536Q297 504 297 457.5Q297 411 297 349Q297 286 297 240Q297 194 298 162Q299 125 300 99Q301 76 311 66Q321 56 347 51L398 41V-5L329 -3Q317 -15 304 -28.5Q291 -42 280.5 -58.5Q270 -75 263 -94.5Q256 -114 256 -138Q256 -183 283.5 -203.5Q311 -224 363 -224Q371 -224 379.5 -223.5Q388 -223 398 -222L379 -256Q367 -260 352 -263Q337 -266 321 -268Q305 -270 290.5 -271Q276 -272 266 -272Q238 -272 213.5 -265Q189 -258 170.5 -244.5Q152 -231 141 -210Q130 -189 130 -162Q130 -137 140.5 -113Q151 -89 170 -68.5Q189 -48 214 -30.5Q239 -13 268 -1L217 0Z" glyph-name="Iogonek" horiz-adv-x="436" unicode="&#302;" /><glyph d="M39 -4V35L79 43Q100 48 108 56Q116 64 117 82Q117 102 118 131Q118 156 118.5 192.5Q119 229 119 279Q119 329 118.5 365.5Q118 402 118 427Q117 456 117 477Q115 498 107.5 505Q100 512 79 517L39 525V564L194 560L350 564V525L310 517Q290 512 282.5 505Q275 498 273 477Q272 456 271 427Q270 402 270 365.5Q270 329 270 279Q270 229 270 192.5Q270 156 271 131Q272 102 273 82Q274 64 282 56Q290 48 310 43L350 35V-4L267 -2Q254 -14 241 -27.5Q228 -41 217 -57.5Q206 -74 199 -94Q192 -114 192 -138Q192 -183 220 -203.5Q248 -224 300 -224Q308 -224 317 -223.5Q326 -223 336 -222L316 -256Q304 -260 289 -263Q274 -266 258 -268Q242 -270 227.5 -271Q213 -272 203 -272Q175 -272 150 -265Q125 -258 106.5 -244.5Q88 -231 77 -210Q66 -189 66 -162Q66 -136 77 -112Q88 -88 107.5 -67.5Q127 -47 152.5 -29.5Q178 -12 208 0H194Z" glyph-name="Iogonek.smcp" horiz-adv-x="389" /><glyph d="M297 888Q309 888 316.5 889Q324 890 330 893.5Q336 897 341.5 905Q347 913 355 927L388 915Q383 896 373 873Q363 850 348 830Q333 810 312.5 796.5Q292 783 265 783Q247 783 228 789.5Q209 796 191 804.5Q173 813 157 819.5Q141 826 129 826Q108 826 93 820.5Q78 815 63 788L30 800Q34 819 45 842.5Q56 866 71.5 886Q87 906 108 919.5Q129 933 154 933Q170 933 191 926Q212 919 232 910.5Q252 902 269.5 895Q287 888 297 888ZM38 -5V41L89 51Q115 56 125 66Q135 76 136 99Q136 125 137 162Q138 194 138.5 240Q139 286 139 349Q139 411 138.5 457.5Q138 504 137 536Q136 573 136 600Q134 626 124.5 635Q115 644 89 649L38 659V705L217 700L398 705V659L347 649Q321 644 311.5 635Q302 626 300 600Q299 573 298 536Q297 504 297 457.5Q297 411 297 349Q297 286 297 240Q297 194 298 162Q299 125 300 99Q301 76 311 66Q321 56 347 51L398 41V-5L217 0Z" glyph-name="Itilde" horiz-adv-x="436" unicode="&#296;" /><glyph d="M282 743Q294 743 302 744Q310 745 316 748.5Q322 752 327.5 760Q333 768 341 782L374 770Q369 751 359 728Q349 705 334 685Q319 665 298 651.5Q277 638 250 638Q232 638 213 644.5Q194 651 175.5 659.5Q157 668 140.5 674.5Q124 681 112 681Q90 681 75 675.5Q60 670 45 643Q44 643 39 645Q34 647 28 649L12 655Q16 674 27 697.5Q38 721 53.5 741Q69 761 90 774.5Q111 788 137 788Q153 788 174.5 781Q196 774 216.5 765.5Q237 757 254.5 750Q272 743 282 743ZM39 -4V35L79 43Q100 48 108 56Q116 64 117 82Q117 102 118 131Q118 156 118.5 192.5Q119 229 119 279Q119 329 118.5 365.5Q118 402 118 427Q117 456 117 477Q115 498 107.5 505Q100 512 79 517L39 525V564L194 560L350 564V525L310 517Q290 512 282.5 505Q275 498 273 477Q272 456 271 427Q270 402 270 365.5Q270 329 270 279Q270 229 270 192.5Q270 156 271 131Q272 102 273 82Q274 64 282 56Q290 48 310 43L350 35V-4L194 0Z" glyph-name="Itilde.smcp" horiz-adv-x="389" /><glyph d="M286 349V181Q286 139 287 101Q288 78 298 67.5Q308 57 335 53L386 46V0H286Q280 -53 255 -88Q230 -123 193.5 -144.5Q157 -166 111.5 -176.5Q66 -187 18 -190L2 -145Q32 -138 55 -126.5Q78 -115 93.5 -94Q109 -73 117 -42Q125 -11 125 35Q125 85 126 138Q127 183 127.5 238.5Q128 294 128 349Q128 411 127.5 457.5Q127 504 126 536Q125 573 125 600Q124 624 114.5 633.5Q105 643 79 649L32 659V705L208 700L386 705V659L335 649Q308 644 299 634.5Q290 625 289 600Q288 573 287 536Q286 504 286 457.5Q286 411 286 349Z" glyph-name="J" horiz-adv-x="424" unicode="J" /><glyph d="M288 -25Q288 -73 273.5 -107.5Q259 -142 235.5 -164Q212 -186 182 -196.5Q152 -207 119 -207Q84 -207 57 -199Q30 -191 10 -178.5Q-10 -166 -24.5 -150.5Q-39 -135 -49 -119L-19 -86Q-4 -106 14 -112Q32 -118 49 -118Q87 -118 108 -96Q129 -74 129 -26V349Q129 411 128.5 457.5Q128 504 127 536Q126 573 126 600Q124 626 114.5 635Q105 644 79 649L28 659V705L207 700L388 705V659L337 649Q311 644 301.5 635Q292 626 290 600Q289 573 288 536Q287 504 287 457.5Q287 411 287 349Z" glyph-name="J.alt" horiz-adv-x="418" /><glyph d="M110 1Q110 155 109.5 248.5Q109 342 109 393Q108 453 108 477Q106 497 99 504.5Q92 512 73 517L35 525V564H339V525L298 517Q276 512 270 505Q264 498 262 477Q262 472 261.5 436Q261 400 261 347.5Q261 295 261 235Q261 175 261 123Q261 71 261 35.5Q261 0 261 -3Q261 -44 247.5 -75Q234 -106 212 -126.5Q190 -147 161 -157Q132 -167 102 -167Q69 -167 44 -159.5Q19 -152 0.5 -140.5Q-18 -129 -31.5 -114.5Q-45 -100 -55 -85L-27 -55Q-13 -73 3.5 -78.5Q20 -84 36 -84Q71 -84 90.5 -63.5Q110 -43 110 1Z" glyph-name="J.alt.smcp" horiz-adv-x="380" /><glyph d="M262 83Q263 65 270.5 56.5Q278 48 300 45L341 39V0H262Q256 -45 232 -73.5Q208 -102 174.5 -119Q141 -136 101 -144Q61 -152 24 -155L12 -116Q36 -111 54 -101.5Q72 -92 84 -75.5Q96 -59 102 -34Q108 -9 108 28Q108 80 109 128Q109 169 109.5 211Q110 253 110 279Q110 329 109.5 365.5Q109 402 109 427Q108 456 108 477Q108 499 100.5 505.5Q93 512 73 517L35 525V564L187 560L341 564V525L300 517Q278 512 271.5 505Q265 498 264 477Q263 456 263 427Q262 402 262 365.5Q262 329 262 279Z" glyph-name="J.smcp" horiz-adv-x="380" /><glyph d="M175 976H235L380 782L357 762L207 849H205L59 763L32 782ZM286 349V181Q286 139 287 101Q288 78 298 67.5Q308 57 335 53L386 46V0H286Q280 -53 255 -88Q230 -123 193.5 -144.5Q157 -166 111.5 -176.5Q66 -187 18 -190L2 -145Q32 -138 55 -126.5Q78 -115 93.5 -94Q109 -73 117 -42Q125 -11 125 35Q125 85 126 138Q127 183 127.5 238.5Q128 294 128 349Q128 411 127.5 457.5Q127 504 126 536Q125 573 125 600Q124 624 114.5 633.5Q105 643 79 649L32 659V705L208 700L386 705V659L335 649Q308 644 299 634.5Q290 625 289 600Q288 573 287 536Q286 504 286 457.5Q286 411 286 349Z" glyph-name="Jcircumflex" horiz-adv-x="424" unicode="&#308;" /><glyph d="M153 831H214L361 637L338 617L186 704H184L36 618L9 637ZM262 83Q263 65 270.5 56.5Q278 48 300 45L341 39V0H262Q256 -45 232 -73.5Q208 -102 174.5 -119Q141 -136 101 -144Q61 -152 24 -155L12 -116Q36 -111 54 -101.5Q72 -92 84 -75.5Q96 -59 102 -34Q108 -9 108 28Q108 80 109 128Q109 169 109.5 211Q110 253 110 279Q110 329 109.5 365.5Q109 402 109 427Q108 456 108 477Q108 499 100.5 505.5Q93 512 73 517L35 525V564L187 560L341 564V525L300 517Q278 512 271.5 505Q265 498 264 477Q263 456 263 427Q262 402 262 365.5Q262 329 262 279Z" glyph-name="Jcircumflex.smcp" horiz-adv-x="380" /><glyph d="M38 -5V41L89 51Q115 56 125 66Q135 76 136 99Q136 125 137 162Q138 194 138.5 240Q139 286 139 349Q139 411 138.5 457.5Q138 504 137 536Q136 573 136 600Q134 626 124.5 635Q115 644 89 649L38 659V705L218 700L398 705V659L347 649Q321 644 311.5 635Q302 626 300 600Q299 580 298 549Q297 523 297 483Q297 443 297 389H395Q416 415 441 448Q462 475 489.5 511.5Q517 548 548 590Q566 614 556 628.5Q546 643 520 649L479 659V705L628 700L765 705V659L711 648Q699 645 689.5 639.5Q680 634 669 624.5Q658 615 644.5 600Q631 585 610 563Q567 518 537.5 483Q508 448 492 427L721 94Q735 73 749 62Q763 51 782 47L811 41V-5L638 0L586 -3Q535 81 495.5 143.5Q456 206 428 249Q395 299 372 335H297Q297 276 297 231.5Q297 187 298 158Q299 123 300 99Q301 76 311 66Q321 56 347 51L398 41V-5L218 0Z" glyph-name="K" horiz-adv-x="798" unicode="K" /><glyph d="M602 517Q579 513 547 484Q518 458 487.5 421.5Q457 385 434 355L623 78Q646 44 671 39L689 35V-4L531 0L486 -2Q446 64 415 114.5Q384 165 362 199Q336 239 318 268H270Q270 220 270 185.5Q270 151 271 128Q272 101 273 82Q274 64 282 56Q290 48 310 43L350 35V-4L195 0L39 -4V35L79 43Q100 48 108 56Q116 64 117 82Q117 102 118 131Q118 156 118.5 192.5Q119 229 119 279Q119 329 118.5 365.5Q118 402 118 427Q117 456 117 477Q115 498 107.5 505Q100 512 79 517L39 525V564L195 560L350 564V525L310 517Q290 512 282.5 505Q275 498 273 477Q272 463 271 440Q270 420 270 389.5Q270 359 270 314H339L431 433Q443 448 449.5 457.5Q456 467 460 473Q464 479 465 482.5Q466 486 466 490Q466 509 436 517L407 525V564L530 560L643 564V525Z" glyph-name="K.smcp" horiz-adv-x="682" /><glyph d="M291 -361Q341 -340 366 -309Q391 -278 391 -247Q391 -219 371 -195Q351 -171 304 -154Q308 -138 318 -122.5Q328 -107 342 -95Q356 -83 371.5 -75.5Q387 -68 402 -68Q419 -68 437.5 -76Q456 -84 471.5 -99Q487 -114 497 -135Q507 -156 507 -181Q507 -217 490 -249.5Q473 -282 446 -309Q419 -336 384.5 -356Q350 -376 316 -386ZM38 -5V41L89 51Q115 56 125 66Q135 76 136 99Q136 125 137 162Q138 194 138.5 240Q139 286 139 349Q139 411 138.5 457.5Q138 504 137 536Q136 573 136 600Q134 626 124.5 635Q115 644 89 649L38 659V705L218 700L398 705V659L347 649Q321 644 311.5 635Q302 626 300 600Q299 580 298 549Q297 523 297 483Q297 443 297 389H395Q416 415 441 448Q462 475 489.5 511.5Q517 548 548 590Q566 614 556 628.5Q546 643 520 649L479 659V705L628 700L765 705V659L711 648Q699 645 689.5 639.5Q680 634 669 624.5Q658 615 644.5 600Q631 585 610 563Q567 518 537.5 483Q508 448 492 427L721 94Q735 73 749 62Q763 51 782 47L811 41V-5L638 0L586 -3Q535 81 495.5 143.5Q456 206 428 249Q395 299 372 335H297Q297 276 297 231.5Q297 187 298 158Q299 123 300 99Q301 76 311 66Q321 56 347 51L398 41V-5L218 0Z" glyph-name="Kcommaaccent" horiz-adv-x="798" unicode="&#310;" /><glyph d="M602 517Q579 513 547 484Q518 458 487.5 421.5Q457 385 434 355L623 78Q646 44 671 39L689 35V-4L531 0L486 -2Q446 64 415 114.5Q384 165 362 199Q336 239 318 268H270Q270 220 270 185.5Q270 151 271 128Q272 101 273 82Q274 64 282 56Q290 48 310 43L350 35V-4L195 0L39 -4V35L79 43Q100 48 108 56Q116 64 117 82Q117 102 118 131Q118 156 118.5 192.5Q119 229 119 279Q119 329 118.5 365.5Q118 402 118 427Q117 456 117 477Q115 498 107.5 505Q100 512 79 517L39 525V564L195 560L350 564V525L310 517Q290 512 282.5 505Q275 498 273 477Q272 463 271 440Q270 420 270 389.5Q270 359 270 314H339L431 433Q443 448 449.5 457.5Q456 467 460 473Q464 479 465 482.5Q466 486 466 490Q466 509 436 517L407 525V564L530 560L643 564V525ZM242 -361Q292 -340 317.5 -309Q343 -278 343 -247Q343 -219 322.5 -195Q302 -171 255 -154Q259 -138 269 -122.5Q279 -107 293 -95Q307 -83 322.5 -75.5Q338 -68 353 -68Q370 -68 389 -76Q408 -84 423.5 -99Q439 -114 449 -135Q459 -156 459 -181Q459 -217 442 -249.5Q425 -282 397.5 -309Q370 -336 335.5 -356Q301 -376 267 -386Z" glyph-name="Kcommaaccent.smcp" horiz-adv-x="682" /><glyph d="M301 112Q302 80 316.5 68Q331 56 368 56H465Q483 56 498.5 57Q514 58 528.5 64Q543 70 556 84.5Q569 99 583 126L628 212H670L647 -5Q607 -4 570 -3Q538 -2 505.5 -1Q473 0 452 0H204L38 -5V41L89 51Q115 56 125 66Q135 76 136 99Q136 128 137 167Q138 200 138.5 248Q139 296 139 359Q139 421 138.5 466Q138 511 137 541Q136 576 136 600Q135 626 125 635Q115 644 89 649L38 659V705L218 700L398 705V659L347 649Q321 644 311 635Q301 626 300 600Q299 576 298 541Q297 511 297 466Q297 421 297 359Q297 297 297.5 259Q298 221 298.5 195.5Q299 170 299.5 152Q300 134 301 112Z" glyph-name="L" horiz-adv-x="682" unicode="L" /><glyph d="M272 92Q272 66 284 56.5Q296 47 325 47H399Q414 47 426 47.5Q438 48 449 52.5Q460 57 470.5 68Q481 79 492 101L527 170H564L545 -4Q514 -3 485 -2Q460 -1 434.5 -0.5Q409 0 392 0H180L39 -4V35L79 43Q100 48 108 56Q116 64 117 82Q117 104 118 136Q118 162 118.5 201Q119 240 119 290Q119 340 118.5 375Q118 410 118 433Q117 459 117 477Q117 498 108.5 505Q100 512 79 517L39 525V564L195 560L350 564V525L310 517Q290 512 282 505Q274 498 273 477Q272 459 271 433Q270 410 270 375Q270 340 270 290Q270 240 270 209.5Q270 179 270 159Q270 139 270.5 124.5Q271 110 272 92Z" glyph-name="L.smcp" horiz-adv-x="580" /><glyph d="M278 970H468L273 781L224 787ZM301 112Q302 80 316.5 68Q331 56 368 56H465Q483 56 498.5 57Q514 58 528.5 64Q543 70 556 84.5Q569 99 583 126L628 212H670L647 -5Q607 -4 570 -3Q538 -2 505.5 -1Q473 0 452 0H204L38 -5V41L89 51Q115 56 125 66Q135 76 136 99Q136 128 137 167Q138 200 138.5 248Q139 296 139 359Q139 421 138.5 466Q138 511 137 541Q136 576 136 600Q135 626 125 635Q115 644 89 649L38 659V705L218 700L398 705V659L347 649Q321 644 311 635Q301 626 300 600Q299 576 298 541Q297 511 297 466Q297 421 297 359Q297 297 297.5 259Q298 221 298.5 195.5Q299 170 299.5 152Q300 134 301 112Z" glyph-name="Lacute" horiz-adv-x="682" unicode="&#313;" /><glyph d="M234 825H424L227 636L178 642ZM272 92Q272 66 284 56.5Q296 47 325 47H399Q414 47 426 47.5Q438 48 449 52.5Q460 57 470.5 68Q481 79 492 101L527 170H564L545 -4Q514 -3 485 -2Q460 -1 434.5 -0.5Q409 0 392 0H180L39 -4V35L79 43Q100 48 108 56Q116 64 117 82Q117 104 118 136Q118 162 118.5 201Q119 240 119 290Q119 340 118.5 375Q118 410 118 433Q117 459 117 477Q117 498 108.5 505Q100 512 79 517L39 525V564L195 560L350 564V525L310 517Q290 512 282 505Q274 498 273 477Q272 459 271 433Q270 410 270 375Q270 340 270 290Q270 240 270 209.5Q270 179 270 159Q270 139 270.5 124.5Q271 110 272 92Z" glyph-name="Lacute.smcp" horiz-adv-x="580" /><glyph d="M483 482Q533 503 558 534Q583 565 583 596Q583 624 563 648Q543 672 496 689Q500 705 510 720.5Q520 736 534 748Q548 760 563.5 767.5Q579 775 594 775Q611 775 629.5 767Q648 759 663.5 744Q679 729 689 708Q699 687 699 662Q699 626 682 593.5Q665 561 638 534Q611 507 576.5 487Q542 467 508 457ZM301 112Q302 80 316.5 68Q331 56 368 56H465Q483 56 498.5 57Q514 58 528.5 64Q543 70 556 84.5Q569 99 583 126L628 212H670L647 -5Q607 -4 570 -3Q538 -2 505.5 -1Q473 0 452 0H204L38 -5V41L89 51Q115 56 125 66Q135 76 136 99Q136 128 137 167Q138 200 138.5 248Q139 296 139 359Q139 421 138.5 466Q138 511 137 541Q136 576 136 600Q135 626 125 635Q115 644 89 649L38 659V705L218 700L398 705V659L347 649Q321 644 311 635Q301 626 300 600Q299 576 298 541Q297 511 297 466Q297 421 297 359Q297 297 297.5 259Q298 221 298.5 195.5Q299 170 299.5 152Q300 134 301 112Z" glyph-name="Lcaron" horiz-adv-x="709" unicode="&#317;" /><glyph d="M409 343Q459 364 484.5 395Q510 426 510 457Q510 485 489.5 509Q469 533 422 550Q426 566 436 581.5Q446 597 460 609Q474 621 489.5 628.5Q505 636 520 636Q537 636 556 628Q575 620 590.5 605Q606 590 616 569Q626 548 626 523Q626 487 609 454.5Q592 422 564.5 395Q537 368 502.5 348Q468 328 434 318ZM272 92Q272 66 284 56.5Q296 47 325 47H399Q414 47 426 47.5Q438 48 449 52.5Q460 57 470.5 68Q481 79 492 101L527 170H564L545 -4Q514 -3 485 -2Q460 -1 434.5 -0.5Q409 0 392 0H180L39 -4V35L79 43Q100 48 108 56Q116 64 117 82Q117 104 118 136Q118 162 118.5 201Q119 240 119 290Q119 340 118.5 375Q118 410 118 433Q117 459 117 477Q117 498 108.5 505Q100 512 79 517L39 525V564L195 560L350 564V525L310 517Q290 512 282 505Q274 498 273 477Q272 459 271 433Q270 410 270 375Q270 340 270 290Q270 240 270 209.5Q270 179 270 159Q270 139 270.5 124.5Q271 110 272 92Z" glyph-name="Lcaron.smcp" horiz-adv-x="642" /><glyph d="M232 -361Q282 -340 307 -309Q332 -278 332 -247Q332 -219 312 -195Q292 -171 245 -154Q249 -138 259 -122.5Q269 -107 283 -95Q297 -83 312.5 -75.5Q328 -68 343 -68Q360 -68 378.5 -76Q397 -84 412.5 -99Q428 -114 438 -135Q448 -156 448 -181Q448 -217 431 -249.5Q414 -282 387 -309Q360 -336 325.5 -356Q291 -376 257 -386ZM301 112Q302 80 316.5 68Q331 56 368 56H465Q483 56 498.5 57Q514 58 528.5 64Q543 70 556 84.5Q569 99 583 126L628 212H670L647 -5Q607 -4 570 -3Q538 -2 505.5 -1Q473 0 452 0H204L38 -5V41L89 51Q115 56 125 66Q135 76 136 99Q136 128 137 167Q138 200 138.5 248Q139 296 139 359Q139 421 138.5 466Q138 511 137 541Q136 576 136 600Q135 626 125 635Q115 644 89 649L38 659V705L218 700L398 705V659L347 649Q321 644 311 635Q301 626 300 600Q299 576 298 541Q297 511 297 466Q297 421 297 359Q297 297 297.5 259Q298 221 298.5 195.5Q299 170 299.5 152Q300 134 301 112Z" glyph-name="Lcommaaccent" horiz-adv-x="681" unicode="&#315;" /><glyph d="M180 -361Q230 -340 255.5 -309Q281 -278 281 -247Q281 -219 260.5 -195Q240 -171 193 -154Q197 -138 207 -122.5Q217 -107 231 -95Q245 -83 260.5 -75.5Q276 -68 291 -68Q308 -68 327 -76Q346 -84 361.5 -99Q377 -114 387 -135Q397 -156 397 -181Q397 -217 380 -249.5Q363 -282 335.5 -309Q308 -336 273.5 -356Q239 -376 205 -386ZM272 92Q272 66 284 56.5Q296 47 325 47H399Q414 47 426 47.5Q438 48 449 52.5Q460 57 470.5 68Q481 79 492 101L527 170H564L545 -4Q514 -3 485 -2Q460 -1 434.5 -0.5Q409 0 392 0H180L39 -4V35L79 43Q100 48 108 56Q116 64 117 82Q117 104 118 136Q118 162 118.5 201Q119 240 119 290Q119 340 118.5 375Q118 410 118 433Q117 459 117 477Q117 498 108.5 505Q100 512 79 517L39 525V564L195 560L350 564V525L310 517Q290 512 282 505Q274 498 273 477Q272 459 271 433Q270 410 270 375Q270 340 270 290Q270 240 270 209.5Q270 179 270 159Q270 139 270.5 124.5Q271 110 272 92Z" glyph-name="Lcommaaccent.smcp" horiz-adv-x="580" /><glyph d="M408 364Q408 382 415 397.5Q422 413 434 425Q446 437 462 444Q478 451 496 451Q514 451 529.5 444Q545 437 557 425Q569 413 576 397.5Q583 382 583 364Q583 346 576 330Q569 314 557 302.5Q545 291 529.5 284Q514 277 496 277Q460 277 434 302.5Q408 328 408 364ZM301 112Q302 80 316.5 68Q331 56 368 56H465Q483 56 498.5 57Q514 58 528.5 64Q543 70 556 84.5Q569 99 583 126L628 212H670L647 -5Q607 -4 570 -3Q538 -2 505.5 -1Q473 0 452 0H204L38 -5V41L89 51Q115 56 125 66Q135 76 136 99Q136 128 137 167Q138 200 138.5 248Q139 296 139 359Q139 421 138.5 466Q138 511 137 541Q136 576 136 600Q135 626 125 635Q115 644 89 649L38 659V705L218 700L398 705V659L347 649Q321 644 311 635Q301 626 300 600Q299 576 298 541Q297 511 297 466Q297 421 297 359Q297 297 297.5 259Q298 221 298.5 195.5Q299 170 299.5 152Q300 134 301 112Z" glyph-name="Ldot" horiz-adv-x="682" unicode="&#319;" /><glyph d="M272 92Q272 66 284 56.5Q296 47 325 47H399Q414 47 426 47.5Q438 48 449 52.5Q460 57 470.5 68Q481 79 492 101L527 170H564L545 -4Q514 -3 485 -2Q460 -1 434.5 -0.5Q409 0 392 0H180L39 -4V35L79 43Q100 48 108 56Q116 64 117 82Q117 104 118 136Q118 162 118.5 201Q119 240 119 290Q119 340 118.5 375Q118 410 118 433Q117 459 117 477Q117 498 108.5 505Q100 512 79 517L39 525V564L195 560L350 564V525L310 517Q290 512 282 505Q274 498 273 477Q272 459 271 433Q270 410 270 375Q270 340 270 290Q270 240 270 209.5Q270 179 270 159Q270 139 270.5 124.5Q271 110 272 92ZM351 288Q351 317 372.5 339Q394 361 425 361Q439 361 452 355Q465 349 475 339Q485 329 491 316Q497 303 497 288Q497 258 475.5 236.5Q454 215 425 215Q394 215 372.5 236.5Q351 258 351 288Z" glyph-name="Ldot.smcp" horiz-adv-x="580" /><glyph d="M301 112Q302 80 316.5 68Q331 56 368 56H465Q483 56 498.5 57Q514 58 528.5 64Q543 70 556 84.5Q569 99 583 126L628 212H670L647 -5Q607 -4 570 -3Q538 -2 505.5 -1Q473 0 452 0H204L38 -5V41L89 51Q115 56 125 66Q135 76 136 99Q136 119 137 145Q138 168 138 199.5Q138 231 139 273L47 236V292L139 328V359Q139 421 138.5 466Q138 511 137 541Q136 576 136 600Q135 626 125 635Q115 644 89 649L38 659V705L218 700L398 705V659L347 649Q321 644 311 635Q301 626 300 600Q299 578 298 548Q297 522 297 483.5Q297 445 297 392L463 459V403L297 336Q297 283 297.5 249Q298 215 298.5 191.5Q299 168 299.5 150.5Q300 133 301 112Z" glyph-name="Lslash" horiz-adv-x="683" unicode="&#321;" /><glyph d="M272 92Q272 66 284 56.5Q296 47 325 47H399Q414 47 426 47.5Q438 48 449 52.5Q460 57 470.5 68Q481 79 492 101L527 170H564L545 -4Q514 -3 485 -2Q460 -1 434.5 -0.5Q409 0 392 0H180L39 -4V35L79 43Q100 48 108 56Q116 64 117 82Q118 97 118 117Q118 134 118 159Q118 184 119 216L49 187V236L119 264V290Q119 340 118.5 375Q118 410 118 433Q117 459 117 477Q117 498 108.5 505Q100 512 79 517L39 525V564L195 560L350 564V525L310 517Q290 512 282 505Q274 498 273 477Q272 462 271 440Q270 421 270 392Q270 363 270 324L386 370V322L270 276Q270 233 270 205Q270 177 270 157.5Q270 138 270.5 123Q271 108 272 92Z" glyph-name="Lslash.smcp" horiz-adv-x="579" /><glyph d="M786 99Q784 227 783.5 324.5Q783 422 782 489Q781 567 781 624L553 -6H453Q426 63 398 134.5Q370 206 339.5 283Q309 360 275.5 444.5Q242 529 203 623V411Q203 368 203 323.5Q203 279 203.5 237.5Q204 196 204 160Q204 124 204 99Q204 76 213.5 66Q223 56 249 51L299 41V-5L167 0L34 -5V41L85 51Q112 56 121.5 66Q131 76 132 99Q136 201 138 291.5Q140 382 141 451Q142 531 141 600Q141 624 131 634Q121 644 95 649L44 659V705L220 700Q231 700 253.5 700.5Q276 701 299 702Q325 703 355 705Q363 678 374 647Q383 620 396 585Q409 550 424 512L556 175Q590 260 619.5 346Q649 432 671 502Q697 584 718 659V705L828 700L1041 705V659L990 649Q964 644 953.5 634Q943 624 943 600Q943 565 943 525Q943 485 943.5 443.5Q944 402 944.5 360Q945 318 946 280Q948 190 950 99Q950 76 960 66Q970 56 996 51L1047 41V-5L849 0L688 -5V41L739 51Q765 56 775.5 66Q786 76 786 99Z" glyph-name="M" horiz-adv-x="1083" unicode="M" /><glyph d="M652 82Q650 200 649.5 280Q649 360 648 408Q647 464 647 497L477 -5H372Q351 50 329 107Q307 164 283.5 225.5Q260 287 233.5 354Q207 421 177 496V329Q177 295 177 260Q177 225 177.5 192Q178 159 178 130.5Q178 102 178 82Q178 63 185 55.5Q192 48 213 43L252 35V-4L148 0L37 -4V35L77 43Q99 48 106.5 55.5Q114 63 115 82Q119 179 120.5 248Q122 317 122.5 363.5Q123 410 122.5 437Q122 464 122 477Q122 497 113.5 504.5Q105 512 85 517L45 525V564L198 560Q212 560 234.5 560.5Q257 561 277 562Q301 563 327 564Q329 552 336 529Q342 509 353 476Q364 443 384 392L476 154Q502 218 522.5 284Q543 350 557 404Q573 466 585 525V564L684 560L879 564V525L840 517Q819 512 811 504.5Q803 497 803 477Q803 468 803 446Q803 424 803.5 394.5Q804 365 804.5 330.5Q805 296 805 261Q806 179 808 82Q808 63 815.5 55.5Q823 48 844 43L884 35V-4L705 0L575 -4V35L614 43Q635 48 643.5 55.5Q652 63 652 82Z" glyph-name="M.smcp" horiz-adv-x="922" /><glyph d="M141 600Q141 623 131 633.5Q121 644 95 649L46 659V705L189 700L342 705Q347 690 354 674Q360 660 369 644Q378 628 389 613L712 178L704 600Q703 624 693.5 634Q684 644 658 649L606 659V705L738 700L866 705V659L815 649Q788 644 778 634Q768 624 768 600Q767 523 766 429Q765 348 764.5 237.5Q764 127 764 -5H657Q560 129 476 241.5Q392 354 329 437Q256 534 195 613V406Q195 364 195 320Q195 276 195.5 235.5Q196 195 196 159.5Q196 124 196 99Q196 76 206 66Q216 56 242 51L294 41V-5L162 0L33 -5V41L84 51Q111 56 120.5 66Q130 76 131 99Q131 119 132 157Q133 195 134.5 242Q136 289 137 341Q138 393 139 442Q140 491 140.5 532.5Q141 574 141 600Z" glyph-name="N" horiz-adv-x="891" unicode="N" /><glyph d="M597 145Q596 220 595 285Q595 313 594.5 341.5Q594 370 593.5 395.5Q593 421 593 442.5Q593 464 593 477Q593 497 585.5 504.5Q578 512 557 517L516 525V564L622 560L724 564V525L683 517Q661 512 653.5 504.5Q646 497 646 477Q644 384 643 295Q642 257 641.5 216.5Q641 176 640.5 136.5Q640 97 640 61Q640 25 640 -4H536Q461 99 394.5 188Q328 277 277 344Q217 422 167 488V325Q167 292 167 257.5Q167 223 167.5 190.5Q168 158 168 130Q168 102 168 82Q168 63 176 55.5Q184 48 204 43L246 35V-4L142 0L35 -4V35L75 43Q97 48 104.5 55.5Q112 63 113 82Q113 94 114 121.5Q115 149 115.5 184.5Q116 220 117 261Q118 302 119 341.5Q120 381 120.5 416.5Q121 452 121 477Q121 496 112.5 504Q104 512 84 517L45 525V564L165 560L298 564Q304 552 311 539Q317 528 325.5 514Q334 500 345 485Z" glyph-name="N.smcp" horiz-adv-x="753" /><glyph d="M438 970H628L433 781L384 787ZM141 600Q141 623 131 633.5Q121 644 95 649L46 659V705L189 700L342 705Q347 690 354 674Q360 660 369 644Q378 628 389 613L712 178L704 600Q703 624 693.5 634Q684 644 658 649L606 659V705L738 700L866 705V659L815 649Q788 644 778 634Q768 624 768 600Q767 523 766 429Q765 348 764.5 237.5Q764 127 764 -5H657Q560 129 476 241.5Q392 354 329 437Q256 534 195 613V406Q195 364 195 320Q195 276 195.5 235.5Q196 195 196 159.5Q196 124 196 99Q196 76 206 66Q216 56 242 51L294 41V-5L162 0L33 -5V41L84 51Q111 56 120.5 66Q130 76 131 99Q131 119 132 157Q133 195 134.5 242Q136 289 137 341Q138 393 139 442Q140 491 140.5 532.5Q141 574 141 600Z" glyph-name="Nacute" horiz-adv-x="891" unicode="&#323;" /><glyph d="M597 145Q596 220 595 285Q595 313 594.5 341.5Q594 370 593.5 395.5Q593 421 593 442.5Q593 464 593 477Q593 497 585.5 504.5Q578 512 557 517L516 525V564L622 560L724 564V525L683 517Q661 512 653.5 504.5Q646 497 646 477Q644 384 643 295Q642 257 641.5 216.5Q641 176 640.5 136.5Q640 97 640 61Q640 25 640 -4H536Q461 99 394.5 188Q328 277 277 344Q217 422 167 488V325Q167 292 167 257.5Q167 223 167.5 190.5Q168 158 168 130Q168 102 168 82Q168 63 176 55.5Q184 48 204 43L246 35V-4L142 0L35 -4V35L75 43Q97 48 104.5 55.5Q112 63 113 82Q113 94 114 121.5Q115 149 115.5 184.5Q116 220 117 261Q118 302 119 341.5Q120 381 120.5 416.5Q121 452 121 477Q121 496 112.5 504Q104 512 84 517L45 525V564L165 560L298 564Q304 552 311 539Q317 528 325.5 514Q334 500 345 485ZM392 825H582L385 636L336 642Z" glyph-name="Nacute.smcp" horiz-adv-x="753" /><glyph d="M277 957 304 976 450 889H452L602 977L625 957L480 763H420ZM141 600Q141 623 131 633.5Q121 644 95 649L46 659V705L189 700L342 705Q347 690 354 674Q360 660 369 644Q378 628 389 613L712 178L704 600Q703 624 693.5 634Q684 644 658 649L606 659V705L738 700L866 705V659L815 649Q788 644 778 634Q768 624 768 600Q767 523 766 429Q765 348 764.5 237.5Q764 127 764 -5H657Q560 129 476 241.5Q392 354 329 437Q256 534 195 613V406Q195 364 195 320Q195 276 195.5 235.5Q196 195 196 159.5Q196 124 196 99Q196 76 206 66Q216 56 242 51L294 41V-5L162 0L33 -5V41L84 51Q111 56 120.5 66Q130 76 131 99Q131 119 132 157Q133 195 134.5 242Q136 289 137 341Q138 393 139 442Q140 491 140.5 532.5Q141 574 141 600Z" glyph-name="Ncaron" horiz-adv-x="891" unicode="&#327;" /><glyph d="M597 145Q596 220 595 285Q595 313 594.5 341.5Q594 370 593.5 395.5Q593 421 593 442.5Q593 464 593 477Q593 497 585.5 504.5Q578 512 557 517L516 525V564L622 560L724 564V525L683 517Q661 512 653.5 504.5Q646 497 646 477Q644 384 643 295Q642 257 641.5 216.5Q641 176 640.5 136.5Q640 97 640 61Q640 25 640 -4H536Q461 99 394.5 188Q328 277 277 344Q217 422 167 488V325Q167 292 167 257.5Q167 223 167.5 190.5Q168 158 168 130Q168 102 168 82Q168 63 176 55.5Q184 48 204 43L246 35V-4L142 0L35 -4V35L75 43Q97 48 104.5 55.5Q112 63 113 82Q113 94 114 121.5Q115 149 115.5 184.5Q116 220 117 261Q118 302 119 341.5Q120 381 120.5 416.5Q121 452 121 477Q121 496 112.5 504Q104 512 84 517L45 525V564L165 560L298 564Q304 552 311 539Q317 528 325.5 514Q334 500 345 485ZM210 812 237 831 385 744H387L539 832L562 812L415 618H354Z" glyph-name="Ncaron.smcp" horiz-adv-x="753" /><glyph d="M318 -361Q368 -340 393 -309Q418 -278 418 -247Q418 -219 398 -195Q378 -171 331 -154Q335 -138 345 -122.5Q355 -107 369 -95Q383 -83 398.5 -75.5Q414 -68 429 -68Q446 -68 464.5 -76Q483 -84 498.5 -99Q514 -114 524 -135Q534 -156 534 -181Q534 -217 517 -249.5Q500 -282 473 -309Q446 -336 411.5 -356Q377 -376 343 -386ZM141 600Q141 623 131 633.5Q121 644 95 649L46 659V705L189 700L342 705Q347 690 354 674Q360 660 369 644Q378 628 389 613L712 178L704 600Q703 624 693.5 634Q684 644 658 649L606 659V705L738 700L866 705V659L815 649Q788 644 778 634Q768 624 768 600Q767 523 766 429Q765 348 764.5 237.5Q764 127 764 -5H657Q560 129 476 241.5Q392 354 329 437Q256 534 195 613V406Q195 364 195 320Q195 276 195.5 235.5Q196 195 196 159.5Q196 124 196 99Q196 76 206 66Q216 56 242 51L294 41V-5L162 0L33 -5V41L84 51Q111 56 120.5 66Q130 76 131 99Q131 119 132 157Q133 195 134.5 242Q136 289 137 341Q138 393 139 442Q140 491 140.5 532.5Q141 574 141 600Z" glyph-name="Ncommaaccent" horiz-adv-x="891" unicode="&#325;" /><glyph d="M597 145Q596 220 595 285Q595 313 594.5 341.5Q594 370 593.5 395.5Q593 421 593 442.5Q593 464 593 477Q593 497 585.5 504.5Q578 512 557 517L516 525V564L622 560L724 564V525L683 517Q661 512 653.5 504.5Q646 497 646 477Q644 384 643 295Q642 257 641.5 216.5Q641 176 640.5 136.5Q640 97 640 61Q640 25 640 -4H536Q461 99 394.5 188Q328 277 277 344Q217 422 167 488V325Q167 292 167 257.5Q167 223 167.5 190.5Q168 158 168 130Q168 102 168 82Q168 63 176 55.5Q184 48 204 43L246 35V-4L142 0L35 -4V35L75 43Q97 48 104.5 55.5Q112 63 113 82Q113 94 114 121.5Q115 149 115.5 184.5Q116 220 117 261Q118 302 119 341.5Q120 381 120.5 416.5Q121 452 121 477Q121 496 112.5 504Q104 512 84 517L45 525V564L165 560L298 564Q304 552 311 539Q317 528 325.5 514Q334 500 345 485ZM242 -361Q292 -340 317.5 -309Q343 -278 343 -247Q343 -219 322.5 -195Q302 -171 255 -154Q259 -138 269 -122.5Q279 -107 293 -95Q307 -83 322.5 -75.5Q338 -68 353 -68Q370 -68 389 -76Q408 -84 423.5 -99Q439 -114 449 -135Q459 -156 459 -181Q459 -217 442 -249.5Q425 -282 397.5 -309Q370 -336 335.5 -356Q301 -376 267 -386Z" glyph-name="Ncommaaccent.smcp" horiz-adv-x="753" /><glyph d="M539 888Q551 888 558.5 889Q566 890 572 893.5Q578 897 583.5 905Q589 913 597 927L630 915Q625 896 615 873Q605 850 590 830Q575 810 554.5 796.5Q534 783 507 783Q489 783 470 789.5Q451 796 433 804.5Q415 813 399 819.5Q383 826 371 826Q350 826 335 820.5Q320 815 305 788L272 800Q276 819 287 842.5Q298 866 313.5 886Q329 906 350 919.5Q371 933 396 933Q412 933 433 926Q454 919 474 910.5Q494 902 511.5 895Q529 888 539 888ZM141 600Q141 623 131 633.5Q121 644 95 649L46 659V705L189 700L342 705Q347 690 354 674Q360 660 369 644Q378 628 389 613L712 178L704 600Q703 624 693.5 634Q684 644 658 649L606 659V705L738 700L866 705V659L815 649Q788 644 778 634Q768 624 768 600Q767 523 766 429Q765 348 764.5 237.5Q764 127 764 -5H657Q560 129 476 241.5Q392 354 329 437Q256 534 195 613V406Q195 364 195 320Q195 276 195.5 235.5Q196 195 196 159.5Q196 124 196 99Q196 76 206 66Q216 56 242 51L294 41V-5L162 0L33 -5V41L84 51Q111 56 120.5 66Q130 76 131 99Q131 119 132 157Q133 195 134.5 242Q136 289 137 341Q138 393 139 442Q140 491 140.5 532.5Q141 574 141 600Z" glyph-name="Ntilde" horiz-adv-x="891" unicode="&#209;" /><glyph d="M474 747Q486 747 494 748Q502 749 508 752.5Q514 756 519.5 764Q525 772 533 786L566 774Q561 755 551 732Q541 709 526 689Q511 669 490 655.5Q469 642 442 642Q424 642 405 648.5Q386 655 367.5 663.5Q349 672 332.5 678.5Q316 685 304 685Q282 685 267 679.5Q252 674 237 647Q236 647 231 649Q226 651 220 653L204 659Q208 678 219 701.5Q230 725 245.5 745Q261 765 282 778.5Q303 792 329 792Q345 792 366.5 785Q388 778 408.5 769.5Q429 761 446.5 754Q464 747 474 747ZM597 145Q596 220 595 285Q595 313 594.5 341.5Q594 370 593.5 395.5Q593 421 593 442.5Q593 464 593 477Q593 497 585.5 504.5Q578 512 557 517L516 525V564L622 560L724 564V525L683 517Q661 512 653.5 504.5Q646 497 646 477Q644 384 643 295Q642 257 641.5 216.5Q641 176 640.5 136.5Q640 97 640 61Q640 25 640 -4H536Q461 99 394.5 188Q328 277 277 344Q217 422 167 488V325Q167 292 167 257.5Q167 223 167.5 190.5Q168 158 168 130Q168 102 168 82Q168 63 176 55.5Q184 48 204 43L246 35V-4L142 0L35 -4V35L75 43Q97 48 104.5 55.5Q112 63 113 82Q113 94 114 121.5Q115 149 115.5 184.5Q116 220 117 261Q118 302 119 341.5Q120 381 120.5 416.5Q121 452 121 477Q121 496 112.5 504Q104 512 84 517L45 525V564L165 560L298 564Q304 552 311 539Q317 528 325.5 514Q334 500 345 485Z" glyph-name="Ntilde.smcp" horiz-adv-x="753" /><glyph d="M418 715Q489 715 556.5 692.5Q624 670 677 625Q730 580 762 512.5Q794 445 794 354Q794 274 764.5 206.5Q735 139 683.5 89.5Q632 40 562 12.5Q492 -15 410 -15Q350 -15 285.5 7Q221 29 167 73Q113 117 78 184.5Q43 252 43 343Q43 423 71 491Q99 559 148.5 608.5Q198 658 267 686.5Q336 715 418 715ZM427 42Q492 42 531.5 69.5Q571 97 592 140Q613 183 619.5 235Q626 287 626 336Q626 421 611.5 482Q597 543 570 582Q543 621 505 639.5Q467 658 421 658Q355 658 314 630Q273 602 250 559Q227 516 219 464Q211 412 211 363Q211 277 227.5 216.5Q244 156 272.5 117Q301 78 340.5 60Q380 42 427 42Z" glyph-name="O" horiz-adv-x="837" unicode="O" /><glyph d="M344 572Q405 572 462 554Q519 536 562.5 500Q606 464 632.5 410Q659 356 659 283Q659 219 634 165Q609 111 566 71.5Q523 32 465.5 10Q408 -12 344 -12Q297 -12 244 5.5Q191 23 146 58.5Q101 94 71 147.5Q41 201 41 274Q41 338 64 392.5Q87 447 128 486.5Q169 526 224 549Q279 572 344 572ZM359 36Q410 36 438.5 58Q467 80 480.5 113.5Q494 147 497 188.5Q500 230 500 269Q500 405 463.5 464.5Q427 524 354 524Q302 524 271.5 502Q241 480 225 446Q209 412 204.5 370.5Q200 329 200 290Q200 222 211 173.5Q222 125 243 94.5Q264 64 293.5 50Q323 36 359 36Z" glyph-name="O.smcp" horiz-adv-x="701" /><glyph d="M586 0Q560 -2 533.5 -3.5Q507 -5 483.5 -6Q460 -7 441 -7.5Q422 -8 411 -8Q320 -8 251.5 19.5Q183 47 137 94.5Q91 142 67.5 204.5Q44 267 44 337Q44 433 77 503Q110 573 165.5 619.5Q221 666 293 688.5Q365 711 442 711Q442 711 464.5 710Q487 709 518 707Q549 705 581.5 703Q614 701 635 700H938Q959 700 985 701.5Q1011 703 1034 705Q1061 708 1089 711Q1087 692 1084 663Q1082 638 1078.5 600Q1075 562 1072 508H1023L1011 547Q997 594 982 619.5Q967 645 938 645H762Q750 645 747.5 641Q745 637 745 629V388H777Q792 388 811.5 388.5Q831 389 852 391Q875 393 886 403.5Q897 414 904 442L917 497H965L960 359L965 227H917L904 282Q897 310 886 320.5Q875 331 852 333Q831 334 811.5 335Q792 336 777 336H745V119Q745 87 761.5 71.5Q778 56 814 56H918Q936 56 953 58.5Q970 61 985 69Q1000 77 1014.5 93Q1029 109 1043 136L1081 212H1128Q1122 170 1118 130Q1114 96 1110.5 59Q1107 22 1105 -5Q1065 -4 1028 -3Q996 -2 963 -1Q930 0 909 0ZM538 652Q525 653 516.5 653.5Q508 654 494 654Q442 654 392.5 641Q343 628 304 593Q265 558 241 497.5Q217 437 217 343Q217 198 289 124.5Q361 51 490 51Q507 51 524 50.5Q541 50 555 50H587V583Q587 615 579 632Q571 649 538 652Z" glyph-name="OE" horiz-adv-x="1165" unicode="&#338;" /><glyph d="M420 521Q379 521 340.5 510.5Q302 500 271.5 472Q241 444 222.5 396.5Q204 349 204 275Q204 217 219 173.5Q234 130 261.5 101Q289 72 328 57.5Q367 43 414 43H476V464Q476 482 475 493Q474 504 469 510.5Q464 517 454.5 519Q445 521 429 521ZM476 0Q455 -2 433.5 -3Q412 -4 392.5 -4.5Q373 -5 357.5 -5.5Q342 -6 333 -6Q261 -6 206.5 16Q152 38 115.5 76Q79 114 60 164Q41 214 41 270Q41 346 67.5 402.5Q94 459 138 496Q182 533 239 551Q296 569 357 569Q402 569 441 565.5Q480 562 514 560H778Q795 560 815.5 561Q836 562 854 564Q875 566 897 569Q895 553 893 530Q891 510 888.5 479.5Q886 449 884 406H840L831 435Q819 472 807.5 492.5Q796 513 774 513H641Q631 513 629 510Q627 507 627 501V313H650Q661 313 674.5 313Q688 313 705 315Q724 317 732.5 325.5Q741 334 746 356L756 400H799L795 287L799 182H756L746 226Q741 248 733 256.5Q725 265 705 266Q688 267 674.5 268Q661 269 650 269H627V98Q627 47 681 47H757Q772 47 785.5 49Q799 51 811.5 57.5Q824 64 835.5 76.5Q847 89 857 111L885 170H928Q926 158 924 137.5Q922 117 920 93Q918 69 915.5 43.5Q913 18 911 -4Q879 -3 850 -2Q825 -1 799 -0.5Q773 0 756 0Z" glyph-name="OE.smcp" horiz-adv-x="966" /><glyph d="M380 970H570L375 781L326 787ZM418 715Q489 715 556.5 692.5Q624 670 677 625Q730 580 762 512.5Q794 445 794 354Q794 274 764.5 206.5Q735 139 683.5 89.5Q632 40 562 12.5Q492 -15 410 -15Q350 -15 285.5 7Q221 29 167 73Q113 117 78 184.5Q43 252 43 343Q43 423 71 491Q99 559 148.5 608.5Q198 658 267 686.5Q336 715 418 715ZM427 42Q492 42 531.5 69.5Q571 97 592 140Q613 183 619.5 235Q626 287 626 336Q626 421 611.5 482Q597 543 570 582Q543 621 505 639.5Q467 658 421 658Q355 658 314 630Q273 602 250 559Q227 516 219 464Q211 412 211 363Q211 277 227.5 216.5Q244 156 272.5 117Q301 78 340.5 60Q380 42 427 42Z" glyph-name="Oacute" horiz-adv-x="837" unicode="&#211;" /><glyph d="M344 572Q405 572 462 554Q519 536 562.5 500Q606 464 632.5 410Q659 356 659 283Q659 219 634 165Q609 111 566 71.5Q523 32 465.5 10Q408 -12 344 -12Q297 -12 244 5.5Q191 23 146 58.5Q101 94 71 147.5Q41 201 41 274Q41 338 64 392.5Q87 447 128 486.5Q169 526 224 549Q279 572 344 572ZM359 36Q410 36 438.5 58Q467 80 480.5 113.5Q494 147 497 188.5Q500 230 500 269Q500 405 463.5 464.5Q427 524 354 524Q302 524 271.5 502Q241 480 225 446Q209 412 204.5 370.5Q200 329 200 290Q200 222 211 173.5Q222 125 243 94.5Q264 64 293.5 50Q323 36 359 36ZM330 823H520L323 634L274 640Z" glyph-name="Oacute.smcp" horiz-adv-x="701" /><glyph d="M420 891Q455 891 475.5 898.5Q496 906 506.5 918.5Q517 931 520 947Q523 963 523 980V985H574V945Q574 908 564 877Q554 846 534.5 823.5Q515 801 486 788.5Q457 776 420 776Q383 776 354.5 788.5Q326 801 306.5 823.5Q287 846 277 877Q267 908 267 945V985H318V980Q318 963 321 947Q324 931 334.5 918.5Q345 906 365 898.5Q385 891 420 891ZM418 715Q489 715 556.5 692.5Q624 670 677 625Q730 580 762 512.5Q794 445 794 354Q794 274 764.5 206.5Q735 139 683.5 89.5Q632 40 562 12.5Q492 -15 410 -15Q350 -15 285.5 7Q221 29 167 73Q113 117 78 184.5Q43 252 43 343Q43 423 71 491Q99 559 148.5 608.5Q198 658 267 686.5Q336 715 418 715ZM427 42Q492 42 531.5 69.5Q571 97 592 140Q613 183 619.5 235Q626 287 626 336Q626 421 611.5 482Q597 543 570 582Q543 621 505 639.5Q467 658 421 658Q355 658 314 630Q273 602 250 559Q227 516 219 464Q211 412 211 363Q211 277 227.5 216.5Q244 156 272.5 117Q301 78 340.5 60Q380 42 427 42Z" glyph-name="Obreve" horiz-adv-x="837" unicode="&#334;" /><glyph d="M344 572Q405 572 462 554Q519 536 562.5 500Q606 464 632.5 410Q659 356 659 283Q659 219 634 165Q609 111 566 71.5Q523 32 465.5 10Q408 -12 344 -12Q297 -12 244 5.5Q191 23 146 58.5Q101 94 71 147.5Q41 201 41 274Q41 338 64 392.5Q87 447 128 486.5Q169 526 224 549Q279 572 344 572ZM359 36Q410 36 438.5 58Q467 80 480.5 113.5Q494 147 497 188.5Q500 230 500 269Q500 405 463.5 464.5Q427 524 354 524Q302 524 271.5 502Q241 480 225 446Q209 412 204.5 370.5Q200 329 200 290Q200 222 211 173.5Q222 125 243 94.5Q264 64 293.5 50Q323 36 359 36ZM351 750Q386 750 407 757.5Q428 765 438.5 777.5Q449 790 452 806Q455 822 455 839V844H507V804Q507 767 497 736Q487 705 467 682.5Q447 660 418 647.5Q389 635 351 635Q313 635 284.5 647.5Q256 660 236 682.5Q216 705 206 736Q196 767 196 804V844H247V839Q247 822 250 806Q253 790 263.5 777.5Q274 765 295 757.5Q316 750 351 750Z" glyph-name="Obreve.smcp" horiz-adv-x="701" /><glyph d="M387 976H447L592 782L569 762L419 849H417L271 763L244 782ZM418 715Q489 715 556.5 692.5Q624 670 677 625Q730 580 762 512.5Q794 445 794 354Q794 274 764.5 206.5Q735 139 683.5 89.5Q632 40 562 12.5Q492 -15 410 -15Q350 -15 285.5 7Q221 29 167 73Q113 117 78 184.5Q43 252 43 343Q43 423 71 491Q99 559 148.5 608.5Q198 658 267 686.5Q336 715 418 715ZM427 42Q492 42 531.5 69.5Q571 97 592 140Q613 183 619.5 235Q626 287 626 336Q626 421 611.5 482Q597 543 570 582Q543 621 505 639.5Q467 658 421 658Q355 658 314 630Q273 602 250 559Q227 516 219 464Q211 412 211 363Q211 277 227.5 216.5Q244 156 272.5 117Q301 78 340.5 60Q380 42 427 42Z" glyph-name="Ocircumflex" horiz-adv-x="837" unicode="&#212;" /><glyph d="M344 572Q405 572 462 554Q519 536 562.5 500Q606 464 632.5 410Q659 356 659 283Q659 219 634 165Q609 111 566 71.5Q523 32 465.5 10Q408 -12 344 -12Q297 -12 244 5.5Q191 23 146 58.5Q101 94 71 147.5Q41 201 41 274Q41 338 64 392.5Q87 447 128 486.5Q169 526 224 549Q279 572 344 572ZM359 36Q410 36 438.5 58Q467 80 480.5 113.5Q494 147 497 188.5Q500 230 500 269Q500 405 463.5 464.5Q427 524 354 524Q302 524 271.5 502Q241 480 225 446Q209 412 204.5 370.5Q200 329 200 290Q200 222 211 173.5Q222 125 243 94.5Q264 64 293.5 50Q323 36 359 36ZM317 829H378L525 635L502 615L350 702H348L200 616L173 635Z" glyph-name="Ocircumflex.smcp" horiz-adv-x="701" /><glyph d="M437 857Q437 892 460.5 916Q484 940 519 940Q554 940 578 916Q602 892 602 857Q602 822 578 798Q554 774 519 774Q484 774 460.5 798Q437 822 437 857ZM234 857Q234 892 257.5 916Q281 940 316 940Q353 940 376.5 916Q400 892 400 857Q400 822 376.5 798Q353 774 316 774Q281 774 257.5 798Q234 822 234 857ZM418 715Q489 715 556.5 692.5Q624 670 677 625Q730 580 762 512.5Q794 445 794 354Q794 274 764.5 206.5Q735 139 683.5 89.5Q632 40 562 12.5Q492 -15 410 -15Q350 -15 285.5 7Q221 29 167 73Q113 117 78 184.5Q43 252 43 343Q43 423 71 491Q99 559 148.5 608.5Q198 658 267 686.5Q336 715 418 715ZM427 42Q492 42 531.5 69.5Q571 97 592 140Q613 183 619.5 235Q626 287 626 336Q626 421 611.5 482Q597 543 570 582Q543 621 505 639.5Q467 658 421 658Q355 658 314 630Q273 602 250 559Q227 516 219 464Q211 412 211 363Q211 277 227.5 216.5Q244 156 272.5 117Q301 78 340.5 60Q380 42 427 42Z" glyph-name="Odieresis" horiz-adv-x="837" unicode="&#214;" /><glyph d="M344 572Q405 572 462 554Q519 536 562.5 500Q606 464 632.5 410Q659 356 659 283Q659 219 634 165Q609 111 566 71.5Q523 32 465.5 10Q408 -12 344 -12Q297 -12 244 5.5Q191 23 146 58.5Q101 94 71 147.5Q41 201 41 274Q41 338 64 392.5Q87 447 128 486.5Q169 526 224 549Q279 572 344 572ZM359 36Q410 36 438.5 58Q467 80 480.5 113.5Q494 147 497 188.5Q500 230 500 269Q500 405 463.5 464.5Q427 524 354 524Q302 524 271.5 502Q241 480 225 446Q209 412 204.5 370.5Q200 329 200 290Q200 222 211 173.5Q222 125 243 94.5Q264 64 293.5 50Q323 36 359 36ZM370 710Q370 745 394 769Q418 793 453 793Q488 793 512 769Q536 745 536 710Q536 675 512 651Q488 627 453 627Q418 627 394 651Q370 675 370 710ZM164 710Q164 745 188 769Q212 793 247 793Q282 793 306 769Q330 745 330 710Q330 675 306 651Q282 627 247 627Q212 627 188 651Q164 675 164 710Z" glyph-name="Odieresis.smcp" horiz-adv-x="701" /><glyph d="M540 787 491 781 296 970H486ZM418 715Q489 715 556.5 692.5Q624 670 677 625Q730 580 762 512.5Q794 445 794 354Q794 274 764.5 206.5Q735 139 683.5 89.5Q632 40 562 12.5Q492 -15 410 -15Q350 -15 285.5 7Q221 29 167 73Q113 117 78 184.5Q43 252 43 343Q43 423 71 491Q99 559 148.5 608.5Q198 658 267 686.5Q336 715 418 715ZM427 42Q492 42 531.5 69.5Q571 97 592 140Q613 183 619.5 235Q626 287 626 336Q626 421 611.5 482Q597 543 570 582Q543 621 505 639.5Q467 658 421 658Q355 658 314 630Q273 602 250 559Q227 516 219 464Q211 412 211 363Q211 277 227.5 216.5Q244 156 272.5 117Q301 78 340.5 60Q380 42 427 42Z" glyph-name="Ograve" horiz-adv-x="837" unicode="&#210;" /><glyph d="M344 572Q405 572 462 554Q519 536 562.5 500Q606 464 632.5 410Q659 356 659 283Q659 219 634 165Q609 111 566 71.5Q523 32 465.5 10Q408 -12 344 -12Q297 -12 244 5.5Q191 23 146 58.5Q101 94 71 147.5Q41 201 41 274Q41 338 64 392.5Q87 447 128 486.5Q169 526 224 549Q279 572 344 572ZM359 36Q410 36 438.5 58Q467 80 480.5 113.5Q494 147 497 188.5Q500 230 500 269Q500 405 463.5 464.5Q427 524 354 524Q302 524 271.5 502Q241 480 225 446Q209 412 204.5 370.5Q200 329 200 290Q200 222 211 173.5Q222 125 243 94.5Q264 64 293.5 50Q323 36 359 36ZM471 640 421 634 224 823H414Z" glyph-name="Ograve.smcp" horiz-adv-x="701" /><glyph d="M482 970H652L487 781L438 787ZM292 970H462L297 781L248 787ZM418 715Q489 715 556.5 692.5Q624 670 677 625Q730 580 762 512.5Q794 445 794 354Q794 274 764.5 206.5Q735 139 683.5 89.5Q632 40 562 12.5Q492 -15 410 -15Q350 -15 285.5 7Q221 29 167 73Q113 117 78 184.5Q43 252 43 343Q43 423 71 491Q99 559 148.5 608.5Q198 658 267 686.5Q336 715 418 715ZM427 42Q492 42 531.5 69.5Q571 97 592 140Q613 183 619.5 235Q626 287 626 336Q626 421 611.5 482Q597 543 570 582Q543 621 505 639.5Q467 658 421 658Q355 658 314 630Q273 602 250 559Q227 516 219 464Q211 412 211 363Q211 277 227.5 216.5Q244 156 272.5 117Q301 78 340.5 60Q380 42 427 42Z" glyph-name="Ohungarumlaut" horiz-adv-x="837" unicode="&#336;" /><glyph d="M344 572Q405 572 462 554Q519 536 562.5 500Q606 464 632.5 410Q659 356 659 283Q659 219 634 165Q609 111 566 71.5Q523 32 465.5 10Q408 -12 344 -12Q297 -12 244 5.5Q191 23 146 58.5Q101 94 71 147.5Q41 201 41 274Q41 338 64 392.5Q87 447 128 486.5Q169 526 224 549Q279 572 344 572ZM359 36Q410 36 438.5 58Q467 80 480.5 113.5Q494 147 497 188.5Q500 230 500 269Q500 405 463.5 464.5Q427 524 354 524Q302 524 271.5 502Q241 480 225 446Q209 412 204.5 370.5Q200 329 200 290Q200 222 211 173.5Q222 125 243 94.5Q264 64 293.5 50Q323 36 359 36ZM434 812H605L437 623L387 629ZM241 812H412L244 623L194 629Z" glyph-name="Ohungarumlaut.smcp" horiz-adv-x="701" /><glyph d="M259 793V869H578V793ZM418 715Q489 715 556.5 692.5Q624 670 677 625Q730 580 762 512.5Q794 445 794 354Q794 274 764.5 206.5Q735 139 683.5 89.5Q632 40 562 12.5Q492 -15 410 -15Q350 -15 285.5 7Q221 29 167 73Q113 117 78 184.5Q43 252 43 343Q43 423 71 491Q99 559 148.5 608.5Q198 658 267 686.5Q336 715 418 715ZM427 42Q492 42 531.5 69.5Q571 97 592 140Q613 183 619.5 235Q626 287 626 336Q626 421 611.5 482Q597 543 570 582Q543 621 505 639.5Q467 658 421 658Q355 658 314 630Q273 602 250 559Q227 516 219 464Q211 412 211 363Q211 277 227.5 216.5Q244 156 272.5 117Q301 78 340.5 60Q380 42 427 42Z" glyph-name="Omacron" horiz-adv-x="837" unicode="&#332;" /><glyph d="M344 572Q405 572 462 554Q519 536 562.5 500Q606 464 632.5 410Q659 356 659 283Q659 219 634 165Q609 111 566 71.5Q523 32 465.5 10Q408 -12 344 -12Q297 -12 244 5.5Q191 23 146 58.5Q101 94 71 147.5Q41 201 41 274Q41 338 64 392.5Q87 447 128 486.5Q169 526 224 549Q279 572 344 572ZM359 36Q410 36 438.5 58Q467 80 480.5 113.5Q494 147 497 188.5Q500 230 500 269Q500 405 463.5 464.5Q427 524 354 524Q302 524 271.5 502Q241 480 225 446Q209 412 204.5 370.5Q200 329 200 290Q200 222 211 173.5Q222 125 243 94.5Q264 64 293.5 50Q323 36 359 36ZM190 652V728H513V652Z" glyph-name="Omacron.smcp" horiz-adv-x="701" /><glyph d="M402 671Q360 671 326 658.5Q292 646 267.5 617.5Q243 589 230 543Q217 497 217 429Q217 366 223.5 326Q230 286 242.5 261.5Q255 237 274 225Q293 213 317 206V-3Q306 -2 281 -1Q256 0 231 0H139Q132 0 124.5 -0.5Q117 -1 110 -1Q102 -2 94 -2L86 178H124L134 136Q138 119 145 110Q152 101 160.5 96.5Q169 92 178 91.5Q187 91 195 91H234Q259 91 267 100.5Q275 110 275 130V177Q220 184 178 207.5Q136 231 107.5 265Q79 299 64.5 342.5Q50 386 50 434Q50 497 77.5 549Q105 601 152.5 637.5Q200 674 264 694.5Q328 715 402 715Q475 715 539.5 694.5Q604 674 652 637.5Q700 601 727.5 549Q755 497 755 434Q755 386 740 342.5Q725 299 696.5 265Q668 231 626 207.5Q584 184 529 177V130Q529 110 537 100.5Q545 91 570 91H610Q617 91 626 91.5Q635 92 643.5 96.5Q652 101 659 110Q666 119 670 136L680 178H718L710 -2Q702 -2 694 -1Q687 -1 679.5 -0.5Q672 0 666 0H573Q549 0 523.5 -1Q498 -2 488 -3V206Q512 213 530.5 225Q549 237 561.5 261.5Q574 286 580.5 326Q587 366 587 429Q587 497 574 543Q561 589 536.5 617.5Q512 646 478 658.5Q444 671 402 671Z" glyph-name="Omega" horiz-adv-x="805" unicode="&#937;" /><glyph d="M427 42Q492 42 531.5 69.5Q571 97 592 140Q613 183 619.5 235Q626 287 626 336Q626 397 618 445.5Q610 494 596 531L280 107Q309 73 346 57.5Q383 42 427 42ZM211 363Q211 229 251 152L570 581Q543 620 505.5 639Q468 658 421 658Q355 658 314 630Q273 602 250 559Q227 516 219 464Q211 412 211 363ZM182 60Q122 105 82.5 175Q43 245 43 343Q43 423 71 491Q99 559 148.5 608.5Q198 658 267 686.5Q336 715 418 715Q474 715 527.5 701Q581 687 629 659L720 781L761 751L671 630Q726 585 760 516.5Q794 448 794 354Q794 274 764.5 206.5Q735 139 683.5 89.5Q632 40 562 12.5Q492 -15 410 -15Q365 -15 317.5 -3Q270 9 225 33L132 -92L91 -62Z" glyph-name="Oslash" horiz-adv-x="837" unicode="&#216;" /><glyph d="M359 36Q410 36 438.5 58Q467 80 480.5 113.5Q494 147 497 188.5Q500 230 500 269Q500 311 497.5 346Q495 381 489 409L247 90Q267 62 295.5 49Q324 36 359 36ZM200 290Q200 188 224 131L470 456Q433 524 354 524Q302 524 271.5 502Q241 480 225 446Q209 412 204.5 370.5Q200 329 200 290ZM344 572Q444 572 524 527L600 627L635 601L560 502Q605 466 632 411.5Q659 357 659 283Q659 219 634 165Q609 111 566 71.5Q523 32 465.5 10Q408 -12 344 -12Q310 -12 272.5 -3Q235 6 198 24L123 -75L88 -52L161 46Q110 82 75.5 138.5Q41 195 41 274Q41 338 64 392.5Q87 447 128 486.5Q169 526 224 549Q279 572 344 572Z" glyph-name="Oslash.smcp" horiz-adv-x="701" /><glyph d="M506 888Q518 888 525.5 889Q533 890 539 893.5Q545 897 550.5 905Q556 913 564 927L597 915Q592 896 582 873Q572 850 557 830Q542 810 521.5 796.5Q501 783 474 783Q456 783 437 789.5Q418 796 400 804.5Q382 813 366 819.5Q350 826 338 826Q317 826 302 820.5Q287 815 272 788L239 800Q243 819 254 842.5Q265 866 280.5 886Q296 906 317 919.5Q338 933 363 933Q379 933 400 926Q421 919 441 910.5Q461 902 478.5 895Q496 888 506 888ZM418 715Q489 715 556.5 692.5Q624 670 677 625Q730 580 762 512.5Q794 445 794 354Q794 274 764.5 206.5Q735 139 683.5 89.5Q632 40 562 12.5Q492 -15 410 -15Q350 -15 285.5 7Q221 29 167 73Q113 117 78 184.5Q43 252 43 343Q43 423 71 491Q99 559 148.5 608.5Q198 658 267 686.5Q336 715 418 715ZM427 42Q492 42 531.5 69.5Q571 97 592 140Q613 183 619.5 235Q626 287 626 336Q626 421 611.5 482Q597 543 570 582Q543 621 505 639.5Q467 658 421 658Q355 658 314 630Q273 602 250 559Q227 516 219 464Q211 412 211 363Q211 277 227.5 216.5Q244 156 272.5 117Q301 78 340.5 60Q380 42 427 42Z" glyph-name="Otilde" horiz-adv-x="837" unicode="&#213;" /><glyph d="M344 572Q405 572 462 554Q519 536 562.5 500Q606 464 632.5 410Q659 356 659 283Q659 219 634 165Q609 111 566 71.5Q523 32 465.5 10Q408 -12 344 -12Q297 -12 244 5.5Q191 23 146 58.5Q101 94 71 147.5Q41 201 41 274Q41 338 64 392.5Q87 447 128 486.5Q169 526 224 549Q279 572 344 572ZM359 36Q410 36 438.5 58Q467 80 480.5 113.5Q494 147 497 188.5Q500 230 500 269Q500 405 463.5 464.5Q427 524 354 524Q302 524 271.5 502Q241 480 225 446Q209 412 204.5 370.5Q200 329 200 290Q200 222 211 173.5Q222 125 243 94.5Q264 64 293.5 50Q323 36 359 36ZM433 741Q445 741 453 742Q461 743 467 746.5Q473 750 478.5 758Q484 766 492 780L525 768Q520 749 510 726Q500 703 485 683Q470 663 449 649.5Q428 636 401 636Q383 636 364 642.5Q345 649 326.5 657.5Q308 666 291.5 672.5Q275 679 263 679Q241 679 226 673.5Q211 668 196 641Q195 641 190 643Q185 645 179 647L163 653Q167 672 178 695.5Q189 719 204.5 739Q220 759 241 772.5Q262 786 288 786Q304 786 325.5 779Q347 772 367.5 763.5Q388 755 405.5 748Q423 741 433 741Z" glyph-name="Otilde.smcp" horiz-adv-x="701" /><glyph d="M398 -5 224 0 38 -5V41L89 51Q115 56 125 66Q135 76 136 99Q136 125 137 162Q138 194 138.5 240Q139 286 139 349Q139 411 138.5 457.5Q138 504 137 536Q136 573 136 600Q134 626 124.5 635Q115 644 89 649L38 659V705L240 702Q281 704 319 706Q351 708 386 709.5Q421 711 444 711Q478 711 515 700.5Q552 690 583 666.5Q614 643 633.5 605Q653 567 653 511Q653 473 639.5 434Q626 395 597 363Q568 331 520.5 310.5Q473 290 406 290Q385 290 370 293Q361 294 354 296V343Q359 342 364 342H382Q438 342 461.5 383.5Q485 425 485 498Q485 576 454.5 616Q424 656 360 656H317Q305 656 302 652Q299 648 299 640Q298 602 298 556Q297 517 297 464Q297 411 297 349Q297 286 297 240Q297 194 298 162Q299 125 300 99Q301 76 311 66Q321 56 347 51L398 41Z" glyph-name="P" horiz-adv-x="676" unicode="P" /><glyph d="M350 -4 194 0 39 -4V35L79 43Q100 48 108 56Q116 64 117 82Q117 102 118 131Q118 156 118.5 192.5Q119 229 119 279Q119 329 118.5 365.5Q118 402 118 427Q117 456 117 477Q115 498 107.5 505Q100 512 79 517L39 525V564L208 562Q248 563 284 565Q315 567 346.5 568Q378 569 396 569Q424 569 454 560.5Q484 552 509 532.5Q534 513 550 481.5Q566 450 566 404Q566 374 555.5 341.5Q545 309 521.5 282.5Q498 256 460 239Q422 222 367 222Q359 222 351.5 222.5Q344 223 338 224Q331 225 325 227V268Q326 267 328 267H338Q360 267 374.5 276.5Q389 286 397.5 302Q406 318 409 340Q412 362 412 388Q412 452 391 487Q370 522 314 522H297Q287 522 279.5 518.5Q272 515 272 509Q271 479 271 443Q270 412 270 370.5Q270 329 270 279Q270 229 270 192.5Q270 156 271 131Q272 102 273 82Q274 64 282 56Q290 48 310 43L350 35Z" glyph-name="P.smcp" horiz-adv-x="592" /><glyph d="M427 42Q492 42 531.5 69.5Q571 97 592 140Q613 183 619.5 235Q626 287 626 336Q626 421 611.5 482Q597 543 570 582Q543 621 505 639.5Q467 658 421 658Q355 658 314 630Q273 602 250 559Q227 516 219 464Q211 412 211 363Q211 277 227.5 216.5Q244 156 272.5 117Q301 78 340.5 60Q380 42 427 42ZM371 -13Q307 -12 248 12.5Q189 37 143.5 82.5Q98 128 70.5 193.5Q43 259 43 343Q43 423 71 491Q99 559 148.5 608.5Q198 658 267 686.5Q336 715 418 715Q489 715 556.5 692.5Q624 670 677 625Q730 580 762 512.5Q794 445 794 354Q794 295 777.5 242Q761 189 731.5 145.5Q702 102 660 69Q618 36 567 15Q667 -31 736.5 -61Q806 -91 852.5 -110Q899 -129 926.5 -138Q954 -147 969 -151Q981 -154 994.5 -155Q1008 -156 1022 -156Q1039 -156 1056 -154.5Q1073 -153 1087 -149L1082 -198Q1028 -223 977 -234.5Q926 -246 875 -246Q786 -246 705.5 -216.5Q625 -187 556 -143Q535 -130 509.5 -111Q484 -92 458.5 -73Q433 -54 410 -37.5Q387 -21 371 -13Z" glyph-name="Q" horiz-adv-x="837" unicode="Q" /><glyph d="M359 36Q410 36 438.5 58Q467 80 480.5 113.5Q494 147 497 188.5Q500 230 500 269Q500 405 463.5 464.5Q427 524 354 524Q302 524 271.5 502Q241 480 225 446Q209 412 204.5 370.5Q200 329 200 290Q200 222 211 173.5Q222 125 243 94.5Q264 64 293.5 50Q323 36 359 36ZM315 -10Q264 -10 215 10Q166 30 127 66.5Q88 103 64.5 155.5Q41 208 41 274Q41 338 64 392.5Q87 447 128 486.5Q169 526 224 549Q279 572 344 572Q405 572 462 554Q519 536 562.5 500Q606 464 632.5 410Q659 356 659 283Q659 238 645.5 195.5Q632 153 607.5 118Q583 83 549.5 56.5Q516 30 477 15Q589 -36 654.5 -65Q720 -94 761 -107Q787 -116 808 -119.5Q829 -123 851 -124Q860 -124 869 -123.5Q878 -123 886 -122Q895 -121 904 -119L898 -160Q853 -182 808.5 -191.5Q764 -201 719 -201Q648 -201 583.5 -178Q519 -155 461 -120Q443 -110 422 -95Q401 -80 380.5 -64Q360 -48 342.5 -33.5Q325 -19 315 -10Z" glyph-name="Q.smcp" horiz-adv-x="701" /><glyph d="M314 656Q302 656 299.5 652Q297 648 297 640V375Q314 370 332.5 367.5Q351 365 382 365Q396 365 416 372.5Q436 380 454.5 397.5Q473 415 486 443.5Q499 472 499 515Q499 590 462.5 623Q426 656 361 656ZM139 349Q139 411 138.5 457.5Q138 504 137 536Q136 573 136 600Q134 626 124.5 635Q115 644 89 649L38 659V705L239 702Q284 704 324 706Q359 708 395.5 709.5Q432 711 455 711Q486 711 523 703Q560 695 591.5 674.5Q623 654 644 618Q665 582 665 526Q665 472 627.5 425.5Q590 379 524 359L644 185Q661 159 687 127.5Q713 96 742 71Q773 44 806 40L795 -7Q778 -7 761.5 -7.5Q745 -8 728 -8Q689 -8 655.5 -5Q622 -2 597 8Q569 19 549 42Q529 65 512 91Q500 109 482 140.5Q464 172 445 205.5Q426 239 409 269Q392 299 382 314H297V250Q297 221 297.5 182Q298 143 300 99Q301 76 310.5 66Q320 56 347 51L399 41V-5L223 0L38 -5V41L89 51Q115 56 125.5 66Q136 76 136 99Q136 125 137 162Q138 194 138.5 240Q139 286 139 349Z" glyph-name="R" horiz-adv-x="777" unicode="R" /><glyph d="M283 522Q274 522 272 518.5Q270 515 270 509V298Q281 295 294 294Q307 293 324 293Q340 293 357.5 298Q375 303 390 315Q405 327 414.5 348Q424 369 424 401Q424 461 392.5 491.5Q361 522 310 522ZM119 279Q119 329 118.5 365.5Q118 402 118 427Q117 456 117 477Q115 498 107 505Q99 512 79 517L39 525V564L203 562Q247 563 286 565Q319 567 352.5 568Q386 569 405 569Q429 569 459.5 562.5Q490 556 517 539.5Q544 523 562 494.5Q580 466 580 421Q580 400 571 378Q562 356 546 336.5Q530 317 507.5 301.5Q485 286 458 278L557 146Q568 131 589.5 106.5Q611 82 639 60Q652 50 665.5 43.5Q679 37 688 35L679 -1Q661 -2 645 -2.5Q629 -3 615 -3Q577 -3 548.5 1Q520 5 498.5 14Q477 23 460.5 38Q444 53 429 74Q413 97 398 122.5Q383 148 369 172Q355 196 343.5 216.5Q332 237 324 249H270Q270 226 271 200Q271 177 271.5 147Q272 117 273 82Q274 63 281 55.5Q288 48 309 43L350 35V-4L194 0L39 -4V35L79 43Q99 48 108 56Q117 64 117 82Q117 102 118 131Q118 156 118.5 192.5Q119 229 119 279Z" glyph-name="R.smcp" horiz-adv-x="668" /><glyph d="M304 970H494L299 781L250 787ZM314 656Q302 656 299.5 652Q297 648 297 640V375Q314 370 332.5 367.5Q351 365 382 365Q396 365 416 372.5Q436 380 454.5 397.5Q473 415 486 443.5Q499 472 499 515Q499 590 462.5 623Q426 656 361 656ZM139 349Q139 411 138.5 457.5Q138 504 137 536Q136 573 136 600Q134 626 124.5 635Q115 644 89 649L38 659V705L239 702Q284 704 324 706Q359 708 395.5 709.5Q432 711 455 711Q486 711 523 703Q560 695 591.5 674.5Q623 654 644 618Q665 582 665 526Q665 472 627.5 425.5Q590 379 524 359L644 185Q661 159 687 127.5Q713 96 742 71Q773 44 806 40L795 -7Q778 -7 761.5 -7.5Q745 -8 728 -8Q689 -8 655.5 -5Q622 -2 597 8Q569 19 549 42Q529 65 512 91Q500 109 482 140.5Q464 172 445 205.5Q426 239 409 269Q392 299 382 314H297V250Q297 221 297.5 182Q298 143 300 99Q301 76 310.5 66Q320 56 347 51L399 41V-5L223 0L38 -5V41L89 51Q115 56 125.5 66Q136 76 136 99Q136 125 137 162Q138 194 138.5 240Q139 286 139 349Z" glyph-name="Racute" horiz-adv-x="777" unicode="&#340;" /><glyph d="M283 522Q274 522 272 518.5Q270 515 270 509V298Q281 295 294 294Q307 293 324 293Q340 293 357.5 298Q375 303 390 315Q405 327 414.5 348Q424 369 424 401Q424 461 392.5 491.5Q361 522 310 522ZM119 279Q119 329 118.5 365.5Q118 402 118 427Q117 456 117 477Q115 498 107 505Q99 512 79 517L39 525V564L203 562Q247 563 286 565Q319 567 352.5 568Q386 569 405 569Q429 569 459.5 562.5Q490 556 517 539.5Q544 523 562 494.5Q580 466 580 421Q580 400 571 378Q562 356 546 336.5Q530 317 507.5 301.5Q485 286 458 278L557 146Q568 131 589.5 106.5Q611 82 639 60Q652 50 665.5 43.5Q679 37 688 35L679 -1Q661 -2 645 -2.5Q629 -3 615 -3Q577 -3 548.5 1Q520 5 498.5 14Q477 23 460.5 38Q444 53 429 74Q413 97 398 122.5Q383 148 369 172Q355 196 343.5 216.5Q332 237 324 249H270Q270 226 271 200Q271 177 271.5 147Q272 117 273 82Q274 63 281 55.5Q288 48 309 43L350 35V-4L194 0L39 -4V35L79 43Q99 48 108 56Q117 64 117 82Q117 102 118 131Q118 156 118.5 192.5Q119 229 119 279ZM240 825H430L233 636L184 642Z" glyph-name="Racute.smcp" horiz-adv-x="668" /><glyph d="M191 963 218 982 364 895H366L516 983L539 963L394 769H334ZM314 656Q302 656 299.5 652Q297 648 297 640V375Q314 370 332.5 367.5Q351 365 382 365Q396 365 416 372.5Q436 380 454.5 397.5Q473 415 486 443.5Q499 472 499 515Q499 590 462.5 623Q426 656 361 656ZM139 349Q139 411 138.5 457.5Q138 504 137 536Q136 573 136 600Q134 626 124.5 635Q115 644 89 649L38 659V705L239 702Q284 704 324 706Q359 708 395.5 709.5Q432 711 455 711Q486 711 523 703Q560 695 591.5 674.5Q623 654 644 618Q665 582 665 526Q665 472 627.5 425.5Q590 379 524 359L644 185Q661 159 687 127.5Q713 96 742 71Q773 44 806 40L795 -7Q778 -7 761.5 -7.5Q745 -8 728 -8Q689 -8 655.5 -5Q622 -2 597 8Q569 19 549 42Q529 65 512 91Q500 109 482 140.5Q464 172 445 205.5Q426 239 409 269Q392 299 382 314H297V250Q297 221 297.5 182Q298 143 300 99Q301 76 310.5 66Q320 56 347 51L399 41V-5L223 0L38 -5V41L89 51Q115 56 125.5 66Q136 76 136 99Q136 125 137 162Q138 194 138.5 240Q139 286 139 349Z" glyph-name="Rcaron" horiz-adv-x="777" unicode="&#344;" /><glyph d="M283 522Q274 522 272 518.5Q270 515 270 509V298Q281 295 294 294Q307 293 324 293Q340 293 357.5 298Q375 303 390 315Q405 327 414.5 348Q424 369 424 401Q424 461 392.5 491.5Q361 522 310 522ZM119 279Q119 329 118.5 365.5Q118 402 118 427Q117 456 117 477Q115 498 107 505Q99 512 79 517L39 525V564L203 562Q247 563 286 565Q319 567 352.5 568Q386 569 405 569Q429 569 459.5 562.5Q490 556 517 539.5Q544 523 562 494.5Q580 466 580 421Q580 400 571 378Q562 356 546 336.5Q530 317 507.5 301.5Q485 286 458 278L557 146Q568 131 589.5 106.5Q611 82 639 60Q652 50 665.5 43.5Q679 37 688 35L679 -1Q661 -2 645 -2.5Q629 -3 615 -3Q577 -3 548.5 1Q520 5 498.5 14Q477 23 460.5 38Q444 53 429 74Q413 97 398 122.5Q383 148 369 172Q355 196 343.5 216.5Q332 237 324 249H270Q270 226 271 200Q271 177 271.5 147Q272 117 273 82Q274 63 281 55.5Q288 48 309 43L350 35V-4L194 0L39 -4V35L79 43Q99 48 108 56Q117 64 117 82Q117 102 118 131Q118 156 118.5 192.5Q119 229 119 279ZM130 822 157 841 305 754H307L459 842L482 822L335 628H274Z" glyph-name="Rcaron.smcp" horiz-adv-x="668" /><glyph d="M280 -361Q330 -340 355 -309Q380 -278 380 -247Q380 -219 360 -195Q340 -171 293 -154Q297 -138 307 -122.5Q317 -107 331 -95Q345 -83 360.5 -75.5Q376 -68 391 -68Q408 -68 426.5 -76Q445 -84 460.5 -99Q476 -114 486 -135Q496 -156 496 -181Q496 -217 479 -249.5Q462 -282 435 -309Q408 -336 373.5 -356Q339 -376 305 -386ZM314 656Q302 656 299.5 652Q297 648 297 640V375Q314 370 332.5 367.5Q351 365 382 365Q396 365 416 372.5Q436 380 454.5 397.5Q473 415 486 443.5Q499 472 499 515Q499 590 462.5 623Q426 656 361 656ZM139 349Q139 411 138.5 457.5Q138 504 137 536Q136 573 136 600Q134 626 124.5 635Q115 644 89 649L38 659V705L239 702Q284 704 324 706Q359 708 395.5 709.5Q432 711 455 711Q486 711 523 703Q560 695 591.5 674.5Q623 654 644 618Q665 582 665 526Q665 472 627.5 425.5Q590 379 524 359L644 185Q661 159 687 127.5Q713 96 742 71Q773 44 806 40L795 -7Q778 -7 761.5 -7.5Q745 -8 728 -8Q689 -8 655.5 -5Q622 -2 597 8Q569 19 549 42Q529 65 512 91Q500 109 482 140.5Q464 172 445 205.5Q426 239 409 269Q392 299 382 314H297V250Q297 221 297.5 182Q298 143 300 99Q301 76 310.5 66Q320 56 347 51L399 41V-5L223 0L38 -5V41L89 51Q115 56 125.5 66Q136 76 136 99Q136 125 137 162Q138 194 138.5 240Q139 286 139 349Z" glyph-name="Rcommaaccent" horiz-adv-x="777" unicode="&#342;" /><glyph d="M283 522Q274 522 272 518.5Q270 515 270 509V298Q281 295 294 294Q307 293 324 293Q340 293 357.5 298Q375 303 390 315Q405 327 414.5 348Q424 369 424 401Q424 461 392.5 491.5Q361 522 310 522ZM119 279Q119 329 118.5 365.5Q118 402 118 427Q117 456 117 477Q115 498 107 505Q99 512 79 517L39 525V564L203 562Q247 563 286 565Q319 567 352.5 568Q386 569 405 569Q429 569 459.5 562.5Q490 556 517 539.5Q544 523 562 494.5Q580 466 580 421Q580 400 571 378Q562 356 546 336.5Q530 317 507.5 301.5Q485 286 458 278L557 146Q568 131 589.5 106.5Q611 82 639 60Q652 50 665.5 43.5Q679 37 688 35L679 -1Q661 -2 645 -2.5Q629 -3 615 -3Q577 -3 548.5 1Q520 5 498.5 14Q477 23 460.5 38Q444 53 429 74Q413 97 398 122.5Q383 148 369 172Q355 196 343.5 216.5Q332 237 324 249H270Q270 226 271 200Q271 177 271.5 147Q272 117 273 82Q274 63 281 55.5Q288 48 309 43L350 35V-4L194 0L39 -4V35L79 43Q99 48 108 56Q117 64 117 82Q117 102 118 131Q118 156 118.5 192.5Q119 229 119 279ZM226 -361Q276 -340 301.5 -309Q327 -278 327 -247Q327 -219 306.5 -195Q286 -171 239 -154Q243 -138 253 -122.5Q263 -107 277 -95Q291 -83 306.5 -75.5Q322 -68 337 -68Q354 -68 373 -76Q392 -84 407.5 -99Q423 -114 433 -135Q443 -156 443 -181Q443 -217 426 -249.5Q409 -282 381.5 -309Q354 -336 319.5 -356Q285 -376 251 -386Z" glyph-name="Rcommaaccent.smcp" horiz-adv-x="668" /><glyph d="M144 114Q160 77 201 59Q242 41 296 41Q320 41 343 48Q366 55 383 69.5Q400 84 410.5 106Q421 128 421 158Q421 198 398 223Q375 248 340 266Q305 284 264 299Q223 314 187 335Q162 350 140.5 366.5Q119 383 103 405Q87 427 78 455.5Q69 484 69 522Q69 555 84 589.5Q99 624 131 651.5Q163 679 211.5 697Q260 715 328 715Q361 715 397.5 710.5Q434 706 465.5 700.5Q497 695 519 690Q541 685 544 683Q542 656 538 627Q535 602 531.5 571Q528 540 526 509H481Q481 509 478.5 518Q476 527 471.5 542Q467 557 460.5 576.5Q454 596 446 617Q438 637 413.5 648.5Q389 660 334 660Q314 660 292.5 655Q271 650 253 639Q235 628 223 610Q211 592 211 565Q211 533 227 511Q243 489 266 475Q291 459 323.5 445Q356 431 389.5 416Q423 401 455.5 383Q488 365 513 341Q538 317 553.5 284.5Q569 252 569 209Q569 159 548 118Q527 77 489.5 47.5Q452 18 400 2Q348 -14 285 -14Q204 -14 150 -2Q96 10 57 21Q57 28 57 46.5Q57 65 56.5 92.5Q56 120 54.5 154Q53 188 51 226L104 231Q107 219 112 201Q117 186 124 164.5Q131 143 144 114Z" glyph-name="S" horiz-adv-x="616" unicode="S" /><glyph d="M120 101Q140 66 170 51.5Q200 37 235 37Q280 37 308.5 60.5Q337 84 337 123Q337 156 316.5 175.5Q296 195 264.5 209Q233 223 197 235.5Q161 248 129.5 268.5Q98 289 77.5 320.5Q57 352 57 405Q57 443 75 474Q93 505 124.5 526.5Q156 548 199.5 560Q243 572 295 572Q327 572 356 568Q385 564 406 559Q431 553 451 546Q449 525 447 501Q445 481 443 456Q441 431 439 406H397Q388 437 381 457Q374 477 364 491Q352 509 334 516.5Q316 524 282 524Q242 524 216 506.5Q190 489 190 454Q190 428 203.5 412Q217 396 240 383Q272 365 313.5 350Q355 335 392 313Q429 291 454.5 258Q480 225 480 172Q480 134 464 100.5Q448 67 416.5 42Q385 17 337 3Q289 -11 225 -11Q184 -11 137 -4Q90 3 51 16Q51 23 51 39Q51 55 50.5 77.5Q50 100 49 127Q48 154 47 181L93 185Q95 171 99 156Q102 143 107 128.5Q112 114 120 101Z" glyph-name="S.smcp" horiz-adv-x="526" /><glyph d="M288 970H478L283 781L234 787ZM144 114Q160 77 201 59Q242 41 296 41Q320 41 343 48Q366 55 383 69.5Q400 84 410.5 106Q421 128 421 158Q421 198 398 223Q375 248 340 266Q305 284 264 299Q223 314 187 335Q162 350 140.5 366.5Q119 383 103 405Q87 427 78 455.5Q69 484 69 522Q69 555 84 589.5Q99 624 131 651.5Q163 679 211.5 697Q260 715 328 715Q361 715 397.5 710.5Q434 706 465.5 700.5Q497 695 519 690Q541 685 544 683Q542 656 538 627Q535 602 531.5 571Q528 540 526 509H481Q481 509 478.5 518Q476 527 471.5 542Q467 557 460.5 576.5Q454 596 446 617Q438 637 413.5 648.5Q389 660 334 660Q314 660 292.5 655Q271 650 253 639Q235 628 223 610Q211 592 211 565Q211 533 227 511Q243 489 266 475Q291 459 323.5 445Q356 431 389.5 416Q423 401 455.5 383Q488 365 513 341Q538 317 553.5 284.5Q569 252 569 209Q569 159 548 118Q527 77 489.5 47.5Q452 18 400 2Q348 -14 285 -14Q204 -14 150 -2Q96 10 57 21Q57 28 57 46.5Q57 65 56.5 92.5Q56 120 54.5 154Q53 188 51 226L104 231Q107 219 112 201Q117 186 124 164.5Q131 143 144 114Z" glyph-name="Sacute" horiz-adv-x="616" unicode="&#346;" /><glyph d="M120 101Q140 66 170 51.5Q200 37 235 37Q280 37 308.5 60.5Q337 84 337 123Q337 156 316.5 175.5Q296 195 264.5 209Q233 223 197 235.5Q161 248 129.5 268.5Q98 289 77.5 320.5Q57 352 57 405Q57 443 75 474Q93 505 124.5 526.5Q156 548 199.5 560Q243 572 295 572Q327 572 356 568Q385 564 406 559Q431 553 451 546Q449 525 447 501Q445 481 443 456Q441 431 439 406H397Q388 437 381 457Q374 477 364 491Q352 509 334 516.5Q316 524 282 524Q242 524 216 506.5Q190 489 190 454Q190 428 203.5 412Q217 396 240 383Q272 365 313.5 350Q355 335 392 313Q429 291 454.5 258Q480 225 480 172Q480 134 464 100.5Q448 67 416.5 42Q385 17 337 3Q289 -11 225 -11Q184 -11 137 -4Q90 3 51 16Q51 23 51 39Q51 55 50.5 77.5Q50 100 49 127Q48 154 47 181L93 185Q95 171 99 156Q102 143 107 128.5Q112 114 120 101ZM277 825H467L270 636L221 642Z" glyph-name="Sacute.smcp" horiz-adv-x="531" /><glyph d="M127 957 154 976 300 889H302L452 977L475 957L330 763H270ZM144 114Q160 77 201 59Q242 41 296 41Q320 41 343 48Q366 55 383 69.5Q400 84 410.5 106Q421 128 421 158Q421 198 398 223Q375 248 340 266Q305 284 264 299Q223 314 187 335Q162 350 140.5 366.5Q119 383 103 405Q87 427 78 455.5Q69 484 69 522Q69 555 84 589.5Q99 624 131 651.5Q163 679 211.5 697Q260 715 328 715Q361 715 397.5 710.5Q434 706 465.5 700.5Q497 695 519 690Q541 685 544 683Q542 656 538 627Q535 602 531.5 571Q528 540 526 509H481Q481 509 478.5 518Q476 527 471.5 542Q467 557 460.5 576.5Q454 596 446 617Q438 637 413.5 648.5Q389 660 334 660Q314 660 292.5 655Q271 650 253 639Q235 628 223 610Q211 592 211 565Q211 533 227 511Q243 489 266 475Q291 459 323.5 445Q356 431 389.5 416Q423 401 455.5 383Q488 365 513 341Q538 317 553.5 284.5Q569 252 569 209Q569 159 548 118Q527 77 489.5 47.5Q452 18 400 2Q348 -14 285 -14Q204 -14 150 -2Q96 10 57 21Q57 28 57 46.5Q57 65 56.5 92.5Q56 120 54.5 154Q53 188 51 226L104 231Q107 219 112 201Q117 186 124 164.5Q131 143 144 114Z" glyph-name="Scaron" horiz-adv-x="616" unicode="&#352;" /><glyph d="M120 101Q140 66 170 51.5Q200 37 235 37Q280 37 308.5 60.5Q337 84 337 123Q337 156 316.5 175.5Q296 195 264.5 209Q233 223 197 235.5Q161 248 129.5 268.5Q98 289 77.5 320.5Q57 352 57 405Q57 443 75 474Q93 505 124.5 526.5Q156 548 199.5 560Q243 572 295 572Q327 572 356 568Q385 564 406 559Q431 553 451 546Q449 525 447 501Q445 481 443 456Q441 431 439 406H397Q388 437 381 457Q374 477 364 491Q352 509 334 516.5Q316 524 282 524Q242 524 216 506.5Q190 489 190 454Q190 428 203.5 412Q217 396 240 383Q272 365 313.5 350Q355 335 392 313Q429 291 454.5 258Q480 225 480 172Q480 134 464 100.5Q448 67 416.5 42Q385 17 337 3Q289 -11 225 -11Q184 -11 137 -4Q90 3 51 16Q51 23 51 39Q51 55 50.5 77.5Q50 100 49 127Q48 154 47 181L93 185Q95 171 99 156Q102 143 107 128.5Q112 114 120 101ZM85 812 112 831 260 744H262L414 832L437 812L290 618H229Z" glyph-name="Scaron.smcp" horiz-adv-x="531" /><glyph d="M144 114Q160 77 201 59Q242 41 296 41Q320 41 343 48Q366 55 383 69.5Q400 84 410.5 106Q421 128 421 158Q421 198 398 223Q375 248 340 266Q305 284 264 299Q223 314 187 335Q162 350 140.5 366.5Q119 383 103 405Q87 427 78 455.5Q69 484 69 522Q69 555 84 589.5Q99 624 131 651.5Q163 679 211.5 697Q260 715 328 715Q361 715 397.5 710.5Q434 706 465.5 700.5Q497 695 519 690Q541 685 544 683Q542 656 538 627Q535 602 531.5 571Q528 540 526 509H481Q481 509 478.5 518Q476 527 471.5 542Q467 557 460.5 576.5Q454 596 446 617Q438 637 413.5 648.5Q389 660 334 660Q314 660 292.5 655Q271 650 253 639Q235 628 223 610Q211 592 211 565Q211 533 227 511Q243 489 266 475Q291 459 323.5 445Q356 431 389.5 416Q423 401 455.5 383Q488 365 513 341Q538 317 553.5 284.5Q569 252 569 209Q569 162 550 122.5Q531 83 497 54Q463 25 415 7.5Q367 -10 310 -13L274 -55Q291 -55 316.5 -59.5Q342 -64 366 -77Q390 -90 407 -112.5Q424 -135 424 -171Q424 -204 410.5 -227Q397 -250 374.5 -264.5Q352 -279 324 -285.5Q296 -292 267 -292Q233 -292 202.5 -284.5Q172 -277 151 -264L158 -228Q172 -234 183 -238.5Q194 -243 215 -243Q247 -243 268 -229Q289 -215 289 -183Q289 -158 275 -140Q261 -122 241.5 -110Q222 -98 202.5 -91Q183 -84 171 -81L254 -13Q186 -11 139 -0.5Q92 10 57 21Q57 28 57 46.5Q57 65 56.5 92.5Q56 120 54.5 154Q53 188 51 226L104 231Q107 219 112 201Q117 186 124 164.5Q131 143 144 114Z" glyph-name="Scedilla" horiz-adv-x="616" unicode="&#350;" /><glyph d="M120 101Q140 66 170 51.5Q200 37 235 37Q280 37 308.5 60.5Q337 84 337 123Q337 156 316.5 175.5Q296 195 264.5 209Q233 223 197 235.5Q161 248 129.5 268.5Q98 289 77.5 320.5Q57 352 57 405Q57 443 75 474Q93 505 124.5 526.5Q156 548 199.5 560Q243 572 295 572Q327 572 356 568Q385 564 406 559Q431 553 451 546Q449 525 447 501Q445 481 443 456Q441 431 439 406H397Q388 437 381 457Q374 477 364 491Q352 509 334 516.5Q316 524 282 524Q242 524 216 506.5Q190 489 190 454Q190 428 203.5 412Q217 396 240 383Q272 365 313.5 350Q355 335 392 313Q429 291 454.5 258Q480 225 480 172Q480 138 467.5 108Q455 78 430.5 54Q406 30 368.5 14Q331 -2 282 -8L241 -55Q258 -55 284 -59.5Q310 -64 334 -77Q358 -90 375.5 -112.5Q393 -135 393 -171Q393 -204 379 -227Q365 -250 342.5 -264.5Q320 -279 291.5 -285.5Q263 -292 234 -292Q199 -292 168 -284.5Q137 -277 116 -264L123 -228Q137 -234 149 -238.5Q161 -243 182 -243Q214 -243 235.5 -229Q257 -215 257 -183Q257 -158 242.5 -140Q228 -122 208.5 -110Q189 -98 168.5 -91Q148 -84 136 -81L224 -11Q183 -11 136 -4Q89 3 51 16Q51 23 51 39Q51 55 50.5 77.5Q50 100 49 127Q48 154 47 181L93 185Q95 171 99 156Q102 143 107 128.5Q112 114 120 101Z" glyph-name="Scedilla.smcp" horiz-adv-x="531" /><glyph d="M270 976H330L475 782L452 762L302 849H300L154 763L127 782ZM144 114Q160 77 201 59Q242 41 296 41Q320 41 343 48Q366 55 383 69.5Q400 84 410.5 106Q421 128 421 158Q421 198 398 223Q375 248 340 266Q305 284 264 299Q223 314 187 335Q162 350 140.5 366.5Q119 383 103 405Q87 427 78 455.5Q69 484 69 522Q69 555 84 589.5Q99 624 131 651.5Q163 679 211.5 697Q260 715 328 715Q361 715 397.5 710.5Q434 706 465.5 700.5Q497 695 519 690Q541 685 544 683Q542 656 538 627Q535 602 531.5 571Q528 540 526 509H481Q481 509 478.5 518Q476 527 471.5 542Q467 557 460.5 576.5Q454 596 446 617Q438 637 413.5 648.5Q389 660 334 660Q314 660 292.5 655Q271 650 253 639Q235 628 223 610Q211 592 211 565Q211 533 227 511Q243 489 266 475Q291 459 323.5 445Q356 431 389.5 416Q423 401 455.5 383Q488 365 513 341Q538 317 553.5 284.5Q569 252 569 209Q569 159 548 118Q527 77 489.5 47.5Q452 18 400 2Q348 -14 285 -14Q204 -14 150 -2Q96 10 57 21Q57 28 57 46.5Q57 65 56.5 92.5Q56 120 54.5 154Q53 188 51 226L104 231Q107 219 112 201Q117 186 124 164.5Q131 143 144 114Z" glyph-name="Scircumflex" horiz-adv-x="616" unicode="&#348;" /><glyph d="M120 101Q140 66 170 51.5Q200 37 235 37Q280 37 308.5 60.5Q337 84 337 123Q337 156 316.5 175.5Q296 195 264.5 209Q233 223 197 235.5Q161 248 129.5 268.5Q98 289 77.5 320.5Q57 352 57 405Q57 443 75 474Q93 505 124.5 526.5Q156 548 199.5 560Q243 572 295 572Q327 572 356 568Q385 564 406 559Q431 553 451 546Q449 525 447 501Q445 481 443 456Q441 431 439 406H397Q388 437 381 457Q374 477 364 491Q352 509 334 516.5Q316 524 282 524Q242 524 216 506.5Q190 489 190 454Q190 428 203.5 412Q217 396 240 383Q272 365 313.5 350Q355 335 392 313Q429 291 454.5 258Q480 225 480 172Q480 134 464 100.5Q448 67 416.5 42Q385 17 337 3Q289 -11 225 -11Q184 -11 137 -4Q90 3 51 16Q51 23 51 39Q51 55 50.5 77.5Q50 100 49 127Q48 154 47 181L93 185Q95 171 99 156Q102 143 107 128.5Q112 114 120 101ZM229 831H290L437 637L414 617L262 704H260L112 618L85 637Z" glyph-name="Scircumflex.smcp" horiz-adv-x="531" /><glyph d="M188 -361Q238 -340 263 -309Q288 -278 288 -247Q288 -219 268 -195Q248 -171 201 -154Q205 -138 215 -122.5Q225 -107 239 -95Q253 -83 268.5 -75.5Q284 -68 299 -68Q316 -68 334.5 -76Q353 -84 368.5 -99Q384 -114 394 -135Q404 -156 404 -181Q404 -217 387 -249.5Q370 -282 343 -309Q316 -336 281.5 -356Q247 -376 213 -386ZM144 114Q160 77 201 59Q242 41 296 41Q320 41 343 48Q366 55 383 69.5Q400 84 410.5 106Q421 128 421 158Q421 198 398 223Q375 248 340 266Q305 284 264 299Q223 314 187 335Q162 350 140.5 366.5Q119 383 103 405Q87 427 78 455.5Q69 484 69 522Q69 555 84 589.5Q99 624 131 651.5Q163 679 211.5 697Q260 715 328 715Q361 715 397.5 710.5Q434 706 465.5 700.5Q497 695 519 690Q541 685 544 683Q542 656 538 627Q535 602 531.5 571Q528 540 526 509H481Q481 509 478.5 518Q476 527 471.5 542Q467 557 460.5 576.5Q454 596 446 617Q438 637 413.5 648.5Q389 660 334 660Q314 660 292.5 655Q271 650 253 639Q235 628 223 610Q211 592 211 565Q211 533 227 511Q243 489 266 475Q291 459 323.5 445Q356 431 389.5 416Q423 401 455.5 383Q488 365 513 341Q538 317 553.5 284.5Q569 252 569 209Q569 159 548 118Q527 77 489.5 47.5Q452 18 400 2Q348 -14 285 -14Q204 -14 150 -2Q96 10 57 21Q57 28 57 46.5Q57 65 56.5 92.5Q56 120 54.5 154Q53 188 51 226L104 231Q107 219 112 201Q117 186 124 164.5Q131 143 144 114Z" glyph-name="Scommaaccent" horiz-adv-x="616" unicode="&#536;" /><glyph d="M120 101Q140 66 170 51.5Q200 37 235 37Q280 37 308.5 60.5Q337 84 337 123Q337 156 316.5 175.5Q296 195 264.5 209Q233 223 197 235.5Q161 248 129.5 268.5Q98 289 77.5 320.5Q57 352 57 405Q57 443 75 474Q93 505 124.5 526.5Q156 548 199.5 560Q243 572 295 572Q327 572 356 568Q385 564 406 559Q431 553 451 546Q449 525 447 501Q445 481 443 456Q441 431 439 406H397Q388 437 381 457Q374 477 364 491Q352 509 334 516.5Q316 524 282 524Q242 524 216 506.5Q190 489 190 454Q190 428 203.5 412Q217 396 240 383Q272 365 313.5 350Q355 335 392 313Q429 291 454.5 258Q480 225 480 172Q480 134 464 100.5Q448 67 416.5 42Q385 17 337 3Q289 -11 225 -11Q184 -11 137 -4Q90 3 51 16Q51 23 51 39Q51 55 50.5 77.5Q50 100 49 127Q48 154 47 181L93 185Q95 171 99 156Q102 143 107 128.5Q112 114 120 101ZM146 -361Q196 -340 221.5 -309Q247 -278 247 -247Q247 -219 226.5 -195Q206 -171 159 -154Q163 -138 173 -122.5Q183 -107 197 -95Q211 -83 226.5 -75.5Q242 -68 257 -68Q274 -68 293 -76Q312 -84 327.5 -99Q343 -114 353 -135Q363 -156 363 -181Q363 -217 346 -249.5Q329 -282 301.5 -309Q274 -336 239.5 -356Q205 -376 171 -386Z" glyph-name="Scommaaccent.smcp" horiz-adv-x="531" /><glyph d="M365 697 558 700Q589 700 615.5 702Q642 704 662 706Q685 709 705 711Q705 676 706 639Q707 607 708.5 569.5Q710 532 713 498H666L650 557Q636 605 615 622.5Q594 640 565 641L448 644Q447 605 446 558Q445 518 445 464.5Q445 411 445 349Q445 286 445 240Q445 194 446 162Q447 125 448 99Q449 76 458.5 66Q468 56 495 51L545 41V-5L367 0L186 -5V41L237 51Q263 56 273 66Q283 76 284 99Q284 125 285 162Q286 194 286.5 240Q287 286 287 349Q287 411 286.5 464.5Q286 518 285 558Q284 605 284 644L167 641Q138 640 117 622.5Q96 605 82 557L64 498H17Q20 532 21.5 569.5Q23 607 25 639Q26 676 27 711Q46 708 70 705Q90 703 116.5 701.5Q143 700 174 700Z" glyph-name="T" horiz-adv-x="730" unicode="T" /><glyph d="M309 558 475 560Q499 560 520 561.5Q541 563 557 565Q575 567 591 569Q590 540 591 510Q591 484 592.5 453.5Q594 423 596 396H557L545 443Q534 481 518 494Q502 507 479 509L388 513Q387 482 386 445Q385 413 385 371Q385 329 385 279Q385 229 385 192.5Q385 156 386 131Q387 102 388 82Q389 64 396 56Q403 48 424 43L464 35V-4L312 0L154 -4V35L195 43Q215 48 223 56Q231 64 232 82Q232 102 233 131Q233 156 233.5 192.5Q234 229 234 279Q234 329 233.5 371Q233 413 233 445Q232 482 232 513L142 509Q119 507 103 494Q87 481 76 443L61 396H22Q24 423 25.5 453.5Q27 484 28 510Q29 540 29 569Q45 567 63 565Q79 563 100 561.5Q121 560 145 560Z" glyph-name="T.smcp" horiz-adv-x="618" /><glyph d="M445 335Q445 276 445 232.5Q445 189 446 159Q447 124 448 99Q449 76 458.5 66Q468 56 495 51L545 41V-5L367 0L186 -5V41L237 51Q263 56 273 66Q283 76 284 99Q284 124 285 159Q286 189 286.5 232.5Q287 276 287 335H157V389H287Q286 443 286 489.5Q286 536 285 571Q284 611 284 644L167 641Q138 640 117 622.5Q96 605 82 557L64 498H17Q20 532 21.5 569.5Q23 607 25 639Q26 676 27 711Q46 709 70 706Q90 704 116.5 702Q143 700 174 700L365 697L558 700Q589 700 615.5 702Q642 704 662 706Q685 709 705 711Q705 676 706 639Q707 607 708.5 569.5Q710 532 713 498H666L650 557Q636 605 615 622.5Q594 640 565 641L448 644Q447 610 446 570Q445 535 445 489Q445 443 445 389H575V335Z" glyph-name="Tbar" horiz-adv-x="730" unicode="&#358;" /><glyph d="M309 558 475 560Q499 560 520 561.5Q541 563 557 565Q575 567 591 569Q590 540 591 510Q591 484 592.5 453.5Q594 423 596 396H557L545 443Q534 481 518 494Q502 507 479 509L388 513Q387 488 386 456Q385 429 385 392.5Q385 356 385 314H490V268H385Q385 221 385 186Q385 151 386 128Q387 101 388 82Q389 64 396 56Q403 48 424 43L464 35V-4L312 0L154 -4V35L195 43Q215 48 223 56Q231 64 232 82Q232 101 233 128Q233 151 233.5 186Q234 221 234 268H130V314H234Q233 357 233 393Q233 429 233 456Q233 487 232 513L142 509Q119 507 103 494Q87 481 76 443L61 396H22Q24 423 25.5 453.5Q27 484 28 510Q29 540 29 569Q45 567 63 565Q79 563 100 561.5Q121 560 145 560Z" glyph-name="Tbar.smcp" horiz-adv-x="618" /><glyph d="M190 957 217 976 363 889H365L515 977L538 957L393 763H333ZM365 697 558 700Q589 700 615.5 702Q642 704 662 706Q685 709 705 711Q705 676 706 639Q707 607 708.5 569.5Q710 532 713 498H666L650 557Q636 605 615 622.5Q594 640 565 641L448 644Q447 605 446 558Q445 518 445 464.5Q445 411 445 349Q445 286 445 240Q445 194 446 162Q447 125 448 99Q449 76 458.5 66Q468 56 495 51L545 41V-5L367 0L186 -5V41L237 51Q263 56 273 66Q283 76 284 99Q284 125 285 162Q286 194 286.5 240Q287 286 287 349Q287 411 286.5 464.5Q286 518 285 558Q284 605 284 644L167 641Q138 640 117 622.5Q96 605 82 557L64 498H17Q20 532 21.5 569.5Q23 607 25 639Q26 676 27 711Q46 708 70 705Q90 703 116.5 701.5Q143 700 174 700Z" glyph-name="Tcaron" horiz-adv-x="730" unicode="&#356;" /><glyph d="M309 558 475 560Q499 560 520 561.5Q541 563 557 565Q575 567 591 569Q590 540 591 510Q591 484 592.5 453.5Q594 423 596 396H557L545 443Q534 481 518 494Q502 507 479 509L388 513Q387 482 386 445Q385 413 385 371Q385 329 385 279Q385 229 385 192.5Q385 156 386 131Q387 102 388 82Q389 64 396 56Q403 48 424 43L464 35V-4L312 0L154 -4V35L195 43Q215 48 223 56Q231 64 232 82Q232 102 233 131Q233 156 233.5 192.5Q234 229 234 279Q234 329 233.5 371Q233 413 233 445Q232 482 232 513L142 509Q119 507 103 494Q87 481 76 443L61 396H22Q24 423 25.5 453.5Q27 484 28 510Q29 540 29 569Q45 567 63 565Q79 563 100 561.5Q121 560 145 560ZM131 812 158 831 306 744H308L460 832L483 812L336 618H275Z" glyph-name="Tcaron.smcp" horiz-adv-x="618" /><glyph d="M236 -361Q286 -340 311 -309Q336 -278 336 -247Q336 -219 316 -195Q296 -171 249 -154Q253 -138 263 -122.5Q273 -107 287 -95Q301 -83 316.5 -75.5Q332 -68 347 -68Q364 -68 382.5 -76Q401 -84 416.5 -99Q432 -114 442 -135Q452 -156 452 -181Q452 -217 435 -249.5Q418 -282 391 -309Q364 -336 329.5 -356Q295 -376 261 -386ZM364 697 557 700Q588 700 614.5 702Q641 704 661 706Q684 709 704 711Q704 676 705 639Q706 607 707.5 569.5Q709 532 712 498H665L649 557Q635 605 614 622.5Q593 640 564 641L447 644Q446 605 445 558Q444 518 444 464.5Q444 411 444 349Q444 286 444 240Q444 194 445 162Q446 125 447 99Q448 76 457.5 66Q467 56 494 51L544 41V-5L366 0L185 -5V41L236 51Q262 56 272 66Q282 76 283 99Q283 125 284 162Q285 194 285.5 240Q286 286 286 349Q286 411 285.5 464.5Q285 518 284 558Q283 605 283 644L166 641Q137 640 116 622.5Q95 605 81 557L63 498H16Q19 532 20.5 569.5Q22 607 24 639Q25 676 26 711Q45 708 69 705Q89 703 115.5 701.5Q142 700 173 700Z" glyph-name="Tcommaaccent" horiz-adv-x="728" unicode="&#354;" /><glyph d="M309 558 475 560Q499 560 520 561.5Q541 563 557 565Q575 567 591 569Q590 540 591 510Q591 484 592.5 453.5Q594 423 596 396H557L545 443Q534 481 518 494Q502 507 479 509L388 513Q387 482 386 445Q385 413 385 371Q385 329 385 279Q385 229 385 192.5Q385 156 386 131Q387 102 388 82Q389 64 396 56Q403 48 424 43L464 35V-4L312 0L154 -4V35L195 43Q215 48 223 56Q231 64 232 82Q232 102 233 131Q233 156 233.5 192.5Q234 229 234 279Q234 329 233.5 371Q233 413 233 445Q232 482 232 513L142 509Q119 507 103 494Q87 481 76 443L61 396H22Q24 423 25.5 453.5Q27 484 28 510Q29 540 29 569Q45 567 63 565Q79 563 100 561.5Q121 560 145 560ZM180 -361Q230 -340 255.5 -309Q281 -278 281 -247Q281 -219 260.5 -195Q240 -171 193 -154Q197 -138 207 -122.5Q217 -107 231 -95Q245 -83 260.5 -75.5Q276 -68 291 -68Q308 -68 327 -76Q346 -84 361.5 -99Q377 -114 387 -135Q397 -156 397 -181Q397 -217 380 -249.5Q363 -282 335.5 -309Q308 -336 273.5 -356Q239 -376 205 -386Z" glyph-name="Tcommaaccent.smcp" horiz-adv-x="618" /><glyph d="M469 572Q503 572 543.5 561Q584 550 618.5 526Q653 502 676 463.5Q699 425 699 369Q699 331 687 291.5Q675 252 647 220Q619 188 573 167.5Q527 147 459 147Q450 147 439.5 147.5Q429 148 420 150Q409 151 399 153V200Q398 199 400 199H413Q434 199 455.5 203.5Q477 208 493.5 224Q510 240 520.5 270Q531 300 531 350Q531 389 518.5 419Q506 449 484.5 470Q463 491 434.5 502Q406 513 375 513H297Q296 480 295.5 442.5Q295 405 295 349Q295 286 295 240Q295 194 296 162Q297 125 298 99Q299 76 309 66Q319 56 345 51L396 41V-5L218 0L38 -5V41L89 51Q115 56 125 66Q135 76 136 99Q136 125 137 162Q138 194 138.5 240Q139 286 139 349Q139 411 138.5 457.5Q138 504 137 536Q136 573 136 600Q134 626 124.5 635Q115 644 89 649L38 659V705L218 700L396 705V659L345 649Q325 645 315.5 638Q306 631 302 620.5Q298 610 298 595.5Q298 581 297 562Q309 563 331.5 565Q354 567 379 568.5Q404 570 428.5 571Q453 572 469 572Z" glyph-name="Thorn" horiz-adv-x="725" unicode="&#222;" /><glyph d="M386 458Q425 458 463.5 449.5Q502 441 533.5 421.5Q565 402 584.5 371Q604 340 604 295Q604 248 589 215Q574 182 548 160Q522 138 487 128Q452 118 412 118Q404 118 394 118.5Q384 119 376 120Q366 121 356 122V161Q383 161 400 168.5Q417 176 426.5 190.5Q436 205 439.5 226.5Q443 248 443 277Q443 346 408.5 377Q374 408 323 408H271Q269 382 269.5 353Q270 324 270 279Q270 229 270 192.5Q270 156 271 131Q272 102 273 82Q274 64 281.5 56Q289 48 309 43L348 35V-4L195 0L39 -4V35L79 43Q100 48 108 56Q116 64 117 82Q117 102 118 131Q118 156 118.5 192.5Q119 229 119 279Q119 329 118.5 365.5Q118 402 118 427Q117 456 117 477Q115 498 107.5 505Q100 512 79 517L39 525V564L195 560L348 564V525L310 517Q296 514 288.5 510.5Q281 507 277.5 500Q274 493 273.5 481Q273 469 272 450Q281 451 295.5 452.5Q310 454 325.5 455Q341 456 357 457Q373 458 386 458Z" glyph-name="Thorn.smcp" horiz-adv-x="630" /><glyph d="M275 248Q275 191 290.5 154Q306 117 331.5 95Q357 73 390.5 64.5Q424 56 460 56Q518 56 558 75Q598 94 622.5 124Q647 154 658 189.5Q669 225 669 258Q669 297 668.5 350Q668 403 668 454Q668 505 667.5 545.5Q667 586 667 600Q667 624 656.5 634Q646 644 620 649L569 659V705L699 700L830 705V659L779 649Q753 644 742.5 634Q732 624 732 600Q732 585 732 562Q732 539 731.5 512Q731 485 731 456Q731 427 731 399Q730 333 730 259Q730 191 708 140Q686 89 645.5 54.5Q605 20 549 2.5Q493 -15 425 -15Q359 -15 303 1.5Q247 18 205.5 50Q164 82 140.5 129.5Q117 177 117 240V600Q117 624 106.5 634Q96 644 70 649L19 659V705L186 700L372 705V659L322 649Q296 644 285.5 634Q275 624 275 600Z" glyph-name="U" horiz-adv-x="847" unicode="U" /><glyph d="M249 202Q249 157 261 128Q273 99 292.5 81.5Q312 64 338 57.5Q364 51 391 51Q435 51 466.5 66Q498 81 518 103.5Q538 126 547.5 151Q557 176 557 196Q557 227 556.5 271Q556 315 556 357Q556 399 555.5 432.5Q555 466 555 477Q555 497 547 504.5Q539 512 519 517L479 525V564L582 560L687 564V525L648 517Q627 512 618.5 504.5Q610 497 610 477Q610 465 610 447Q610 429 609.5 407Q609 385 609 361.5Q609 338 609 315V202Q609 148 589.5 108Q570 68 536 41Q502 14 456 1Q410 -12 357 -12Q305 -12 258.5 1Q212 14 176.5 39.5Q141 65 120.5 103.5Q100 142 100 192V477Q100 497 91.5 504.5Q83 512 63 517L23 525V564L160 560L325 564V525L285 517Q265 512 257 504.5Q249 497 249 477Z" glyph-name="U.smcp" horiz-adv-x="709" /><glyph d="M400 970H590L395 781L346 787ZM275 248Q275 191 290.5 154Q306 117 331.5 95Q357 73 390.5 64.5Q424 56 460 56Q518 56 558 75Q598 94 622.5 124Q647 154 658 189.5Q669 225 669 258Q669 297 668.5 350Q668 403 668 454Q668 505 667.5 545.5Q667 586 667 600Q667 624 656.5 634Q646 644 620 649L569 659V705L699 700L830 705V659L779 649Q753 644 742.5 634Q732 624 732 600Q732 585 732 562Q732 539 731.5 512Q731 485 731 456Q731 427 731 399Q730 333 730 259Q730 191 708 140Q686 89 645.5 54.5Q605 20 549 2.5Q493 -15 425 -15Q359 -15 303 1.5Q247 18 205.5 50Q164 82 140.5 129.5Q117 177 117 240V600Q117 624 106.5 634Q96 644 70 649L19 659V705L186 700L372 705V659L322 649Q296 644 285.5 634Q275 624 275 600Z" glyph-name="Uacute" horiz-adv-x="847" unicode="&#218;" /><glyph d="M249 202Q249 157 261 128Q273 99 292.5 81.5Q312 64 338 57.5Q364 51 391 51Q435 51 466.5 66Q498 81 518 103.5Q538 126 547.5 151Q557 176 557 196Q557 227 556.5 271Q556 315 556 357Q556 399 555.5 432.5Q555 466 555 477Q555 497 547 504.5Q539 512 519 517L479 525V564L582 560L687 564V525L648 517Q627 512 618.5 504.5Q610 497 610 477Q610 465 610 447Q610 429 609.5 407Q609 385 609 361.5Q609 338 609 315V202Q609 148 589.5 108Q570 68 536 41Q502 14 456 1Q410 -12 357 -12Q305 -12 258.5 1Q212 14 176.5 39.5Q141 65 120.5 103.5Q100 142 100 192V477Q100 497 91.5 504.5Q83 512 63 517L23 525V564L160 560L325 564V525L285 517Q265 512 257 504.5Q249 497 249 477ZM340 823H530L333 634L284 640Z" glyph-name="Uacute.smcp" horiz-adv-x="709" /><glyph d="M423 891Q458 891 478.5 898.5Q499 906 509.5 918.5Q520 931 523 947Q526 963 526 980V985H577V945Q577 908 567 877Q557 846 537.5 823.5Q518 801 489 788.5Q460 776 423 776Q386 776 357.5 788.5Q329 801 309.5 823.5Q290 846 280 877Q270 908 270 945V985H321V980Q321 963 324 947Q327 931 337.5 918.5Q348 906 368 898.5Q388 891 423 891ZM275 248Q275 191 290.5 154Q306 117 331.5 95Q357 73 390.5 64.5Q424 56 460 56Q518 56 558 75Q598 94 622.5 124Q647 154 658 189.5Q669 225 669 258Q669 297 668.5 350Q668 403 668 454Q668 505 667.5 545.5Q667 586 667 600Q667 624 656.5 634Q646 644 620 649L569 659V705L699 700L830 705V659L779 649Q753 644 742.5 634Q732 624 732 600Q732 585 732 562Q732 539 731.5 512Q731 485 731 456Q731 427 731 399Q730 333 730 259Q730 191 708 140Q686 89 645.5 54.5Q605 20 549 2.5Q493 -15 425 -15Q359 -15 303 1.5Q247 18 205.5 50Q164 82 140.5 129.5Q117 177 117 240V600Q117 624 106.5 634Q96 644 70 649L19 659V705L186 700L372 705V659L322 649Q296 644 285.5 634Q275 624 275 600Z" glyph-name="Ubreve" horiz-adv-x="847" unicode="&#364;" /><glyph d="M249 202Q249 157 261 128Q273 99 292.5 81.5Q312 64 338 57.5Q364 51 391 51Q435 51 466.5 66Q498 81 518 103.5Q538 126 547.5 151Q557 176 557 196Q557 227 556.5 271Q556 315 556 357Q556 399 555.5 432.5Q555 466 555 477Q555 497 547 504.5Q539 512 519 517L479 525V564L582 560L687 564V525L648 517Q627 512 618.5 504.5Q610 497 610 477Q610 465 610 447Q610 429 609.5 407Q609 385 609 361.5Q609 338 609 315V202Q609 148 589.5 108Q570 68 536 41Q502 14 456 1Q410 -12 357 -12Q305 -12 258.5 1Q212 14 176.5 39.5Q141 65 120.5 103.5Q100 142 100 192V477Q100 497 91.5 504.5Q83 512 63 517L23 525V564L160 560L325 564V525L285 517Q265 512 257 504.5Q249 497 249 477ZM350 750Q385 750 406 757.5Q427 765 437.5 777.5Q448 790 451 806Q454 822 454 839V844H506V804Q506 767 496 736Q486 705 466 682.5Q446 660 417 647.5Q388 635 350 635Q312 635 283.5 647.5Q255 660 235 682.5Q215 705 205 736Q195 767 195 804V844H246V839Q246 822 249 806Q252 790 262.5 777.5Q273 765 294 757.5Q315 750 350 750Z" glyph-name="Ubreve.smcp" horiz-adv-x="709" /><glyph d="M392 976H452L597 782L574 762L424 849H422L276 763L249 782ZM275 248Q275 191 290.5 154Q306 117 331.5 95Q357 73 390.5 64.5Q424 56 460 56Q518 56 558 75Q598 94 622.5 124Q647 154 658 189.5Q669 225 669 258Q669 297 668.5 350Q668 403 668 454Q668 505 667.5 545.5Q667 586 667 600Q667 624 656.5 634Q646 644 620 649L569 659V705L699 700L830 705V659L779 649Q753 644 742.5 634Q732 624 732 600Q732 585 732 562Q732 539 731.5 512Q731 485 731 456Q731 427 731 399Q730 333 730 259Q730 191 708 140Q686 89 645.5 54.5Q605 20 549 2.5Q493 -15 425 -15Q359 -15 303 1.5Q247 18 205.5 50Q164 82 140.5 129.5Q117 177 117 240V600Q117 624 106.5 634Q96 644 70 649L19 659V705L186 700L372 705V659L322 649Q296 644 285.5 634Q275 624 275 600Z" glyph-name="Ucircumflex" horiz-adv-x="847" unicode="&#219;" /><glyph d="M249 202Q249 157 261 128Q273 99 292.5 81.5Q312 64 338 57.5Q364 51 391 51Q435 51 466.5 66Q498 81 518 103.5Q538 126 547.5 151Q557 176 557 196Q557 227 556.5 271Q556 315 556 357Q556 399 555.5 432.5Q555 466 555 477Q555 497 547 504.5Q539 512 519 517L479 525V564L582 560L687 564V525L648 517Q627 512 618.5 504.5Q610 497 610 477Q610 465 610 447Q610 429 609.5 407Q609 385 609 361.5Q609 338 609 315V202Q609 148 589.5 108Q570 68 536 41Q502 14 456 1Q410 -12 357 -12Q305 -12 258.5 1Q212 14 176.5 39.5Q141 65 120.5 103.5Q100 142 100 192V477Q100 497 91.5 504.5Q83 512 63 517L23 525V564L160 560L325 564V525L285 517Q265 512 257 504.5Q249 497 249 477ZM321 829H382L529 635L506 615L354 702H352L204 616L177 635Z" glyph-name="Ucircumflex.smcp" horiz-adv-x="709" /><glyph d="M442 857Q442 892 465.5 916Q489 940 524 940Q559 940 583 916Q607 892 607 857Q607 822 583 798Q559 774 524 774Q489 774 465.5 798Q442 822 442 857ZM239 857Q239 892 262.5 916Q286 940 321 940Q358 940 381.5 916Q405 892 405 857Q405 822 381.5 798Q358 774 321 774Q286 774 262.5 798Q239 822 239 857ZM275 248Q275 191 290.5 154Q306 117 331.5 95Q357 73 390.5 64.5Q424 56 460 56Q518 56 558 75Q598 94 622.5 124Q647 154 658 189.5Q669 225 669 258Q669 297 668.5 350Q668 403 668 454Q668 505 667.5 545.5Q667 586 667 600Q667 624 656.5 634Q646 644 620 649L569 659V705L699 700L830 705V659L779 649Q753 644 742.5 634Q732 624 732 600Q732 585 732 562Q732 539 731.5 512Q731 485 731 456Q731 427 731 399Q730 333 730 259Q730 191 708 140Q686 89 645.5 54.5Q605 20 549 2.5Q493 -15 425 -15Q359 -15 303 1.5Q247 18 205.5 50Q164 82 140.5 129.5Q117 177 117 240V600Q117 624 106.5 634Q96 644 70 649L19 659V705L186 700L372 705V659L322 649Q296 644 285.5 634Q275 624 275 600Z" glyph-name="Udieresis" horiz-adv-x="847" unicode="&#220;" /><glyph d="M249 202Q249 157 261 128Q273 99 292.5 81.5Q312 64 338 57.5Q364 51 391 51Q435 51 466.5 66Q498 81 518 103.5Q538 126 547.5 151Q557 176 557 196Q557 227 556.5 271Q556 315 556 357Q556 399 555.5 432.5Q555 466 555 477Q555 497 547 504.5Q539 512 519 517L479 525V564L582 560L687 564V525L648 517Q627 512 618.5 504.5Q610 497 610 477Q610 465 610 447Q610 429 609.5 407Q609 385 609 361.5Q609 338 609 315V202Q609 148 589.5 108Q570 68 536 41Q502 14 456 1Q410 -12 357 -12Q305 -12 258.5 1Q212 14 176.5 39.5Q141 65 120.5 103.5Q100 142 100 192V477Q100 497 91.5 504.5Q83 512 63 517L23 525V564L160 560L325 564V525L285 517Q265 512 257 504.5Q249 497 249 477ZM374 710Q374 745 398 769Q422 793 457 793Q492 793 516 769Q540 745 540 710Q540 675 516 651Q492 627 457 627Q422 627 398 651Q374 675 374 710ZM168 710Q168 745 192 769Q216 793 251 793Q286 793 310 769Q334 745 334 710Q334 675 310 651Q286 627 251 627Q216 627 192 651Q168 675 168 710Z" glyph-name="Udieresis.smcp" horiz-adv-x="709" /><glyph d="M540 787 491 781 296 970H486ZM275 248Q275 191 290.5 154Q306 117 331.5 95Q357 73 390.5 64.5Q424 56 460 56Q518 56 558 75Q598 94 622.5 124Q647 154 658 189.5Q669 225 669 258Q669 297 668.5 350Q668 403 668 454Q668 505 667.5 545.5Q667 586 667 600Q667 624 656.5 634Q646 644 620 649L569 659V705L699 700L830 705V659L779 649Q753 644 742.5 634Q732 624 732 600Q732 585 732 562Q732 539 731.5 512Q731 485 731 456Q731 427 731 399Q730 333 730 259Q730 191 708 140Q686 89 645.5 54.5Q605 20 549 2.5Q493 -15 425 -15Q359 -15 303 1.5Q247 18 205.5 50Q164 82 140.5 129.5Q117 177 117 240V600Q117 624 106.5 634Q96 644 70 649L19 659V705L186 700L372 705V659L322 649Q296 644 285.5 634Q275 624 275 600Z" glyph-name="Ugrave" horiz-adv-x="847" unicode="&#217;" /><glyph d="M249 202Q249 157 261 128Q273 99 292.5 81.5Q312 64 338 57.5Q364 51 391 51Q435 51 466.5 66Q498 81 518 103.5Q538 126 547.5 151Q557 176 557 196Q557 227 556.5 271Q556 315 556 357Q556 399 555.5 432.5Q555 466 555 477Q555 497 547 504.5Q539 512 519 517L479 525V564L582 560L687 564V525L648 517Q627 512 618.5 504.5Q610 497 610 477Q610 465 610 447Q610 429 609.5 407Q609 385 609 361.5Q609 338 609 315V202Q609 148 589.5 108Q570 68 536 41Q502 14 456 1Q410 -12 357 -12Q305 -12 258.5 1Q212 14 176.5 39.5Q141 65 120.5 103.5Q100 142 100 192V477Q100 497 91.5 504.5Q83 512 63 517L23 525V564L160 560L325 564V525L285 517Q265 512 257 504.5Q249 497 249 477ZM470 640 420 634 223 823H413Z" glyph-name="Ugrave.smcp" horiz-adv-x="709" /><glyph d="M505 970H675L510 781L461 787ZM315 970H485L320 781L271 787ZM275 248Q275 191 290.5 154Q306 117 331.5 95Q357 73 390.5 64.5Q424 56 460 56Q518 56 558 75Q598 94 622.5 124Q647 154 658 189.5Q669 225 669 258Q669 297 668.5 350Q668 403 668 454Q668 505 667.5 545.5Q667 586 667 600Q667 624 656.5 634Q646 644 620 649L569 659V705L699 700L830 705V659L779 649Q753 644 742.5 634Q732 624 732 600Q732 585 732 562Q732 539 731.5 512Q731 485 731 456Q731 427 731 399Q730 333 730 259Q730 191 708 140Q686 89 645.5 54.5Q605 20 549 2.5Q493 -15 425 -15Q359 -15 303 1.5Q247 18 205.5 50Q164 82 140.5 129.5Q117 177 117 240V600Q117 624 106.5 634Q96 644 70 649L19 659V705L186 700L372 705V659L322 649Q296 644 285.5 634Q275 624 275 600Z" glyph-name="Uhungarumlaut" horiz-adv-x="847" unicode="&#368;" /><glyph d="M249 202Q249 157 261 128Q273 99 292.5 81.5Q312 64 338 57.5Q364 51 391 51Q435 51 466.5 66Q498 81 518 103.5Q538 126 547.5 151Q557 176 557 196Q557 227 556.5 271Q556 315 556 357Q556 399 555.5 432.5Q555 466 555 477Q555 497 547 504.5Q539 512 519 517L479 525V564L582 560L687 564V525L648 517Q627 512 618.5 504.5Q610 497 610 477Q610 465 610 447Q610 429 609.5 407Q609 385 609 361.5Q609 338 609 315V202Q609 148 589.5 108Q570 68 536 41Q502 14 456 1Q410 -12 357 -12Q305 -12 258.5 1Q212 14 176.5 39.5Q141 65 120.5 103.5Q100 142 100 192V477Q100 497 91.5 504.5Q83 512 63 517L23 525V564L160 560L325 564V525L285 517Q265 512 257 504.5Q249 497 249 477ZM445 808H616L448 619L398 625ZM252 808H423L255 619L205 625Z" glyph-name="Uhungarumlaut.smcp" horiz-adv-x="709" /><glyph d="M265 793V869H584V793ZM275 248Q275 191 290.5 154Q306 117 331.5 95Q357 73 390.5 64.5Q424 56 460 56Q518 56 558 75Q598 94 622.5 124Q647 154 658 189.5Q669 225 669 258Q669 297 668.5 350Q668 403 668 454Q668 505 667.5 545.5Q667 586 667 600Q667 624 656.5 634Q646 644 620 649L569 659V705L699 700L830 705V659L779 649Q753 644 742.5 634Q732 624 732 600Q732 585 732 562Q732 539 731.5 512Q731 485 731 456Q731 427 731 399Q730 333 730 259Q730 191 708 140Q686 89 645.5 54.5Q605 20 549 2.5Q493 -15 425 -15Q359 -15 303 1.5Q247 18 205.5 50Q164 82 140.5 129.5Q117 177 117 240V600Q117 624 106.5 634Q96 644 70 649L19 659V705L186 700L372 705V659L322 649Q296 644 285.5 634Q275 624 275 600Z" glyph-name="Umacron" horiz-adv-x="847" unicode="&#362;" /><glyph d="M249 202Q249 157 261 128Q273 99 292.5 81.5Q312 64 338 57.5Q364 51 391 51Q435 51 466.5 66Q498 81 518 103.5Q538 126 547.5 151Q557 176 557 196Q557 227 556.5 271Q556 315 556 357Q556 399 555.5 432.5Q555 466 555 477Q555 497 547 504.5Q539 512 519 517L479 525V564L582 560L687 564V525L648 517Q627 512 618.5 504.5Q610 497 610 477Q610 465 610 447Q610 429 609.5 407Q609 385 609 361.5Q609 338 609 315V202Q609 148 589.5 108Q570 68 536 41Q502 14 456 1Q410 -12 357 -12Q305 -12 258.5 1Q212 14 176.5 39.5Q141 65 120.5 103.5Q100 142 100 192V477Q100 497 91.5 504.5Q83 512 63 517L23 525V564L160 560L325 564V525L285 517Q265 512 257 504.5Q249 497 249 477ZM195 652V728H518V652Z" glyph-name="Umacron.smcp" horiz-adv-x="709" /><glyph d="M275 248Q275 191 290.5 154Q306 117 331.5 95Q357 73 390.5 64.5Q424 56 460 56Q518 56 558 75Q598 94 622.5 124Q647 154 658 189.5Q669 225 669 258Q669 297 668.5 350Q668 403 668 454Q668 505 667.5 545.5Q667 586 667 600Q667 624 656.5 634Q646 644 620 649L569 659V705L699 700L830 705V659L779 649Q753 644 742.5 634Q732 624 732 600Q732 585 732 562Q732 539 731.5 512Q731 485 731 456Q731 427 731 399Q730 333 730 259Q730 147 671 80Q612 13 513 -6Q501 -18 488.5 -31.5Q476 -45 466.5 -61Q457 -77 450.5 -96Q444 -115 444 -138Q444 -183 471.5 -203.5Q499 -224 551 -224Q559 -224 567.5 -223.5Q576 -223 586 -222L567 -256Q555 -260 540 -263Q525 -266 509 -268Q493 -270 478.5 -271Q464 -272 454 -272Q426 -272 401.5 -265Q377 -258 358.5 -244.5Q340 -231 329 -210Q318 -189 318 -162Q318 -117 349 -79Q380 -41 428 -15H425Q359 -15 303 1.5Q247 18 205.5 50Q164 82 140.5 129.5Q117 177 117 240V600Q117 624 106.5 634Q96 644 70 649L19 659V705L186 700L372 705V659L322 649Q296 644 285.5 634Q275 624 275 600Z" glyph-name="Uogonek" horiz-adv-x="847" unicode="&#370;" /><glyph d="M249 202Q249 157 261 128Q273 99 292.5 81.5Q312 64 338 57.5Q364 51 391 51Q435 51 466.5 66Q498 81 518 103.5Q538 126 547.5 151Q557 176 557 196Q557 227 556.5 271Q556 315 556 357Q556 399 555.5 432.5Q555 466 555 477Q555 497 547 504.5Q539 512 519 517L479 525V564L582 560L687 564V525L648 517Q627 512 618.5 504.5Q610 497 610 477Q610 465 610 447Q610 429 609.5 407Q609 385 609 361.5Q609 338 609 315V202Q609 157 595.5 121.5Q582 86 557.5 60Q533 34 499 17.5Q465 1 425 -6Q413 -17 400 -30.5Q387 -44 377 -60.5Q367 -77 360.5 -96Q354 -115 354 -138Q354 -183 382 -203.5Q410 -224 462 -224Q470 -224 479 -223.5Q488 -223 498 -222L478 -256Q466 -260 451 -263Q436 -266 420 -268Q404 -270 389.5 -271Q375 -272 365 -272Q337 -272 312 -265Q287 -258 268.5 -244.5Q250 -231 239 -210Q228 -189 228 -162Q228 -115 261 -76.5Q294 -38 345 -12Q295 -11 250.5 3Q206 17 172.5 42.5Q139 68 119.5 105.5Q100 143 100 192V477Q100 497 91.5 504.5Q83 512 63 517L23 525V564L160 560L325 564V525L285 517Q265 512 257 504.5Q249 497 249 477Z" glyph-name="Uogonek.smcp" horiz-adv-x="709" /><glyph d="M285 896Q285 925 296 950Q307 975 325.5 993Q344 1011 369 1021.5Q394 1032 423 1032Q452 1032 477.5 1021.5Q503 1011 521.5 993Q540 975 551 950Q562 925 562 896Q562 867 551 842Q540 817 521.5 799Q503 781 477.5 770.5Q452 760 423 760Q394 760 369 770.5Q344 781 325.5 799Q307 817 296 842Q285 867 285 896ZM342 896Q342 859 363.5 834.5Q385 810 423 810Q461 810 483 834.5Q505 859 505 896Q505 933 483 957Q461 981 423 981Q385 981 363.5 957Q342 933 342 896ZM275 248Q275 191 290.5 154Q306 117 331.5 95Q357 73 390.5 64.5Q424 56 460 56Q518 56 558 75Q598 94 622.5 124Q647 154 658 189.5Q669 225 669 258Q669 297 668.5 350Q668 403 668 454Q668 505 667.5 545.5Q667 586 667 600Q667 624 656.5 634Q646 644 620 649L569 659V705L699 700L830 705V659L779 649Q753 644 742.5 634Q732 624 732 600Q732 585 732 562Q732 539 731.5 512Q731 485 731 456Q731 427 731 399Q730 333 730 259Q730 191 708 140Q686 89 645.5 54.5Q605 20 549 2.5Q493 -15 425 -15Q359 -15 303 1.5Q247 18 205.5 50Q164 82 140.5 129.5Q117 177 117 240V600Q117 624 106.5 634Q96 644 70 649L19 659V705L186 700L372 705V659L322 649Q296 644 285.5 634Q275 624 275 600Z" glyph-name="Uring" horiz-adv-x="847" unicode="&#366;" /><glyph d="M249 202Q249 157 261 128Q273 99 292.5 81.5Q312 64 338 57.5Q364 51 391 51Q435 51 466.5 66Q498 81 518 103.5Q538 126 547.5 151Q557 176 557 196Q557 227 556.5 271Q556 315 556 357Q556 399 555.5 432.5Q555 466 555 477Q555 497 547 504.5Q539 512 519 517L479 525V564L582 560L687 564V525L648 517Q627 512 618.5 504.5Q610 497 610 477Q610 465 610 447Q610 429 609.5 407Q609 385 609 361.5Q609 338 609 315V202Q609 148 589.5 108Q570 68 536 41Q502 14 456 1Q410 -12 357 -12Q305 -12 258.5 1Q212 14 176.5 39.5Q141 65 120.5 103.5Q100 142 100 192V477Q100 497 91.5 504.5Q83 512 63 517L23 525V564L160 560L325 564V525L285 517Q265 512 257 504.5Q249 497 249 477ZM210 755Q210 784 221 809Q232 834 251 852Q270 870 295.5 880.5Q321 891 350 891Q380 891 405.5 880.5Q431 870 450 852Q469 834 480 809Q491 784 491 755Q491 726 480 701Q469 676 450 658Q431 640 405.5 629.5Q380 619 350 619Q321 619 295.5 629.5Q270 640 251 658Q232 676 221 701Q210 726 210 755ZM267 755Q267 718 289.5 693.5Q312 669 350 669Q388 669 410.5 693.5Q433 718 433 755Q433 792 410.5 816Q388 840 350 840Q312 840 289.5 816Q267 792 267 755Z" glyph-name="Uring.smcp" horiz-adv-x="709" /><glyph d="M511 888Q523 888 530.5 889Q538 890 544 893.5Q550 897 555.5 905Q561 913 569 927L602 915Q597 896 587 873Q577 850 562 830Q547 810 526.5 796.5Q506 783 479 783Q461 783 442 789.5Q423 796 405 804.5Q387 813 371 819.5Q355 826 343 826Q322 826 307 820.5Q292 815 277 788L244 800Q248 819 259 842.5Q270 866 285.5 886Q301 906 322 919.5Q343 933 368 933Q384 933 405 926Q426 919 446 910.5Q466 902 483.5 895Q501 888 511 888ZM275 248Q275 191 290.5 154Q306 117 331.5 95Q357 73 390.5 64.5Q424 56 460 56Q518 56 558 75Q598 94 622.5 124Q647 154 658 189.5Q669 225 669 258Q669 297 668.5 350Q668 403 668 454Q668 505 667.5 545.5Q667 586 667 600Q667 624 656.5 634Q646 644 620 649L569 659V705L699 700L830 705V659L779 649Q753 644 742.5 634Q732 624 732 600Q732 585 732 562Q732 539 731.5 512Q731 485 731 456Q731 427 731 399Q730 333 730 259Q730 191 708 140Q686 89 645.5 54.5Q605 20 549 2.5Q493 -15 425 -15Q359 -15 303 1.5Q247 18 205.5 50Q164 82 140.5 129.5Q117 177 117 240V600Q117 624 106.5 634Q96 644 70 649L19 659V705L186 700L372 705V659L322 649Q296 644 285.5 634Q275 624 275 600Z" glyph-name="Utilde" horiz-adv-x="847" unicode="&#360;" /><glyph d="M249 202Q249 157 261 128Q273 99 292.5 81.5Q312 64 338 57.5Q364 51 391 51Q435 51 466.5 66Q498 81 518 103.5Q538 126 547.5 151Q557 176 557 196Q557 227 556.5 271Q556 315 556 357Q556 399 555.5 432.5Q555 466 555 477Q555 497 547 504.5Q539 512 519 517L479 525V564L582 560L687 564V525L648 517Q627 512 618.5 504.5Q610 497 610 477Q610 465 610 447Q610 429 609.5 407Q609 385 609 361.5Q609 338 609 315V202Q609 148 589.5 108Q570 68 536 41Q502 14 456 1Q410 -12 357 -12Q305 -12 258.5 1Q212 14 176.5 39.5Q141 65 120.5 103.5Q100 142 100 192V477Q100 497 91.5 504.5Q83 512 63 517L23 525V564L160 560L325 564V525L285 517Q265 512 257 504.5Q249 497 249 477ZM438 747Q450 747 458 748Q466 749 472 752.5Q478 756 483.5 764Q489 772 497 786L530 774Q525 755 515 732Q505 709 490 689Q475 669 454 655.5Q433 642 406 642Q388 642 369 648.5Q350 655 331.5 663.5Q313 672 296.5 678.5Q280 685 268 685Q246 685 231 679.5Q216 674 201 647Q200 647 195 649Q190 651 184 653L168 659Q172 678 183 701.5Q194 725 209.5 745Q225 765 246 778.5Q267 792 293 792Q309 792 330.5 785Q352 778 372.5 769.5Q393 761 410.5 754Q428 747 438 747Z" glyph-name="Utilde.smcp" horiz-adv-x="709" /><glyph d="M328 -16Q291 72 251 173Q216 259 172 370Q128 481 82 601Q74 623 64 633.5Q54 644 32 649L-15 659V705L167 700L360 705V659L308 649Q282 644 270.5 633.5Q259 623 267 601Q287 539 312.5 470Q338 401 363 336Q388 271 410 215.5Q432 160 445 125L625 601Q633 623 621.5 633.5Q610 644 584 649L534 659V705L664 700L794 705V659L746 649Q723 644 712 634Q701 624 693 602Q631 445 586.5 331Q542 217 513 142Q479 54 455 -6Z" glyph-name="V" horiz-adv-x="776" unicode="V" /><glyph d="M275 -13Q232 92 193 187Q176 227 159 269.5Q142 312 126 350.5Q110 389 96 422Q82 455 73 478Q65 495 58 504Q51 513 34 517L-2 525V564L149 560L319 564V525L276 517Q256 513 247.5 504Q239 495 245 478Q272 399 309.5 304Q347 209 385 115Q393 135 403 161.5Q413 188 424 217.5Q435 247 446.5 277.5Q458 308 469 337Q494 405 521 478Q528 495 519 503.5Q510 512 489 517L450 525V564L552 560L661 564V525L623 517Q606 513 597 504.5Q588 496 581 479Q549 398 515 312.5Q481 227 453 156Q420 73 389 -5Z" glyph-name="V.smcp" horiz-adv-x="653" /><glyph d="M743 -16Q708 80 676 164Q662 200 648.5 237.5Q635 275 622.5 309Q610 343 599.5 372Q589 401 582 420Q570 391 556.5 357Q543 323 529 288Q515 253 501 217.5Q487 182 474 149Q444 72 414 -6L295 -16Q259 93 222 202Q206 248 188.5 299.5Q171 351 153.5 402.5Q136 454 118.5 505Q101 556 86 601Q78 623 68 633.5Q58 644 36 649L-12 659V705L163 700L355 705V659L304 649Q278 644 266 633.5Q254 623 262 601Q281 541 302.5 474Q324 407 344.5 343Q365 279 382.5 224Q400 169 411 132L554 493L519 601Q511 624 501.5 634Q492 644 469 649L422 659V705L597 701L800 705V659L744 647Q732 644 721.5 639Q711 634 705 623.5Q699 613 699 595.5Q699 578 708 551Q719 513 738.5 457.5Q758 402 780 342.5Q802 283 822.5 227Q843 171 856 133L1013 601Q1021 623 1009.5 633.5Q998 644 972 649L920 659V705L1079 700L1179 705V659L1131 649Q1109 644 1097.5 634Q1086 624 1078 602Q1019 444 977.5 330Q936 216 910 141Q879 53 859 -6Z" glyph-name="W" horiz-adv-x="1158" unicode="W" /><glyph d="M618 -13Q588 65 562 135Q551 165 539 195Q527 225 516.5 252.5Q506 280 497.5 302.5Q489 325 484 340Q478 326 469 303.5Q460 281 449 254Q438 227 426 197.5Q414 168 402 139Q375 71 344 -5L239 -13Q210 73 181 160Q169 197 155 237.5Q141 278 127 319.5Q113 361 99.5 401.5Q86 442 74 478Q68 495 60 504Q52 513 35 517L-2 525V564L143 560L313 564V525L273 517Q252 512 243.5 503.5Q235 495 240 478Q263 400 290 316.5Q317 233 348 134L460 403L434 475Q428 493 420 503Q412 513 395 517L358 525V564L493 561L684 564V525L641 516Q633 514 624.5 510.5Q616 507 610.5 498.5Q605 490 604.5 475.5Q604 461 612 438Q620 415 633 379.5Q646 344 661 303Q676 262 692.5 218.5Q709 175 723 136L832 478Q838 495 829.5 504Q821 513 801 517L759 525V564L892 560L970 564V525L933 517Q916 513 907 504.5Q898 496 891 479Q843 352 810.5 261.5Q778 171 758 111Q734 41 719 -5Z" glyph-name="W.smcp" horiz-adv-x="961" /><glyph d="M554 968H744L549 779L500 785ZM743 -16Q708 80 676 164Q662 200 648.5 237.5Q635 275 622.5 309Q610 343 599.5 372Q589 401 582 420Q570 391 556.5 357Q543 323 529 288Q515 253 501 217.5Q487 182 474 149Q444 72 414 -6L295 -16Q259 93 222 202Q206 248 188.5 299.5Q171 351 153.5 402.5Q136 454 118.5 505Q101 556 86 601Q78 623 68 633.5Q58 644 36 649L-12 659V705L163 700L355 705V659L304 649Q278 644 266 633.5Q254 623 262 601Q281 541 302.5 474Q324 407 344.5 343Q365 279 382.5 224Q400 169 411 132L554 493L519 601Q511 624 501.5 634Q492 644 469 649L422 659V705L597 701L800 705V659L744 647Q732 644 721.5 639Q711 634 705 623.5Q699 613 699 595.5Q699 578 708 551Q719 513 738.5 457.5Q758 402 780 342.5Q802 283 822.5 227Q843 171 856 133L1013 601Q1021 623 1009.5 633.5Q998 644 972 649L920 659V705L1079 700L1179 705V659L1131 649Q1109 644 1097.5 634Q1086 624 1078 602Q1019 444 977.5 330Q936 216 910 141Q879 53 859 -6Z" glyph-name="Wacute" horiz-adv-x="1158" unicode="&#7810;" /><glyph d="M486 823H676L479 634L430 640ZM618 -13Q588 65 562 135Q551 165 539 195Q527 225 516.5 252.5Q506 280 497.5 302.5Q489 325 484 340Q478 326 469 303.5Q460 281 449 254Q438 227 426 197.5Q414 168 402 139Q375 71 344 -5L239 -13Q210 73 181 160Q169 197 155 237.5Q141 278 127 319.5Q113 361 99.5 401.5Q86 442 74 478Q68 495 60 504Q52 513 35 517L-2 525V564L143 560L313 564V525L273 517Q252 512 243.5 503.5Q235 495 240 478Q263 400 290 316.5Q317 233 348 134L460 403L434 475Q428 493 420 503Q412 513 395 517L358 525V564L493 561L684 564V525L641 516Q633 514 624.5 510.5Q616 507 610.5 498.5Q605 490 604.5 475.5Q604 461 612 438Q620 415 633 379.5Q646 344 661 303Q676 262 692.5 218.5Q709 175 723 136L832 478Q838 495 829.5 504Q821 513 801 517L759 525V564L892 560L970 564V525L933 517Q916 513 907 504.5Q898 496 891 479Q843 352 810.5 261.5Q778 171 758 111Q734 41 719 -5Z" glyph-name="Wacute.smcp" horiz-adv-x="962" /><glyph d="M584 976H644L789 782L766 762L616 849H614L468 763L441 782ZM743 -16Q708 80 676 164Q662 200 648.5 237.5Q635 275 622.5 309Q610 343 599.5 372Q589 401 582 420Q570 391 556.5 357Q543 323 529 288Q515 253 501 217.5Q487 182 474 149Q444 72 414 -6L295 -16Q259 93 222 202Q206 248 188.5 299.5Q171 351 153.5 402.5Q136 454 118.5 505Q101 556 86 601Q78 623 68 633.5Q58 644 36 649L-12 659V705L163 700L355 705V659L304 649Q278 644 266 633.5Q254 623 262 601Q281 541 302.5 474Q324 407 344.5 343Q365 279 382.5 224Q400 169 411 132L554 493L519 601Q511 624 501.5 634Q492 644 469 649L422 659V705L597 701L800 705V659L744 647Q732 644 721.5 639Q711 634 705 623.5Q699 613 699 595.5Q699 578 708 551Q719 513 738.5 457.5Q758 402 780 342.5Q802 283 822.5 227Q843 171 856 133L1013 601Q1021 623 1009.5 633.5Q998 644 972 649L920 659V705L1079 700L1179 705V659L1131 649Q1109 644 1097.5 634Q1086 624 1078 602Q1019 444 977.5 330Q936 216 910 141Q879 53 859 -6Z" glyph-name="Wcircumflex" horiz-adv-x="1158" unicode="&#372;" /><glyph d="M618 -13Q588 65 562 135Q551 165 539 195Q527 225 516.5 252.5Q506 280 497.5 302.5Q489 325 484 340Q478 326 469 303.5Q460 281 449 254Q438 227 426 197.5Q414 168 402 139Q375 71 344 -5L239 -13Q210 73 181 160Q169 197 155 237.5Q141 278 127 319.5Q113 361 99.5 401.5Q86 442 74 478Q68 495 60 504Q52 513 35 517L-2 525V564L143 560L313 564V525L273 517Q252 512 243.5 503.5Q235 495 240 478Q263 400 290 316.5Q317 233 348 134L460 403L434 475Q428 493 420 503Q412 513 395 517L358 525V564L493 561L684 564V525L641 516Q633 514 624.5 510.5Q616 507 610.5 498.5Q605 490 604.5 475.5Q604 461 612 438Q620 415 633 379.5Q646 344 661 303Q676 262 692.5 218.5Q709 175 723 136L832 478Q838 495 829.5 504Q821 513 801 517L759 525V564L892 560L970 564V525L933 517Q916 513 907 504.5Q898 496 891 479Q843 352 810.5 261.5Q778 171 758 111Q734 41 719 -5ZM492 831H553L700 637L677 617L525 704H523L375 618L348 637Z" glyph-name="Wcircumflex.smcp" horiz-adv-x="961" /><glyph d="M627 855Q627 890 650.5 914Q674 938 709 938Q744 938 768 914Q792 890 792 855Q792 820 768 796Q744 772 709 772Q674 772 650.5 796Q627 820 627 855ZM424 855Q424 890 447.5 914Q471 938 506 938Q543 938 566.5 914Q590 890 590 855Q590 820 566.5 796Q543 772 506 772Q471 772 447.5 796Q424 820 424 855ZM743 -16Q708 80 676 164Q662 200 648.5 237.5Q635 275 622.5 309Q610 343 599.5 372Q589 401 582 420Q570 391 556.5 357Q543 323 529 288Q515 253 501 217.5Q487 182 474 149Q444 72 414 -6L295 -16Q259 93 222 202Q206 248 188.5 299.5Q171 351 153.5 402.5Q136 454 118.5 505Q101 556 86 601Q78 623 68 633.5Q58 644 36 649L-12 659V705L163 700L355 705V659L304 649Q278 644 266 633.5Q254 623 262 601Q281 541 302.5 474Q324 407 344.5 343Q365 279 382.5 224Q400 169 411 132L554 493L519 601Q511 624 501.5 634Q492 644 469 649L422 659V705L597 701L800 705V659L744 647Q732 644 721.5 639Q711 634 705 623.5Q699 613 699 595.5Q699 578 708 551Q719 513 738.5 457.5Q758 402 780 342.5Q802 283 822.5 227Q843 171 856 133L1013 601Q1021 623 1009.5 633.5Q998 644 972 649L920 659V705L1079 700L1179 705V659L1131 649Q1109 644 1097.5 634Q1086 624 1078 602Q1019 444 977.5 330Q936 216 910 141Q879 53 859 -6Z" glyph-name="Wdieresis" horiz-adv-x="1158" unicode="&#7812;" /><glyph d="M535 716Q535 751 559 775Q583 799 618 799Q653 799 677 775Q701 751 701 716Q701 681 677 657Q653 633 618 633Q583 633 559 657Q535 681 535 716ZM329 716Q329 751 353 775Q377 799 412 799Q447 799 471 775Q495 751 495 716Q495 681 471 657Q447 633 412 633Q377 633 353 657Q329 681 329 716ZM618 -13Q588 65 562 135Q551 165 539 195Q527 225 516.5 252.5Q506 280 497.5 302.5Q489 325 484 340Q478 326 469 303.5Q460 281 449 254Q438 227 426 197.5Q414 168 402 139Q375 71 344 -5L239 -13Q210 73 181 160Q169 197 155 237.5Q141 278 127 319.5Q113 361 99.5 401.5Q86 442 74 478Q68 495 60 504Q52 513 35 517L-2 525V564L143 560L313 564V525L273 517Q252 512 243.5 503.5Q235 495 240 478Q263 400 290 316.5Q317 233 348 134L460 403L434 475Q428 493 420 503Q412 513 395 517L358 525V564L493 561L684 564V525L641 516Q633 514 624.5 510.5Q616 507 610.5 498.5Q605 490 604.5 475.5Q604 461 612 438Q620 415 633 379.5Q646 344 661 303Q676 262 692.5 218.5Q709 175 723 136L832 478Q838 495 829.5 504Q821 513 801 517L759 525V564L892 560L970 564V525L933 517Q916 513 907 504.5Q898 496 891 479Q843 352 810.5 261.5Q778 171 758 111Q734 41 719 -5Z" glyph-name="Wdieresis.smcp" horiz-adv-x="962" /><glyph d="M685 785 636 779 441 968H631ZM743 -16Q708 80 676 164Q662 200 648.5 237.5Q635 275 622.5 309Q610 343 599.5 372Q589 401 582 420Q570 391 556.5 357Q543 323 529 288Q515 253 501 217.5Q487 182 474 149Q444 72 414 -6L295 -16Q259 93 222 202Q206 248 188.5 299.5Q171 351 153.5 402.5Q136 454 118.5 505Q101 556 86 601Q78 623 68 633.5Q58 644 36 649L-12 659V705L163 700L355 705V659L304 649Q278 644 266 633.5Q254 623 262 601Q281 541 302.5 474Q324 407 344.5 343Q365 279 382.5 224Q400 169 411 132L554 493L519 601Q511 624 501.5 634Q492 644 469 649L422 659V705L597 701L800 705V659L744 647Q732 644 721.5 639Q711 634 705 623.5Q699 613 699 595.5Q699 578 708 551Q719 513 738.5 457.5Q758 402 780 342.5Q802 283 822.5 227Q843 171 856 133L1013 601Q1021 623 1009.5 633.5Q998 644 972 649L920 659V705L1079 700L1179 705V659L1131 649Q1109 644 1097.5 634Q1086 624 1078 602Q1019 444 977.5 330Q936 216 910 141Q879 53 859 -6Z" glyph-name="Wgrave" horiz-adv-x="1158" unicode="&#7808;" /><glyph d="M600 640 550 634 353 823H543ZM618 -13Q588 65 562 135Q551 165 539 195Q527 225 516.5 252.5Q506 280 497.5 302.5Q489 325 484 340Q478 326 469 303.5Q460 281 449 254Q438 227 426 197.5Q414 168 402 139Q375 71 344 -5L239 -13Q210 73 181 160Q169 197 155 237.5Q141 278 127 319.5Q113 361 99.5 401.5Q86 442 74 478Q68 495 60 504Q52 513 35 517L-2 525V564L143 560L313 564V525L273 517Q252 512 243.5 503.5Q235 495 240 478Q263 400 290 316.5Q317 233 348 134L460 403L434 475Q428 493 420 503Q412 513 395 517L358 525V564L493 561L684 564V525L641 516Q633 514 624.5 510.5Q616 507 610.5 498.5Q605 490 604.5 475.5Q604 461 612 438Q620 415 633 379.5Q646 344 661 303Q676 262 692.5 218.5Q709 175 723 136L832 478Q838 495 829.5 504Q821 513 801 517L759 525V564L892 560L970 564V525L933 517Q916 513 907 504.5Q898 496 891 479Q843 352 810.5 261.5Q778 171 758 111Q734 41 719 -5Z" glyph-name="Wgrave.smcp" horiz-adv-x="962" /><glyph d="M134 594Q102 640 58 649L10 659V705L214 700L397 705V659L339 649Q316 645 314.5 627Q313 609 324 591Q336 568 352 541Q366 518 385 487Q404 456 427 421Q450 456 470 487Q490 518 505 541Q522 568 536 591Q541 600 544.5 608Q548 616 548 624Q548 644 522 649L471 659V700H613L732 705V659L685 649Q662 644 647.5 630Q633 616 621 601Q584 551 551 508Q537 490 522.5 471Q508 452 495.5 435Q483 418 473 404.5Q463 391 457 383Q499 320 537 264Q553 240 569.5 215Q586 190 601.5 167.5Q617 145 630.5 126Q644 107 653 95Q664 81 678 68.5Q692 56 714 51L760 41V-5L584 0L394 -5V41L445 51Q491 59 465 98Q441 135 417 173Q393 211 373 242Q350 278 329 311Q310 284 288 251Q269 222 243.5 183.5Q218 145 190 98Q166 60 214 51L273 41V-5L130 0L1 -5V41L48 51Q71 56 82.5 68.5Q94 81 107 95Q137 132 170 174Q198 210 232 257Q266 304 299 355Q267 403 237 446.5Q207 490 184 523Q157 562 134 594Z" glyph-name="X" horiz-adv-x="753" unicode="X" /><glyph d="M272 235 169 80Q159 66 165 56.5Q171 47 191 43L240 35V-4L116 0L13 -4V35L36 40Q57 45 70 53Q83 61 98 79Q131 123 160 162Q185 195 209.5 227.5Q234 260 245 276Q217 318 193 353.5Q169 389 151 415Q130 446 112 471Q85 509 50 517L12 525V564L184 560L348 564V525L301 517Q281 514 278 498.5Q275 483 285 469Q295 452 307 433Q318 416 332.5 393.5Q347 371 366 344Q378 361 392.5 382.5Q407 404 421 424Q437 447 453 470Q456 475 459 482Q462 489 462.5 496Q463 503 459 508.5Q455 514 442 517L402 525V562L508 560L610 564V525L573 517Q554 513 543.5 502Q533 491 523 478L394 304Q414 272 439 235Q460 203 487 162.5Q514 122 545 79Q554 67 565 57Q576 47 593 43L629 35V-4L470 0L313 -4V35L353 43Q368 46 373.5 55Q379 64 368 81Z" glyph-name="X.smcp" horiz-adv-x="637" /><glyph d="M545 -5 380 0 187 -5V41L237 51Q264 56 272 66Q280 76 282 99Q284 123 284 158.5Q284 194 284 223V267Q253 318 220 373Q191 421 154.5 480.5Q118 540 81 601Q69 621 57.5 632.5Q46 644 23 649L-19 659V705L165 700L368 705V659L315 649Q260 638 281 600Q314 541 340.5 495Q367 449 386 416Q408 377 425 348Q446 386 480.5 453Q515 520 554 598Q565 618 554.5 631Q544 644 518 649L467 659V705L630 700L730 705V659L685 649Q663 644 652 633Q641 622 629 602Q587 530 554 470Q521 410 497 365Q469 313 447 272V223Q447 194 447.5 158.5Q448 123 449 99Q450 76 458.5 66Q467 56 494 51L545 41Z" glyph-name="Y" horiz-adv-x="718" unicode="Y" /><glyph d="M467 -4 327 0 158 -4V35L198 43Q218 48 225.5 55.5Q233 63 234 82Q235 117 235 149.5Q235 182 235 214Q207 258 179 305Q155 344 126 390.5Q97 437 70 478Q60 493 51.5 502.5Q43 512 24 517L-8 525V564L148 560L325 564V525L274 516Q234 508 252 478Q266 454 281.5 426.5Q297 399 312.5 371.5Q328 344 342 319Q356 294 366 276Q379 303 393 331.5Q407 360 419.5 386Q432 412 443 435.5Q454 459 462 476Q478 509 438 517L395 525V564L529 560L610 564V525L574 517Q557 513 548 504.5Q539 496 529 479Q509 443 484.5 398Q460 353 439 313Q414 266 389 218Q389 187 389 153.5Q389 120 390 82Q390 63 397.5 55.5Q405 48 427 43L467 35Z" glyph-name="Y.smcp" horiz-adv-x="608" /><glyph d="M352 980H542L347 791L298 797ZM545 -5 380 0 187 -5V41L237 51Q264 56 272 66Q280 76 282 99Q284 123 284 158.5Q284 194 284 223V267Q253 318 220 373Q191 421 154.5 480.5Q118 540 81 601Q69 621 57.5 632.5Q46 644 23 649L-19 659V705L165 700L368 705V659L315 649Q260 638 281 600Q314 541 340.5 495Q367 449 386 416Q408 377 425 348Q446 386 480.5 453Q515 520 554 598Q565 618 554.5 631Q544 644 518 649L467 659V705L630 700L730 705V659L685 649Q663 644 652 633Q641 622 629 602Q587 530 554 470Q521 410 497 365Q469 313 447 272V223Q447 194 447.5 158.5Q448 123 449 99Q450 76 458.5 66Q467 56 494 51L545 41Z" glyph-name="Yacute" horiz-adv-x="718" unicode="&#221;" /><glyph d="M467 -4 327 0 158 -4V35L198 43Q218 48 225.5 55.5Q233 63 234 82Q235 117 235 149.5Q235 182 235 214Q207 258 179 305Q155 344 126 390.5Q97 437 70 478Q60 493 51.5 502.5Q43 512 24 517L-8 525V564L148 560L325 564V525L274 516Q234 508 252 478Q266 454 281.5 426.5Q297 399 312.5 371.5Q328 344 342 319Q356 294 366 276Q379 303 393 331.5Q407 360 419.5 386Q432 412 443 435.5Q454 459 462 476Q478 509 438 517L395 525V564L529 560L610 564V525L574 517Q557 513 548 504.5Q539 496 529 479Q509 443 484.5 398Q460 353 439 313Q414 266 389 218Q389 187 389 153.5Q389 120 390 82Q390 63 397.5 55.5Q405 48 427 43L467 35ZM306 840H496L299 651L250 657Z" glyph-name="Yacute.smcp" horiz-adv-x="608" /><glyph d="M328 976H388L533 782L510 762L360 849H358L212 763L185 782ZM545 -5 380 0 187 -5V41L237 51Q264 56 272 66Q280 76 282 99Q284 123 284 158.5Q284 194 284 223V267Q253 318 220 373Q191 421 154.5 480.5Q118 540 81 601Q69 621 57.5 632.5Q46 644 23 649L-19 659V705L165 700L368 705V659L315 649Q260 638 281 600Q314 541 340.5 495Q367 449 386 416Q408 377 425 348Q446 386 480.5 453Q515 520 554 598Q565 618 554.5 631Q544 644 518 649L467 659V705L630 700L730 705V659L685 649Q663 644 652 633Q641 622 629 602Q587 530 554 470Q521 410 497 365Q469 313 447 272V223Q447 194 447.5 158.5Q448 123 449 99Q450 76 458.5 66Q467 56 494 51L545 41Z" glyph-name="Ycircumflex" horiz-adv-x="718" unicode="&#374;" /><glyph d="M467 -4 327 0 158 -4V35L198 43Q218 48 225.5 55.5Q233 63 234 82Q235 117 235 149.5Q235 182 235 214Q207 258 179 305Q155 344 126 390.5Q97 437 70 478Q60 493 51.5 502.5Q43 512 24 517L-8 525V564L148 560L325 564V525L274 516Q234 508 252 478Q266 454 281.5 426.5Q297 399 312.5 371.5Q328 344 342 319Q356 294 366 276Q379 303 393 331.5Q407 360 419.5 386Q432 412 443 435.5Q454 459 462 476Q478 509 438 517L395 525V564L529 560L610 564V525L574 517Q557 513 548 504.5Q539 496 529 479Q509 443 484.5 398Q460 353 439 313Q414 266 389 218Q389 187 389 153.5Q389 120 390 82Q390 63 397.5 55.5Q405 48 427 43L467 35ZM272 831H333L480 637L457 617L305 704H303L155 618L128 637Z" glyph-name="Ycircumflex.smcp" horiz-adv-x="608" /><glyph d="M378 857Q378 892 401.5 916Q425 940 460 940Q495 940 519 916Q543 892 543 857Q543 822 519 798Q495 774 460 774Q425 774 401.5 798Q378 822 378 857ZM175 857Q175 892 198.5 916Q222 940 257 940Q294 940 317.5 916Q341 892 341 857Q341 822 317.5 798Q294 774 257 774Q222 774 198.5 798Q175 822 175 857ZM545 -5 380 0 187 -5V41L237 51Q264 56 272 66Q280 76 282 99Q284 123 284 158.5Q284 194 284 223V267Q253 318 220 373Q191 421 154.5 480.5Q118 540 81 601Q69 621 57.5 632.5Q46 644 23 649L-19 659V705L165 700L368 705V659L315 649Q260 638 281 600Q314 541 340.5 495Q367 449 386 416Q408 377 425 348Q446 386 480.5 453Q515 520 554 598Q565 618 554.5 631Q544 644 518 649L467 659V705L630 700L730 705V659L685 649Q663 644 652 633Q641 622 629 602Q587 530 554 470Q521 410 497 365Q469 313 447 272V223Q447 194 447.5 158.5Q448 123 449 99Q450 76 458.5 66Q467 56 494 51L545 41Z" glyph-name="Ydieresis" horiz-adv-x="718" unicode="&#376;" /></font>
</defs>
</svg>
