<?xml version="1.0" standalone="no"?>
<!-- Licensee: Remeike Forbes (#29020) - http://vllg.com -->
<!DOCTYPE svg PUBLIC "-//W3C//DTD SVG 1.1//EN" "http://www.w3.org/Graphics/SVG/1.1/DTD/svg11.dtd" ><svg version="1.1" xmlns="http://www.w3.org/2000/svg"><defs><font horiz-adv-x="0" id="font"><font-face ascent="750" bbox="-212 -329 1266 998" cap-height="711" descent="-250" font-family="Antwerp" font-stretch="normal" font-style="italic" font-weight="600" units-per-em="1000" x-height="494" /><missing-glyph horiz-adv-x="235" /><glyph d="M489 613 286 332H490ZM255 286Q220 237 195 200.5Q170 164 153 140Q134 111 120 91Q91 52 140 43L199 33L186 -5L26 0L-86 -5L-74 33L-23 43Q3 48 17 58Q31 68 48 90Q87 142 127.5 196.5Q168 251 208 304Q248 357 285.5 407.5Q323 458 356 503Q433 608 507 707L597 726Q598 583 600 458Q601 405 602 350Q603 295 604 245.5Q605 196 606 155.5Q607 115 608 91Q609 69 615.5 58.5Q622 48 644 43L689 33L676 -5L520 0L361 -5L373 33L429 43Q458 48 473.5 58.5Q489 69 490 91V142Q490 168 489.5 194Q489 220 489 240V286Z" glyph-name="A" horiz-adv-x="742" unicode="A" /><glyph d="M397 480 237 260H398ZM209 217Q201 206 185.5 183Q170 160 154 137Q136 110 114 79Q103 62 106.5 53Q110 44 130 40L178 32L165 -4L42 0L-63 -4L-52 32L-11 40Q10 44 21 52.5Q32 61 45 78Q108 162 173 248.5Q238 335 291 406Q353 489 411 566L495 581Q496 468 498 369Q499 327 500 283.5Q501 240 501.5 201Q502 162 503 130Q504 98 505 79Q506 62 511.5 53Q517 44 534 40L570 32L559 -4L429 0L295 -4L305 32L350 40Q373 45 386 53.5Q399 62 399 79Q399 102 398.5 127Q398 152 398 172V217Z" glyph-name="A.smcp" horiz-adv-x="614" /><glyph d="M606 641Q607 643 606.5 646Q606 649 602 649H598L332 337H514ZM309 -5 321 33 375 43Q402 48 416 58Q430 68 438 91L499 290H296L135 90Q128 82 125.5 75Q123 68 123 63Q123 47 148 43L205 33L193 -5L15 0L-93 -5L-81 33L-32 43Q-9 48 13 58.5Q35 69 55 90Q184 229 304 371.5Q424 514 549 656L454 666L467 700H918Q940 700 967 701.5Q994 703 1019 705Q1047 708 1077 711Q1068 692 1057 663Q1047 638 1033 600Q1019 562 999 508H960Q961 516 961.5 527.5Q962 539 962.5 549.5Q963 560 963.5 568.5Q964 577 964 580Q964 609 955 630.5Q946 652 917 652H735Q723 652 719.5 648Q716 644 714 636L636 379Q652 379 670 380Q686 381 706 381Q726 381 749 383Q774 384 789 393.5Q804 403 818 432L846 487H883L842 349L814 227H777Q779 256 779.5 268.5Q780 281 780 289Q780 314 773 322.5Q766 331 740 333Q719 334 698 334.5Q677 335 660 336Q641 337 623 337L562 126Q558 112 555.5 103Q553 94 553 82Q553 48 608 48H776Q794 48 810.5 50Q827 52 844.5 60Q862 68 880.5 83.5Q899 99 921 126L991 212H1030L931 -5Q894 -4 859 -3Q829 -2 797 -1Q765 0 743 0H457Z" glyph-name="AE" horiz-adv-x="1065" unicode="&#198;" /><glyph d="M378 0 257 -4 268 32 311 40Q333 44 345 52Q357 60 363 79L409 225H242L122 78Q113 66 113 57Q113 43 133 40L187 32L177 -4L16 0L-71 -4L-59 32L-20 40Q-3 44 15 52.5Q33 61 49 78Q109 146 167.5 213Q226 280 277 338Q328 396 368.5 442Q409 488 433 515L354 528L365 564L544 559H607Q709 559 784 561Q859 563 887 569Q880 553 871 530Q863 510 851.5 479.5Q840 449 825 406H790L793 446Q796 487 785 501.5Q774 516 754 516H615Q604 516 601.5 513Q599 510 597 503L536 309H561Q586 309 622 312Q643 313 653.5 318Q664 323 676 346L699 390H732L699 279L677 182H643L646 231Q648 251 641 258Q634 265 614 266Q597 267 581.5 267.5Q566 268 553 269Q538 270 525 270Q511 225 499 182Q487 139 474 95Q471 83 471 74Q471 44 514 44H639Q653 44 667 45.5Q681 47 695.5 53Q710 59 725 70.5Q740 82 756 102L810 170H850L770 -4Q740 -3 712 -2Q688 -1 662.5 -0.5Q637 0 620 0ZM421 267Q438 326 456.5 383Q475 440 492 498Q494 504 494 507Q494 513 485 515L274 267Z" glyph-name="AE.smcp" horiz-adv-x="881" /><glyph d="M574 963H708L499 774L458 780ZM489 613 286 332H490ZM255 286Q220 237 195 200.5Q170 164 153 140Q134 111 120 91Q91 52 140 43L199 33L186 -5L26 0L-86 -5L-74 33L-23 43Q3 48 17 58Q31 68 48 90Q87 142 127.5 196.5Q168 251 208 304Q248 357 285.5 407.5Q323 458 356 503Q433 608 507 707L597 726Q598 583 600 458Q601 405 602 350Q603 295 604 245.5Q605 196 606 155.5Q607 115 608 91Q609 69 615.5 58.5Q622 48 644 43L689 33L676 -5L520 0L361 -5L373 33L429 43Q458 48 473.5 58.5Q489 69 490 91V142Q490 168 489.5 194Q489 220 489 240V286Z" glyph-name="Aacute" horiz-adv-x="742" unicode="&#193;" /><glyph d="M504 808H638L429 619L388 625ZM397 480 237 260H398ZM209 217Q201 206 185.5 183Q170 160 154 137Q136 110 114 79Q103 62 106.5 53Q110 44 130 40L178 32L165 -4L42 0L-63 -4L-52 32L-11 40Q10 44 21 52.5Q32 61 45 78Q108 162 173 248.5Q238 335 291 406Q353 489 411 566L495 581Q496 468 498 369Q499 327 500 283.5Q501 240 501.5 201Q502 162 503 130Q504 98 505 79Q506 62 511.5 53Q517 44 534 40L570 32L559 -4L429 0L295 -4L305 32L350 40Q373 45 386 53.5Q399 62 399 79Q399 102 398.5 127Q398 152 398 172V217Z" glyph-name="Aacute.smcp" horiz-adv-x="614" /><glyph d="M577 855Q610 855 630.5 865Q651 875 662.5 890.5Q674 906 679 925.5Q684 945 687 964H728Q724 919 713.5 884Q703 849 684 824.5Q665 800 636.5 787Q608 774 568 774Q509 774 477.5 807.5Q446 841 446 890Q446 924 463 964H500Q497 951 496 940Q495 929 495 917Q495 892 513.5 873.5Q532 855 577 855ZM489 613 286 332H490ZM255 286Q220 237 195 200.5Q170 164 153 140Q134 111 120 91Q91 52 140 43L199 33L186 -5L26 0L-86 -5L-74 33L-23 43Q3 48 17 58Q31 68 48 90Q87 142 127.5 196.5Q168 251 208 304Q248 357 285.5 407.5Q323 458 356 503Q433 608 507 707L597 726Q598 583 600 458Q601 405 602 350Q603 295 604 245.5Q605 196 606 155.5Q607 115 608 91Q609 69 615.5 58.5Q622 48 644 43L689 33L676 -5L520 0L361 -5L373 33L429 43Q458 48 473.5 58.5Q489 69 490 91V142Q490 168 489.5 194Q489 220 489 240V286Z" glyph-name="Abreve" horiz-adv-x="742" unicode="&#258;" /><glyph d="M467 701Q500 701 520 711Q540 721 551.5 736.5Q563 752 568 771.5Q573 791 575 810H615Q613 713 573 666Q533 619 461 619Q433 619 410 627.5Q387 636 370.5 650.5Q354 665 345 684.5Q336 704 336 727Q336 740 338.5 762Q341 784 350 810H388Q385 796 384 784.5Q383 773 383 761Q383 737 403.5 719Q424 701 467 701ZM397 480 237 260H398ZM209 217Q201 206 185.5 183Q170 160 154 137Q136 110 114 79Q103 62 106.5 53Q110 44 130 40L178 32L165 -4L42 0L-63 -4L-52 32L-11 40Q10 44 21 52.5Q32 61 45 78Q108 162 173 248.5Q238 335 291 406Q353 489 411 566L495 581Q496 468 498 369Q499 327 500 283.5Q501 240 501.5 201Q502 162 503 130Q504 98 505 79Q506 62 511.5 53Q517 44 534 40L570 32L559 -4L429 0L295 -4L305 32L350 40Q373 45 386 53.5Q399 62 399 79Q399 102 398.5 127Q398 152 398 172V217Z" glyph-name="Abreve.smcp" horiz-adv-x="614" /><glyph d="M566 969H620L710 788L685 770L582 880H580L418 771L398 788ZM489 613 286 332H490ZM255 286Q220 237 195 200.5Q170 164 153 140Q134 111 120 91Q91 52 140 43L199 33L186 -5L26 0L-86 -5L-74 33L-23 43Q3 48 17 58Q31 68 48 90Q87 142 127.5 196.5Q168 251 208 304Q248 357 285.5 407.5Q323 458 356 503Q433 608 507 707L597 726Q598 583 600 458Q601 405 602 350Q603 295 604 245.5Q605 196 606 155.5Q607 115 608 91Q609 69 615.5 58.5Q622 48 644 43L689 33L676 -5L520 0L361 -5L373 33L429 43Q458 48 473.5 58.5Q489 69 490 91V142Q490 168 489.5 194Q489 220 489 240V286Z" glyph-name="Acircumflex" horiz-adv-x="742" unicode="&#194;" /><glyph d="M469 809H523L609 629L583 610L484 723H482L322 616L301 635ZM397 480 237 260H398ZM209 217Q201 206 185.5 183Q170 160 154 137Q136 110 114 79Q103 62 106.5 53Q110 44 130 40L178 32L165 -4L42 0L-63 -4L-52 32L-11 40Q10 44 21 52.5Q32 61 45 78Q108 162 173 248.5Q238 335 291 406Q353 489 411 566L495 581Q496 468 498 369Q499 327 500 283.5Q501 240 501.5 201Q502 162 503 130Q504 98 505 79Q506 62 511.5 53Q517 44 534 40L570 32L559 -4L429 0L295 -4L305 32L350 40Q373 45 386 53.5Q399 62 399 79Q399 102 398.5 127Q398 152 398 172V217Z" glyph-name="Acircumflex.smcp" horiz-adv-x="614" /><glyph d="M590 864Q590 894 611 915Q632 936 662 936Q692 936 713 915Q734 894 734 864Q734 834 713 813.5Q692 793 662 793Q632 793 611 813.5Q590 834 590 864ZM399 864Q399 894 420 915Q441 936 471 936Q501 936 522 915Q543 894 543 864Q543 834 522 813.5Q501 793 471 793Q441 793 420 813.5Q399 834 399 864ZM489 613 286 332H490ZM255 286Q220 237 195 200.5Q170 164 153 140Q134 111 120 91Q91 52 140 43L199 33L186 -5L26 0L-86 -5L-74 33L-23 43Q3 48 17 58Q31 68 48 90Q87 142 127.5 196.5Q168 251 208 304Q248 357 285.5 407.5Q323 458 356 503Q433 608 507 707L597 726Q598 583 600 458Q601 405 602 350Q603 295 604 245.5Q605 196 606 155.5Q607 115 608 91Q609 69 615.5 58.5Q622 48 644 43L689 33L676 -5L520 0L361 -5L373 33L429 43Q458 48 473.5 58.5Q489 69 490 91V142Q490 168 489.5 194Q489 220 489 240V286Z" glyph-name="Adieresis" horiz-adv-x="742" unicode="&#196;" /><glyph d="M489 701Q489 731 510 752Q531 773 561 773Q591 773 612 752Q633 731 633 701Q633 671 612 650Q591 629 561 629Q531 629 510 650Q489 671 489 701ZM298 701Q298 731 319 752Q340 773 370 773Q401 773 421.5 752Q442 731 442 701Q442 671 421.5 650Q401 629 370 629Q340 629 319 650Q298 671 298 701ZM397 480 237 260H398ZM209 217Q201 206 185.5 183Q170 160 154 137Q136 110 114 79Q103 62 106.5 53Q110 44 130 40L178 32L165 -4L42 0L-63 -4L-52 32L-11 40Q10 44 21 52.5Q32 61 45 78Q108 162 173 248.5Q238 335 291 406Q353 489 411 566L495 581Q496 468 498 369Q499 327 500 283.5Q501 240 501.5 201Q502 162 503 130Q504 98 505 79Q506 62 511.5 53Q517 44 534 40L570 32L559 -4L429 0L295 -4L305 32L350 40Q373 45 386 53.5Q399 62 399 79Q399 102 398.5 127Q398 152 398 172V217Z" glyph-name="Adieresis.smcp" horiz-adv-x="614" /><glyph d="M641 780 600 774 426 963H560ZM489 613 286 332H490ZM255 286Q220 237 195 200.5Q170 164 153 140Q134 111 120 91Q91 52 140 43L199 33L186 -5L26 0L-86 -5L-74 33L-23 43Q3 48 17 58Q31 68 48 90Q87 142 127.5 196.5Q168 251 208 304Q248 357 285.5 407.5Q323 458 356 503Q433 608 507 707L597 726Q598 583 600 458Q601 405 602 350Q603 295 604 245.5Q605 196 606 155.5Q607 115 608 91Q609 69 615.5 58.5Q622 48 644 43L689 33L676 -5L520 0L361 -5L373 33L429 43Q458 48 473.5 58.5Q489 69 490 91V142Q490 168 489.5 194Q489 220 489 240V286Z" glyph-name="Agrave" horiz-adv-x="742" unicode="&#192;" /><glyph d="M540 623 499 617 325 806H459ZM397 480 237 260H398ZM209 217Q201 206 185.5 183Q170 160 154 137Q136 110 114 79Q103 62 106.5 53Q110 44 130 40L178 32L165 -4L42 0L-63 -4L-52 32L-11 40Q10 44 21 52.5Q32 61 45 78Q108 162 173 248.5Q238 335 291 406Q353 489 411 566L495 581Q496 468 498 369Q499 327 500 283.5Q501 240 501.5 201Q502 162 503 130Q504 98 505 79Q506 62 511.5 53Q517 44 534 40L570 32L559 -4L429 0L295 -4L305 32L350 40Q373 45 386 53.5Q399 62 399 79Q399 102 398.5 127Q398 152 398 172V217Z" glyph-name="Agrave.smcp" horiz-adv-x="614" /><glyph d="M425 803 442 862H726L709 803ZM489 613 286 332H490ZM255 286Q220 237 195 200.5Q170 164 153 140Q134 111 120 91Q91 52 140 43L199 33L186 -5L26 0L-86 -5L-74 33L-23 43Q3 48 17 58Q31 68 48 90Q87 142 127.5 196.5Q168 251 208 304Q248 357 285.5 407.5Q323 458 356 503Q433 608 507 707L597 726Q598 583 600 458Q601 405 602 350Q603 295 604 245.5Q605 196 606 155.5Q607 115 608 91Q609 69 615.5 58.5Q622 48 644 43L689 33L676 -5L520 0L361 -5L373 33L429 43Q458 48 473.5 58.5Q489 69 490 91V142Q490 168 489.5 194Q489 220 489 240V286Z" glyph-name="Amacron" horiz-adv-x="742" unicode="&#256;" /><glyph d="M320 637 338 700H622L604 637ZM397 480 237 260H398ZM209 217Q201 206 185.5 183Q170 160 154 137Q136 110 114 79Q103 62 106.5 53Q110 44 130 40L178 32L165 -4L42 0L-63 -4L-52 32L-11 40Q10 44 21 52.5Q32 61 45 78Q108 162 173 248.5Q238 335 291 406Q353 489 411 566L495 581Q496 468 498 369Q499 327 500 283.5Q501 240 501.5 201Q502 162 503 130Q504 98 505 79Q506 62 511.5 53Q517 44 534 40L570 32L559 -4L429 0L295 -4L305 32L350 40Q373 45 386 53.5Q399 62 399 79Q399 102 398.5 127Q398 152 398 172V217Z" glyph-name="Amacron.smcp" horiz-adv-x="614" /><glyph d="M489 613 286 332H490ZM255 286Q220 237 195 200.5Q170 164 153 140Q134 111 120 91Q91 52 140 43L199 33L186 -5L26 0L-86 -5L-74 33L-23 43Q3 48 17 58Q31 68 48 90Q87 142 127.5 196.5Q168 251 208 304Q248 357 285.5 407.5Q323 458 356 503Q433 608 507 707L597 726Q598 583 600 458Q601 405 602 350Q603 295 604 245.5Q605 196 606 155.5Q607 115 608 91Q609 69 615.5 58.5Q622 48 644 43L689 33L676 -5L581 -2Q564 -17 543.5 -37.5Q523 -58 506 -81Q489 -104 477.5 -128Q466 -152 466 -175Q466 -190 473.5 -199Q481 -208 493 -213.5Q505 -219 520.5 -220.5Q536 -222 551 -222Q559 -222 568 -221.5Q577 -221 585 -219L560 -253Q543 -259 521 -263Q499 -267 477 -267Q456 -267 437 -262.5Q418 -258 403.5 -248.5Q389 -239 380 -223Q371 -207 371 -184Q371 -156 384.5 -129Q398 -102 421 -78.5Q444 -55 474 -35Q504 -15 536 0H520L361 -5L373 33L429 43Q458 48 473.5 58.5Q489 69 490 91V142Q490 168 489.5 194Q489 220 489 240V286Z" glyph-name="Aogonek" horiz-adv-x="742" unicode="&#260;" /><glyph d="M397 480 237 260H398ZM209 217Q201 206 185.5 183Q170 160 154 137Q136 110 114 79Q103 62 106.5 53Q110 44 130 40L178 32L165 -4L42 0L-63 -4L-52 32L-11 40Q10 44 21 52.5Q32 61 45 78Q108 162 173 248.5Q238 335 291 406Q353 489 411 566L495 581Q496 468 498 369Q499 327 500 283.5Q501 240 501.5 201Q502 162 503 130Q504 98 505 79Q506 62 511.5 53Q517 44 534 40L570 32L559 -4L502 -2Q484 -17 464 -37.5Q444 -58 427 -81Q410 -104 398.5 -128Q387 -152 387 -175Q387 -190 394.5 -199Q402 -208 414 -213.5Q426 -219 441.5 -220.5Q457 -222 472 -222Q480 -222 489 -221.5Q498 -221 506 -219L481 -253Q464 -259 442 -263Q420 -267 398 -267Q377 -267 358 -262.5Q339 -258 324.5 -248.5Q310 -239 301 -223Q292 -207 292 -184Q292 -156 305.5 -129.5Q319 -103 342 -79.5Q365 -56 394.5 -36Q424 -16 456 -1L429 0L295 -4L305 32L350 40Q373 45 386 53.5Q399 62 399 79Q399 102 398.5 127Q398 152 398 172V217Z" glyph-name="Aogonek.smcp" horiz-adv-x="614" /><glyph d="M489 613 286 332H490ZM708 791Q708 737 677 699Q646 661 597 649Q597 612 598 563.5Q599 515 599.5 461.5Q600 408 601 352.5Q602 297 603 247Q604 197 605.5 156.5Q607 116 608 91Q609 69 615.5 58.5Q622 48 644 43L689 33L676 -5L520 0L361 -5L373 33L429 43Q458 48 473.5 58.5Q489 69 490 91V142Q490 168 489.5 194Q489 220 489 240V286H255Q220 237 195 200.5Q170 164 153 140Q134 111 120 91Q91 52 140 43L199 33L186 -5L26 0L-86 -5L-74 33L-23 43Q3 48 17 58Q31 68 48 90Q111 173 176 260Q241 347 299 425.5Q357 504 404 568Q451 632 478 668Q448 687 430 719Q412 751 412 791Q412 822 423.5 849Q435 876 455 895.5Q475 915 502 926Q529 937 560 937Q591 937 618 926Q645 915 665 895.5Q685 876 696.5 849Q708 822 708 791ZM460 791Q460 746 486 716Q512 686 560 686Q607 686 633.5 716Q660 746 660 791Q660 836 633.5 866Q607 896 560 896Q512 896 486 866Q460 836 460 791Z" glyph-name="Aring" horiz-adv-x="742" unicode="&#197;" /><glyph d="M397 480 237 260H398ZM590 639Q590 593 564 560Q538 527 496 516Q496 487 497 449Q498 411 498.5 368.5Q499 326 500 283Q501 240 502 201Q503 162 503.5 130Q504 98 505 79Q506 62 511.5 53Q517 44 534 40L570 32L559 -4L429 0L295 -4L305 32L350 40Q373 45 386 53.5Q399 62 399 79Q399 102 398.5 127Q398 152 398 172V217H209Q201 206 185.5 183Q170 160 154 137Q136 110 114 79Q103 62 106.5 53Q110 44 130 40L178 32L165 -4L42 0L-63 -4L-52 32L-11 40Q10 44 21 52.5Q32 61 45 78Q95 144 147 212.5Q199 281 245 343Q291 405 328.5 455Q366 505 387 534Q361 551 346.5 578Q332 605 332 639Q332 666 342 689.5Q352 713 369.5 730Q387 747 410.5 756.5Q434 766 461 766Q488 766 512 756.5Q536 747 553 730Q570 713 580 689.5Q590 666 590 639ZM375 639Q375 601 398 575Q421 549 461 549Q501 549 524 575Q547 601 547 639Q547 677 524 703Q501 729 461 729Q421 729 398 703Q375 677 375 639Z" glyph-name="Aring.smcp" horiz-adv-x="614" /><glyph d="M656 876Q675 876 688 882.5Q701 889 719 916L738 905Q731 887 721.5 869Q712 851 698.5 836Q685 821 668 812Q651 803 629 803Q611 803 594 808.5Q577 814 561 821Q545 828 531 833.5Q517 839 506 839Q489 839 471.5 832.5Q454 826 437 800L417 811Q424 829 434.5 847.5Q445 866 458.5 881Q472 896 489.5 905Q507 914 528 914Q544 914 562 908Q580 902 596.5 895Q613 888 628.5 882Q644 876 656 876ZM489 613 286 332H490ZM255 286Q220 237 195 200.5Q170 164 153 140Q134 111 120 91Q91 52 140 43L199 33L186 -5L26 0L-86 -5L-74 33L-23 43Q3 48 17 58Q31 68 48 90Q87 142 127.5 196.5Q168 251 208 304Q248 357 285.5 407.5Q323 458 356 503Q433 608 507 707L597 726Q598 583 600 458Q601 405 602 350Q603 295 604 245.5Q605 196 606 155.5Q607 115 608 91Q609 69 615.5 58.5Q622 48 644 43L689 33L676 -5L520 0L361 -5L373 33L429 43Q458 48 473.5 58.5Q489 69 490 91V142Q490 168 489.5 194Q489 220 489 240V286Z" glyph-name="Atilde" horiz-adv-x="742" unicode="&#195;" /><glyph d="M558 710Q578 710 591 716.5Q604 723 621 750L641 739Q633 721 624 703Q615 685 602 670Q589 655 571.5 646Q554 637 531 637Q513 637 496 643Q479 649 463 655.5Q447 662 432.5 668Q418 674 406 674Q389 674 371.5 667Q354 660 337 634L317 645Q324 664 334.5 683Q345 702 358.5 716Q372 730 389.5 739Q407 748 428 748Q444 748 461.5 742Q479 736 495.5 729Q512 722 528 716Q544 710 558 710ZM397 480 237 260H398ZM209 217Q201 206 185.5 183Q170 160 154 137Q136 110 114 79Q103 62 106.5 53Q110 44 130 40L178 32L165 -4L42 0L-63 -4L-52 32L-11 40Q10 44 21 52.5Q32 61 45 78Q108 162 173 248.5Q238 335 291 406Q353 489 411 566L495 581Q496 468 498 369Q499 327 500 283.5Q501 240 501.5 201Q502 162 503 130Q504 98 505 79Q506 62 511.5 53Q517 44 534 40L570 32L559 -4L429 0L295 -4L305 32L350 40Q373 45 386 53.5Q399 62 399 79Q399 102 398.5 127Q398 152 398 172V217Z" glyph-name="Atilde.smcp" horiz-adv-x="614" /><glyph d="M183 705 330 700Q345 701 370 702Q391 703 424.5 703.5Q458 704 506 704Q542 704 576 693.5Q610 683 636.5 663.5Q663 644 679 616Q695 588 695 553Q695 509 678.5 475.5Q662 442 633.5 417.5Q605 393 567 378.5Q529 364 487 358L486 351Q514 344 542.5 329.5Q571 315 594 293.5Q617 272 631 243.5Q645 215 645 181Q645 141 626.5 106Q608 71 574.5 45.5Q541 20 495 5.5Q449 -9 394 -9H380Q338 -9 304.5 -8Q271 -7 241 -5.5Q211 -4 182.5 -2.5Q154 -1 123 0L-27 -5Q-24 5 -21 14Q-18 23 -16 33L37 43Q65 48 79 58Q93 68 101 91Q111 119 123 158Q134 191 148.5 238.5Q163 286 182 349Q185 359 191.5 382Q198 405 206.5 433.5Q215 462 224 493.5Q233 525 240.5 552.5Q248 580 252.5 600Q257 620 257 626Q257 640 248 646Q239 652 220 656L170 666ZM305 399Q308 398 319 394.5Q330 391 345.5 387.5Q361 384 379.5 381Q398 378 417 378Q452 378 483 388.5Q514 399 537.5 419.5Q561 440 575 470.5Q589 501 589 541Q589 598 550.5 630Q512 662 452 662Q432 662 411 661.5Q390 661 376 659ZM225 121Q222 110 219.5 99Q217 88 217 78Q217 49 238.5 40Q260 31 302 31H351Q389 31 421.5 41Q454 51 477.5 71.5Q501 92 514 122Q527 152 527 191Q527 224 515 251Q503 278 481.5 298Q460 318 430.5 329.5Q401 341 365 342L288 344Q271 287 255 229.5Q239 172 225 121Z" glyph-name="B" horiz-adv-x="720" unicode="B" /><glyph d="M149 564 273 560Q307 560 341.5 561.5Q376 563 418 563Q448 563 476.5 555.5Q505 548 527 532Q549 516 562.5 492.5Q576 469 576 438Q576 403 562 376Q548 349 524.5 330.5Q501 312 470 300.5Q439 289 405 285L404 280Q425 273 448 261.5Q471 250 489.5 233.5Q508 217 520 195Q532 173 532 145Q532 116 521.5 89Q511 62 486 40Q461 18 421 5Q381 -8 322 -8Q280 -8 251 -7Q222 -6 198 -5Q174 -4 151.5 -2.5Q129 -1 101 0L-19 -4L-8 32L33 40Q56 45 67 53.5Q78 62 85 82Q90 94 105.5 142.5Q121 191 147 279Q166 342 177.5 382.5Q189 423 195.5 447Q202 471 204 481.5Q206 492 206 496Q206 507 199.5 511.5Q193 516 177 519L137 527ZM262 323Q276 316 299.5 311Q323 306 347 306Q374 306 397 314Q420 322 437.5 337.5Q455 353 465 376Q475 399 475 429Q475 471 445.5 497.5Q416 524 370 524Q356 524 343 523.5Q330 523 319 522ZM196 95Q194 87 192.5 80.5Q191 74 191 66Q191 31 250 31H286Q346 31 385 61Q424 91 424 152Q424 186 410 209.5Q396 233 372 247.5Q348 262 316 268Q284 274 247 274Z" glyph-name="B.smcp" horiz-adv-x="590" /><glyph d="M430 -15Q355 -15 291.5 8.5Q228 32 182 75Q136 118 110.5 177Q85 236 85 308Q85 390 116.5 464Q148 538 205 593.5Q262 649 342.5 682Q423 715 521 715Q552 715 585.5 711Q619 707 652 700Q685 693 714.5 683Q744 673 768 662L851 675L778 468L733 466L734 539Q734 572 716.5 596.5Q699 621 670.5 637Q642 653 605 661Q568 669 529 669Q457 669 395.5 643.5Q334 618 290 572Q246 526 221 463.5Q196 401 196 326Q196 270 214.5 218Q233 166 270.5 126.5Q308 87 364.5 63.5Q421 40 498 40Q519 40 536.5 42.5Q554 45 570 50L664 203L703 199Q695 170 688 140Q682 114 675.5 82.5Q669 51 664 22Q637 14 607.5 7.5Q578 1 547.5 -4Q517 -9 487 -12Q457 -15 430 -15Z" glyph-name="C" horiz-adv-x="784" unicode="C" /><glyph d="M366 -12Q296 -12 241.5 10Q187 32 149.5 68.5Q112 105 92 153Q72 201 72 252Q72 316 96 374.5Q120 433 165.5 476.5Q211 520 276.5 546Q342 572 425 572Q476 572 530 560Q584 548 624 531L691 541L632 367H592V431Q592 450 579.5 467.5Q567 485 545.5 498.5Q524 512 494.5 520.5Q465 529 432 529Q375 529 328.5 510Q282 491 248 456Q214 421 195.5 370Q177 319 177 256Q177 212 193 172Q209 132 240 101Q271 70 316.5 52Q362 34 422 34Q436 34 449.5 36Q463 38 475 41L556 174L593 171Q586 144 579 118Q573 95 566.5 68Q560 41 555 18Q513 4 462 -4Q411 -12 366 -12Z" glyph-name="C.smcp" horiz-adv-x="652" /><glyph d="M577 963H711L502 774L461 780ZM430 -15Q355 -15 291.5 8.5Q228 32 182 75Q136 118 110.5 177Q85 236 85 308Q85 390 116.5 464Q148 538 205 593.5Q262 649 342.5 682Q423 715 521 715Q552 715 585.5 711Q619 707 652 700Q685 693 714.5 683Q744 673 768 662L851 675L778 468L733 466L734 539Q734 572 716.5 596.5Q699 621 670.5 637Q642 653 605 661Q568 669 529 669Q457 669 395.5 643.5Q334 618 290 572Q246 526 221 463.5Q196 401 196 326Q196 270 214.5 218Q233 166 270.5 126.5Q308 87 364.5 63.5Q421 40 498 40Q519 40 536.5 42.5Q554 45 570 50L664 203L703 199Q695 170 688 140Q682 114 675.5 82.5Q669 51 664 22Q637 14 607.5 7.5Q578 1 547.5 -4Q517 -9 487 -12Q457 -15 430 -15Z" glyph-name="Cacute" horiz-adv-x="784" unicode="&#262;" /><glyph d="M500 808H634L425 619L384 625ZM366 -12Q296 -12 241.5 10Q187 32 149.5 68.5Q112 105 92 153Q72 201 72 252Q72 316 96 374.5Q120 433 165.5 476.5Q211 520 276.5 546Q342 572 425 572Q476 572 530 560Q584 548 624 531L691 541L632 367H592V431Q592 450 579.5 467.5Q567 485 545.5 498.5Q524 512 494.5 520.5Q465 529 432 529Q375 529 328.5 510Q282 491 248 456Q214 421 195.5 370Q177 319 177 256Q177 212 193 172Q209 132 240 101Q271 70 316.5 52Q362 34 422 34Q436 34 449.5 36Q463 38 475 41L556 174L593 171Q586 144 579 118Q573 95 566.5 68Q560 41 555 18Q513 4 462 -4Q411 -12 366 -12Z" glyph-name="Cacute.smcp" horiz-adv-x="652" /><glyph d="M421 951 448 969 539 858H541L711 969L730 948L551 770H497ZM430 -15Q355 -15 291.5 8.5Q228 32 182 75Q136 118 110.5 177Q85 236 85 308Q85 390 116.5 464Q148 538 205 593.5Q262 649 342.5 682Q423 715 521 715Q552 715 585.5 711Q619 707 652 700Q685 693 714.5 683Q744 673 768 662L851 675L778 468L733 466L734 539Q734 572 716.5 596.5Q699 621 670.5 637Q642 653 605 661Q568 669 529 669Q457 669 395.5 643.5Q334 618 290 572Q246 526 221 463.5Q196 401 196 326Q196 270 214.5 218Q233 166 270.5 126.5Q308 87 364.5 63.5Q421 40 498 40Q519 40 536.5 42.5Q554 45 570 50L664 203L703 199Q695 170 688 140Q682 114 675.5 82.5Q669 51 664 22Q637 14 607.5 7.5Q578 1 547.5 -4Q517 -9 487 -12Q457 -15 430 -15Z" glyph-name="Ccaron" horiz-adv-x="784" unicode="&#268;" /><glyph d="M327 791 355 809 445 696H447L615 807L633 786L458 611H404ZM366 -12Q296 -12 241.5 10Q187 32 149.5 68.5Q112 105 92 153Q72 201 72 252Q72 316 96 374.5Q120 433 165.5 476.5Q211 520 276.5 546Q342 572 425 572Q476 572 530 560Q584 548 624 531L691 541L632 367H592V431Q592 450 579.5 467.5Q567 485 545.5 498.5Q524 512 494.5 520.5Q465 529 432 529Q375 529 328.5 510Q282 491 248 456Q214 421 195.5 370Q177 319 177 256Q177 212 193 172Q209 132 240 101Q271 70 316.5 52Q362 34 422 34Q436 34 449.5 36Q463 38 475 41L556 174L593 171Q586 144 579 118Q573 95 566.5 68Q560 41 555 18Q513 4 462 -4Q411 -12 366 -12Z" glyph-name="Ccaron.smcp" horiz-adv-x="652" /><glyph d="M430 -15Q405 -15 381 -12L329 -60Q375 -74 405.5 -101Q436 -128 436 -166Q436 -214 398 -246Q360 -278 290 -278Q258 -278 226 -269Q194 -260 175 -248L188 -216Q228 -236 267 -236Q304 -236 325 -220.5Q346 -205 346 -173Q346 -155 333 -140Q320 -125 301.5 -114Q283 -103 263.5 -94.5Q244 -86 231 -81L342 -6Q284 6 236.5 34Q189 62 155.5 102.5Q122 143 103.5 195Q85 247 85 308Q85 390 116.5 464Q148 538 205 593.5Q262 649 342.5 682Q423 715 521 715Q552 715 585.5 711Q619 707 652 700Q685 693 714.5 683Q744 673 768 662L851 675L778 468L733 466L734 539Q734 572 716.5 596.5Q699 621 670.5 637Q642 653 605 661Q568 669 529 669Q457 669 395.5 643.5Q334 618 290 572Q246 526 221 463.5Q196 401 196 326Q196 270 214.5 218Q233 166 270.5 126.5Q308 87 364.5 63.5Q421 40 498 40Q519 40 536.5 42.5Q554 45 570 50L664 203L703 199Q695 170 688 140Q682 114 675.5 82.5Q669 51 664 22Q637 14 607.5 7.5Q578 1 547.5 -4Q517 -9 487 -12Q457 -15 430 -15Z" glyph-name="Ccedilla" horiz-adv-x="784" unicode="&#199;" /><glyph d="M366 -12Q349 -12 333 -10.5Q317 -9 302 -7L243 -60Q289 -74 319.5 -101Q350 -128 350 -166Q350 -214 312 -246Q274 -278 204 -278Q172 -278 140 -269Q108 -260 89 -248L102 -216Q142 -236 182 -236Q219 -236 239.5 -220.5Q260 -205 260 -173Q260 -155 247 -140Q234 -125 215.5 -114Q197 -103 177.5 -94.5Q158 -86 145 -81L267 1Q220 14 183.5 39.5Q147 65 122.5 98.5Q98 132 85 171Q72 210 72 252Q72 316 96 374.5Q120 433 165.5 476.5Q211 520 276.5 546Q342 572 425 572Q476 572 530 560Q584 548 624 531L691 541L632 367H592V431Q592 450 579.5 467.5Q567 485 545.5 498.5Q524 512 494.5 520.5Q465 529 432 529Q375 529 328.5 510Q282 491 248 456Q214 421 195.5 370Q177 319 177 256Q177 212 193 172Q209 132 240 101Q271 70 316.5 52Q362 34 422 34Q436 34 449.5 36Q463 38 475 41L556 174L593 171Q586 144 579 118Q573 95 566.5 68Q560 41 555 18Q513 4 462 -4Q411 -12 366 -12Z" glyph-name="Ccedilla.smcp" horiz-adv-x="652" /><glyph d="M529 969H583L673 788L648 770L545 880H543L381 771L361 788ZM430 -15Q355 -15 291.5 8.5Q228 32 182 75Q136 118 110.5 177Q85 236 85 308Q85 390 116.5 464Q148 538 205 593.5Q262 649 342.5 682Q423 715 521 715Q552 715 585.5 711Q619 707 652 700Q685 693 714.5 683Q744 673 768 662L851 675L778 468L733 466L734 539Q734 572 716.5 596.5Q699 621 670.5 637Q642 653 605 661Q568 669 529 669Q457 669 395.5 643.5Q334 618 290 572Q246 526 221 463.5Q196 401 196 326Q196 270 214.5 218Q233 166 270.5 126.5Q308 87 364.5 63.5Q421 40 498 40Q519 40 536.5 42.5Q554 45 570 50L664 203L703 199Q695 170 688 140Q682 114 675.5 82.5Q669 51 664 22Q637 14 607.5 7.5Q578 1 547.5 -4Q517 -9 487 -12Q457 -15 430 -15Z" glyph-name="Ccircumflex" horiz-adv-x="784" unicode="&#264;" /><glyph d="M441 809H495L581 629L555 610L456 723H454L294 616L273 635ZM366 -12Q296 -12 241.5 10Q187 32 149.5 68.5Q112 105 92 153Q72 201 72 252Q72 316 96 374.5Q120 433 165.5 476.5Q211 520 276.5 546Q342 572 425 572Q476 572 530 560Q584 548 624 531L691 541L632 367H592V431Q592 450 579.5 467.5Q567 485 545.5 498.5Q524 512 494.5 520.5Q465 529 432 529Q375 529 328.5 510Q282 491 248 456Q214 421 195.5 370Q177 319 177 256Q177 212 193 172Q209 132 240 101Q271 70 316.5 52Q362 34 422 34Q436 34 449.5 36Q463 38 475 41L556 174L593 171Q586 144 579 118Q573 95 566.5 68Q560 41 555 18Q513 4 462 -4Q411 -12 366 -12Z" glyph-name="Ccircumflex.smcp" horiz-adv-x="652" /><glyph d="M476 859Q476 892 498.5 915Q521 938 554 938Q586 938 609 915Q632 892 632 859Q632 827 609 803.5Q586 780 554 780Q521 780 498.5 803.5Q476 827 476 859ZM430 -15Q355 -15 291.5 8.5Q228 32 182 75Q136 118 110.5 177Q85 236 85 308Q85 390 116.5 464Q148 538 205 593.5Q262 649 342.5 682Q423 715 521 715Q552 715 585.5 711Q619 707 652 700Q685 693 714.5 683Q744 673 768 662L851 675L778 468L733 466L734 539Q734 572 716.5 596.5Q699 621 670.5 637Q642 653 605 661Q568 669 529 669Q457 669 395.5 643.5Q334 618 290 572Q246 526 221 463.5Q196 401 196 326Q196 270 214.5 218Q233 166 270.5 126.5Q308 87 364.5 63.5Q421 40 498 40Q519 40 536.5 42.5Q554 45 570 50L664 203L703 199Q695 170 688 140Q682 114 675.5 82.5Q669 51 664 22Q637 14 607.5 7.5Q578 1 547.5 -4Q517 -9 487 -12Q457 -15 430 -15Z" glyph-name="Cdotaccent" horiz-adv-x="784" unicode="&#266;" /><glyph d="M370 708Q370 741 393 764Q416 787 448 787Q481 787 503.5 764Q526 741 526 708Q526 676 503.5 653Q481 630 448 630Q416 630 393 653Q370 676 370 708ZM366 -12Q296 -12 241.5 10Q187 32 149.5 68.5Q112 105 92 153Q72 201 72 252Q72 316 96 374.5Q120 433 165.5 476.5Q211 520 276.5 546Q342 572 425 572Q476 572 530 560Q584 548 624 531L691 541L632 367H592V431Q592 450 579.5 467.5Q567 485 545.5 498.5Q524 512 494.5 520.5Q465 529 432 529Q375 529 328.5 510Q282 491 248 456Q214 421 195.5 370Q177 319 177 256Q177 212 193 172Q209 132 240 101Q271 70 316.5 52Q362 34 422 34Q436 34 449.5 36Q463 38 475 41L556 174L593 171Q586 144 579 118Q573 95 566.5 68Q560 41 555 18Q513 4 462 -4Q411 -12 366 -12Z" glyph-name="Cdotaccent.smcp" horiz-adv-x="652" /><glyph d="M184 705 347 700Q416 705 458 706.5Q500 708 525 708Q595 708 655 685.5Q715 663 759 622.5Q803 582 827.5 526Q852 470 852 402Q852 312 816.5 236Q781 160 719 105.5Q657 51 573.5 20Q490 -11 393 -11Q334 -11 262 -7Q190 -3 126 0L-25 -3L-15 33L40 43Q68 48 81.5 58Q95 68 102 91Q111 119 123 158Q134 191 148.5 238.5Q163 286 182 349Q201 411 214.5 459Q228 507 237 540Q248 579 255 607Q261 633 254 642Q247 651 221 656L171 666ZM400 663Q388 663 384 658.5Q380 654 378 647Q338 512 299.5 379Q261 246 222 112Q219 101 218 95.5Q217 90 217 84Q217 55 247 45Q277 35 328 35H380Q464 35 529.5 62Q595 89 639.5 136.5Q684 184 707.5 248.5Q731 313 731 388Q731 449 712.5 499.5Q694 550 660 586.5Q626 623 577.5 643Q529 663 469 663Z" glyph-name="D" horiz-adv-x="873" unicode="D" /><glyph d="M149 564 279 560Q325 561 369 562Q413 563 432 563Q491 563 540.5 544.5Q590 526 626 492.5Q662 459 682 412Q702 365 702 308Q702 241 674.5 183Q647 125 597 82.5Q547 40 478 15.5Q409 -9 325 -9Q310 -9 284.5 -8Q259 -7 228 -6Q197 -5 165 -3.5Q133 -2 105 0L-19 -3L-8 32L33 40Q56 45 67.5 53.5Q79 62 86 82Q91 94 106 142.5Q121 191 147 279Q166 342 178 382.5Q190 423 196.5 447Q203 471 205 481.5Q207 492 207 496Q207 507 200 511.5Q193 516 177 519L137 527ZM337 524Q328 524 325 520Q322 516 320 511Q316 498 306.5 467.5Q297 437 285 397Q273 357 259.5 312Q246 267 233.5 225Q221 183 211 148.5Q201 114 196 95Q192 82 192 72Q192 49 214.5 41.5Q237 34 278 34H300Q367 34 421 53Q475 72 513 107Q551 142 571.5 192Q592 242 592 304Q592 357 576 398Q560 439 531.5 467Q503 495 465 509.5Q427 524 382 524Z" glyph-name="D.smcp" horiz-adv-x="721" /><glyph d="M415 951 442 969 533 858H535L705 969L724 948L545 770H491ZM184 705 347 700Q416 705 458 706.5Q500 708 525 708Q595 708 655 685.5Q715 663 759 622.5Q803 582 827.5 526Q852 470 852 402Q852 312 816.5 236Q781 160 719 105.5Q657 51 573.5 20Q490 -11 393 -11Q334 -11 262 -7Q190 -3 126 0L-25 -3L-15 33L40 43Q68 48 81.5 58Q95 68 102 91Q111 119 123 158Q134 191 148.5 238.5Q163 286 182 349Q201 411 214.5 459Q228 507 237 540Q248 579 255 607Q261 633 254 642Q247 651 221 656L171 666ZM400 663Q388 663 384 658.5Q380 654 378 647Q338 512 299.5 379Q261 246 222 112Q219 101 218 95.5Q217 90 217 84Q217 55 247 45Q277 35 328 35H380Q464 35 529.5 62Q595 89 639.5 136.5Q684 184 707.5 248.5Q731 313 731 388Q731 449 712.5 499.5Q694 550 660 586.5Q626 623 577.5 643Q529 663 469 663Z" glyph-name="Dcaron" horiz-adv-x="873" unicode="&#270;" /><glyph d="M323 791 351 809 441 696H443L611 807L629 786L454 611H400ZM149 564 279 560Q325 561 369 562Q413 563 432 563Q491 563 540.5 544.5Q590 526 626 492.5Q662 459 682 412Q702 365 702 308Q702 241 674.5 183Q647 125 597 82.5Q547 40 478 15.5Q409 -9 325 -9Q310 -9 284.5 -8Q259 -7 228 -6Q197 -5 165 -3.5Q133 -2 105 0L-19 -3L-8 32L33 40Q56 45 67.5 53.5Q79 62 86 82Q91 94 106 142.5Q121 191 147 279Q166 342 178 382.5Q190 423 196.5 447Q203 471 205 481.5Q207 492 207 496Q207 507 200 511.5Q193 516 177 519L137 527ZM337 524Q328 524 325 520Q322 516 320 511Q316 498 306.5 467.5Q297 437 285 397Q273 357 259.5 312Q246 267 233.5 225Q221 183 211 148.5Q201 114 196 95Q192 82 192 72Q192 49 214.5 41.5Q237 34 278 34H300Q367 34 421 53Q475 72 513 107Q551 142 571.5 192Q592 242 592 304Q592 357 576 398Q560 439 531.5 467Q503 495 465 509.5Q427 524 382 524Z" glyph-name="Dcaron.smcp" horiz-adv-x="721" /><glyph d="M400 663Q388 663 384 658.5Q380 654 378 647L299 379H540L526 332H285L222 112Q219 101 218 95.5Q217 90 217 84Q217 55 247 45Q277 35 328 35H380Q464 35 529.5 62Q595 89 639.5 136.5Q684 184 707.5 248.5Q731 313 731 388Q731 449 712.5 499.5Q694 550 660 586.5Q626 623 577.5 643Q529 663 469 663ZM184 705 347 700Q416 705 458 706.5Q500 708 525 708Q595 708 655 685.5Q715 663 759 622.5Q803 582 827.5 526Q852 470 852 402Q852 312 816.5 236Q781 160 719 105.5Q657 51 573.5 20Q490 -11 393 -11Q334 -11 262 -7Q190 -3 126 0L-25 -3L-15 33L40 43Q68 48 81.5 58Q95 68 102 91Q111 118 122 154Q132 185 145.5 229.5Q159 274 177 332H75L89 379H191Q207 434 219 476.5Q231 519 239 548Q249 582 255 607Q261 633 254 642Q247 651 221 656L171 666Z" glyph-name="Dcroat" horiz-adv-x="873" unicode="&#272;" /><glyph d="M337 524Q328 524 325 520Q322 516 320 511Q317 501 310.5 480Q304 459 295.5 431Q287 403 277 370Q267 337 257 303H448L435 260H244Q228 207 215 162.5Q202 118 196 95Q192 82 192 72Q192 49 214.5 41.5Q237 34 278 34H300Q367 34 421 53Q475 72 513 107Q551 142 571.5 192Q592 242 592 304Q592 357 576 398Q560 439 531.5 467Q503 495 465 509.5Q427 524 382 524ZM149 564 279 560Q325 561 369 562Q413 563 432 563Q491 563 540.5 544.5Q590 526 626 492.5Q662 459 682 412Q702 365 702 308Q702 241 674.5 183Q647 125 597 82.5Q547 40 478 15.5Q409 -9 325 -9Q310 -9 284.5 -8Q259 -7 228 -6Q197 -5 165 -3.5Q133 -2 105 0L-19 -3L-8 32L33 40Q56 45 67.5 53.5Q79 62 86 82Q90 93 104 137Q118 181 141 260H58L71 303H154Q171 358 181.5 394Q192 430 197.5 451.5Q203 473 205 482.5Q207 492 207 496Q207 507 200 511.5Q193 516 177 519L137 527Z" glyph-name="Dcroat.smcp" horiz-adv-x="721" /><glyph d="M450 653 35 43H534ZM-18 40 448 718H547L650 38L641 0H-25Z" glyph-name="Delta" horiz-adv-x="737" unicode="&#8710;" /><glyph d="M414 383Q427 384 436.5 386.5Q446 389 454 394Q462 399 468.5 408.5Q475 418 483 432L511 487H548L507 349L479 227H442L445 284Q447 312 439 321.5Q431 331 405 333Q384 334 362.5 335Q341 336 324 336H286L221 111Q211 79 223 63.5Q235 48 272 48H441Q459 48 475.5 50.5Q492 53 509 61.5Q526 70 544.5 85Q563 100 586 126Q589 130 600.5 144Q612 158 624 173Q638 191 656 212H695L596 -5Q559 -4 524 -3Q494 -2 462 -1Q430 0 408 0H125L-26 -5L-15 33L40 43Q68 48 81.5 58Q95 68 102 91Q111 119 123 158Q134 191 148.5 238.5Q163 286 182 349Q201 411 214.5 459Q228 507 237 540Q248 579 255 607Q261 633 254 642Q247 651 221 656L171 666L184 705L332 700H583Q605 700 632 701.5Q659 703 684 705Q712 708 742 711Q733 692 722 663Q712 638 698 600Q684 562 664 508H625L628 557Q631 605 621.5 628.5Q612 652 582 652H397Q386 652 382 648Q378 644 376 636L299 380H334Q350 380 370.5 380.5Q391 381 414 383Z" glyph-name="E" horiz-adv-x="728" unicode="E" /><glyph d="M346 312Q366 313 377.5 318Q389 323 401 346L423 390H456L423 279L400 182H368L370 227Q371 244 365.5 254Q360 264 338 266Q321 267 305 268Q289 269 276 269H247L196 95Q193 83 193 74Q193 44 237 44H363Q376 44 390 45.5Q404 47 418.5 53Q433 59 448.5 70.5Q464 82 480 102L534 170H573L494 -4Q464 -3 436 -2Q412 -1 386.5 -0.5Q361 0 344 0H102L-19 -4L-9 32L34 40Q75 47 85 79Q91 100 101 130Q109 156 120.5 193Q132 230 147 280Q166 343 178 383.5Q190 424 196.5 447.5Q203 471 205 481.5Q207 492 207 496Q207 507 200 511.5Q193 516 177 519L137 527L149 564L268 560H484Q501 560 523 561Q545 562 565 564Q588 566 611 569Q604 553 595 530Q587 510 575.5 479.5Q564 449 548 406H514L517 446Q518 456 517.5 468.5Q517 481 513 491.5Q509 502 501 509Q493 516 478 516H336Q326 516 323.5 512.5Q321 509 319 503L259 310H285Q297 310 312.5 310Q328 310 346 312Z" glyph-name="E.smcp" horiz-adv-x="605" /><glyph d="M541 961H675L466 772L425 778ZM414 383Q427 384 436.5 386.5Q446 389 454 394Q462 399 468.5 408.5Q475 418 483 432L511 487H548L507 349L479 227H442L445 284Q447 312 439 321.5Q431 331 405 333Q384 334 362.5 335Q341 336 324 336H286L221 111Q211 79 223 63.5Q235 48 272 48H441Q459 48 475.5 50.5Q492 53 509 61.5Q526 70 544.5 85Q563 100 586 126Q589 130 600.5 144Q612 158 624 173Q638 191 656 212H695L596 -5Q559 -4 524 -3Q494 -2 462 -1Q430 0 408 0H125L-26 -5L-15 33L40 43Q68 48 81.5 58Q95 68 102 91Q111 119 123 158Q134 191 148.5 238.5Q163 286 182 349Q201 411 214.5 459Q228 507 237 540Q248 579 255 607Q261 633 254 642Q247 651 221 656L171 666L184 705L332 700H583Q605 700 632 701.5Q659 703 684 705Q712 708 742 711Q733 692 722 663Q712 638 698 600Q684 562 664 508H625L628 557Q631 605 621.5 628.5Q612 652 582 652H397Q386 652 382 648Q378 644 376 636L299 380H334Q350 380 370.5 380.5Q391 381 414 383Z" glyph-name="Eacute" horiz-adv-x="728" unicode="&#201;" /><glyph d="M476 807H610L401 618L360 624ZM346 312Q366 313 377.5 318Q389 323 401 346L423 390H456L423 279L400 182H368L370 227Q371 244 365.5 254Q360 264 338 266Q321 267 305 268Q289 269 276 269H247L196 95Q193 83 193 74Q193 44 237 44H363Q376 44 390 45.5Q404 47 418.5 53Q433 59 448.5 70.5Q464 82 480 102L534 170H573L494 -4Q464 -3 436 -2Q412 -1 386.5 -0.5Q361 0 344 0H102L-19 -4L-9 32L34 40Q75 47 85 79Q91 100 101 130Q109 156 120.5 193Q132 230 147 280Q166 343 178 383.5Q190 424 196.5 447.5Q203 471 205 481.5Q207 492 207 496Q207 507 200 511.5Q193 516 177 519L137 527L149 564L268 560H484Q501 560 523 561Q545 562 565 564Q588 566 611 569Q604 553 595 530Q587 510 575.5 479.5Q564 449 548 406H514L517 446Q518 456 517.5 468.5Q517 481 513 491.5Q509 502 501 509Q493 516 478 516H336Q326 516 323.5 512.5Q321 509 319 503L259 310H285Q297 310 312.5 310Q328 310 346 312Z" glyph-name="Eacute.smcp" horiz-adv-x="605" /><glyph d="M476 855Q509 855 529.5 865Q550 875 561.5 890.5Q573 906 578 925.5Q583 945 586 964H627Q623 919 612.5 884Q602 849 583 824.5Q564 800 535.5 787Q507 774 467 774Q408 774 376.5 807.5Q345 841 345 890Q345 924 362 964H399Q396 951 395 940Q394 929 394 917Q394 892 412.5 873.5Q431 855 476 855ZM414 383Q427 384 436.5 386.5Q446 389 454 394Q462 399 468.5 408.5Q475 418 483 432L511 487H548L507 349L479 227H442L445 284Q447 312 439 321.5Q431 331 405 333Q384 334 362.5 335Q341 336 324 336H286L221 111Q211 79 223 63.5Q235 48 272 48H441Q459 48 475.5 50.5Q492 53 509 61.5Q526 70 544.5 85Q563 100 586 126Q589 130 600.5 144Q612 158 624 173Q638 191 656 212H695L596 -5Q559 -4 524 -3Q494 -2 462 -1Q430 0 408 0H125L-26 -5L-15 33L40 43Q68 48 81.5 58Q95 68 102 91Q111 119 123 158Q134 191 148.5 238.5Q163 286 182 349Q201 411 214.5 459Q228 507 237 540Q248 579 255 607Q261 633 254 642Q247 651 221 656L171 666L184 705L332 700H583Q605 700 632 701.5Q659 703 684 705Q712 708 742 711Q733 692 722 663Q712 638 698 600Q684 562 664 508H625L628 557Q631 605 621.5 628.5Q612 652 582 652H397Q386 652 382 648Q378 644 376 636L299 380H334Q350 380 370.5 380.5Q391 381 414 383Z" glyph-name="Ebreve" horiz-adv-x="728" unicode="&#276;" /><glyph d="M413 701Q446 701 466 711Q486 721 497.5 736.5Q509 752 514 771.5Q519 791 521 810H561Q559 713 519 666Q479 619 407 619Q379 619 356 627.5Q333 636 316.5 650.5Q300 665 291 684.5Q282 704 282 727Q282 740 284.5 762Q287 784 296 810H334Q331 796 330 784.5Q329 773 329 761Q329 737 349.5 719Q370 701 413 701ZM346 312Q366 313 377.5 318Q389 323 401 346L423 390H456L423 279L400 182H368L370 227Q371 244 365.5 254Q360 264 338 266Q321 267 305 268Q289 269 276 269H247L196 95Q193 83 193 74Q193 44 237 44H363Q376 44 390 45.5Q404 47 418.5 53Q433 59 448.5 70.5Q464 82 480 102L534 170H573L494 -4Q464 -3 436 -2Q412 -1 386.5 -0.5Q361 0 344 0H102L-19 -4L-9 32L34 40Q75 47 85 79Q91 100 101 130Q109 156 120.5 193Q132 230 147 280Q166 343 178 383.5Q190 424 196.5 447.5Q203 471 205 481.5Q207 492 207 496Q207 507 200 511.5Q193 516 177 519L137 527L149 564L268 560H484Q501 560 523 561Q545 562 565 564Q588 566 611 569Q604 553 595 530Q587 510 575.5 479.5Q564 449 548 406H514L517 446Q518 456 517.5 468.5Q517 481 513 491.5Q509 502 501 509Q493 516 478 516H336Q326 516 323.5 512.5Q321 509 319 503L259 310H285Q297 310 312.5 310Q328 310 346 312Z" glyph-name="Ebreve.smcp" horiz-adv-x="605" /><glyph d="M354 951 381 969 472 858H474L644 969L663 948L484 770H430ZM414 383Q427 384 436.5 386.5Q446 389 454 394Q462 399 468.5 408.5Q475 418 483 432L511 487H548L507 349L479 227H442L445 284Q447 312 439 321.5Q431 331 405 333Q384 334 362.5 335Q341 336 324 336H286L221 111Q211 79 223 63.5Q235 48 272 48H441Q459 48 475.5 50.5Q492 53 509 61.5Q526 70 544.5 85Q563 100 586 126Q589 130 600.5 144Q612 158 624 173Q638 191 656 212H695L596 -5Q559 -4 524 -3Q494 -2 462 -1Q430 0 408 0H125L-26 -5L-15 33L40 43Q68 48 81.5 58Q95 68 102 91Q111 119 123 158Q134 191 148.5 238.5Q163 286 182 349Q201 411 214.5 459Q228 507 237 540Q248 579 255 607Q261 633 254 642Q247 651 221 656L171 666L184 705L332 700H583Q605 700 632 701.5Q659 703 684 705Q712 708 742 711Q733 692 722 663Q712 638 698 600Q684 562 664 508H625L628 557Q631 605 621.5 628.5Q612 652 582 652H397Q386 652 382 648Q378 644 376 636L299 380H334Q350 380 370.5 380.5Q391 381 414 383Z" glyph-name="Ecaron" horiz-adv-x="728" unicode="&#282;" /><glyph d="M289 791 317 809 407 696H409L577 807L595 786L420 611H366ZM346 312Q366 313 377.5 318Q389 323 401 346L423 390H456L423 279L400 182H368L370 227Q371 244 365.5 254Q360 264 338 266Q321 267 305 268Q289 269 276 269H247L196 95Q193 83 193 74Q193 44 237 44H363Q376 44 390 45.5Q404 47 418.5 53Q433 59 448.5 70.5Q464 82 480 102L534 170H573L494 -4Q464 -3 436 -2Q412 -1 386.5 -0.5Q361 0 344 0H102L-19 -4L-9 32L34 40Q75 47 85 79Q91 100 101 130Q109 156 120.5 193Q132 230 147 280Q166 343 178 383.5Q190 424 196.5 447.5Q203 471 205 481.5Q207 492 207 496Q207 507 200 511.5Q193 516 177 519L137 527L149 564L268 560H484Q501 560 523 561Q545 562 565 564Q588 566 611 569Q604 553 595 530Q587 510 575.5 479.5Q564 449 548 406H514L517 446Q518 456 517.5 468.5Q517 481 513 491.5Q509 502 501 509Q493 516 478 516H336Q326 516 323.5 512.5Q321 509 319 503L259 310H285Q297 310 312.5 310Q328 310 346 312Z" glyph-name="Ecaron.smcp" horiz-adv-x="605" /><glyph d="M494 967H548L638 786L613 768L510 878H508L346 769L326 786ZM414 383Q427 384 436.5 386.5Q446 389 454 394Q462 399 468.5 408.5Q475 418 483 432L511 487H548L507 349L479 227H442L445 284Q447 312 439 321.5Q431 331 405 333Q384 334 362.5 335Q341 336 324 336H286L221 111Q211 79 223 63.5Q235 48 272 48H441Q459 48 475.5 50.5Q492 53 509 61.5Q526 70 544.5 85Q563 100 586 126Q589 130 600.5 144Q612 158 624 173Q638 191 656 212H695L596 -5Q559 -4 524 -3Q494 -2 462 -1Q430 0 408 0H125L-26 -5L-15 33L40 43Q68 48 81.5 58Q95 68 102 91Q111 119 123 158Q134 191 148.5 238.5Q163 286 182 349Q201 411 214.5 459Q228 507 237 540Q248 579 255 607Q261 633 254 642Q247 651 221 656L171 666L184 705L332 700H583Q605 700 632 701.5Q659 703 684 705Q712 708 742 711Q733 692 722 663Q712 638 698 600Q684 562 664 508H625L628 557Q631 605 621.5 628.5Q612 652 582 652H397Q386 652 382 648Q378 644 376 636L299 380H334Q350 380 370.5 380.5Q391 381 414 383Z" glyph-name="Ecircumflex" horiz-adv-x="728" unicode="&#202;" /><glyph d="M423 808H477L563 628L537 609L438 722H436L276 615L255 634ZM346 312Q366 313 377.5 318Q389 323 401 346L423 390H456L423 279L400 182H368L370 227Q371 244 365.5 254Q360 264 338 266Q321 267 305 268Q289 269 276 269H247L196 95Q193 83 193 74Q193 44 237 44H363Q376 44 390 45.5Q404 47 418.5 53Q433 59 448.5 70.5Q464 82 480 102L534 170H573L494 -4Q464 -3 436 -2Q412 -1 386.5 -0.5Q361 0 344 0H102L-19 -4L-9 32L34 40Q75 47 85 79Q91 100 101 130Q109 156 120.5 193Q132 230 147 280Q166 343 178 383.5Q190 424 196.5 447.5Q203 471 205 481.5Q207 492 207 496Q207 507 200 511.5Q193 516 177 519L137 527L149 564L268 560H484Q501 560 523 561Q545 562 565 564Q588 566 611 569Q604 553 595 530Q587 510 575.5 479.5Q564 449 548 406H514L517 446Q518 456 517.5 468.5Q517 481 513 491.5Q509 502 501 509Q493 516 478 516H336Q326 516 323.5 512.5Q321 509 319 503L259 310H285Q297 310 312.5 310Q328 310 346 312Z" glyph-name="Ecircumflex.smcp" horiz-adv-x="605" /><glyph d="M516 862Q516 892 537 913Q558 934 588 934Q618 934 639 913Q660 892 660 862Q660 832 639 811.5Q618 791 588 791Q558 791 537 811.5Q516 832 516 862ZM325 862Q325 892 346 913Q367 934 397 934Q427 934 448 913Q469 892 469 862Q469 832 448 811.5Q427 791 397 791Q367 791 346 811.5Q325 832 325 862ZM414 383Q427 384 436.5 386.5Q446 389 454 394Q462 399 468.5 408.5Q475 418 483 432L511 487H548L507 349L479 227H442L445 284Q447 312 439 321.5Q431 331 405 333Q384 334 362.5 335Q341 336 324 336H286L221 111Q211 79 223 63.5Q235 48 272 48H441Q459 48 475.5 50.5Q492 53 509 61.5Q526 70 544.5 85Q563 100 586 126Q589 130 600.5 144Q612 158 624 173Q638 191 656 212H695L596 -5Q559 -4 524 -3Q494 -2 462 -1Q430 0 408 0H125L-26 -5L-15 33L40 43Q68 48 81.5 58Q95 68 102 91Q111 119 123 158Q134 191 148.5 238.5Q163 286 182 349Q201 411 214.5 459Q228 507 237 540Q248 579 255 607Q261 633 254 642Q247 651 221 656L171 666L184 705L332 700H583Q605 700 632 701.5Q659 703 684 705Q712 708 742 711Q733 692 722 663Q712 638 698 600Q684 562 664 508H625L628 557Q631 605 621.5 628.5Q612 652 582 652H397Q386 652 382 648Q378 644 376 636L299 380H334Q350 380 370.5 380.5Q391 381 414 383Z" glyph-name="Edieresis" horiz-adv-x="728" unicode="&#203;" /><glyph d="M428 700Q428 730 449 751Q470 772 500 772Q530 772 551 751Q572 730 572 700Q572 670 551 649Q530 628 500 628Q470 628 449 649Q428 670 428 700ZM237 700Q237 730 258 751Q279 772 309 772Q340 772 360.5 751Q381 730 381 700Q381 670 360.5 649Q340 628 309 628Q279 628 258 649Q237 670 237 700ZM346 312Q366 313 377.5 318Q389 323 401 346L423 390H456L423 279L400 182H368L370 227Q371 244 365.5 254Q360 264 338 266Q321 267 305 268Q289 269 276 269H247L196 95Q193 83 193 74Q193 44 237 44H363Q376 44 390 45.5Q404 47 418.5 53Q433 59 448.5 70.5Q464 82 480 102L534 170H573L494 -4Q464 -3 436 -2Q412 -1 386.5 -0.5Q361 0 344 0H102L-19 -4L-9 32L34 40Q75 47 85 79Q91 100 101 130Q109 156 120.5 193Q132 230 147 280Q166 343 178 383.5Q190 424 196.5 447.5Q203 471 205 481.5Q207 492 207 496Q207 507 200 511.5Q193 516 177 519L137 527L149 564L268 560H484Q501 560 523 561Q545 562 565 564Q588 566 611 569Q604 553 595 530Q587 510 575.5 479.5Q564 449 548 406H514L517 446Q518 456 517.5 468.5Q517 481 513 491.5Q509 502 501 509Q493 516 478 516H336Q326 516 323.5 512.5Q321 509 319 503L259 310H285Q297 310 312.5 310Q328 310 346 312Z" glyph-name="Edieresis.smcp" horiz-adv-x="605" /><glyph d="M430 859Q430 892 452.5 915Q475 938 508 938Q540 938 563 915Q586 892 586 859Q586 827 563 803.5Q540 780 508 780Q475 780 452.5 803.5Q430 827 430 859ZM414 383Q427 384 436.5 386.5Q446 389 454 394Q462 399 468.5 408.5Q475 418 483 432L511 487H548L507 349L479 227H442L445 284Q447 312 439 321.5Q431 331 405 333Q384 334 362.5 335Q341 336 324 336H286L221 111Q211 79 223 63.5Q235 48 272 48H441Q459 48 475.5 50.5Q492 53 509 61.5Q526 70 544.5 85Q563 100 586 126Q589 130 600.5 144Q612 158 624 173Q638 191 656 212H695L596 -5Q559 -4 524 -3Q494 -2 462 -1Q430 0 408 0H125L-26 -5L-15 33L40 43Q68 48 81.5 58Q95 68 102 91Q111 119 123 158Q134 191 148.5 238.5Q163 286 182 349Q201 411 214.5 459Q228 507 237 540Q248 579 255 607Q261 633 254 642Q247 651 221 656L171 666L184 705L332 700H583Q605 700 632 701.5Q659 703 684 705Q712 708 742 711Q733 692 722 663Q712 638 698 600Q684 562 664 508H625L628 557Q631 605 621.5 628.5Q612 652 582 652H397Q386 652 382 648Q378 644 376 636L299 380H334Q350 380 370.5 380.5Q391 381 414 383Z" glyph-name="Edotaccent" horiz-adv-x="728" unicode="&#278;" /><glyph d="M329 708Q329 741 352 764Q375 787 407 787Q440 787 462.5 764Q485 741 485 708Q485 676 462.5 653Q440 630 407 630Q375 630 352 653Q329 676 329 708ZM346 312Q366 313 377.5 318Q389 323 401 346L423 390H456L423 279L400 182H368L370 227Q371 244 365.5 254Q360 264 338 266Q321 267 305 268Q289 269 276 269H247L196 95Q193 83 193 74Q193 44 237 44H363Q376 44 390 45.5Q404 47 418.5 53Q433 59 448.5 70.5Q464 82 480 102L534 170H573L494 -4Q464 -3 436 -2Q412 -1 386.5 -0.5Q361 0 344 0H102L-19 -4L-9 32L34 40Q75 47 85 79Q91 100 101 130Q109 156 120.5 193Q132 230 147 280Q166 343 178 383.5Q190 424 196.5 447.5Q203 471 205 481.5Q207 492 207 496Q207 507 200 511.5Q193 516 177 519L137 527L149 564L268 560H484Q501 560 523 561Q545 562 565 564Q588 566 611 569Q604 553 595 530Q587 510 575.5 479.5Q564 449 548 406H514L517 446Q518 456 517.5 468.5Q517 481 513 491.5Q509 502 501 509Q493 516 478 516H336Q326 516 323.5 512.5Q321 509 319 503L259 310H285Q297 310 312.5 310Q328 310 346 312Z" glyph-name="Edotaccent.smcp" horiz-adv-x="605" /><glyph d="M546 778 505 772 331 961H465ZM414 383Q427 384 436.5 386.5Q446 389 454 394Q462 399 468.5 408.5Q475 418 483 432L511 487H548L507 349L479 227H442L445 284Q447 312 439 321.5Q431 331 405 333Q384 334 362.5 335Q341 336 324 336H286L221 111Q211 79 223 63.5Q235 48 272 48H441Q459 48 475.5 50.5Q492 53 509 61.5Q526 70 544.5 85Q563 100 586 126Q589 130 600.5 144Q612 158 624 173Q638 191 656 212H695L596 -5Q559 -4 524 -3Q494 -2 462 -1Q430 0 408 0H125L-26 -5L-15 33L40 43Q68 48 81.5 58Q95 68 102 91Q111 119 123 158Q134 191 148.5 238.5Q163 286 182 349Q201 411 214.5 459Q228 507 237 540Q248 579 255 607Q261 633 254 642Q247 651 221 656L171 666L184 705L332 700H583Q605 700 632 701.5Q659 703 684 705Q712 708 742 711Q733 692 722 663Q712 638 698 600Q684 562 664 508H625L628 557Q631 605 621.5 628.5Q612 652 582 652H397Q386 652 382 648Q378 644 376 636L299 380H334Q350 380 370.5 380.5Q391 381 414 383Z" glyph-name="Egrave" horiz-adv-x="728" unicode="&#200;" /><glyph d="M473 622 432 616 258 805H392ZM346 312Q366 313 377.5 318Q389 323 401 346L423 390H456L423 279L400 182H368L370 227Q371 244 365.5 254Q360 264 338 266Q321 267 305 268Q289 269 276 269H247L196 95Q193 83 193 74Q193 44 237 44H363Q376 44 390 45.5Q404 47 418.5 53Q433 59 448.5 70.5Q464 82 480 102L534 170H573L494 -4Q464 -3 436 -2Q412 -1 386.5 -0.5Q361 0 344 0H102L-19 -4L-9 32L34 40Q75 47 85 79Q91 100 101 130Q109 156 120.5 193Q132 230 147 280Q166 343 178 383.5Q190 424 196.5 447.5Q203 471 205 481.5Q207 492 207 496Q207 507 200 511.5Q193 516 177 519L137 527L149 564L268 560H484Q501 560 523 561Q545 562 565 564Q588 566 611 569Q604 553 595 530Q587 510 575.5 479.5Q564 449 548 406H514L517 446Q518 456 517.5 468.5Q517 481 513 491.5Q509 502 501 509Q493 516 478 516H336Q326 516 323.5 512.5Q321 509 319 503L259 310H285Q297 310 312.5 310Q328 310 346 312Z" glyph-name="Egrave.smcp" horiz-adv-x="605" /><glyph d="M352 803 369 862H653L636 803ZM414 383Q427 384 436.5 386.5Q446 389 454 394Q462 399 468.5 408.5Q475 418 483 432L511 487H548L507 349L479 227H442L445 284Q447 312 439 321.5Q431 331 405 333Q384 334 362.5 335Q341 336 324 336H286L221 111Q211 79 223 63.5Q235 48 272 48H441Q459 48 475.5 50.5Q492 53 509 61.5Q526 70 544.5 85Q563 100 586 126Q589 130 600.5 144Q612 158 624 173Q638 191 656 212H695L596 -5Q559 -4 524 -3Q494 -2 462 -1Q430 0 408 0H125L-26 -5L-15 33L40 43Q68 48 81.5 58Q95 68 102 91Q111 119 123 158Q134 191 148.5 238.5Q163 286 182 349Q201 411 214.5 459Q228 507 237 540Q248 579 255 607Q261 633 254 642Q247 651 221 656L171 666L184 705L332 700H583Q605 700 632 701.5Q659 703 684 705Q712 708 742 711Q733 692 722 663Q712 638 698 600Q684 562 664 508H625L628 557Q631 605 621.5 628.5Q612 652 582 652H397Q386 652 382 648Q378 644 376 636L299 380H334Q350 380 370.5 380.5Q391 381 414 383Z" glyph-name="Emacron" horiz-adv-x="728" unicode="&#274;" /><glyph d="M280 637 298 700H582L564 637ZM346 312Q366 313 377.5 318Q389 323 401 346L423 390H456L423 279L400 182H368L370 227Q371 244 365.5 254Q360 264 338 266Q321 267 305 268Q289 269 276 269H247L196 95Q193 83 193 74Q193 44 237 44H363Q376 44 390 45.5Q404 47 418.5 53Q433 59 448.5 70.5Q464 82 480 102L534 170H573L494 -4Q464 -3 436 -2Q412 -1 386.5 -0.5Q361 0 344 0H102L-19 -4L-9 32L34 40Q75 47 85 79Q91 100 101 130Q109 156 120.5 193Q132 230 147 280Q166 343 178 383.5Q190 424 196.5 447.5Q203 471 205 481.5Q207 492 207 496Q207 507 200 511.5Q193 516 177 519L137 527L149 564L268 560H484Q501 560 523 561Q545 562 565 564Q588 566 611 569Q604 553 595 530Q587 510 575.5 479.5Q564 449 548 406H514L517 446Q518 456 517.5 468.5Q517 481 513 491.5Q509 502 501 509Q493 516 478 516H336Q326 516 323.5 512.5Q321 509 319 503L259 310H285Q297 310 312.5 310Q328 310 346 312Z" glyph-name="Emacron.smcp" horiz-adv-x="605" /><glyph d="M258 607Q265 630 258.5 640.5Q252 651 227 656L169 666L182 705L318 700L411 705Q412 691 415 678Q417 667 420.5 654.5Q424 642 429 632L640 158Q664 252 685 337Q694 373 703.5 411.5Q713 450 721.5 485.5Q730 521 737.5 552.5Q745 584 751 607Q757 632 750 641.5Q743 651 719 656L668 666L682 705L809 700L945 705L932 666L876 656Q847 651 834 641Q821 631 813 607Q811 600 802.5 570Q794 540 781.5 493.5Q769 447 752.5 387.5Q736 328 717 263Q698 198 677.5 130Q657 62 637 -1Q623 -44 603 -83.5Q583 -123 554.5 -153Q526 -183 488.5 -201Q451 -219 402 -219Q375 -219 350.5 -210Q326 -201 307 -185Q288 -169 277 -147.5Q266 -126 266 -100Q266 -72 283 -53.5Q300 -35 327 -35Q349 -35 365.5 -50Q382 -65 382 -88Q382 -109 366 -125.5Q350 -142 324 -144Q332 -161 350 -170Q368 -179 388 -179Q422 -179 445.5 -158.5Q469 -138 489 -90Q494 -79 501.5 -58Q509 -37 517.5 -11.5Q526 14 534.5 41Q543 68 549 91Q495 219 451 317Q407 415 375 483Q338 562 309 620Q276 507 248 405Q236 361 223 316Q210 271 198.5 229Q187 187 177.5 151.5Q168 116 161 91Q155 68 161 58Q167 48 193 43L264 33L251 -5L93 0L-32 -5L-21 33L34 43Q62 48 75 58Q88 68 96 91Q138 218 177.5 343Q217 468 258 607Z" glyph-name="Eng" horiz-adv-x="844" unicode="&#330;" /><glyph d="M446 69Q405 163 370 240.5Q335 318 309 374Q278 439 254 491Q229 403 207 324Q197 290 187 255Q177 220 168 187.5Q159 155 151 126.5Q143 98 137 79Q132 60 137.5 51.5Q143 43 163 40L220 32L208 -4L82 0L-23 -4L-12 32L32 40Q54 45 64 52.5Q74 60 81 79Q98 129 114 177.5Q130 226 146 274.5Q162 323 177 374Q192 425 208 480Q213 499 208 507.5Q203 516 183 519L137 527L148 564L262 560L349 564Q350 551 352 540Q354 530 356 519Q358 508 362 500L527 128L615 480Q620 500 614.5 507.5Q609 515 589 519L548 527L560 564L670 560L775 564L763 527L719 519Q695 515 684.5 507.5Q674 500 668 480Q653 425 632 352Q614 289 588 200Q562 111 530 -3Q519 -41 502 -77Q485 -113 459.5 -141.5Q434 -170 400.5 -187.5Q367 -205 325 -205Q293 -205 268.5 -196Q244 -187 227.5 -172Q211 -157 202 -138Q193 -119 193 -99Q193 -72 209.5 -56Q226 -40 247 -40Q268 -40 282 -54Q296 -68 296 -88Q296 -106 283 -121Q270 -136 245 -138Q250 -149 265.5 -156.5Q281 -164 304 -164Q360 -164 392 -103Q406 -77 417 -41.5Q428 -6 439 41Z" glyph-name="Eng.smcp" horiz-adv-x="699" /><glyph d="M414 383Q427 384 436.5 386.5Q446 389 454 394Q462 399 468.5 408.5Q475 418 483 432L511 487H548L507 349L479 227H442L445 284Q447 312 439 321.5Q431 331 405 333Q384 334 362.5 335Q341 336 324 336H286L221 111Q211 79 223 63.5Q235 48 272 48H441Q459 48 475.5 50.5Q492 53 509 61.5Q526 70 544.5 85Q563 100 586 126Q589 130 600.5 144Q612 158 624 173Q638 191 656 212H695L596 -5Q581 -5 564 -4Q550 -3 532 -2.5Q514 -2 495 -1Q477 -16 457 -36.5Q437 -57 419.5 -80Q402 -103 390.5 -127.5Q379 -152 379 -175Q379 -190 386.5 -199Q394 -208 406 -213.5Q418 -219 433.5 -220.5Q449 -222 464 -222Q472 -222 481 -221.5Q490 -221 498 -219L473 -253Q456 -259 434 -263Q412 -267 390 -267Q369 -267 350 -262.5Q331 -258 316.5 -248.5Q302 -239 293 -223Q284 -207 284 -184Q284 -155 297.5 -128.5Q311 -102 334 -78.5Q357 -55 387 -35Q417 -15 449 0H408H125L-26 -5L-15 33L40 43Q68 48 81.5 58Q95 68 102 91Q111 119 123 158Q134 191 148.5 238.5Q163 286 182 349Q201 411 214.5 459Q228 507 237 540Q248 579 255 607Q261 633 254 642Q247 651 221 656L171 666L184 705L332 700H583Q605 700 632 701.5Q659 703 684 705Q712 708 742 711Q733 692 722 663Q712 638 698 600Q684 562 664 508H625L628 557Q631 605 621.5 628.5Q612 652 582 652H397Q386 652 382 648Q378 644 376 636L299 380H334Q350 380 370.5 380.5Q391 381 414 383Z" glyph-name="Eogonek" horiz-adv-x="728" unicode="&#280;" /><glyph d="M346 312Q366 313 377.5 318Q389 323 401 346L423 390H456L423 279L400 182H368L370 227Q371 244 365.5 254Q360 264 338 266Q321 267 305 268Q289 269 276 269H247L196 95Q193 83 193 74Q193 44 237 44H363Q376 44 390 45.5Q404 47 418.5 53Q433 59 448.5 70.5Q464 82 480 102L534 170H573L494 -4Q485 -4 474 -3Q465 -2 453 -2Q441 -2 428 -1Q410 -16 390 -36.5Q370 -57 352.5 -80Q335 -103 323.5 -127.5Q312 -152 312 -175Q312 -190 319.5 -199Q327 -208 339 -213.5Q351 -219 366.5 -220.5Q382 -222 397 -222Q405 -222 414 -221.5Q423 -221 431 -219L406 -253Q389 -259 367 -263Q345 -267 323 -267Q302 -267 283 -262.5Q264 -258 249.5 -248.5Q235 -239 226 -223Q217 -207 217 -184Q217 -155 230.5 -128.5Q244 -102 267 -78.5Q290 -55 320 -35Q350 -15 382 0H344H102L-19 -4L-9 32L34 40Q75 47 85 79Q91 100 101 130Q109 156 120.5 193Q132 230 147 280Q166 343 178 383.5Q190 424 196.5 447.5Q203 471 205 481.5Q207 492 207 496Q207 507 200 511.5Q193 516 177 519L137 527L149 564L268 560H484Q501 560 523 561Q545 562 565 564Q588 566 611 569Q604 553 595 530Q587 510 575.5 479.5Q564 449 548 406H514L517 446Q518 456 517.5 468.5Q517 481 513 491.5Q509 502 501 509Q493 516 478 516H336Q326 516 323.5 512.5Q321 509 319 503L259 310H285Q297 310 312.5 310Q328 310 346 312Z" glyph-name="Eogonek.smcp" horiz-adv-x="605" /><glyph d="M400 663Q388 663 384 658.5Q380 654 378 647L299 379H540L526 332H285L222 112Q219 101 218 95.5Q217 90 217 84Q217 55 247 45Q277 35 328 35H380Q464 35 529.5 62Q595 89 639.5 136.5Q684 184 707.5 248.5Q731 313 731 388Q731 449 712.5 499.5Q694 550 660 586.5Q626 623 577.5 643Q529 663 469 663ZM184 705 347 700Q416 705 458 706.5Q500 708 525 708Q595 708 655 685.5Q715 663 759 622.5Q803 582 827.5 526Q852 470 852 402Q852 312 816.5 236Q781 160 719 105.5Q657 51 573.5 20Q490 -11 393 -11Q334 -11 262 -7Q190 -3 126 0L-25 -3L-15 33L40 43Q68 48 81.5 58Q95 68 102 91Q111 118 122 154Q132 185 145.5 229.5Q159 274 177 332H75L89 379H191Q207 434 219 476.5Q231 519 239 548Q249 582 255 607Q261 633 254 642Q247 651 221 656L171 666Z" glyph-name="Eth" horiz-adv-x="873" unicode="&#208;" /><glyph d="M337 524Q328 524 325 520Q322 516 320 511Q317 501 310.5 480Q304 459 295.5 431Q287 403 277 370Q267 337 257 303H448L435 260H244Q228 207 215 162.5Q202 118 196 95Q192 82 192 72Q192 49 214.5 41.5Q237 34 278 34H300Q367 34 421 53Q475 72 513 107Q551 142 571.5 192Q592 242 592 304Q592 357 576 398Q560 439 531.5 467Q503 495 465 509.5Q427 524 382 524ZM149 564 279 560Q325 561 369 562Q413 563 432 563Q491 563 540.5 544.5Q590 526 626 492.5Q662 459 682 412Q702 365 702 308Q702 241 674.5 183Q647 125 597 82.5Q547 40 478 15.5Q409 -9 325 -9Q310 -9 284.5 -8Q259 -7 228 -6Q197 -5 165 -3.5Q133 -2 105 0L-19 -3L-8 32L33 40Q56 45 67.5 53.5Q79 62 86 82Q90 93 104 137Q118 181 141 260H58L71 303H154Q171 358 181.5 394Q192 430 197.5 451.5Q203 473 205 482.5Q207 492 207 496Q207 507 200 511.5Q193 516 177 519L137 527Z" glyph-name="Eth.smcp" horiz-adv-x="721" /><glyph d="M134 459Q156 512 187.5 558.5Q219 605 260 640Q301 675 350 695Q399 715 455 715Q482 715 507 711Q532 707 552.5 701Q573 695 587.5 688.5Q602 682 610 676L680 694Q658 644 637 595Q616 546 595 496L557 498Q558 517 559 528.5Q560 540 560.5 547.5Q561 555 561 559Q561 563 561 566Q561 588 556.5 608Q552 628 540 642Q528 656 507.5 664.5Q487 673 454 673Q416 673 384.5 655.5Q353 638 327 608Q301 578 281 539.5Q261 501 246 459H473L463 417H233Q225 388 220 359Q215 330 213 304H443L433 262H211Q212 162 257 110Q302 58 377 58Q420 58 462.5 78Q505 98 543 143L565 113Q520 43 459 14Q398 -15 325 -15Q262 -15 217.5 8.5Q173 32 145.5 71Q118 110 105.5 160Q93 210 93 262H15L25 304H96Q102 362 120 417H43L53 459Z" glyph-name="Euro" horiz-adv-x="590" unicode="&#8364;" /><glyph d="M109 372Q126 413 151.5 449.5Q177 486 210.5 513Q244 540 285 556Q326 572 375 572Q425 572 457.5 560.5Q490 549 507 541L565 555L495 398L463 397Q464 410 464.5 426Q465 442 465 453Q465 468 461.5 482Q458 496 449 507.5Q440 519 423.5 526Q407 533 381 533Q316 533 275.5 488.5Q235 444 208 372H400L388 333H196Q189 308 185 283Q181 258 180 235H364L353 197H179Q180 159 191 131.5Q202 104 220 86Q238 68 261 59.5Q284 51 311 51Q386 51 448 114L465 85Q429 34 377.5 11Q326 -12 271 -12Q221 -12 184.5 5Q148 22 123.5 51Q99 80 86.5 118Q74 156 74 197H6L17 235H76Q78 261 82.5 285Q87 309 95 333H35L46 372Z" glyph-name="Euro.smcp" horiz-adv-x="485" /><glyph d="M464 360Q489 362 503.5 371Q518 380 533 409L561 464H598L557 326L529 204H492Q493 226 493.5 239Q494 252 494.5 259Q495 266 495 268Q495 270 495 271Q495 293 486.5 300.5Q478 308 455 310Q434 311 404 311.5Q374 312 346 313Q313 314 280 314L216 91Q214 86 213 81Q212 76 212 71Q212 49 248 43L310 33L300 -5L130 0L-26 -5L-15 33L39 43Q67 48 80 58Q93 68 101 91Q111 119 123 158Q134 191 148.5 238.5Q163 286 182 349Q201 411 214.5 459Q228 507 237 540Q248 579 255 607Q258 619 258 627Q258 641 249.5 646.5Q241 652 221 656L171 666L184 705L332 700H612Q634 700 661 701.5Q688 703 713 705Q741 708 771 711Q763 692 752 663Q742 638 727.5 600Q713 562 694 508H654Q655 525 655.5 542.5Q656 560 656 576Q656 613 646.5 632.5Q637 652 611 652H398Q386 652 382.5 648Q379 644 377 636Q356 566 334.5 496.5Q313 427 292 356Q324 356 356 357Q383 358 412.5 358Q442 358 464 360Z" glyph-name="F" horiz-adv-x="674" unicode="F" /><glyph d="M385 289Q406 290 417.5 298.5Q429 307 441 330L464 374H496L464 263L441 166H409L410 203Q411 226 404.5 233.5Q398 241 378 243Q360 244 336.5 245Q313 246 291 246H239L192 79Q187 61 191.5 52.5Q196 44 217 40L270 32L260 -4L114 0L-19 -4L-10 32L34 40Q57 45 67.5 53Q78 61 85 79Q91 99 101 129Q109 154 120.5 191.5Q132 229 147 279Q162 329 172.5 366Q183 403 190 429Q198 459 204 480Q209 500 203 507.5Q197 515 177 519L137 527L149 564L268 560H507Q524 560 546 561Q568 562 588 564Q611 566 634 569Q627 553 618 530Q610 510 598.5 479.5Q587 449 572 406H537L538 438Q540 476 533 496Q526 516 502 516H334Q324 516 322 512Q320 508 318 503L251 287H301Q322 287 345 287.5Q368 288 385 289Z" glyph-name="F.smcp" horiz-adv-x="562" /><glyph d="M430 -15Q355 -15 291.5 8.5Q228 32 182.5 75Q137 118 111 177Q85 236 85 308Q85 390 116.5 464Q148 538 205 593.5Q262 649 342.5 682Q423 715 521 715Q552 715 585.5 711Q619 707 652 700Q685 693 714.5 683Q744 673 768 662L851 675L778 468L733 466Q734 483 734 502Q734 521 734 539Q734 572 716.5 596.5Q699 621 670 637Q641 653 604.5 661Q568 669 529 669Q455 669 393.5 643.5Q332 618 288 572Q244 526 220 463.5Q196 401 196 326Q196 277 212 226.5Q228 176 263.5 134.5Q299 93 356 67Q413 41 494 41Q508 41 523.5 42.5Q539 44 552 45.5Q565 47 574.5 49Q584 51 586 51L628 214Q633 230 628.5 242Q624 254 605 256L511 269L525 312L690 305L845 313L829 270L809 267Q788 264 776 261.5Q764 259 756.5 253.5Q749 248 745 239.5Q741 231 737 216Q719 152 707.5 109Q696 66 691 45Q671 31 640.5 19.5Q610 8 574.5 0.5Q539 -7 501.5 -11Q464 -15 430 -15Z" glyph-name="G" horiz-adv-x="849" unicode="G" /><glyph d="M363 -12Q295 -12 241 9.5Q187 31 149.5 67.5Q112 104 92 151.5Q72 199 72 252Q72 316 96.5 374.5Q121 433 166.5 476.5Q212 520 278 546Q344 572 427 572Q478 572 532 560Q586 548 626 531L693 541L634 367H594V431Q594 450 582 467.5Q570 485 548.5 498.5Q527 512 497.5 520.5Q468 529 434 529Q377 529 330 510Q283 491 249 456Q215 421 196 370Q177 319 177 256Q177 212 192 172.5Q207 133 236.5 103Q266 73 310 55.5Q354 38 413 38Q435 38 448.5 39.5Q462 41 470 46Q478 51 482.5 61Q487 71 491 88L506 153Q509 166 509 176Q509 194 497 198Q485 202 471 204L408 211L419 250L566 244L700 250L685 210L652 206Q631 204 622.5 193Q614 182 609 167Q605 155 600 134Q595 113 590 92.5Q585 72 581 55.5Q577 39 576 35Q557 24 531.5 15Q506 6 477.5 0Q449 -6 419.5 -9Q390 -12 363 -12Z" glyph-name="G.smcp" horiz-adv-x="705" /><glyph d="M526 855Q559 855 579.5 865Q600 875 611.5 890.5Q623 906 628 925.5Q633 945 636 964H677Q673 919 662.5 884Q652 849 633 824.5Q614 800 585.5 787Q557 774 517 774Q458 774 426.5 807.5Q395 841 395 890Q395 924 412 964H449Q446 951 445 940Q444 929 444 917Q444 892 462.5 873.5Q481 855 526 855ZM430 -15Q355 -15 291.5 8.5Q228 32 182.5 75Q137 118 111 177Q85 236 85 308Q85 390 116.5 464Q148 538 205 593.5Q262 649 342.5 682Q423 715 521 715Q552 715 585.5 711Q619 707 652 700Q685 693 714.5 683Q744 673 768 662L851 675L778 468L733 466Q734 483 734 502Q734 521 734 539Q734 572 716.5 596.5Q699 621 670 637Q641 653 604.5 661Q568 669 529 669Q455 669 393.5 643.5Q332 618 288 572Q244 526 220 463.5Q196 401 196 326Q196 277 212 226.5Q228 176 263.5 134.5Q299 93 356 67Q413 41 494 41Q508 41 523.5 42.5Q539 44 552 45.5Q565 47 574.5 49Q584 51 586 51L628 214Q633 230 628.5 242Q624 254 605 256L511 269L525 312L690 305L845 313L829 270L809 267Q788 264 776 261.5Q764 259 756.5 253.5Q749 248 745 239.5Q741 231 737 216Q719 152 707.5 109Q696 66 691 45Q671 31 640.5 19.5Q610 8 574.5 0.5Q539 -7 501.5 -11Q464 -15 430 -15Z" glyph-name="Gbreve" horiz-adv-x="849" unicode="&#286;" /><glyph d="M449 701Q482 701 502 711Q522 721 533.5 736.5Q545 752 550 771.5Q555 791 557 810H597Q595 713 555 666Q515 619 443 619Q415 619 392 627.5Q369 636 352.5 650.5Q336 665 327 684.5Q318 704 318 727Q318 740 320.5 762Q323 784 332 810H370Q367 796 366 784.5Q365 773 365 761Q365 737 385.5 719Q406 701 449 701ZM363 -12Q295 -12 241 9.5Q187 31 149.5 67.5Q112 104 92 151.5Q72 199 72 252Q72 316 96.5 374.5Q121 433 166.5 476.5Q212 520 278 546Q344 572 427 572Q478 572 532 560Q586 548 626 531L693 541L634 367H594V431Q594 450 582 467.5Q570 485 548.5 498.5Q527 512 497.5 520.5Q468 529 434 529Q377 529 330 510Q283 491 249 456Q215 421 196 370Q177 319 177 256Q177 212 192 172.5Q207 133 236.5 103Q266 73 310 55.5Q354 38 413 38Q435 38 448.5 39.5Q462 41 470 46Q478 51 482.5 61Q487 71 491 88L506 153Q509 166 509 176Q509 194 497 198Q485 202 471 204L408 211L419 250L566 244L700 250L685 210L652 206Q631 204 622.5 193Q614 182 609 167Q605 155 600 134Q595 113 590 92.5Q585 72 581 55.5Q577 39 576 35Q557 24 531.5 15Q506 6 477.5 0Q449 -6 419.5 -9Q390 -12 363 -12Z" glyph-name="Gbreve.smcp" horiz-adv-x="705" /><glyph d="M497 969H551L641 788L616 770L513 880H511L349 771L329 788ZM430 -15Q355 -15 291.5 8.5Q228 32 182.5 75Q137 118 111 177Q85 236 85 308Q85 390 116.5 464Q148 538 205 593.5Q262 649 342.5 682Q423 715 521 715Q552 715 585.5 711Q619 707 652 700Q685 693 714.5 683Q744 673 768 662L851 675L778 468L733 466Q734 483 734 502Q734 521 734 539Q734 572 716.5 596.5Q699 621 670 637Q641 653 604.5 661Q568 669 529 669Q455 669 393.5 643.5Q332 618 288 572Q244 526 220 463.5Q196 401 196 326Q196 277 212 226.5Q228 176 263.5 134.5Q299 93 356 67Q413 41 494 41Q508 41 523.5 42.5Q539 44 552 45.5Q565 47 574.5 49Q584 51 586 51L628 214Q633 230 628.5 242Q624 254 605 256L511 269L525 312L690 305L845 313L829 270L809 267Q788 264 776 261.5Q764 259 756.5 253.5Q749 248 745 239.5Q741 231 737 216Q719 152 707.5 109Q696 66 691 45Q671 31 640.5 19.5Q610 8 574.5 0.5Q539 -7 501.5 -11Q464 -15 430 -15Z" glyph-name="Gcircumflex" horiz-adv-x="849" unicode="&#284;" /><glyph d="M431 809H485L571 629L545 610L446 723H444L284 616L263 635ZM363 -12Q295 -12 241 9.5Q187 31 149.5 67.5Q112 104 92 151.5Q72 199 72 252Q72 316 96.5 374.5Q121 433 166.5 476.5Q212 520 278 546Q344 572 427 572Q478 572 532 560Q586 548 626 531L693 541L634 367H594V431Q594 450 582 467.5Q570 485 548.5 498.5Q527 512 497.5 520.5Q468 529 434 529Q377 529 330 510Q283 491 249 456Q215 421 196 370Q177 319 177 256Q177 212 192 172.5Q207 133 236.5 103Q266 73 310 55.5Q354 38 413 38Q435 38 448.5 39.5Q462 41 470 46Q478 51 482.5 61Q487 71 491 88L506 153Q509 166 509 176Q509 194 497 198Q485 202 471 204L408 211L419 250L566 244L700 250L685 210L652 206Q631 204 622.5 193Q614 182 609 167Q605 155 600 134Q595 113 590 92.5Q585 72 581 55.5Q577 39 576 35Q557 24 531.5 15Q506 6 477.5 0Q449 -6 419.5 -9Q390 -12 363 -12Z" glyph-name="Gcircumflex.smcp" horiz-adv-x="705" /><glyph d="M214 -303Q280 -279 308.5 -248Q337 -217 337 -187Q337 -164 316.5 -148.5Q296 -133 267 -125Q267 -113 275 -100.5Q283 -88 294 -77.5Q305 -67 318 -60.5Q331 -54 341 -54Q354 -54 369 -60Q384 -66 397 -77.5Q410 -89 418.5 -106.5Q427 -124 427 -147Q427 -182 409 -211.5Q391 -241 362 -264Q333 -287 297.5 -303.5Q262 -320 227 -329ZM430 -15Q355 -15 291.5 8.5Q228 32 182.5 75Q137 118 111 177Q85 236 85 308Q85 390 116.5 464Q148 538 205 593.5Q262 649 342.5 682Q423 715 521 715Q552 715 585.5 711Q619 707 652 700Q685 693 714.5 683Q744 673 768 662L851 675L778 468L733 466Q734 483 734 502Q734 521 734 539Q734 572 716.5 596.5Q699 621 670 637Q641 653 604.5 661Q568 669 529 669Q455 669 393.5 643.5Q332 618 288 572Q244 526 220 463.5Q196 401 196 326Q196 277 212 226.5Q228 176 263.5 134.5Q299 93 356 67Q413 41 494 41Q508 41 523.5 42.5Q539 44 552 45.5Q565 47 574.5 49Q584 51 586 51L628 214Q633 230 628.5 242Q624 254 605 256L511 269L525 312L690 305L845 313L829 270L809 267Q788 264 776 261.5Q764 259 756.5 253.5Q749 248 745 239.5Q741 231 737 216Q719 152 707.5 109Q696 66 691 45Q671 31 640.5 19.5Q610 8 574.5 0.5Q539 -7 501.5 -11Q464 -15 430 -15Z" glyph-name="Gcommaaccent" horiz-adv-x="849" unicode="&#290;" /><glyph d="M156 -303Q222 -279 250.5 -248Q279 -217 279 -187Q279 -164 260.5 -149.5Q242 -135 213 -126L209 -123Q211 -112 219 -100Q227 -88 237.5 -77.5Q248 -67 260 -60.5Q272 -54 283 -54Q296 -54 311 -60Q326 -66 339 -77.5Q352 -89 360.5 -106.5Q369 -124 369 -147Q369 -182 351 -211.5Q333 -241 304.5 -264Q276 -287 240.5 -303.5Q205 -320 170 -329ZM363 -12Q295 -12 241 9.5Q187 31 149.5 67.5Q112 104 92 151.5Q72 199 72 252Q72 316 96.5 374.5Q121 433 166.5 476.5Q212 520 278 546Q344 572 427 572Q478 572 532 560Q586 548 626 531L693 541L634 367H594V431Q594 450 582 467.5Q570 485 548.5 498.5Q527 512 497.5 520.5Q468 529 434 529Q377 529 330 510Q283 491 249 456Q215 421 196 370Q177 319 177 256Q177 212 192 172.5Q207 133 236.5 103Q266 73 310 55.5Q354 38 413 38Q435 38 448.5 39.5Q462 41 470 46Q478 51 482.5 61Q487 71 491 88L506 153Q509 166 509 176Q509 194 497 198Q485 202 471 204L408 211L419 250L566 244L700 250L685 210L652 206Q631 204 622.5 193Q614 182 609 167Q605 155 600 134Q595 113 590 92.5Q585 72 581 55.5Q577 39 576 35Q557 24 531.5 15Q506 6 477.5 0Q449 -6 419.5 -9Q390 -12 363 -12Z" glyph-name="Gcommaaccent.smcp" horiz-adv-x="705" /><glyph d="M488 859Q488 892 510.5 915Q533 938 566 938Q598 938 621 915Q644 892 644 859Q644 827 621 803.5Q598 780 566 780Q533 780 510.5 803.5Q488 827 488 859ZM430 -15Q355 -15 291.5 8.5Q228 32 182.5 75Q137 118 111 177Q85 236 85 308Q85 390 116.5 464Q148 538 205 593.5Q262 649 342.5 682Q423 715 521 715Q552 715 585.5 711Q619 707 652 700Q685 693 714.5 683Q744 673 768 662L851 675L778 468L733 466Q734 483 734 502Q734 521 734 539Q734 572 716.5 596.5Q699 621 670 637Q641 653 604.5 661Q568 669 529 669Q455 669 393.5 643.5Q332 618 288 572Q244 526 220 463.5Q196 401 196 326Q196 277 212 226.5Q228 176 263.5 134.5Q299 93 356 67Q413 41 494 41Q508 41 523.5 42.5Q539 44 552 45.5Q565 47 574.5 49Q584 51 586 51L628 214Q633 230 628.5 242Q624 254 605 256L511 269L525 312L690 305L845 313L829 270L809 267Q788 264 776 261.5Q764 259 756.5 253.5Q749 248 745 239.5Q741 231 737 216Q719 152 707.5 109Q696 66 691 45Q671 31 640.5 19.5Q610 8 574.5 0.5Q539 -7 501.5 -11Q464 -15 430 -15Z" glyph-name="Gdotaccent" horiz-adv-x="849" unicode="&#288;" /><glyph d="M380 708Q380 741 403 764Q426 787 458 787Q491 787 513.5 764Q536 741 536 708Q536 676 513.5 653Q491 630 458 630Q426 630 403 653Q380 676 380 708ZM363 -12Q295 -12 241 9.5Q187 31 149.5 67.5Q112 104 92 151.5Q72 199 72 252Q72 316 96.5 374.5Q121 433 166.5 476.5Q212 520 278 546Q344 572 427 572Q478 572 532 560Q586 548 626 531L693 541L634 367H594V431Q594 450 582 467.5Q570 485 548.5 498.5Q527 512 497.5 520.5Q468 529 434 529Q377 529 330 510Q283 491 249 456Q215 421 196 370Q177 319 177 256Q177 212 192 172.5Q207 133 236.5 103Q266 73 310 55.5Q354 38 413 38Q435 38 448.5 39.5Q462 41 470 46Q478 51 482.5 61Q487 71 491 88L506 153Q509 166 509 176Q509 194 497 198Q485 202 471 204L408 211L419 250L566 244L700 250L685 210L652 206Q631 204 622.5 193Q614 182 609 167Q605 155 600 134Q595 113 590 92.5Q585 72 581 55.5Q577 39 576 35Q557 24 531.5 15Q506 6 477.5 0Q449 -6 419.5 -9Q390 -12 363 -12Z" glyph-name="Gdotaccent.smcp" horiz-adv-x="705" /><glyph d="M677 381Q694 435 705.5 477Q717 519 725 548Q734 581 740 607Q747 633 740 642Q733 651 709 656L658 666L672 705L823 700L986 705L973 666L918 656Q889 651 875.5 641.5Q862 632 854 607Q845 579 834 540Q824 507 809.5 459Q795 411 776 349Q757 286 743 238.5Q729 191 720 158Q709 119 702 91Q696 68 702.5 58Q709 48 735 43L796 33L783 -5L619 0L459 -5L471 33L526 43Q555 48 568 58Q581 68 589 91Q598 117 609 154Q619 185 632.5 230.5Q646 276 663 335H285Q268 276 255.5 230.5Q243 185 234 154L216 91Q210 68 215.5 58Q221 48 247 43L319 33L307 -5L132 0L-26 -5L-15 33L40 43Q67 48 80.5 58Q94 68 102 91Q111 119 123 158Q134 191 148.5 238.5Q163 286 182 349Q201 411 214.5 459Q228 507 237 540Q248 579 255 607Q262 632 254.5 641.5Q247 651 222 656L161 666L175 705L339 700L500 705L487 666L431 656Q402 651 389 641Q376 631 368 607Q360 581 349 548Q340 519 327.5 477Q315 435 298 381Z" glyph-name="H" horiz-adv-x="896" unicode="H" /><glyph d="M549 311Q562 355 571 386.5Q580 418 586 439Q593 464 597 480Q603 500 597.5 507.5Q592 515 573 519L532 527L544 564L670 560L811 564L799 527L755 519Q732 515 722 507.5Q712 500 704 480Q698 459 688 429Q680 403 668 366Q656 329 642 279Q627 229 616.5 191.5Q606 154 598 129Q589 99 584 79Q579 61 584.5 52.5Q590 44 610 40L659 32L649 -4L510 0L374 -4L384 32L428 40Q451 45 461.5 53Q472 61 478 79Q485 99 494 127Q502 151 512.5 185.5Q523 220 537 268H246Q232 220 222 185.5Q212 151 205 127Q197 99 192 79Q187 61 192 52Q197 43 217 40L275 32L263 -4L117 0L-19 -4L-8 32L36 40Q57 45 67.5 53Q78 61 85 79Q91 100 101 129Q109 154 120.5 191Q132 228 147 279Q162 329 172.5 366Q183 403 191 429Q199 459 205 480Q210 498 204 507Q198 516 178 519L130 527L142 564L283 560L418 564L406 527L362 519Q338 514 328 507Q318 500 311 480Q306 464 298 439Q291 418 281 386.5Q271 355 258 311Z" glyph-name="H.smcp" horiz-adv-x="743" /><glyph d="M677 381Q687 413 694.5 441Q702 469 709 492H332L298 381ZM894 492H819L776 349Q757 286 743 238.5Q729 191 720 158Q709 119 702 91Q696 68 702.5 58Q709 48 735 43L796 33L783 -5L619 0L459 -5L471 33L526 43Q555 48 568 58Q581 68 589 91Q598 117 609 154Q619 185 632.5 230.5Q646 276 663 335H285Q268 276 255.5 230.5Q243 185 234 154L216 91Q210 68 215.5 58Q221 48 247 43L319 33L307 -5L132 0L-26 -5L-15 33L40 43Q67 48 80.5 58Q94 68 102 91Q111 119 123 158Q134 191 148.5 238.5Q163 286 182 349Q195 391 205.5 427Q216 463 224 492H142L158 538H237Q242 555 245 567.5Q248 580 250 589Q253 600 255 607Q262 632 254.5 641.5Q247 651 222 656L161 666L175 705L339 700L500 705L487 666L431 656Q402 651 389 641Q376 631 368 607L362 589Q359 580 355 567Q351 554 346 538H722Q727 555 730 567.5Q733 580 735 589Q738 600 740 607Q747 633 740 642Q733 651 709 656L658 666L672 705L823 700L986 705L973 666L918 656Q889 651 875.5 641.5Q862 632 854 607L848 589Q845 580 841.5 567Q838 554 833 538H909Z" glyph-name="Hbar" horiz-adv-x="896" unicode="&#294;" /><glyph d="M549 311Q556 333 561 351.5Q566 370 571 387H281L258 311ZM119 387 132 430H191Q194 442 196.5 451.5Q199 461 201 467Q203 474 205 480Q210 498 204 507Q198 516 178 519L130 527L142 564L283 560L418 564L406 527L362 519Q338 514 328 507Q318 500 311 480Q309 474 306 467Q304 460 301 451Q298 442 294 430H583Q587 443 589.5 452.5Q592 462 594 468L597 480Q603 500 597.5 507.5Q592 515 573 519L532 527L544 564L670 560L811 564L799 527L755 519Q732 515 722 507.5Q712 500 704 480Q702 475 699 467Q697 460 694 450.5Q691 441 687 430H747L734 387H674L642 279Q627 229 616.5 191.5Q606 154 598 129Q589 99 584 79Q579 61 584.5 52.5Q590 44 610 40L659 32L649 -4L510 0L374 -4L384 32L428 40Q451 45 461.5 53Q472 61 478 79Q485 99 494 127Q502 151 512.5 185.5Q523 220 537 268H246Q232 220 222 185.5Q212 151 205 127Q197 99 192 79Q187 61 192 52Q197 43 217 40L275 32L263 -4L117 0L-19 -4L-8 32L36 40Q57 45 67.5 53Q78 61 85 79Q91 100 101 129Q109 154 120.5 191Q132 228 147 279L179 387Z" glyph-name="Hbar.smcp" horiz-adv-x="744" /><glyph d="M596 969H650L740 788L715 770L612 880H610L448 771L428 788ZM677 381Q694 435 705.5 477Q717 519 725 548Q734 581 740 607Q747 633 740 642Q733 651 709 656L658 666L672 705L823 700L986 705L973 666L918 656Q889 651 875.5 641.5Q862 632 854 607Q845 579 834 540Q824 507 809.5 459Q795 411 776 349Q757 286 743 238.5Q729 191 720 158Q709 119 702 91Q696 68 702.5 58Q709 48 735 43L796 33L783 -5L619 0L459 -5L471 33L526 43Q555 48 568 58Q581 68 589 91Q598 117 609 154Q619 185 632.5 230.5Q646 276 663 335H285Q268 276 255.5 230.5Q243 185 234 154L216 91Q210 68 215.5 58Q221 48 247 43L319 33L307 -5L132 0L-26 -5L-15 33L40 43Q67 48 80.5 58Q94 68 102 91Q111 119 123 158Q134 191 148.5 238.5Q163 286 182 349Q201 411 214.5 459Q228 507 237 540Q248 579 255 607Q262 632 254.5 641.5Q247 651 222 656L161 666L175 705L339 700L500 705L487 666L431 656Q402 651 389 641Q376 631 368 607Q360 581 349 548Q340 519 327.5 477Q315 435 298 381Z" glyph-name="Hcircumflex" horiz-adv-x="896" unicode="&#292;" /><glyph d="M490 809H544L630 629L604 610L505 723H503L343 616L322 635ZM550 311Q563 355 572 386.5Q581 418 587 439Q594 464 598 480Q604 500 598.5 507.5Q593 515 574 519L533 527L545 564L671 560L812 564L800 527L756 519Q733 515 723 507.5Q713 500 705 480Q699 459 689 429Q681 403 669 366Q657 329 643 279Q628 229 617.5 191.5Q607 154 599 129Q590 99 585 79Q580 61 585.5 52.5Q591 44 611 40L660 32L650 -4L511 0L375 -4L385 32L429 40Q452 45 462.5 53Q473 61 479 79Q486 99 495 127Q503 151 513.5 185.5Q524 220 538 268H247Q233 220 223 185.5Q213 151 206 127Q198 99 193 79Q188 61 193 52Q198 43 218 40L276 32L264 -4L118 0L-18 -4L-7 32L37 40Q58 45 68.5 53Q79 61 86 79Q92 100 102 129Q110 154 121.5 191Q133 228 148 279Q163 329 173.5 366Q184 403 192 429Q200 459 206 480Q211 498 205 507Q199 516 179 519L131 527L143 564L284 560L419 564L407 527L363 519Q339 514 329 507Q319 500 312 480Q307 464 299 439Q292 418 282 386.5Q272 355 259 311Z" glyph-name="Hcircumflex.smcp" horiz-adv-x="744" /><glyph d="M-26 -5 -15 33 39 43Q67 48 80.5 58Q94 68 102 91Q111 119 123 158Q134 191 148.5 238.5Q163 286 182 349Q200 411 214 459Q228 507 237 540Q248 579 255 607Q261 633 254 642.5Q247 652 222 656L161 666L175 705L334 700L500 705L487 666L431 656Q402 651 389.5 641.5Q377 632 368 607Q359 579 347 540Q336 507 321.5 459Q307 411 289 349Q270 286 256.5 238.5Q243 191 234 158Q223 119 216 91Q210 68 216 57.5Q222 47 248 43L309 33L297 -5L132 0Z" glyph-name="I" horiz-adv-x="408" unicode="I" /><glyph d="M-19 -4 -8 32 35 40Q57 45 67.5 52.5Q78 60 85 79Q91 99 101 129Q109 154 120.5 191.5Q132 229 147 279Q162 329 172.5 366Q183 403 191 429Q199 459 205 480Q210 500 204 508Q198 516 178 519L130 527L142 564L282 560L417 564L405 527L361 519Q337 514 327.5 507Q318 500 310 480Q304 459 294 429Q286 403 274 366Q262 329 248 279Q233 229 222.5 191.5Q212 154 205 129Q197 99 192 79Q187 61 192.5 52Q198 43 218 40L268 32L256 -4L117 0Z" glyph-name="I.smcp" horiz-adv-x="350" /><glyph d="M1096 378 1082 332H967Q952 283 937.5 234Q923 185 910 139Q897 93 884.5 53Q872 13 860 -18Q845 -57 826 -92Q807 -127 780 -153.5Q753 -180 715.5 -195.5Q678 -211 627 -211Q597 -211 570 -202Q543 -193 523 -177Q503 -161 491.5 -140Q480 -119 480 -96Q480 -71 496.5 -52.5Q513 -34 540 -34Q562 -34 578 -49Q594 -64 594 -88Q594 -110 579.5 -124.5Q565 -139 539 -141Q541 -147 548 -153.5Q555 -160 564.5 -164.5Q574 -169 585 -172Q596 -175 606 -175Q645 -175 669 -155.5Q693 -136 707 -110Q725 -76 742.5 -27Q760 22 779 80.5Q798 139 818.5 203Q839 267 863 332H724L740 378H879Q890 412 905.5 444Q921 476 938.5 503Q956 530 973.5 551.5Q991 573 1007 585L1006 593Q995 589 980.5 585.5Q966 582 949.5 579.5Q933 577 917 575.5Q901 574 889 574Q857 574 822.5 580.5Q788 587 755 595Q722 603 692 609.5Q662 616 640 616Q622 616 605 609Q588 602 575 591Q562 580 553.5 565.5Q545 551 544 535Q561 552 586 552Q606 552 621 538.5Q636 525 636 507Q636 482 619.5 468Q603 454 584 454Q550 454 530 481Q510 508 510 547Q510 575 520 605.5Q530 636 551.5 661.5Q573 687 607 703.5Q641 720 690 720Q735 720 774 707.5Q813 695 850.5 678.5Q888 662 926 647Q964 632 1006 626Q1006 684 1027 706.5Q1048 729 1077 729Q1100 729 1116.5 713Q1133 697 1133 675Q1133 649 1114.5 630.5Q1096 612 1065 603Q1047 577 1036 555.5Q1025 534 1016.5 509Q1008 484 999.5 453Q991 422 979 378ZM-26 -5 -15 33 39 43Q67 48 80.5 58Q94 68 102 91Q111 119 123 158Q134 191 148.5 238.5Q163 286 182 349Q200 411 214 459Q228 507 237 540Q248 579 255 607Q261 633 254 642.5Q247 652 222 656L161 666L175 705L334 700L500 705L487 666L431 656Q402 651 389.5 641.5Q377 632 368 607Q359 579 347 540Q336 507 321.5 459Q307 411 289 349Q270 286 256.5 238.5Q243 191 234 158Q223 119 216 91Q210 68 216 57.5Q222 47 248 43L309 33L297 -5L132 0Z" glyph-name="IJ" horiz-adv-x="1089" unicode="&#306;" /><glyph d="M915 301 903 258H810Q783 168 764.5 93.5Q746 19 721 -39Q694 -102 651 -139Q608 -176 541 -176Q505 -176 479.5 -165.5Q454 -155 438 -139Q422 -123 414.5 -104.5Q407 -86 407 -70Q407 -43 424 -28.5Q441 -14 461 -14Q481 -14 495 -26.5Q509 -39 509 -60Q509 -77 496.5 -93Q484 -109 458 -110Q463 -119 479 -128Q495 -137 515 -137Q543 -137 562.5 -126Q582 -115 596 -94Q610 -73 620 -42.5Q630 -12 641 26Q657 85 670 128.5Q683 172 693 201Q704 234 713 258H603L616 301H728Q748 355 779 394.5Q810 434 835 454L832 459Q816 453 789 449Q762 445 743 445Q712 445 682 452Q652 459 625 467Q598 475 574.5 482Q551 489 532 489Q517 489 503.5 484Q490 479 479 470Q468 461 461.5 449Q455 437 454 423Q461 431 471 436.5Q481 442 494 442Q516 442 530 427.5Q544 413 544 393Q544 371 528 356.5Q512 342 490 342Q462 342 442 366.5Q422 391 422 430Q422 454 431 480.5Q440 507 459 528.5Q478 550 507.5 564Q537 578 577 578Q615 578 647.5 566Q680 554 710.5 539Q741 524 771.5 509.5Q802 495 836 490Q837 529 853 550Q869 571 895 571Q916 571 929.5 558Q943 545 943 525Q943 505 928 489.5Q913 474 887 469Q876 454 868 439Q860 424 852.5 405Q845 386 837.5 360.5Q830 335 820 301ZM-18 -4 -7 32 36 40Q58 45 68.5 52.5Q79 60 86 79Q92 99 102 129Q110 154 121.5 191.5Q133 229 148 279Q163 329 173.5 366Q184 403 192 429Q200 459 206 480Q211 500 205 508Q199 516 179 519L131 527L143 564L283 560L418 564L406 527L362 519Q338 514 328.5 507Q319 500 311 480Q305 459 295 429Q287 403 275 366Q263 329 249 279Q234 229 223.5 191.5Q213 154 206 129Q198 99 193 79Q188 61 193.5 52Q199 43 219 40L269 32L257 -4L118 0Z" glyph-name="IJ.smcp" horiz-adv-x="916" /><glyph d="M415 961H549L340 772L299 778ZM-26 -5 -15 33 39 43Q67 48 80.5 58Q94 68 102 91Q111 119 123 158Q134 191 148.5 238.5Q163 286 182 349Q200 411 214 459Q228 507 237 540Q248 579 255 607Q261 633 254 642.5Q247 652 222 656L161 666L175 705L334 700L500 705L487 666L431 656Q402 651 389.5 641.5Q377 632 368 607Q359 579 347 540Q336 507 321.5 459Q307 411 289 349Q270 286 256.5 238.5Q243 191 234 158Q223 119 216 91Q210 68 216 57.5Q222 47 248 43L309 33L297 -5L132 0Z" glyph-name="Iacute" horiz-adv-x="408" unicode="&#205;" /><glyph d="M362 805H496L287 616L246 622ZM-19 -4 -8 32 35 40Q57 45 67.5 52.5Q78 60 85 79Q91 99 101 129Q109 154 120.5 191.5Q132 229 147 279Q162 329 172.5 366Q183 403 191 429Q199 459 205 480Q210 500 204 508Q198 516 178 519L130 527L142 564L282 560L417 564L405 527L361 519Q337 514 327.5 507Q318 500 310 480Q304 459 294 429Q286 403 274 366Q262 329 248 279Q233 229 222.5 191.5Q212 154 205 129Q197 99 192 79Q187 61 192.5 52Q198 43 218 40L268 32L256 -4L117 0Z" glyph-name="Iacute.smcp" horiz-adv-x="350" /><glyph d="M367 857Q400 857 420.5 867Q441 877 452.5 892.5Q464 908 469 927.5Q474 947 477 966H518Q514 921 503.5 886Q493 851 474 826.5Q455 802 426.5 789Q398 776 358 776Q299 776 267.5 809.5Q236 843 236 892Q236 926 253 966H290Q287 953 286 942Q285 931 285 919Q285 894 303.5 875.5Q322 857 367 857ZM-26 -5 -15 33 39 43Q67 48 80.5 58Q94 68 102 91Q111 119 123 158Q134 191 148.5 238.5Q163 286 182 349Q200 411 214 459Q228 507 237 540Q248 579 255 607Q261 633 254 642.5Q247 652 222 656L161 666L175 705L334 700L500 705L487 666L431 656Q402 651 389.5 641.5Q377 632 368 607Q359 579 347 540Q336 507 321.5 459Q307 411 289 349Q270 286 256.5 238.5Q243 191 234 158Q223 119 216 91Q210 68 216 57.5Q222 47 248 43L309 33L297 -5L132 0Z" glyph-name="Ibreve" horiz-adv-x="408" unicode="&#300;" /><glyph d="M303 708Q336 708 356 718Q376 728 387.5 743.5Q399 759 404 778.5Q409 798 411 817H451Q449 720 409 673Q369 626 297 626Q269 626 246 634.5Q223 643 206.5 657.5Q190 672 181 691.5Q172 711 172 734Q172 747 174.5 769Q177 791 186 817H224Q221 803 220 791.5Q219 780 219 768Q219 744 239.5 726Q260 708 303 708ZM-19 -4 -8 32 35 40Q57 45 67.5 52.5Q78 60 85 79Q91 99 101 129Q109 154 120.5 191.5Q132 229 147 279Q162 329 172.5 366Q183 403 191 429Q199 459 205 480Q210 500 204 508Q198 516 178 519L130 527L142 564L282 560L417 564L405 527L361 519Q337 514 327.5 507Q318 500 310 480Q304 459 294 429Q286 403 274 366Q262 329 248 279Q233 229 222.5 191.5Q212 154 205 129Q197 99 192 79Q187 61 192.5 52Q198 43 218 40L268 32L256 -4L117 0Z" glyph-name="Ibreve.smcp" horiz-adv-x="350" /><glyph d="M373 967H427L517 786L492 768L389 878H387L225 769L205 786ZM-26 -5 -15 33 39 43Q67 48 80.5 58Q94 68 102 91Q111 119 123 158Q134 191 148.5 238.5Q163 286 182 349Q200 411 214 459Q228 507 237 540Q248 579 255 607Q261 633 254 642.5Q247 652 222 656L161 666L175 705L334 700L500 705L487 666L431 656Q402 651 389.5 641.5Q377 632 368 607Q359 579 347 540Q336 507 321.5 459Q307 411 289 349Q270 286 256.5 238.5Q243 191 234 158Q223 119 216 91Q210 68 216 57.5Q222 47 248 43L309 33L297 -5L132 0Z" glyph-name="Icircumflex" horiz-adv-x="408" unicode="&#206;" /><glyph d="M319 806H373L459 626L433 607L334 720H332L172 613L151 632ZM-19 -4 -8 32 35 40Q57 45 67.5 52.5Q78 60 85 79Q91 99 101 129Q109 154 120.5 191.5Q132 229 147 279Q162 329 172.5 366Q183 403 191 429Q199 459 205 480Q210 500 204 508Q198 516 178 519L130 527L142 564L282 560L417 564L405 527L361 519Q337 514 327.5 507Q318 500 310 480Q304 459 294 429Q286 403 274 366Q262 329 248 279Q233 229 222.5 191.5Q212 154 205 129Q197 99 192 79Q187 61 192.5 52Q198 43 218 40L268 32L256 -4L117 0Z" glyph-name="Icircumflex.smcp" horiz-adv-x="350" /><glyph d="M391 862Q391 892 412 913Q433 934 463 934Q493 934 514 913Q535 892 535 862Q535 832 514 811.5Q493 791 463 791Q433 791 412 811.5Q391 832 391 862ZM200 862Q200 892 221 913Q242 934 272 934Q302 934 323 913Q344 892 344 862Q344 832 323 811.5Q302 791 272 791Q242 791 221 811.5Q200 832 200 862ZM-26 -5 -15 33 39 43Q67 48 80.5 58Q94 68 102 91Q111 119 123 158Q134 191 148.5 238.5Q163 286 182 349Q200 411 214 459Q228 507 237 540Q248 579 255 607Q261 633 254 642.5Q247 652 222 656L161 666L175 705L334 700L500 705L487 666L431 656Q402 651 389.5 641.5Q377 632 368 607Q359 579 347 540Q336 507 321.5 459Q307 411 289 349Q270 286 256.5 238.5Q243 191 234 158Q223 119 216 91Q210 68 216 57.5Q222 47 248 43L309 33L297 -5L132 0Z" glyph-name="Idieresis" horiz-adv-x="408" unicode="&#207;" /><glyph d="M335 698Q335 728 356 749Q377 770 407 770Q437 770 458 749Q479 728 479 698Q479 668 458 647Q437 626 407 626Q377 626 356 647Q335 668 335 698ZM144 698Q144 728 165 749Q186 770 216 770Q247 770 267.5 749Q288 728 288 698Q288 668 267.5 647Q247 626 216 626Q186 626 165 647Q144 668 144 698ZM-19 -4 -8 32 35 40Q57 45 67.5 52.5Q78 60 85 79Q91 99 101 129Q109 154 120.5 191.5Q132 229 147 279Q162 329 172.5 366Q183 403 191 429Q199 459 205 480Q210 500 204 508Q198 516 178 519L130 527L142 564L282 560L417 564L405 527L361 519Q337 514 327.5 507Q318 500 310 480Q304 459 294 429Q286 403 274 366Q262 329 248 279Q233 229 222.5 191.5Q212 154 205 129Q197 99 192 79Q187 61 192.5 52Q198 43 218 40L268 32L256 -4L117 0Z" glyph-name="Idieresis.smcp" horiz-adv-x="350" /><glyph d="M293 855Q293 888 315.5 911Q338 934 371 934Q403 934 426 911Q449 888 449 855Q449 823 426 799.5Q403 776 371 776Q338 776 315.5 799.5Q293 823 293 855ZM-26 -5 -15 33 39 43Q67 48 80.5 58Q94 68 102 91Q111 119 123 158Q134 191 148.5 238.5Q163 286 182 349Q200 411 214 459Q228 507 237 540Q248 579 255 607Q261 633 254 642.5Q247 652 222 656L161 666L175 705L334 700L500 705L487 666L431 656Q402 651 389.5 641.5Q377 632 368 607Q359 579 347 540Q336 507 321.5 459Q307 411 289 349Q270 286 256.5 238.5Q243 191 234 158Q223 119 216 91Q210 68 216 57.5Q222 47 248 43L309 33L297 -5L132 0Z" glyph-name="Idotaccent" horiz-adv-x="408" unicode="&#304;" /><glyph d="M227 702Q227 735 250 758Q273 781 305 781Q338 781 360.5 758Q383 735 383 702Q383 670 360.5 647Q338 624 305 624Q273 624 250 647Q227 670 227 702ZM-19 -4 -8 32 35 40Q57 45 67.5 52.5Q78 60 85 79Q91 99 101 129Q109 154 120.5 191.5Q132 229 147 279Q162 329 172.5 366Q183 403 191 429Q199 459 205 480Q210 500 204 508Q198 516 178 519L130 527L142 564L282 560L417 564L405 527L361 519Q337 514 327.5 507Q318 500 310 480Q304 459 294 429Q286 403 274 366Q262 329 248 279Q233 229 222.5 191.5Q212 154 205 129Q197 99 192 79Q187 61 192.5 52Q198 43 218 40L268 32L256 -4L117 0Z" glyph-name="Idotaccent.smcp" horiz-adv-x="350" /><glyph d="M394 778 353 772 179 961H313ZM-26 -5 -15 33 39 43Q67 48 80.5 58Q94 68 102 91Q111 119 123 158Q134 191 148.5 238.5Q163 286 182 349Q200 411 214 459Q228 507 237 540Q248 579 255 607Q261 633 254 642.5Q247 652 222 656L161 666L175 705L334 700L500 705L487 666L431 656Q402 651 389.5 641.5Q377 632 368 607Q359 579 347 540Q336 507 321.5 459Q307 411 289 349Q270 286 256.5 238.5Q243 191 234 158Q223 119 216 91Q210 68 216 57.5Q222 47 248 43L309 33L297 -5L132 0Z" glyph-name="Igrave" horiz-adv-x="408" unicode="&#204;" /><glyph d="M346 620 305 614 131 803H265ZM-19 -4 -8 32 35 40Q57 45 67.5 52.5Q78 60 85 79Q91 99 101 129Q109 154 120.5 191.5Q132 229 147 279Q162 329 172.5 366Q183 403 191 429Q199 459 205 480Q210 500 204 508Q198 516 178 519L130 527L142 564L282 560L417 564L405 527L361 519Q337 514 327.5 507Q318 500 310 480Q304 459 294 429Q286 403 274 366Q262 329 248 279Q233 229 222.5 191.5Q212 154 205 129Q197 99 192 79Q187 61 192.5 52Q198 43 218 40L268 32L256 -4L117 0Z" glyph-name="Igrave.smcp" horiz-adv-x="350" /><glyph d="M208 803 225 862H509L492 803ZM-26 -5 -15 33 39 43Q67 48 80.5 58Q94 68 102 91Q111 119 123 158Q134 191 148.5 238.5Q163 286 182 349Q200 411 214 459Q228 507 237 540Q248 579 255 607Q261 633 254 642.5Q247 652 222 656L161 666L175 705L334 700L500 705L487 666L431 656Q402 651 389.5 641.5Q377 632 368 607Q359 579 347 540Q336 507 321.5 459Q307 411 289 349Q270 286 256.5 238.5Q243 191 234 158Q223 119 216 91Q210 68 216 57.5Q222 47 248 43L309 33L297 -5L132 0Z" glyph-name="Imacron" horiz-adv-x="408" /><glyph d="M155 637 173 700H457L439 637ZM-19 -4 -8 32 35 40Q57 45 67.5 52.5Q78 60 85 79Q91 99 101 129Q109 154 120.5 191.5Q132 229 147 279Q162 329 172.5 366Q183 403 191 429Q199 459 205 480Q210 500 204 508Q198 516 178 519L130 527L142 564L282 560L417 564L405 527L361 519Q337 514 327.5 507Q318 500 310 480Q304 459 294 429Q286 403 274 366Q262 329 248 279Q233 229 222.5 191.5Q212 154 205 129Q197 99 192 79Q187 61 192.5 52Q198 43 218 40L268 32L256 -4L117 0Z" glyph-name="Imacron.smcp" horiz-adv-x="350" /><glyph d="M-26 -5 -15 33 39 43Q67 48 80.5 58Q94 68 102 91Q111 119 123 158Q134 191 148.5 238.5Q163 286 182 349Q200 411 214 459Q228 507 237 540Q248 579 255 607Q261 633 254 642.5Q247 652 222 656L161 666L175 705L334 700L500 705L487 666L431 656Q402 651 389.5 641.5Q377 632 368 607Q359 579 347 540Q336 507 321.5 459Q307 411 289 349Q270 286 256.5 238.5Q243 191 234 158Q223 119 216 91Q210 68 216 57.5Q222 47 248 43L309 33L297 -5L194 -2Q177 -17 156.5 -37.5Q136 -58 119 -81Q102 -104 90.5 -128Q79 -152 79 -175Q79 -190 86.5 -199Q94 -208 106 -213.5Q118 -219 133.5 -220.5Q149 -222 164 -222Q172 -222 181 -221.5Q190 -221 198 -219L173 -253Q156 -259 134 -263Q112 -267 90 -267Q69 -267 50 -262.5Q31 -258 16.5 -248.5Q2 -239 -7 -223Q-16 -207 -16 -184Q-16 -156 -2.5 -129Q11 -102 34 -78.5Q57 -55 87 -35Q117 -15 149 0H132Z" glyph-name="Iogonek" horiz-adv-x="408" unicode="&#302;" /><glyph d="M-19 -4 -8 32 35 40Q57 45 67.5 52.5Q78 60 85 79Q91 99 101 129Q109 154 120.5 191.5Q132 229 147 279Q162 329 172.5 366Q183 403 191 429Q199 459 205 480Q210 500 204 508Q198 516 178 519L130 527L142 564L282 560L417 564L405 527L361 519Q337 514 327.5 507Q318 500 310 480Q304 459 294 429Q286 403 274 366Q262 329 248 279Q233 229 222.5 191.5Q212 154 205 129Q197 99 192 79Q187 61 192.5 52Q198 43 218 40L268 32L256 -4L162 -1Q144 -16 124 -36.5Q104 -57 86.5 -80Q69 -103 57.5 -127.5Q46 -152 46 -175Q46 -190 53.5 -199Q61 -208 73 -213.5Q85 -219 100.5 -220.5Q116 -222 131 -222Q139 -222 148 -221.5Q157 -221 165 -219L140 -253Q123 -259 101 -263Q79 -267 57 -267Q36 -267 17 -262.5Q-2 -258 -16.5 -248.5Q-31 -239 -40 -223Q-49 -207 -49 -184Q-49 -155 -35 -128.5Q-21 -102 2 -78.5Q25 -55 55 -35Q85 -15 117 0Z" glyph-name="Iogonek.smcp" horiz-adv-x="350" /><glyph d="M436 876Q455 876 468 882.5Q481 889 499 916L518 905Q511 887 501.5 869Q492 851 478.5 836Q465 821 448 812Q431 803 409 803Q391 803 374 808.5Q357 814 341 821Q325 828 311 833.5Q297 839 286 839Q269 839 251.5 832.5Q234 826 217 800L197 811Q204 829 214.5 847.5Q225 866 238.5 881Q252 896 269.5 905Q287 914 308 914Q324 914 342 908Q360 902 376.5 895Q393 888 408.5 882Q424 876 436 876ZM-26 -5 -15 33 39 43Q67 48 80.5 58Q94 68 102 91Q111 119 123 158Q134 191 148.5 238.5Q163 286 182 349Q200 411 214 459Q228 507 237 540Q248 579 255 607Q261 633 254 642.5Q247 652 222 656L161 666L175 705L334 700L500 705L487 666L431 656Q402 651 389.5 641.5Q377 632 368 607Q359 579 347 540Q336 507 321.5 459Q307 411 289 349Q270 286 256.5 238.5Q243 191 234 158Q223 119 216 91Q210 68 216 57.5Q222 47 248 43L309 33L297 -5L132 0Z" glyph-name="Itilde" horiz-adv-x="408" unicode="&#296;" /><glyph d="M382 710Q402 710 415 716.5Q428 723 445 750L465 739Q457 721 448 703Q439 685 426 670Q413 655 395.5 646Q378 637 355 637Q337 637 320 643Q303 649 287 655.5Q271 662 256.5 668Q242 674 230 674Q213 674 195.5 667Q178 660 161 634L141 645Q148 664 158.5 683Q169 702 182.5 716Q196 730 213.5 739Q231 748 252 748Q268 748 285.5 742Q303 736 319.5 729Q336 722 352 716Q368 710 382 710ZM-19 -4 -8 32 35 40Q57 45 67.5 52.5Q78 60 85 79Q91 99 101 129Q109 154 120.5 191.5Q132 229 147 279Q162 329 172.5 366Q183 403 191 429Q199 459 205 480Q210 500 204 508Q198 516 178 519L130 527L142 564L282 560L417 564L405 527L361 519Q337 514 327.5 507Q318 500 310 480Q304 459 294 429Q286 403 274 366Q262 329 248 279Q233 229 222.5 191.5Q212 154 205 129Q197 99 192 79Q187 61 192.5 52Q198 43 218 40L268 32L256 -4L117 0Z" glyph-name="Itilde.smcp" horiz-adv-x="350" /><glyph d="M688 378 674 332H559Q544 283 529.5 234Q515 185 502 139Q489 93 476.5 53Q464 13 452 -18Q437 -57 418 -92Q399 -127 372 -153.5Q345 -180 307.5 -195.5Q270 -211 219 -211Q189 -211 162 -202Q135 -193 115 -177Q95 -161 83.5 -140Q72 -119 72 -96Q72 -71 88.5 -52.5Q105 -34 132 -34Q154 -34 170 -49Q186 -64 186 -88Q186 -110 171.5 -124.5Q157 -139 131 -141Q133 -147 140 -153.5Q147 -160 156.5 -164.5Q166 -169 177 -172Q188 -175 198 -175Q237 -175 261 -155.5Q285 -136 299 -110Q317 -76 334.5 -27Q352 22 371 80.5Q390 139 410.5 203Q431 267 455 332H316L332 378H471Q482 412 497.5 444Q513 476 530.5 503Q548 530 565.5 551.5Q583 573 599 585L598 593Q587 589 572.5 585.5Q558 582 541.5 579.5Q525 577 509 575.5Q493 574 481 574Q449 574 414.5 580.5Q380 587 347 595Q314 603 284 609.5Q254 616 232 616Q214 616 197 609Q180 602 167 591Q154 580 145.5 565.5Q137 551 136 535Q153 552 178 552Q198 552 213 538.5Q228 525 228 507Q228 482 211.5 468Q195 454 176 454Q142 454 122 481Q102 508 102 547Q102 575 112 605.5Q122 636 143.5 661.5Q165 687 199 703.5Q233 720 282 720Q327 720 366 707.5Q405 695 442.5 678.5Q480 662 518 647Q556 632 598 626Q598 684 619 706.5Q640 729 669 729Q692 729 708.5 713Q725 697 725 675Q725 649 706.5 630.5Q688 612 657 603Q639 577 628 555.5Q617 534 608.5 509Q600 484 591.5 453Q583 422 571 378Z" glyph-name="J" horiz-adv-x="681" unicode="J" /><glyph d="M178 -16Q154 -104 108.5 -145.5Q63 -187 0 -187Q-45 -187 -75.5 -167.5Q-106 -148 -119 -117L-94 -92Q-84 -109 -66 -119.5Q-48 -130 -29 -130Q-4 -130 13 -118.5Q30 -107 41 -89.5Q52 -72 59 -51.5Q66 -31 71 -12L241 607Q246 626 239.5 638.5Q233 651 209 656L164 666L173 705L319 700L465 705L456 666L403 656Q376 651 365.5 641Q355 631 348 607Z" glyph-name="J.alt" horiz-adv-x="379" /><glyph d="M198 480Q203 500 197 508Q191 516 171 519L123 527L135 564L275 560L410 564L398 527L354 519Q330 514 320 507Q310 500 303 480Q291 444 273.5 385.5Q256 327 236 259Q216 191 195 120Q174 49 155 -14Q133 -88 92.5 -121Q52 -154 1 -154Q-39 -154 -66.5 -135.5Q-94 -117 -106 -91L-79 -67Q-71 -81 -57.5 -89.5Q-44 -98 -27 -98Q-8 -98 5.5 -90Q19 -82 28.5 -69Q38 -56 44.5 -40Q51 -24 56 -8Q65 22 78.5 67Q92 112 107 163Q122 214 137 266Q152 318 164.5 362Q177 406 186 438Q195 470 198 480Z" glyph-name="J.alt.smcp" horiz-adv-x="323" /><glyph d="M577 301 565 258H472Q445 168 426.5 93.5Q408 19 383 -39Q356 -102 313 -139Q270 -176 203 -176Q167 -176 141.5 -165.5Q116 -155 100 -139Q84 -123 76.5 -104.5Q69 -86 69 -70Q69 -43 86 -28.5Q103 -14 123 -14Q143 -14 157 -26.5Q171 -39 171 -60Q171 -77 158.5 -93Q146 -109 120 -110Q125 -119 141 -128Q157 -137 177 -137Q205 -137 224.5 -126Q244 -115 258 -94Q272 -73 282 -42.5Q292 -12 303 26Q319 85 332 128.5Q345 172 355 201Q366 234 375 258H265L278 301H390Q410 355 441 394.5Q472 434 497 454L494 459Q478 453 451 449Q424 445 405 445Q374 445 344 452Q314 459 287 467Q260 475 236.5 482Q213 489 194 489Q179 489 165.5 484Q152 479 141 470Q130 461 123.5 449Q117 437 116 423Q123 431 133 436.5Q143 442 156 442Q178 442 192 427.5Q206 413 206 393Q206 371 190 356.5Q174 342 152 342Q124 342 104 366.5Q84 391 84 430Q84 454 93 480.5Q102 507 121 528.5Q140 550 169.5 564Q199 578 239 578Q277 578 309.5 566Q342 554 372.5 539Q403 524 433.5 509.5Q464 495 498 490Q499 529 515 550Q531 571 557 571Q578 571 591.5 558Q605 545 605 525Q605 505 590 489.5Q575 474 549 469Q538 454 530 439Q522 424 514.5 405Q507 386 499.5 360.5Q492 335 482 301Z" glyph-name="J.smcp" horiz-adv-x="578" /><glyph d="M445 967H499L589 786L564 768L461 878H459L297 769L277 786ZM688 378 674 332H559Q544 283 529.5 234Q515 185 502 139Q489 93 476.5 53Q464 13 452 -18Q437 -57 418 -92Q399 -127 372 -153.5Q345 -180 307.5 -195.5Q270 -211 219 -211Q189 -211 162 -202Q135 -193 115 -177Q95 -161 83.5 -140Q72 -119 72 -96Q72 -71 88.5 -52.5Q105 -34 132 -34Q154 -34 170 -49Q186 -64 186 -88Q186 -110 171.5 -124.5Q157 -139 131 -141Q133 -147 140 -153.5Q147 -160 156.5 -164.5Q166 -169 177 -172Q188 -175 198 -175Q237 -175 261 -155.5Q285 -136 299 -110Q317 -76 334.5 -27Q352 22 371 80.5Q390 139 410.5 203Q431 267 455 332H316L332 378H471Q482 412 497.5 444Q513 476 530.5 503Q548 530 565.5 551.5Q583 573 599 585L598 593Q587 589 572.5 585.5Q558 582 541.5 579.5Q525 577 509 575.5Q493 574 481 574Q449 574 414.5 580.5Q380 587 347 595Q314 603 284 609.5Q254 616 232 616Q214 616 197 609Q180 602 167 591Q154 580 145.5 565.5Q137 551 136 535Q153 552 178 552Q198 552 213 538.5Q228 525 228 507Q228 482 211.5 468Q195 454 176 454Q142 454 122 481Q102 508 102 547Q102 575 112 605.5Q122 636 143.5 661.5Q165 687 199 703.5Q233 720 282 720Q327 720 366 707.5Q405 695 442.5 678.5Q480 662 518 647Q556 632 598 626Q598 684 619 706.5Q640 729 669 729Q692 729 708.5 713Q725 697 725 675Q725 649 706.5 630.5Q688 612 657 603Q639 577 628 555.5Q617 534 608.5 509Q600 484 591.5 453Q583 422 571 378Z" glyph-name="Jcircumflex" horiz-adv-x="681" unicode="&#308;" /><glyph d="M393 810H447L533 630L507 611L408 724H406L246 617L225 636ZM577 301 565 258H472Q445 168 426.5 93.5Q408 19 383 -39Q356 -102 313 -139Q270 -176 203 -176Q167 -176 141.5 -165.5Q116 -155 100 -139Q84 -123 76.5 -104.5Q69 -86 69 -70Q69 -43 86 -28.5Q103 -14 123 -14Q143 -14 157 -26.5Q171 -39 171 -60Q171 -77 158.5 -93Q146 -109 120 -110Q125 -119 141 -128Q157 -137 177 -137Q205 -137 224.5 -126Q244 -115 258 -94Q272 -73 282 -42.5Q292 -12 303 26Q319 85 332 128.5Q345 172 355 201Q366 234 375 258H265L278 301H390Q410 355 441 394.5Q472 434 497 454L494 459Q478 453 451 449Q424 445 405 445Q374 445 344 452Q314 459 287 467Q260 475 236.5 482Q213 489 194 489Q179 489 165.5 484Q152 479 141 470Q130 461 123.5 449Q117 437 116 423Q123 431 133 436.5Q143 442 156 442Q178 442 192 427.5Q206 413 206 393Q206 371 190 356.5Q174 342 152 342Q124 342 104 366.5Q84 391 84 430Q84 454 93 480.5Q102 507 121 528.5Q140 550 169.5 564Q199 578 239 578Q277 578 309.5 566Q342 554 372.5 539Q403 524 433.5 509.5Q464 495 498 490Q499 529 515 550Q531 571 557 571Q578 571 591.5 558Q605 545 605 525Q605 505 590 489.5Q575 474 549 469Q538 454 530 439Q522 424 514.5 405Q507 386 499.5 360.5Q492 335 482 301Z" glyph-name="Jcircumflex.smcp" horiz-adv-x="578" /><glyph d="M531 33Q524 44 510 66Q496 88 477.5 116Q459 144 438.5 175Q418 206 398.5 236Q379 266 361 292Q343 318 331 335H286Q255 234 240 179.5Q225 125 219 103Q213 82 213 71Q213 49 248 43L312 33L300 -5L134 0L-26 -5Q-19 12 -13 33L40 43Q67 48 80.5 58Q94 68 102 91Q111 119 123 158Q134 191 148.5 238.5Q163 286 182 349Q202 415 216 463Q230 511 239 544.5Q248 578 252.5 598Q257 618 257 626Q257 640 249 646.5Q241 653 222 656L162 666L175 705L336 700L501 705L488 666L432 656Q403 651 389.5 642Q376 633 368 607Q361 581 350 548Q341 519 328 477Q315 435 298 381H403Q433 407 469 440Q500 469 541.5 508Q583 547 631 597Q642 608 646 615.5Q650 623 650 633Q650 648 618 656L571 666L585 705L736 700L871 705L857 666L809 655Q796 652 784.5 647Q773 642 758.5 633Q744 624 725 609Q706 594 679 570Q642 537 605 504.5Q568 472 535 442.5Q502 413 475.5 389.5Q449 366 433 352L615 97Q636 68 666.5 52Q697 36 755 31L734 -4H653Q598 -4 571.5 4Q545 12 531 33Z" glyph-name="K" horiz-adv-x="792" unicode="K" /><glyph d="M372 284Q376 277 390.5 257Q405 237 425 209Q445 181 469 148Q493 115 518 83Q535 60 558.5 47Q582 34 629 31L612 -5Q595 -6 572 -6.5Q549 -7 533 -7Q504 -7 486.5 -5Q469 -3 458 1Q447 5 441.5 11.5Q436 18 431 26Q423 40 403 71.5Q383 103 359.5 140Q336 177 313.5 212Q291 247 277 268H246Q237 240 227.5 207Q218 174 209.5 144.5Q201 115 195 92.5Q189 70 189 62Q188 44 219 40L273 32L262 -4L144 0L-19 -4L-8 32L20 37Q49 43 62.5 50Q76 57 85 80Q91 101 101 130Q109 155 120.5 191.5Q132 228 147 279Q161 329 172 365.5Q183 402 190 427Q198 456 204 477Q206 482 206.5 487Q207 492 207 495Q207 515 178 519L130 527L142 564L273 560L417 564L405 527L360 519Q337 514 327 507Q317 500 311 480L257 309H340Q365 333 393 359Q417 382 447.5 410.5Q478 439 510 471Q528 487 528 502Q528 516 503 521L466 527L478 564L606 560L714 564L702 527L663 518Q654 516 645 512.5Q636 509 625.5 502.5Q615 496 601.5 485Q588 474 569 458Z" glyph-name="K.smcp" horiz-adv-x="660" /><glyph d="M201 -303Q267 -279 295.5 -248Q324 -217 324 -187Q324 -164 303.5 -148.5Q283 -133 254 -125Q254 -113 262 -100.5Q270 -88 281 -77.5Q292 -67 305 -60.5Q318 -54 328 -54Q341 -54 356 -60Q371 -66 384 -77.5Q397 -89 405.5 -106.5Q414 -124 414 -147Q414 -182 396 -211.5Q378 -241 349 -264Q320 -287 284.5 -303.5Q249 -320 214 -329ZM531 33Q524 44 510 66Q496 88 477.5 116Q459 144 438.5 175Q418 206 398.5 236Q379 266 361 292Q343 318 331 335H286Q255 234 240 179.5Q225 125 219 103Q213 82 213 71Q213 49 248 43L312 33L300 -5L134 0L-26 -5Q-19 12 -13 33L40 43Q67 48 80.5 58Q94 68 102 91Q111 119 123 158Q134 191 148.5 238.5Q163 286 182 349Q202 415 216 463Q230 511 239 544.5Q248 578 252.5 598Q257 618 257 626Q257 640 249 646.5Q241 653 222 656L162 666L175 705L336 700L501 705L488 666L432 656Q403 651 389.5 642Q376 633 368 607Q361 581 350 548Q341 519 328 477Q315 435 298 381H403Q433 407 469 440Q500 469 541.5 508Q583 547 631 597Q642 608 646 615.5Q650 623 650 633Q650 648 618 656L571 666L585 705L736 700L871 705L857 666L809 655Q796 652 784.5 647Q773 642 758.5 633Q744 624 725 609Q706 594 679 570Q642 537 605 504.5Q568 472 535 442.5Q502 413 475.5 389.5Q449 366 433 352L615 97Q636 68 666.5 52Q697 36 755 31L734 -4H653Q598 -4 571.5 4Q545 12 531 33Z" glyph-name="Kcommaaccent" horiz-adv-x="792" unicode="&#310;" /><glyph d="M147 -303Q213 -279 241.5 -248Q270 -217 270 -187Q270 -164 251.5 -149.5Q233 -135 204 -126L200 -123Q202 -112 210 -100Q218 -88 228.5 -77.5Q239 -67 251 -60.5Q263 -54 274 -54Q287 -54 302 -60Q317 -66 330 -77.5Q343 -89 351.5 -106.5Q360 -124 360 -147Q360 -182 342 -211.5Q324 -241 295.5 -264Q267 -287 231.5 -303.5Q196 -320 161 -329ZM372 284Q376 277 390.5 257Q405 237 425 209Q445 181 469 148Q493 115 518 83Q535 60 558.5 47Q582 34 629 31L612 -5Q595 -6 572 -6.5Q549 -7 533 -7Q504 -7 486.5 -5Q469 -3 458 1Q447 5 441.5 11.5Q436 18 431 26Q423 40 403 71.5Q383 103 359.5 140Q336 177 313.5 212Q291 247 277 268H246Q237 240 227.5 207Q218 174 209.5 144.5Q201 115 195 92.5Q189 70 189 62Q188 44 219 40L273 32L262 -4L144 0L-19 -4L-8 32L20 37Q49 43 62.5 50Q76 57 85 80Q91 101 101 130Q109 155 120.5 191.5Q132 228 147 279Q161 329 172 365.5Q183 402 190 427Q198 456 204 477Q206 482 206.5 487Q207 492 207 495Q207 515 178 519L130 527L142 564L273 560L417 564L405 527L360 519Q337 514 327 507Q317 500 311 480L257 309H340Q365 333 393 359Q417 382 447.5 410.5Q478 439 510 471Q528 487 528 502Q528 516 503 521L466 527L478 564L606 560L714 564L702 527L663 518Q654 516 645 512.5Q636 509 625.5 502.5Q615 496 601.5 485Q588 474 569 458Z" glyph-name="Kcommaaccent.smcp" horiz-adv-x="660" /><glyph d="M222 109Q218 93 218 83Q218 48 275 48H385Q403 48 420 50.5Q437 53 454 61Q471 69 489.5 84.5Q508 100 530 126L601 212H639L546 -5Q507 -4 471 -3Q440 -2 407.5 -1Q375 0 353 0H125L-26 -5L-14 33L40 43Q68 48 81 58Q94 68 102 91Q111 119 123 158Q134 191 148.5 238.5Q163 286 182 349Q201 411 214.5 458.5Q228 506 237 539Q248 578 255 606Q258 618 258 627Q258 641 249.5 646.5Q241 652 222 656L167 666L179 705L339 700L502 705L489 666L433 656Q404 651 390 641.5Q376 632 368 607Q358 579 347 540Q337 507 322.5 459Q308 411 290 349Q263 259 246.5 200Q230 141 222 109Z" glyph-name="L" horiz-adv-x="660" unicode="L" /><glyph d="M195 90Q188 64 198.5 54Q209 44 239 44H321Q335 44 349 45.5Q363 47 377 53Q391 59 406 70.5Q421 82 438 102L493 170H531L454 -4Q422 -3 393 -2Q367 -1 340.5 -0.5Q314 0 297 0H109L-19 -4L-8 32L35 40Q57 45 67.5 53Q78 61 85 79Q91 99 101 129Q109 154 120.5 191.5Q132 229 147 279Q162 329 172.5 366Q183 403 191 429Q199 459 205 480Q210 499 204 507.5Q198 516 178 519L130 527L142 564L280 560L418 564L407 527L362 519Q339 515 329 507.5Q319 500 311 480Q305 459 295 429Q287 403 275 366Q263 329 249 279Q234 229 225.5 200Q217 171 211.5 152.5Q206 134 202.5 121Q199 108 195 90Z" glyph-name="L.smcp" horiz-adv-x="552" /><glyph d="M444 963H578L369 774L328 780ZM222 109Q218 93 218 83Q218 48 275 48H385Q403 48 420 50.5Q437 53 454 61Q471 69 489.5 84.5Q508 100 530 126L601 212H639L546 -5Q507 -4 471 -3Q440 -2 407.5 -1Q375 0 353 0H125L-26 -5L-14 33L40 43Q68 48 81 58Q94 68 102 91Q111 119 123 158Q134 191 148.5 238.5Q163 286 182 349Q201 411 214.5 458.5Q228 506 237 539Q248 578 255 606Q258 618 258 627Q258 641 249.5 646.5Q241 652 222 656L167 666L179 705L339 700L502 705L489 666L433 656Q404 651 390 641.5Q376 632 368 607Q358 579 347 540Q337 507 322.5 459Q308 411 290 349Q263 259 246.5 200Q230 141 222 109Z" glyph-name="Lacute" horiz-adv-x="660" unicode="&#313;" /><glyph d="M397 808H531L322 619L281 625ZM195 90Q188 64 198.5 54Q209 44 239 44H321Q335 44 349 45.5Q363 47 377 53Q391 59 406 70.5Q421 82 438 102L493 170H531L454 -4Q422 -3 393 -2Q367 -1 340.5 -0.5Q314 0 297 0H109L-19 -4L-8 32L35 40Q57 45 67.5 53Q78 61 85 79Q91 99 101 129Q109 154 120.5 191.5Q132 229 147 279Q162 329 172.5 366Q183 403 191 429Q199 459 205 480Q210 499 204 507.5Q198 516 178 519L130 527L142 564L280 560L418 564L407 527L362 519Q339 515 329 507.5Q319 500 311 480Q305 459 295 429Q287 403 275 366Q263 329 249 279Q234 229 225.5 200Q217 171 211.5 152.5Q206 134 202.5 121Q199 108 195 90Z" glyph-name="Lacute.smcp" horiz-adv-x="552" /><glyph d="M222 109Q218 93 218 83Q218 48 275 48H385Q403 48 420 50.5Q437 53 454 61Q471 69 489.5 84.5Q508 100 530 126L601 212H639L546 -5Q507 -4 471 -3Q440 -2 407.5 -1Q375 0 353 0H125L-26 -5L-14 33L40 43Q68 48 81 58Q94 68 102 91Q111 119 123 158Q134 191 148.5 238.5Q163 286 182 349Q201 411 214.5 458.5Q228 506 237 539Q248 578 255 606Q258 618 258 627Q258 641 249.5 646.5Q241 652 222 656L167 666L179 705L339 700L502 705L489 666L433 656Q404 651 390 641.5Q376 632 368 607Q358 579 347 540Q337 507 322.5 459Q308 411 290 349Q263 259 246.5 200Q230 141 222 109ZM515 480Q581 504 609.5 535.5Q638 567 638 596Q638 620 618 635Q598 650 568 659Q568 670 575.5 682.5Q583 695 594 705.5Q605 716 618 723Q631 730 642 730Q655 730 670 724Q685 718 698 706.5Q711 695 719.5 677.5Q728 660 728 636Q728 601 710 571.5Q692 542 663.5 519.5Q635 497 599 480.5Q563 464 528 454Z" glyph-name="Lcaron" horiz-adv-x="660" unicode="&#317;" /><glyph d="M407 329Q473 353 501.5 384Q530 415 530 445Q530 468 511.5 482.5Q493 497 464 506L460 509Q462 520 470 532Q478 544 488.5 554.5Q499 565 511 571.5Q523 578 534 578Q547 578 562 572Q577 566 590 554.5Q603 543 611.5 525.5Q620 508 620 485Q620 450 602 420.5Q584 391 555.5 368Q527 345 491.5 328.5Q456 312 421 303ZM195 90Q188 64 198.5 54Q209 44 239 44H321Q335 44 349 45.5Q363 47 377 53Q391 59 406 70.5Q421 82 438 102L493 170H531L454 -4Q422 -3 393 -2Q367 -1 340.5 -0.5Q314 0 297 0H109L-19 -4L-8 32L35 40Q57 45 67.5 53Q78 61 85 79Q91 99 101 129Q109 154 120.5 191.5Q132 229 147 279Q162 329 172.5 366Q183 403 191 429Q199 459 205 480Q210 499 204 507.5Q198 516 178 519L130 527L142 564L280 560L418 564L407 527L362 519Q339 515 329 507.5Q319 500 311 480Q305 459 295 429Q287 403 275 366Q263 329 249 279Q234 229 225.5 200Q217 171 211.5 152.5Q206 134 202.5 121Q199 108 195 90Z" glyph-name="Lcaron.smcp" horiz-adv-x="552" /><glyph d="M115 -303Q181 -279 209.5 -248Q238 -217 238 -187Q238 -164 217.5 -148.5Q197 -133 168 -125Q168 -113 176 -100.5Q184 -88 195 -77.5Q206 -67 219 -60.5Q232 -54 242 -54Q255 -54 270 -60Q285 -66 298 -77.5Q311 -89 319.5 -106.5Q328 -124 328 -147Q328 -182 310 -211.5Q292 -241 263 -264Q234 -287 198.5 -303.5Q163 -320 128 -329ZM222 109Q218 93 218 83Q218 48 275 48H385Q403 48 420 50.5Q437 53 454 61Q471 69 489.5 84.5Q508 100 530 126L601 212H639L546 -5Q507 -4 471 -3Q440 -2 407.5 -1Q375 0 353 0H125L-26 -5L-14 33L40 43Q68 48 81 58Q94 68 102 91Q111 119 123 158Q134 191 148.5 238.5Q163 286 182 349Q201 411 214.5 458.5Q228 506 237 539Q248 578 255 606Q258 618 258 627Q258 641 249.5 646.5Q241 652 222 656L167 666L179 705L339 700L502 705L489 666L433 656Q404 651 390 641.5Q376 632 368 607Q358 579 347 540Q337 507 322.5 459Q308 411 290 349Q263 259 246.5 200Q230 141 222 109Z" glyph-name="Lcommaaccent" horiz-adv-x="660" unicode="&#315;" /><glyph d="M87 -303Q153 -279 181.5 -248Q210 -217 210 -187Q210 -164 191.5 -149.5Q173 -135 144 -126L140 -123Q142 -112 150 -100Q158 -88 168.5 -77.5Q179 -67 191 -60.5Q203 -54 214 -54Q227 -54 242 -60Q257 -66 270 -77.5Q283 -89 291.5 -106.5Q300 -124 300 -147Q300 -182 282 -211.5Q264 -241 235.5 -264Q207 -287 171.5 -303.5Q136 -320 101 -329ZM195 90Q188 64 198.5 54Q209 44 239 44H321Q335 44 349 45.5Q363 47 377 53Q391 59 406 70.5Q421 82 438 102L493 170H531L454 -4Q422 -3 393 -2Q367 -1 340.5 -0.5Q314 0 297 0H109L-19 -4L-8 32L35 40Q57 45 67.5 53Q78 61 85 79Q91 99 101 129Q109 154 120.5 191.5Q132 229 147 279Q162 329 172.5 366Q183 403 191 429Q199 459 205 480Q210 499 204 507.5Q198 516 178 519L130 527L142 564L280 560L418 564L407 527L362 519Q339 515 329 507.5Q319 500 311 480Q305 459 295 429Q287 403 275 366Q263 329 249 279Q234 229 225.5 200Q217 171 211.5 152.5Q206 134 202.5 121Q199 108 195 90Z" glyph-name="Lcommaaccent.smcp" horiz-adv-x="552" /><glyph d="M412 364Q412 396 435 419Q458 442 490 442Q506 442 520 436Q534 430 544.5 419.5Q555 409 561 394.5Q567 380 567 364Q567 332 544.5 309.5Q522 287 490 287Q474 287 459.5 293Q445 299 434.5 309.5Q424 320 418 334Q412 348 412 364ZM222 108Q218 95 218 83Q218 48 275 48H384Q402 48 419 50.5Q436 53 453 61Q470 69 488.5 84.5Q507 100 529 126L600 212H638L545 -5Q506 -4 470 -3Q439 -2 406.5 -1Q374 0 352 0H124L-27 -5L-15 33L39 43Q67 48 80 58Q93 68 101 91Q110 119 122 158Q133 191 147.5 238.5Q162 286 181 349Q200 411 213.5 459Q227 507 236 540Q247 579 254 607Q257 619 257 627Q257 641 248.5 646.5Q240 652 221 656L166 666L178 705L338 700L501 705Q497 695 494 685.5Q491 676 488 666L432 656Q403 651 391 641.5Q379 632 369 607Q360 579 348 540Q337 507 322.5 459Q308 411 290 349Q263 259 245.5 195Q228 131 222 108Z" glyph-name="Ldot" horiz-adv-x="660" unicode="&#319;" /><glyph d="M195 90Q188 64 198.5 54Q209 44 239 44H321Q335 44 349 45.5Q363 47 377 53Q391 59 406 70.5Q421 82 438 102L493 170H531L454 -4Q422 -3 393 -2Q367 -1 340.5 -0.5Q314 0 297 0H109L-19 -4L-8 32L35 40Q57 45 67.5 53Q78 61 85 79Q91 99 101 129Q109 154 120.5 191.5Q132 229 147 279Q162 329 172.5 366Q183 403 191 429Q199 459 205 480Q210 499 204 507.5Q198 516 178 519L130 527L142 564L280 560L418 564L407 527L362 519Q339 515 329 507.5Q319 500 311 480Q305 459 295 429Q287 403 275 366Q263 329 249 279Q234 229 225.5 200Q217 171 211.5 152.5Q206 134 202.5 121Q199 108 195 90ZM338 299Q338 325 357 344.5Q376 364 403 364Q429 364 448 344.5Q467 325 467 299Q467 271 448 252Q429 233 403 233Q376 233 357 252Q338 271 338 299Z" glyph-name="Ldot.smcp" horiz-adv-x="552" /><glyph d="M282 323Q258 245 244 192Q230 139 222 109Q218 93 218 83Q218 48 275 48H384Q402 48 419 50.5Q436 53 453 61Q470 69 488.5 84.5Q507 100 529 126L600 212H638L545 -5Q506 -4 470 -3Q439 -2 406.5 -1Q374 0 352 0H124L-27 -5L-15 33L39 43Q67 48 80 58Q93 68 101 91L116 139Q124 162 134.5 196.5Q145 231 159 276L53 236L62 284L174 327L181 349Q200 411 213.5 458.5Q227 506 236 539Q247 578 254 606Q257 618 257 627Q257 641 248.5 646.5Q240 652 221 656L166 666L178 705L338 700L501 705L488 666L432 656Q403 651 390 641.5Q377 632 369 607Q360 581 349 546Q339 516 326.5 472.5Q314 429 297 373L500 451L491 403Z" glyph-name="Lslash" horiz-adv-x="660" unicode="&#321;" /><glyph d="M195 90Q188 64 198.5 54Q209 44 239 44H321Q335 44 349 45.5Q363 47 377 53Q391 59 406 70.5Q421 82 438 102L493 170H531L454 -4Q422 -3 393 -2Q367 -1 340.5 -0.5Q314 0 297 0H109L-19 -4L-8 32L35 40Q57 45 67.5 53Q78 61 85 79Q89 94 96 115Q101 133 109.5 159.5Q118 186 129 221L44 189L51 229L142 263L147 279Q162 329 172.5 366Q183 403 191 429Q199 459 205 480Q210 499 204 507.5Q198 516 178 519L130 527L142 564L280 560L418 564L407 527L362 519Q339 515 329 507.5Q319 500 311 480Q305 462 297 436Q290 414 280 381.5Q270 349 257 306L406 362L399 322L244 264Q231 220 223 193.5Q215 167 210.5 149.5Q206 132 202.5 119.5Q199 107 195 90Z" glyph-name="Lslash.smcp" horiz-adv-x="553" /><glyph d="M781 91Q788 116 797 153Q806 190 816.5 233Q827 276 838.5 322.5Q850 369 861 413Q887 517 914 632L465 -6H413Q408 55 402 131Q396 207 389 290.5Q382 374 374.5 460.5Q367 547 358 630Q310 515 267 411Q249 367 230 321Q211 275 193.5 232Q176 189 161.5 152.5Q147 116 137 91Q129 68 136.5 58Q144 48 170 43L239 33L227 -5L70 0L-58 -5L-45 33L9 43Q37 48 48.5 58Q60 68 71 91Q80 110 94.5 142Q109 174 127 213.5Q145 253 165 297.5Q185 342 204 386Q249 488 300 607Q308 631 301 641Q294 651 269 656L213 666L227 705L371 700L464 705L509 139Q542 185 575.5 232Q609 279 641 324.5Q673 370 703 412.5Q733 455 759 493Q821 581 878 662Q881 667 886 679Q891 691 892 705L998 700L1151 705L1138 666L1084 656Q1055 651 1041 641.5Q1027 632 1020 607Q1013 581 1004 545.5Q995 510 985.5 469Q976 428 965.5 384Q955 340 946 298Q923 199 900 91Q895 69 901 58Q907 47 933 43L1001 33L989 -5L813 0L650 -5L662 33L718 43Q747 48 761 58Q775 68 781 91Z" glyph-name="M" horiz-adv-x="1083" unicode="M" /><glyph d="M633 79Q641 109 652 152Q663 195 674 242Q685 289 696 335.5Q707 382 715.5 419Q724 456 729.5 479Q735 502 735 502L383 -5H339Q337 23 333.5 63.5Q330 104 326 150Q322 196 317 245.5Q312 295 307 341.5Q302 388 298 429Q294 470 290 499Q255 410 222 330Q208 296 193.5 260Q179 224 165.5 191Q152 158 140.5 129Q129 100 121 79Q119 74 118 69.5Q117 65 117 62Q117 44 146 40L202 32L191 -4L63 0L-41 -4L-29 32Q-5 37 10 40Q25 43 34 47Q43 51 49 58Q55 65 62 79Q74 104 91 141.5Q108 179 126.5 220.5Q145 262 163.5 304.5Q182 347 197.5 382.5Q213 418 223.5 442.5Q234 467 237 474Q241 483 242 487.5Q243 492 243 497Q243 514 215 519L170 527L182 564L304 560L392 564Q392 545 393 520Q394 495 396 467L426 129Q455 170 485 212.5Q515 255 543 296Q571 337 596.5 374.5Q622 412 642.5 442.5Q663 473 677 494.5Q691 516 696 526Q702 537 706.5 547Q711 557 711 564L819 560L942 564L930 527L887 519Q863 514 851.5 506.5Q840 499 835 480Q821 429 807.5 374.5Q794 320 783 269Q767 200 758.5 161Q750 122 745.5 102Q741 82 740 75Q739 68 739 64Q739 54 745 48Q751 42 768 40L822 32L812 -4L661 0L525 -4L535 32L580 40Q603 44 615.5 52Q628 60 633 79Z" glyph-name="M.smcp" horiz-adv-x="892" /><glyph d="M258 607Q265 630 258.5 640.5Q252 651 227 656L169 666L182 705L318 700L411 705Q412 691 415 678Q417 667 420.5 654.5Q424 642 429 632L640 157Q641 162 651 200Q661 238 676 299Q691 360 710.5 439.5Q730 519 751 607Q757 632 750 641.5Q743 651 719 656L668 666L682 705L814 700L945 705L932 666L876 656Q847 651 834 641Q821 631 813 607Q791 529 764 433Q741 351 708.5 239Q676 127 638 -5H590Q527 146 475.5 262Q424 378 387 458Q344 551 309 620Q277 507 249 405Q237 361 224.5 316Q212 271 200 229Q188 187 178 151.5Q168 116 161 91Q154 68 160.5 57.5Q167 47 193 43L264 33L251 -5L93 0L-32 -5L-21 33L34 43Q62 48 75 58Q88 68 96 91Q138 218 177.5 343Q217 468 258 607Z" glyph-name="N" horiz-adv-x="844" unicode="N" /><glyph d="M208 480Q213 499 208 507.5Q203 516 183 519L137 527L148 564L262 560L349 564Q350 551 352 540Q354 530 356 519Q358 508 362 500L527 128L615 480Q620 500 614.5 507.5Q609 515 589 519L548 527L560 564L670 560L775 564L763 527L719 519Q695 515 684.5 507.5Q674 500 668 480Q650 419 629 343Q610 278 585 190Q560 102 529 -4H477Q431 105 390.5 196Q350 287 320 353Q284 430 254 491Q229 403 207 324Q197 290 187 255Q177 220 168 187.5Q159 155 151 126.5Q143 98 137 79Q132 60 137.5 51.5Q143 43 163 40L220 32L208 -4L82 0L-23 -4L-12 32L32 40Q54 45 64 52.5Q74 60 81 79Q98 129 114 177.5Q130 226 146 274.5Q162 323 177 374Q192 425 208 480Z" glyph-name="N.smcp" horiz-adv-x="699" /><glyph d="M630 953H764L555 764L514 770ZM258 607Q265 630 258.5 640.5Q252 651 227 656L169 666L182 705L318 700L411 705Q412 691 415 678Q417 667 420.5 654.5Q424 642 429 632L640 157Q641 162 651 200Q661 238 676 299Q691 360 710.5 439.5Q730 519 751 607Q757 632 750 641.5Q743 651 719 656L668 666L682 705L814 700L945 705L932 666L876 656Q847 651 834 641Q821 631 813 607Q791 529 764 433Q741 351 708.5 239Q676 127 638 -5H590Q527 146 475.5 262Q424 378 387 458Q344 551 309 620Q277 507 249 405Q237 361 224.5 316Q212 271 200 229Q188 187 178 151.5Q168 116 161 91Q154 68 160.5 57.5Q167 47 193 43L264 33L251 -5L93 0L-32 -5L-21 33L34 43Q62 48 75 58Q88 68 96 91Q138 218 177.5 343Q217 468 258 607Z" glyph-name="Nacute" horiz-adv-x="844" unicode="&#323;" /><glyph d="M537 800H671L462 611L421 617ZM208 480Q213 499 208 507.5Q203 516 183 519L137 527L148 564L262 560L349 564Q350 551 352 540Q354 530 356 519Q358 508 362 500L527 128L615 480Q620 500 614.5 507.5Q609 515 589 519L548 527L560 564L670 560L775 564L763 527L719 519Q695 515 684.5 507.5Q674 500 668 480Q650 419 629 343Q610 278 585 190Q560 102 529 -4H477Q431 105 390.5 196Q350 287 320 353Q284 430 254 491Q229 403 207 324Q197 290 187 255Q177 220 168 187.5Q159 155 151 126.5Q143 98 137 79Q132 60 137.5 51.5Q143 43 163 40L220 32L208 -4L82 0L-23 -4L-12 32L32 40Q54 45 64 52.5Q74 60 81 79Q98 129 114 177.5Q130 226 146 274.5Q162 323 177 374Q192 425 208 480Z" glyph-name="Nacute.smcp" horiz-adv-x="699" /><glyph d="M440 941 467 959 558 848H560L730 959L749 938L570 760H516ZM258 607Q265 630 258.5 640.5Q252 651 227 656L169 666L182 705L318 700L411 705Q412 691 415 678Q417 667 420.5 654.5Q424 642 429 632L640 157Q641 162 651 200Q661 238 676 299Q691 360 710.5 439.5Q730 519 751 607Q757 632 750 641.5Q743 651 719 656L668 666L682 705L814 700L945 705L932 666L876 656Q847 651 834 641Q821 631 813 607Q791 529 764 433Q741 351 708.5 239Q676 127 638 -5H590Q527 146 475.5 262Q424 378 387 458Q344 551 309 620Q277 507 249 405Q237 361 224.5 316Q212 271 200 229Q188 187 178 151.5Q168 116 161 91Q154 68 160.5 57.5Q167 47 193 43L264 33L251 -5L93 0L-32 -5L-21 33L34 43Q62 48 75 58Q88 68 96 91Q138 218 177.5 343Q217 468 258 607Z" glyph-name="Ncaron" horiz-adv-x="844" unicode="&#327;" /><glyph d="M356 783 384 801 474 688H476L644 799L662 778L487 603H433ZM208 480Q213 499 208 507.5Q203 516 183 519L137 527L148 564L262 560L349 564Q350 551 352 540Q354 530 356 519Q358 508 362 500L527 128L615 480Q620 500 614.5 507.5Q609 515 589 519L548 527L560 564L670 560L775 564L763 527L719 519Q695 515 684.5 507.5Q674 500 668 480Q650 419 629 343Q610 278 585 190Q560 102 529 -4H477Q431 105 390.5 196Q350 287 320 353Q284 430 254 491Q229 403 207 324Q197 290 187 255Q177 220 168 187.5Q159 155 151 126.5Q143 98 137 79Q132 60 137.5 51.5Q143 43 163 40L220 32L208 -4L82 0L-23 -4L-12 32L32 40Q54 45 64 52.5Q74 60 81 79Q98 129 114 177.5Q130 226 146 274.5Q162 323 177 374Q192 425 208 480Z" glyph-name="Ncaron.smcp" horiz-adv-x="699" /><glyph d="M205 -303Q271 -279 299.5 -248Q328 -217 328 -187Q328 -164 307.5 -148.5Q287 -133 258 -125Q258 -113 266 -100.5Q274 -88 285 -77.5Q296 -67 309 -60.5Q322 -54 332 -54Q345 -54 360 -60Q375 -66 388 -77.5Q401 -89 409.5 -106.5Q418 -124 418 -147Q418 -182 400 -211.5Q382 -241 353 -264Q324 -287 288.5 -303.5Q253 -320 218 -329ZM258 607Q265 630 258.5 640.5Q252 651 227 656L169 666L182 705L318 700L411 705Q412 691 415 678Q417 667 420.5 654.5Q424 642 429 632L640 157Q641 162 651 200Q661 238 676 299Q691 360 710.5 439.5Q730 519 751 607Q757 632 750 641.5Q743 651 719 656L668 666L682 705L814 700L945 705L932 666L876 656Q847 651 834 641Q821 631 813 607Q791 529 764 433Q741 351 708.5 239Q676 127 638 -5H590Q527 146 475.5 262Q424 378 387 458Q344 551 309 620Q277 507 249 405Q237 361 224.5 316Q212 271 200 229Q188 187 178 151.5Q168 116 161 91Q154 68 160.5 57.5Q167 47 193 43L264 33L251 -5L93 0L-32 -5L-21 33L34 43Q62 48 75 58Q88 68 96 91Q138 218 177.5 343Q217 468 258 607Z" glyph-name="Ncommaaccent" horiz-adv-x="844" unicode="&#325;" /><glyph d="M159 -303Q225 -279 253.5 -248Q282 -217 282 -187Q282 -164 263.5 -149.5Q245 -135 216 -126L212 -123Q214 -112 222 -100Q230 -88 240.5 -77.5Q251 -67 263 -60.5Q275 -54 286 -54Q299 -54 314 -60Q329 -66 342 -77.5Q355 -89 363.5 -106.5Q372 -124 372 -147Q372 -182 354 -211.5Q336 -241 307.5 -264Q279 -287 243.5 -303.5Q208 -320 173 -329ZM208 480Q213 499 208 507.5Q203 516 183 519L137 527L148 564L262 560L349 564Q350 551 352 540Q354 530 356 519Q358 508 362 500L527 128L615 480Q620 500 614.5 507.5Q609 515 589 519L548 527L560 564L670 560L775 564L763 527L719 519Q695 515 684.5 507.5Q674 500 668 480Q650 419 629 343Q610 278 585 190Q560 102 529 -4H477Q431 105 390.5 196Q350 287 320 353Q284 430 254 491Q229 403 207 324Q197 290 187 255Q177 220 168 187.5Q159 155 151 126.5Q143 98 137 79Q132 60 137.5 51.5Q143 43 163 40L220 32L208 -4L82 0L-23 -4L-12 32L32 40Q54 45 64 52.5Q74 60 81 79Q98 129 114 177.5Q130 226 146 274.5Q162 323 177 374Q192 425 208 480Z" glyph-name="Ncommaaccent.smcp" horiz-adv-x="699" /><glyph d="M653 876Q672 876 685 882.5Q698 889 716 916L735 905Q728 887 718.5 869Q709 851 695.5 836Q682 821 665 812Q648 803 626 803Q608 803 591 808.5Q574 814 558 821Q542 828 528 833.5Q514 839 503 839Q486 839 468.5 832.5Q451 826 434 800L414 811Q421 829 431.5 847.5Q442 866 455.5 881Q469 896 486.5 905Q504 914 525 914Q541 914 559 908Q577 902 593.5 895Q610 888 625.5 882Q641 876 653 876ZM258 607Q265 630 258.5 640.5Q252 651 227 656L169 666L182 705L318 700L411 705Q412 691 415 678Q417 667 420.5 654.5Q424 642 429 632L640 157Q641 162 651 200Q661 238 676 299Q691 360 710.5 439.5Q730 519 751 607Q757 632 750 641.5Q743 651 719 656L668 666L682 705L814 700L945 705L932 666L876 656Q847 651 834 641Q821 631 813 607Q791 529 764 433Q741 351 708.5 239Q676 127 638 -5H590Q527 146 475.5 262Q424 378 387 458Q344 551 309 620Q277 507 249 405Q237 361 224.5 316Q212 271 200 229Q188 187 178 151.5Q168 116 161 91Q154 68 160.5 57.5Q167 47 193 43L264 33L251 -5L93 0L-32 -5L-21 33L34 43Q62 48 75 58Q88 68 96 91Q138 218 177.5 343Q217 468 258 607Z" glyph-name="Ntilde" horiz-adv-x="844" unicode="&#209;" /><glyph d="M561 710Q581 710 594 716.5Q607 723 624 750L644 739Q636 721 627 703Q618 685 605 670Q592 655 574.5 646Q557 637 534 637Q516 637 499 643Q482 649 466 655.5Q450 662 435.5 668Q421 674 409 674Q392 674 374.5 667Q357 660 340 634L320 645Q327 664 337.5 683Q348 702 361.5 716Q375 730 392.5 739Q410 748 431 748Q447 748 464.5 742Q482 736 498.5 729Q515 722 531 716Q547 710 561 710ZM208 480Q213 499 208 507.5Q203 516 183 519L137 527L148 564L262 560L349 564Q350 551 352 540Q354 530 356 519Q358 508 362 500L527 128L615 480Q620 500 614.5 507.5Q609 515 589 519L548 527L560 564L670 560L775 564L763 527L719 519Q695 515 684.5 507.5Q674 500 668 480Q650 419 629 343Q610 278 585 190Q560 102 529 -4H477Q431 105 390.5 196Q350 287 320 353Q284 430 254 491Q229 403 207 324Q197 290 187 255Q177 220 168 187.5Q159 155 151 126.5Q143 98 137 79Q132 60 137.5 51.5Q143 43 163 40L220 32L208 -4L82 0L-23 -4L-12 32L32 40Q54 45 64 52.5Q74 60 81 79Q98 129 114 177.5Q130 226 146 274.5Q162 323 177 374Q192 425 208 480Z" glyph-name="Ntilde.smcp" horiz-adv-x="699" /><glyph d="M521 715Q578 715 631 696Q684 677 724.5 639.5Q765 602 789.5 547.5Q814 493 814 423Q814 338 780.5 259Q747 180 687.5 119Q628 58 547.5 21.5Q467 -15 373 -15Q315 -15 261.5 4Q208 23 167 60.5Q126 98 101.5 152Q77 206 77 277Q77 362 111 441Q145 520 204.5 581Q264 642 345 678.5Q426 715 521 715ZM396 33Q452 33 496 54Q540 75 574 109.5Q608 144 632.5 188Q657 232 672.5 278Q688 324 695 367.5Q702 411 702 445Q702 499 686 540.5Q670 582 642 609.5Q614 637 576.5 651.5Q539 666 496 666Q440 666 395.5 645Q351 624 317 589.5Q283 555 259.5 511Q236 467 220.5 421.5Q205 376 198 332Q191 288 191 254Q191 200 207 158.5Q223 117 250.5 89.5Q278 62 315.5 47.5Q353 33 396 33Z" glyph-name="O" horiz-adv-x="829" unicode="O" /><glyph d="M423 572Q472 572 516 556.5Q560 541 593.5 511.5Q627 482 647 438Q667 394 667 337Q667 269 639.5 206.5Q612 144 564 95Q516 46 450.5 17Q385 -12 308 -12Q258 -12 214 3.5Q170 19 136.5 48.5Q103 78 83.5 121.5Q64 165 64 222Q64 290 91 353Q118 416 166 465Q214 514 279.5 543Q345 572 423 572ZM325 30Q368 30 402 47Q436 64 462.5 92Q489 120 507.5 155Q526 190 538 226Q550 262 555.5 296Q561 330 561 355Q561 436 518.5 482Q476 528 407 528Q365 528 331 512.5Q297 497 271 471Q245 445 225.5 411Q206 377 194 341Q182 305 176 269.5Q170 234 170 204Q170 166 181 134.5Q192 103 212 79.5Q232 56 261 43Q290 30 325 30Z" glyph-name="O.smcp" horiz-adv-x="683" /><glyph d="M476 37Q503 37 525 41Q547 45 550 54Q566 105 584.5 166Q603 227 622.5 291.5Q642 356 662 422Q682 488 700 550Q705 566 709.5 583.5Q714 601 714 615Q714 645 686 654.5Q658 664 610 664H560Q474 664 407.5 637Q341 610 296 562.5Q251 515 227.5 449.5Q204 384 204 308Q204 247 222 197Q240 147 274.5 111.5Q309 76 360 56.5Q411 37 476 37ZM873 383Q897 385 912 394Q927 403 942 432L970 487H1006L965 349L937 227H901L904 289Q906 314 897.5 322.5Q889 331 864 333Q843 334 822 334.5Q801 335 784 336Q765 337 747 337L680 112Q677 102 676.5 96.5Q676 91 676 85Q676 48 731 48H899Q917 48 933.5 50Q950 52 967.5 60Q985 68 1003.5 83.5Q1022 99 1044 126L1114 212H1153L1054 -5Q1017 -4 982 -3Q952 -2 920 -1Q888 0 866 0H585Q510 -6 470 -8Q430 -10 404 -10Q333 -10 274 12.5Q215 35 172.5 75.5Q130 116 106 172.5Q82 229 82 297Q82 385 118 461Q154 537 215.5 592.5Q277 648 360 679.5Q443 711 537 711Q597 711 646.5 707Q696 703 753 700H1041Q1063 700 1090 701.5Q1117 703 1142 705Q1170 708 1200 711Q1191 692 1180 663Q1170 638 1156 600Q1142 562 1122 508H1084Q1085 531 1085.5 544.5Q1086 558 1086.5 566Q1087 574 1087 577.5Q1087 581 1087 584Q1087 652 1040 652H857Q845 652 841.5 648Q838 644 836 636L758 379Q775 379 793 380Q809 381 829.5 381Q850 381 873 383Z" glyph-name="OE" horiz-adv-x="1188" unicode="&#338;" /><glyph d="M562 465Q567 483 567 493Q567 510 554 518Q541 526 512 526H457Q388 526 335 505Q282 484 246.5 446.5Q211 409 192.5 358Q174 307 174 246Q174 186 189 145Q204 104 233 79.5Q262 55 304.5 44.5Q347 34 403 34H411Q423 34 429 37.5Q435 41 438 48ZM705 312Q726 313 737 318Q748 323 760 346L783 390H815L783 279L760 182H728L730 231Q731 251 724.5 257.5Q718 264 698 266Q681 267 665 268Q649 269 636 269H608L558 95Q554 80 554 73Q554 44 599 44H723Q737 44 751 45.5Q765 47 779.5 53Q794 59 809 70.5Q824 82 840 102L894 170H933L854 -4Q824 -3 796 -2Q772 -1 746 -0.5Q720 0 703 0H496Q479 0 453 -1.5Q427 -3 400.5 -4.5Q374 -6 351 -7Q328 -8 318 -8Q256 -8 208 12.5Q160 33 127 67Q94 101 77 146Q60 191 60 239Q60 309 87 369.5Q114 430 162.5 474Q211 518 278 543.5Q345 569 424 569Q480 569 520 564.5Q560 560 596 560H843Q860 560 882.5 561Q905 562 925 564Q948 566 971 569Q964 553 955 530Q947 510 935.5 479.5Q924 449 908 406H874L876 447Q878 485 869.5 500.5Q861 516 837 516H697Q686 516 684 512.5Q682 509 680 503L620 310H645Q656 310 671.5 310.5Q687 311 705 312Z" glyph-name="OE.smcp" horiz-adv-x="965" /><glyph d="M558 963H692L483 774L442 780ZM521 715Q578 715 631 696Q684 677 724.5 639.5Q765 602 789.5 547.5Q814 493 814 423Q814 338 780.5 259Q747 180 687.5 119Q628 58 547.5 21.5Q467 -15 373 -15Q315 -15 261.5 4Q208 23 167 60.5Q126 98 101.5 152Q77 206 77 277Q77 362 111 441Q145 520 204.5 581Q264 642 345 678.5Q426 715 521 715ZM396 33Q452 33 496 54Q540 75 574 109.5Q608 144 632.5 188Q657 232 672.5 278Q688 324 695 367.5Q702 411 702 445Q702 499 686 540.5Q670 582 642 609.5Q614 637 576.5 651.5Q539 666 496 666Q440 666 395.5 645Q351 624 317 589.5Q283 555 259.5 511Q236 467 220.5 421.5Q205 376 198 332Q191 288 191 254Q191 200 207 158.5Q223 117 250.5 89.5Q278 62 315.5 47.5Q353 33 396 33Z" glyph-name="Oacute" horiz-adv-x="829" unicode="&#211;" /><glyph d="M473 808H607L398 619L357 625ZM423 572Q472 572 516 556.5Q560 541 593.5 511.5Q627 482 647 438Q667 394 667 337Q667 269 639.5 206.5Q612 144 564 95Q516 46 450.5 17Q385 -12 308 -12Q258 -12 214 3.5Q170 19 136.5 48.5Q103 78 83.5 121.5Q64 165 64 222Q64 290 91 353Q118 416 166 465Q214 514 279.5 543Q345 572 423 572ZM325 30Q368 30 402 47Q436 64 462.5 92Q489 120 507.5 155Q526 190 538 226Q550 262 555.5 296Q561 330 561 355Q561 436 518.5 482Q476 528 407 528Q365 528 331 512.5Q297 497 271 471Q245 445 225.5 411Q206 377 194 341Q182 305 176 269.5Q170 234 170 204Q170 166 181 134.5Q192 103 212 79.5Q232 56 261 43Q290 30 325 30Z" glyph-name="Oacute.smcp" horiz-adv-x="683" /><glyph d="M532 845Q565 845 585.5 855Q606 865 617.5 880.5Q629 896 634 915.5Q639 935 642 954H683Q679 909 668.5 874Q658 839 639 814.5Q620 790 591.5 777Q563 764 523 764Q464 764 432.5 797.5Q401 831 401 880Q401 914 418 954H455Q452 941 451 930Q450 919 450 907Q450 882 468.5 863.5Q487 845 532 845ZM521 715Q578 715 631 696Q684 677 724.5 639.5Q765 602 789.5 547.5Q814 493 814 423Q814 338 780.5 259Q747 180 687.5 119Q628 58 547.5 21.5Q467 -15 373 -15Q315 -15 261.5 4Q208 23 167 60.5Q126 98 101.5 152Q77 206 77 277Q77 362 111 441Q145 520 204.5 581Q264 642 345 678.5Q426 715 521 715ZM396 33Q452 33 496 54Q540 75 574 109.5Q608 144 632.5 188Q657 232 672.5 278Q688 324 695 367.5Q702 411 702 445Q702 499 686 540.5Q670 582 642 609.5Q614 637 576.5 651.5Q539 666 496 666Q440 666 395.5 645Q351 624 317 589.5Q283 555 259.5 511Q236 467 220.5 421.5Q205 376 198 332Q191 288 191 254Q191 200 207 158.5Q223 117 250.5 89.5Q278 62 315.5 47.5Q353 33 396 33Z" glyph-name="Obreve" horiz-adv-x="829" unicode="&#334;" /><glyph d="M450 693Q483 693 503 703Q523 713 534.5 728.5Q546 744 551 763.5Q556 783 558 802H598Q596 705 556 658Q516 611 444 611Q416 611 393 619.5Q370 628 353.5 642.5Q337 657 328 676.5Q319 696 319 719Q319 732 321.5 754Q324 776 333 802H371Q368 788 367 776.5Q366 765 366 753Q366 729 386.5 711Q407 693 450 693ZM423 572Q472 572 516 556.5Q560 541 593.5 511.5Q627 482 647 438Q667 394 667 337Q667 269 639.5 206.5Q612 144 564 95Q516 46 450.5 17Q385 -12 308 -12Q258 -12 214 3.5Q170 19 136.5 48.5Q103 78 83.5 121.5Q64 165 64 222Q64 290 91 353Q118 416 166 465Q214 514 279.5 543Q345 572 423 572ZM325 30Q368 30 402 47Q436 64 462.5 92Q489 120 507.5 155Q526 190 538 226Q550 262 555.5 296Q561 330 561 355Q561 436 518.5 482Q476 528 407 528Q365 528 331 512.5Q297 497 271 471Q245 445 225.5 411Q206 377 194 341Q182 305 176 269.5Q170 234 170 204Q170 166 181 134.5Q192 103 212 79.5Q232 56 261 43Q290 30 325 30Z" glyph-name="Obreve.smcp" horiz-adv-x="683" /><glyph d="M536 969H590L680 788L655 770L552 880H550L388 771L368 788ZM521 715Q578 715 631 696Q684 677 724.5 639.5Q765 602 789.5 547.5Q814 493 814 423Q814 338 780.5 259Q747 180 687.5 119Q628 58 547.5 21.5Q467 -15 373 -15Q315 -15 261.5 4Q208 23 167 60.5Q126 98 101.5 152Q77 206 77 277Q77 362 111 441Q145 520 204.5 581Q264 642 345 678.5Q426 715 521 715ZM396 33Q452 33 496 54Q540 75 574 109.5Q608 144 632.5 188Q657 232 672.5 278Q688 324 695 367.5Q702 411 702 445Q702 499 686 540.5Q670 582 642 609.5Q614 637 576.5 651.5Q539 666 496 666Q440 666 395.5 645Q351 624 317 589.5Q283 555 259.5 511Q236 467 220.5 421.5Q205 376 198 332Q191 288 191 254Q191 200 207 158.5Q223 117 250.5 89.5Q278 62 315.5 47.5Q353 33 396 33Z" glyph-name="Ocircumflex" horiz-adv-x="829" unicode="&#212;" /><glyph d="M454 809H508L594 629L568 610L469 723H467L307 616L286 635ZM423 572Q472 572 516 556.5Q560 541 593.5 511.5Q627 482 647 438Q667 394 667 337Q667 269 639.5 206.5Q612 144 564 95Q516 46 450.5 17Q385 -12 308 -12Q258 -12 214 3.5Q170 19 136.5 48.5Q103 78 83.5 121.5Q64 165 64 222Q64 290 91 353Q118 416 166 465Q214 514 279.5 543Q345 572 423 572ZM325 30Q368 30 402 47Q436 64 462.5 92Q489 120 507.5 155Q526 190 538 226Q550 262 555.5 296Q561 330 561 355Q561 436 518.5 482Q476 528 407 528Q365 528 331 512.5Q297 497 271 471Q245 445 225.5 411Q206 377 194 341Q182 305 176 269.5Q170 234 170 204Q170 166 181 134.5Q192 103 212 79.5Q232 56 261 43Q290 30 325 30Z" glyph-name="Ocircumflex.smcp" horiz-adv-x="683" /><glyph d="M571 864Q571 894 592 915Q613 936 643 936Q673 936 694 915Q715 894 715 864Q715 834 694 813.5Q673 793 643 793Q613 793 592 813.5Q571 834 571 864ZM380 864Q380 894 401 915Q422 936 452 936Q482 936 503 915Q524 894 524 864Q524 834 503 813.5Q482 793 452 793Q422 793 401 813.5Q380 834 380 864ZM521 715Q578 715 631 696Q684 677 724.5 639.5Q765 602 789.5 547.5Q814 493 814 423Q814 338 780.5 259Q747 180 687.5 119Q628 58 547.5 21.5Q467 -15 373 -15Q315 -15 261.5 4Q208 23 167 60.5Q126 98 101.5 152Q77 206 77 277Q77 362 111 441Q145 520 204.5 581Q264 642 345 678.5Q426 715 521 715ZM396 33Q452 33 496 54Q540 75 574 109.5Q608 144 632.5 188Q657 232 672.5 278Q688 324 695 367.5Q702 411 702 445Q702 499 686 540.5Q670 582 642 609.5Q614 637 576.5 651.5Q539 666 496 666Q440 666 395.5 645Q351 624 317 589.5Q283 555 259.5 511Q236 467 220.5 421.5Q205 376 198 332Q191 288 191 254Q191 200 207 158.5Q223 117 250.5 89.5Q278 62 315.5 47.5Q353 33 396 33Z" glyph-name="Odieresis" horiz-adv-x="829" unicode="&#214;" /><glyph d="M479 701Q479 731 500 752Q521 773 551 773Q581 773 602 752Q623 731 623 701Q623 671 602 650Q581 629 551 629Q521 629 500 650Q479 671 479 701ZM288 701Q288 731 309 752Q330 773 360 773Q391 773 411.5 752Q432 731 432 701Q432 671 411.5 650Q391 629 360 629Q330 629 309 650Q288 671 288 701ZM423 572Q472 572 516 556.5Q560 541 593.5 511.5Q627 482 647 438Q667 394 667 337Q667 269 639.5 206.5Q612 144 564 95Q516 46 450.5 17Q385 -12 308 -12Q258 -12 214 3.5Q170 19 136.5 48.5Q103 78 83.5 121.5Q64 165 64 222Q64 290 91 353Q118 416 166 465Q214 514 279.5 543Q345 572 423 572ZM325 30Q368 30 402 47Q436 64 462.5 92Q489 120 507.5 155Q526 190 538 226Q550 262 555.5 296Q561 330 561 355Q561 436 518.5 482Q476 528 407 528Q365 528 331 512.5Q297 497 271 471Q245 445 225.5 411Q206 377 194 341Q182 305 176 269.5Q170 234 170 204Q170 166 181 134.5Q192 103 212 79.5Q232 56 261 43Q290 30 325 30Z" glyph-name="Odieresis.smcp" horiz-adv-x="683" /><glyph d="M628 780 587 774 413 963H547ZM521 715Q578 715 631 696Q684 677 724.5 639.5Q765 602 789.5 547.5Q814 493 814 423Q814 338 780.5 259Q747 180 687.5 119Q628 58 547.5 21.5Q467 -15 373 -15Q315 -15 261.5 4Q208 23 167 60.5Q126 98 101.5 152Q77 206 77 277Q77 362 111 441Q145 520 204.5 581Q264 642 345 678.5Q426 715 521 715ZM396 33Q452 33 496 54Q540 75 574 109.5Q608 144 632.5 188Q657 232 672.5 278Q688 324 695 367.5Q702 411 702 445Q702 499 686 540.5Q670 582 642 609.5Q614 637 576.5 651.5Q539 666 496 666Q440 666 395.5 645Q351 624 317 589.5Q283 555 259.5 511Q236 467 220.5 421.5Q205 376 198 332Q191 288 191 254Q191 200 207 158.5Q223 117 250.5 89.5Q278 62 315.5 47.5Q353 33 396 33Z" glyph-name="Ograve" horiz-adv-x="829" unicode="&#210;" /><glyph d="M520 623 479 617 305 806H439ZM423 572Q472 572 516 556.5Q560 541 593.5 511.5Q627 482 647 438Q667 394 667 337Q667 269 639.5 206.5Q612 144 564 95Q516 46 450.5 17Q385 -12 308 -12Q258 -12 214 3.5Q170 19 136.5 48.5Q103 78 83.5 121.5Q64 165 64 222Q64 290 91 353Q118 416 166 465Q214 514 279.5 543Q345 572 423 572ZM325 30Q368 30 402 47Q436 64 462.5 92Q489 120 507.5 155Q526 190 538 226Q550 262 555.5 296Q561 330 561 355Q561 436 518.5 482Q476 528 407 528Q365 528 331 512.5Q297 497 271 471Q245 445 225.5 411Q206 377 194 341Q182 305 176 269.5Q170 234 170 204Q170 166 181 134.5Q192 103 212 79.5Q232 56 261 43Q290 30 325 30Z" glyph-name="Ograve.smcp" horiz-adv-x="683" /><glyph d="M661 957H795L584 768L547 774ZM472 957H605L396 768L358 774ZM521 715Q578 715 631 696Q684 677 724.5 639.5Q765 602 789.5 547.5Q814 493 814 423Q814 338 780.5 259Q747 180 687.5 119Q628 58 547.5 21.5Q467 -15 373 -15Q315 -15 261.5 4Q208 23 167 60.5Q126 98 101.5 152Q77 206 77 277Q77 362 111 441Q145 520 204.5 581Q264 642 345 678.5Q426 715 521 715ZM396 33Q452 33 496 54Q540 75 574 109.5Q608 144 632.5 188Q657 232 672.5 278Q688 324 695 367.5Q702 411 702 445Q702 499 686 540.5Q670 582 642 609.5Q614 637 576.5 651.5Q539 666 496 666Q440 666 395.5 645Q351 624 317 589.5Q283 555 259.5 511Q236 467 220.5 421.5Q205 376 198 332Q191 288 191 254Q191 200 207 158.5Q223 117 250.5 89.5Q278 62 315.5 47.5Q353 33 396 33Z" glyph-name="Ohungarumlaut" horiz-adv-x="829" unicode="&#336;" /><glyph d="M574 808H708L498 619L461 625ZM386 808H519L310 619L271 625ZM423 572Q472 572 516 556.5Q560 541 593.5 511.5Q627 482 647 438Q667 394 667 337Q667 269 639.5 206.5Q612 144 564 95Q516 46 450.5 17Q385 -12 308 -12Q258 -12 214 3.5Q170 19 136.5 48.5Q103 78 83.5 121.5Q64 165 64 222Q64 290 91 353Q118 416 166 465Q214 514 279.5 543Q345 572 423 572ZM325 30Q368 30 402 47Q436 64 462.5 92Q489 120 507.5 155Q526 190 538 226Q550 262 555.5 296Q561 330 561 355Q561 436 518.5 482Q476 528 407 528Q365 528 331 512.5Q297 497 271 471Q245 445 225.5 411Q206 377 194 341Q182 305 176 269.5Q170 234 170 204Q170 166 181 134.5Q192 103 212 79.5Q232 56 261 43Q290 30 325 30Z" glyph-name="Ohungarumlaut.smcp" horiz-adv-x="683" /><glyph d="M387 793 404 852H688L671 793ZM521 715Q578 715 631 696Q684 677 724.5 639.5Q765 602 789.5 547.5Q814 493 814 423Q814 338 780.5 259Q747 180 687.5 119Q628 58 547.5 21.5Q467 -15 373 -15Q315 -15 261.5 4Q208 23 167 60.5Q126 98 101.5 152Q77 206 77 277Q77 362 111 441Q145 520 204.5 581Q264 642 345 678.5Q426 715 521 715ZM396 33Q452 33 496 54Q540 75 574 109.5Q608 144 632.5 188Q657 232 672.5 278Q688 324 695 367.5Q702 411 702 445Q702 499 686 540.5Q670 582 642 609.5Q614 637 576.5 651.5Q539 666 496 666Q440 666 395.5 645Q351 624 317 589.5Q283 555 259.5 511Q236 467 220.5 421.5Q205 376 198 332Q191 288 191 254Q191 200 207 158.5Q223 117 250.5 89.5Q278 62 315.5 47.5Q353 33 396 33Z" glyph-name="Omacron" horiz-adv-x="829" unicode="&#332;" /><glyph d="M292 629 310 692H594L576 629ZM423 572Q472 572 516 556.5Q560 541 593.5 511.5Q627 482 647 438Q667 394 667 337Q667 269 639.5 206.5Q612 144 564 95Q516 46 450.5 17Q385 -12 308 -12Q258 -12 214 3.5Q170 19 136.5 48.5Q103 78 83.5 121.5Q64 165 64 222Q64 290 91 353Q118 416 166 465Q214 514 279.5 543Q345 572 423 572ZM325 30Q368 30 402 47Q436 64 462.5 92Q489 120 507.5 155Q526 190 538 226Q550 262 555.5 296Q561 330 561 355Q561 436 518.5 482Q476 528 407 528Q365 528 331 512.5Q297 497 271 471Q245 445 225.5 411Q206 377 194 341Q182 305 176 269.5Q170 234 170 204Q170 166 181 134.5Q192 103 212 79.5Q232 56 261 43Q290 30 325 30Z" glyph-name="Omacron.smcp" horiz-adv-x="683" /><glyph d="M516 678Q472 678 432 667Q392 656 356.5 629Q321 602 290.5 556Q260 510 236 440Q225 408 220 381.5Q215 355 215 333Q215 300 223.5 276.5Q232 253 245.5 237.5Q259 222 276.5 212.5Q294 203 312 198L244 -3Q233 -2 212 -1Q191 0 165 0H69Q62 0 53.5 -0.5Q45 -1 37 -1Q28 -2 19 -2L72 178H105Q103 166 101.5 153Q100 140 100 129Q100 98 114.5 90.5Q129 83 147 83H190Q214 83 227.5 95Q241 107 248 127L265 177Q226 182 196 199Q166 216 146.5 241Q127 266 117 297.5Q107 329 107 362Q107 413 123 461Q144 522 183 569Q222 616 274 648.5Q326 681 388.5 697.5Q451 714 520 714Q584 714 635 698Q686 682 721.5 652.5Q757 623 775.5 581.5Q794 540 794 490Q794 433 773 380.5Q752 328 711.5 286Q671 244 613 215Q555 186 481 177Q475 158 468 135Q461 112 461 102Q461 83 492 83H533Q548 83 570.5 92Q593 101 613 136L637 178H670L603 -2Q595 -2 586 -1Q578 -1 570 -0.5Q562 0 556 0H462Q437 0 413 -1Q389 -2 380 -3L447 199Q478 206 511 220.5Q544 235 574.5 261.5Q605 288 631.5 328Q658 368 676 426Q694 483 694 526Q694 565 679.5 594Q665 623 641 641.5Q617 660 584.5 669Q552 678 516 678Z" glyph-name="Omega" horiz-adv-x="787" unicode="&#8486;" /><glyph d="M396 33Q452 33 496 54Q540 75 574 109.5Q608 144 632.5 188Q657 232 672.5 278Q688 324 695 367.5Q702 411 702 445Q702 485 693 517Q684 549 668 575L260 80Q315 33 396 33ZM191 254Q191 211 201.5 176Q212 141 231 115L641 611Q584 666 496 666Q440 666 396 645Q352 624 318 589.5Q284 555 260 511Q236 467 220.5 421.5Q205 376 198 332Q191 288 191 254ZM521 715Q566 715 608.5 702.5Q651 690 688 667L793 794L827 765L723 641Q765 604 790 549.5Q815 495 815 423Q815 338 781 259Q747 180 688 119Q629 58 548 21.5Q467 -15 373 -15Q287 -15 215 25L109 -104L73 -75L178 51Q132 88 104.5 144.5Q77 201 77 277Q77 362 111 441Q145 520 204.5 581Q264 642 345 678.5Q426 715 521 715Z" glyph-name="Oslash" horiz-adv-x="829" unicode="&#216;" /><glyph d="M170 204Q170 151 192 109L511 488Q491 507 465 517.5Q439 528 407 528Q365 528 331 512.5Q297 497 271 471Q245 445 225.5 411Q206 377 194 341Q182 305 176 269.5Q170 234 170 204ZM325 30Q368 30 402 47Q436 64 462.5 92Q489 120 507.5 155Q526 190 538 226Q550 262 555.5 296Q561 330 561 355Q561 413 537 454L218 72Q238 52 265 41Q292 30 325 30ZM423 572Q458 572 491.5 563.5Q525 555 554 539L635 635L667 607L589 515Q625 486 646 441Q667 396 667 337Q667 269 639.5 206.5Q612 144 564 95Q516 46 450.5 17Q385 -12 308 -12Q271 -12 237.5 -3.5Q204 5 175 21L88 -83L54 -52L139 46Q104 75 84 119.5Q64 164 64 222Q64 290 91 353Q118 416 166 465Q214 514 279.5 543Q345 572 423 572Z" glyph-name="Oslash.smcp" horiz-adv-x="683" /><glyph d="M622 876Q641 876 654 882.5Q667 889 685 916L704 905Q697 887 687.5 869Q678 851 664.5 836Q651 821 634 812Q617 803 595 803Q577 803 560 808.5Q543 814 527 821Q511 828 497 833.5Q483 839 472 839Q455 839 437.5 832.5Q420 826 403 800L383 811Q390 829 400.5 847.5Q411 866 424.5 881Q438 896 455.5 905Q473 914 494 914Q510 914 528 908Q546 902 562.5 895Q579 888 594.5 882Q610 876 622 876ZM521 715Q578 715 631 696Q684 677 724.5 639.5Q765 602 789.5 547.5Q814 493 814 423Q814 338 780.5 259Q747 180 687.5 119Q628 58 547.5 21.5Q467 -15 373 -15Q315 -15 261.5 4Q208 23 167 60.5Q126 98 101.5 152Q77 206 77 277Q77 362 111 441Q145 520 204.5 581Q264 642 345 678.5Q426 715 521 715ZM396 33Q452 33 496 54Q540 75 574 109.5Q608 144 632.5 188Q657 232 672.5 278Q688 324 695 367.5Q702 411 702 445Q702 499 686 540.5Q670 582 642 609.5Q614 637 576.5 651.5Q539 666 496 666Q440 666 395.5 645Q351 624 317 589.5Q283 555 259.5 511Q236 467 220.5 421.5Q205 376 198 332Q191 288 191 254Q191 200 207 158.5Q223 117 250.5 89.5Q278 62 315.5 47.5Q353 33 396 33Z" glyph-name="Otilde" horiz-adv-x="829" unicode="&#213;" /><glyph d="M530 710Q550 710 563 716.5Q576 723 593 750L613 739Q605 721 596 703Q587 685 574 670Q561 655 543.5 646Q526 637 503 637Q485 637 468 643Q451 649 435 655.5Q419 662 404.5 668Q390 674 378 674Q361 674 343.5 667Q326 660 309 634L289 645Q296 664 306.5 683Q317 702 330.5 716Q344 730 361.5 739Q379 748 400 748Q416 748 433.5 742Q451 736 467.5 729Q484 722 500 716Q516 710 530 710ZM423 572Q472 572 516 556.5Q560 541 593.5 511.5Q627 482 647 438Q667 394 667 337Q667 269 639.5 206.5Q612 144 564 95Q516 46 450.5 17Q385 -12 308 -12Q258 -12 214 3.5Q170 19 136.5 48.5Q103 78 83.5 121.5Q64 165 64 222Q64 290 91 353Q118 416 166 465Q214 514 279.5 543Q345 572 423 572ZM325 30Q368 30 402 47Q436 64 462.5 92Q489 120 507.5 155Q526 190 538 226Q550 262 555.5 296Q561 330 561 355Q561 436 518.5 482Q476 528 407 528Q365 528 331 512.5Q297 497 271 471Q245 445 225.5 411Q206 377 194 341Q182 305 176 269.5Q170 234 170 204Q170 166 181 134.5Q192 103 212 79.5Q232 56 261 43Q290 30 325 30Z" glyph-name="Otilde.smcp" horiz-adv-x="683" /><glyph d="M289 349Q260 249 243.5 192Q227 135 220 109Q213 82 213 71Q213 49 249 43L316 33L303 -5L132 0L-26 -5L-14 33L40 43Q67 48 80 58Q93 68 102 91Q111 119 123 158Q134 191 148.5 238.5Q163 286 182 349Q200 411 214 459Q228 507 237 540Q248 579 255 607Q258 619 258 628Q258 642 249.5 647.5Q241 653 222 656L161 666L175 705L377 701Q382 702 412.5 706.5Q443 711 485 711Q542 711 585 694Q628 677 657.5 648Q687 619 701.5 581.5Q716 544 716 502Q716 453 698.5 412Q681 371 651 341Q621 311 580.5 294.5Q540 278 493 278Q457 278 430 287Q403 296 385.5 310Q368 324 359.5 340.5Q351 357 351 372Q351 392 363 405Q375 418 395 418Q411 418 421.5 407Q432 396 432 381Q432 361 419.5 350Q407 339 393 336Q408 328 424.5 323Q441 318 458 318Q486 318 513 330Q540 342 560.5 365Q581 388 593.5 421.5Q606 455 606 499Q606 548 588.5 580Q571 612 546.5 630.5Q522 649 494 656Q466 663 445 663H411Q398 663 389.5 657.5Q381 652 372.5 632.5Q364 613 352.5 573.5Q341 534 322 467Z" glyph-name="P" horiz-adv-x="680" unicode="P" /><glyph d="M148 564 283 557Q297 559 316 562Q332 564 355 566Q378 568 407 568Q452 568 487.5 554.5Q523 541 547 517.5Q571 494 583.5 462.5Q596 431 596 395Q596 353 581 316.5Q566 280 540.5 253.5Q515 227 481 212Q447 197 408 197Q381 197 360 204.5Q339 212 325.5 224Q312 236 305 250Q298 264 298 278Q298 298 310.5 311Q323 324 340 324Q356 324 366.5 314.5Q377 305 377 288Q377 271 366 261Q355 251 341 248Q356 234 384 234Q435 234 465.5 276.5Q496 319 496 387Q496 430 482 457.5Q468 485 447.5 500.5Q427 516 404.5 521.5Q382 527 365 527H335Q322 527 318 515L306 473Q300 452 290.5 421Q281 390 269 348L248 276Q237 238 226 202Q215 166 207 136.5Q199 107 194 87.5Q189 68 189 63Q189 44 218 40L279 32L268 -4L116 0L-19 -4L-8 32L35 40Q55 44 66 52.5Q77 61 85 79Q93 103 103 134Q111 160 122 197Q133 234 147 279Q166 343 177.5 383.5Q189 424 195.5 447.5Q202 471 204 481.5Q206 492 206 496Q206 507 199 511.5Q192 516 176 519L136 527Z" glyph-name="P.smcp" horiz-adv-x="574" /><glyph d="M201 126Q175 126 155 112.5Q135 99 135 73Q135 42 162.5 27.5Q190 13 227 13Q246 13 266 16Q286 19 304.5 24Q323 29 338.5 35Q354 41 363 46Q346 64 326 78.5Q306 93 284 103.5Q262 114 240.5 120Q219 126 201 126ZM390 19Q373 10 349 2Q325 -6 298 -12.5Q271 -19 243 -23Q215 -27 190 -27Q162 -27 136.5 -21.5Q111 -16 91.5 -4Q72 8 60 27Q48 46 48 73Q48 109 80 136.5Q112 164 176 164Q213 164 247 156Q281 148 311 134.5Q341 121 368 104Q395 87 418 70Q467 93 510.5 128Q554 163 586 207.5Q618 252 636.5 306Q655 360 655 421Q655 487 636 533.5Q617 580 586 609.5Q555 639 515.5 652.5Q476 666 434 666Q375 666 332 646.5Q289 627 260.5 596Q232 565 218.5 526Q205 487 205 447Q205 412 215.5 379Q226 346 246 320.5Q266 295 295.5 280Q325 265 363 265Q382 265 400.5 271.5Q419 278 434 289Q449 300 458.5 314.5Q468 329 468 346Q468 369 458.5 381.5Q449 394 435.5 401.5Q422 409 405.5 413.5Q389 418 375.5 425Q362 432 352.5 444.5Q343 457 343 479Q343 499 359.5 517.5Q376 536 406 536Q434 536 455 521Q476 506 489.5 484Q503 462 510 437.5Q517 413 517 394Q517 356 504 323.5Q491 291 467 267Q443 243 409 229.5Q375 216 333 216Q280 216 238 233Q196 250 166 280Q136 310 120 350.5Q104 391 104 437Q104 487 124.5 537Q145 587 187 626.5Q229 666 293.5 690.5Q358 715 446 715Q508 715 566.5 695.5Q625 676 670.5 638.5Q716 601 743.5 545.5Q771 490 771 419Q771 347 738 287Q705 227 656.5 180Q608 133 551.5 99.5Q495 66 449 47Q471 33 503.5 11Q536 -11 574 -36Q612 -61 654.5 -86Q697 -111 740.5 -131.5Q784 -152 827 -164.5Q870 -177 909 -177Q925 -177 938 -169.5Q951 -162 951 -145Q951 -131 940.5 -113.5Q930 -96 930 -76Q930 -60 940 -47.5Q950 -35 973 -35Q995 -35 1010 -50.5Q1025 -66 1025 -92Q1025 -122 1007.5 -150.5Q990 -179 960 -200.5Q930 -222 890.5 -235Q851 -248 807 -248Q741 -248 686.5 -223.5Q632 -199 583 -161Q534 -123 487.5 -75.5Q441 -28 390 19Z" glyph-name="Q" horiz-adv-x="777" unicode="Q" /><glyph d="M164 90Q140 90 127.5 80.5Q115 71 115 55Q115 17 182 17Q196 17 212 19Q228 21 242.5 24Q257 27 269 30.5Q281 34 288 38Q263 62 228 76Q193 90 164 90ZM311 13Q296 7 276.5 0Q257 -7 235.5 -12Q214 -17 191.5 -20.5Q169 -24 148 -24Q99 -24 65 -4.5Q31 15 31 56Q31 72 37.5 86.5Q44 101 57 112Q70 123 90.5 130Q111 137 139 137Q169 137 196.5 129.5Q224 122 249 111Q274 100 296.5 86.5Q319 73 338 60Q380 78 415 105Q450 132 475.5 167Q501 202 515 244Q529 286 529 334Q529 381 515.5 417.5Q502 454 478 478.5Q454 503 422 516Q390 529 354 529Q313 529 281 513.5Q249 498 227 473.5Q205 449 193.5 417.5Q182 386 182 354Q182 327 190 301.5Q198 276 214 256.5Q230 237 252 225.5Q274 214 303 214Q342 214 360 232.5Q378 251 380 271Q380 290 365 295Q350 300 332 305Q315 310 301.5 322.5Q288 335 288 361Q288 381 303 397Q318 413 346 413Q367 413 382.5 402.5Q398 392 407.5 376Q417 360 421.5 342Q426 324 426 309Q426 283 416 256.5Q406 230 386.5 209Q367 188 338.5 174.5Q310 161 273 161Q238 161 206 173.5Q174 186 149 209Q124 232 109.5 265.5Q95 299 95 340Q95 383 113 425Q131 467 165.5 499.5Q200 532 250.5 552Q301 572 366 572Q424 572 474 555.5Q524 539 560 508.5Q596 478 616.5 435.5Q637 393 637 341Q637 279 610 229.5Q583 180 542.5 143Q502 106 455 80Q408 54 369 39Q413 12 463 -21.5Q513 -55 563.5 -84.5Q614 -114 662 -133.5Q710 -153 749 -153Q769 -153 782 -147Q795 -141 795 -130Q795 -124 791 -118.5Q787 -113 781.5 -107Q776 -101 772 -93.5Q768 -86 768 -76Q768 -59 779.5 -46Q791 -33 811 -33Q830 -33 846 -47.5Q862 -62 862 -91Q862 -117 846.5 -140.5Q831 -164 804.5 -181.5Q778 -199 742.5 -209.5Q707 -220 668 -220Q622 -220 581.5 -204.5Q541 -189 504 -163.5Q467 -138 431.5 -104.5Q396 -71 360 -35Z" glyph-name="Q.smcp" horiz-adv-x="647" /><glyph d="M396 663Q384 663 380.5 659Q377 655 375 647L296 377Q304 374 312 371.5Q320 369 330.5 366.5Q341 364 355.5 362.5Q370 361 391 361Q426 361 459 373Q492 385 517.5 407.5Q543 430 558 461.5Q573 493 573 531Q573 597 535.5 630Q498 663 438 663ZM333 702Q343 702 357.5 702Q372 702 389 703Q397 703 430.5 707Q464 711 506 711Q540 711 573.5 699Q607 687 633.5 664.5Q660 642 676 611Q692 580 692 542Q692 508 679 473.5Q666 439 637 410Q608 381 562 360Q516 339 449 332Q464 310 482.5 282Q501 254 521.5 223.5Q542 193 564 160.5Q586 128 607 97Q627 68 657 51.5Q687 35 745 31L724 -4H643Q588 -4 561.5 4Q535 12 521 33Q513 46 498.5 69Q484 92 466.5 120Q449 148 429.5 178.5Q410 209 392.5 237Q375 265 360 288Q345 311 337 323Q323 323 309.5 323Q296 323 282 324Q268 279 256 236Q245 199 234.5 159Q224 119 216 91Q215 87 214.5 84Q214 81 214 78Q214 50 251 43L307 33L296 -5L132 0L-26 -5L-14 33L40 43Q67 48 80 58Q93 68 102 91Q111 119 123 158Q134 191 148.5 238.5Q163 286 182 349Q201 411 214.5 459Q228 507 237 540Q248 579 255 607Q256 613 256.5 617.5Q257 622 257 626Q257 640 249 646.5Q241 653 222 656L161 666L175 705Z" glyph-name="R" horiz-adv-x="756" unicode="R" /><glyph d="M337 525Q327 525 324.5 521Q322 517 320 512L256 304Q269 299 287 294.5Q305 290 331 290Q359 290 383.5 299.5Q408 309 426.5 326Q445 343 455.5 368Q466 393 466 424Q466 476 435 500.5Q404 525 358 525ZM147 279Q166 342 178 382.5Q190 423 196.5 447Q203 471 205 481.5Q207 492 207 496Q207 507 200 511.5Q193 516 177 519L137 527L148 564L303 561Q313 562 327.5 563Q342 564 358.5 565.5Q375 567 392 568Q409 569 424 569Q452 569 479 560Q506 551 527.5 533.5Q549 516 562.5 490.5Q576 465 576 432Q576 406 566 380Q556 354 534 331.5Q512 309 477.5 291.5Q443 274 395 267Q411 241 440 190Q469 139 509 83Q525 59 549 46.5Q573 34 620 31L603 -5Q586 -6 563 -6.5Q540 -7 524 -7Q495 -7 477.5 -5Q460 -3 449 1Q438 5 432.5 11.5Q427 18 422 26Q413 41 395.5 72.5Q378 104 358.5 138.5Q339 173 321.5 205Q304 237 294 253L242 255Q237 239 224.5 195Q212 151 192 79Q191 75 190 70Q189 65 189 63Q189 44 220 40L268 33L258 -4L117 0L-19 -4L-8 32L27 39Q53 44 65 50.5Q77 57 85 79Q94 109 105 142Q114 171 125 206Q136 241 147 279Z" glyph-name="R.smcp" horiz-adv-x="633" /><glyph d="M523 953H657L448 764L407 770ZM396 663Q384 663 380.5 659Q377 655 375 647L296 377Q304 374 312 371.5Q320 369 330.5 366.5Q341 364 355.5 362.5Q370 361 391 361Q426 361 459 373Q492 385 517.5 407.5Q543 430 558 461.5Q573 493 573 531Q573 597 535.5 630Q498 663 438 663ZM333 702Q343 702 357.5 702Q372 702 389 703Q397 703 430.5 707Q464 711 506 711Q540 711 573.5 699Q607 687 633.5 664.5Q660 642 676 611Q692 580 692 542Q692 508 679 473.5Q666 439 637 410Q608 381 562 360Q516 339 449 332Q464 310 482.5 282Q501 254 521.5 223.5Q542 193 564 160.5Q586 128 607 97Q627 68 657 51.5Q687 35 745 31L724 -4H643Q588 -4 561.5 4Q535 12 521 33Q513 46 498.5 69Q484 92 466.5 120Q449 148 429.5 178.5Q410 209 392.5 237Q375 265 360 288Q345 311 337 323Q323 323 309.5 323Q296 323 282 324Q268 279 256 236Q245 199 234.5 159Q224 119 216 91Q215 87 214.5 84Q214 81 214 78Q214 50 251 43L307 33L296 -5L132 0L-26 -5L-14 33L40 43Q67 48 80 58Q93 68 102 91Q111 119 123 158Q134 191 148.5 238.5Q163 286 182 349Q201 411 214.5 459Q228 507 237 540Q248 579 255 607Q256 613 256.5 617.5Q257 622 257 626Q257 640 249 646.5Q241 653 222 656L161 666L175 705Z" glyph-name="Racute" horiz-adv-x="756" unicode="&#340;" /><glyph d="M453 800H587L378 611L337 617ZM337 525Q327 525 324.5 521Q322 517 320 512L256 304Q269 299 287 294.5Q305 290 331 290Q359 290 383.5 299.5Q408 309 426.5 326Q445 343 455.5 368Q466 393 466 424Q466 476 435 500.5Q404 525 358 525ZM147 279Q166 342 178 382.5Q190 423 196.5 447Q203 471 205 481.5Q207 492 207 496Q207 507 200 511.5Q193 516 177 519L137 527L148 564L303 561Q313 562 327.5 563Q342 564 358.5 565.5Q375 567 392 568Q409 569 424 569Q452 569 479 560Q506 551 527.5 533.5Q549 516 562.5 490.5Q576 465 576 432Q576 406 566 380Q556 354 534 331.5Q512 309 477.5 291.5Q443 274 395 267Q411 241 440 190Q469 139 509 83Q525 59 549 46.5Q573 34 620 31L603 -5Q586 -6 563 -6.5Q540 -7 524 -7Q495 -7 477.5 -5Q460 -3 449 1Q438 5 432.5 11.5Q427 18 422 26Q413 41 395.5 72.5Q378 104 358.5 138.5Q339 173 321.5 205Q304 237 294 253L242 255Q237 239 224.5 195Q212 151 192 79Q191 75 190 70Q189 65 189 63Q189 44 220 40L268 33L258 -4L117 0L-19 -4L-8 32L27 39Q53 44 65 50.5Q77 57 85 79Q94 109 105 142Q114 171 125 206Q136 241 147 279Z" glyph-name="Racute.smcp" horiz-adv-x="633" /><glyph d="M334 941 361 959 452 848H454L624 959L643 938L464 760H410ZM396 663Q384 663 380.5 659Q377 655 375 647L296 377Q304 374 312 371.5Q320 369 330.5 366.5Q341 364 355.5 362.5Q370 361 391 361Q426 361 459 373Q492 385 517.5 407.5Q543 430 558 461.5Q573 493 573 531Q573 597 535.5 630Q498 663 438 663ZM333 702Q343 702 357.5 702Q372 702 389 703Q397 703 430.5 707Q464 711 506 711Q540 711 573.5 699Q607 687 633.5 664.5Q660 642 676 611Q692 580 692 542Q692 508 679 473.5Q666 439 637 410Q608 381 562 360Q516 339 449 332Q464 310 482.5 282Q501 254 521.5 223.5Q542 193 564 160.5Q586 128 607 97Q627 68 657 51.5Q687 35 745 31L724 -4H643Q588 -4 561.5 4Q535 12 521 33Q513 46 498.5 69Q484 92 466.5 120Q449 148 429.5 178.5Q410 209 392.5 237Q375 265 360 288Q345 311 337 323Q323 323 309.5 323Q296 323 282 324Q268 279 256 236Q245 199 234.5 159Q224 119 216 91Q215 87 214.5 84Q214 81 214 78Q214 50 251 43L307 33L296 -5L132 0L-26 -5L-14 33L40 43Q67 48 80 58Q93 68 102 91Q111 119 123 158Q134 191 148.5 238.5Q163 286 182 349Q201 411 214.5 459Q228 507 237 540Q248 579 255 607Q256 613 256.5 617.5Q257 622 257 626Q257 640 249 646.5Q241 653 222 656L161 666L175 705Z" glyph-name="Rcaron" horiz-adv-x="756" unicode="&#344;" /><glyph d="M261 783 289 801 379 688H381L549 799L567 778L392 603H338ZM337 525Q327 525 324.5 521Q322 517 320 512L256 304Q269 299 287 294.5Q305 290 331 290Q359 290 383.5 299.5Q408 309 426.5 326Q445 343 455.5 368Q466 393 466 424Q466 476 435 500.5Q404 525 358 525ZM147 279Q166 342 178 382.5Q190 423 196.5 447Q203 471 205 481.5Q207 492 207 496Q207 507 200 511.5Q193 516 177 519L137 527L148 564L303 561Q313 562 327.5 563Q342 564 358.5 565.5Q375 567 392 568Q409 569 424 569Q452 569 479 560Q506 551 527.5 533.5Q549 516 562.5 490.5Q576 465 576 432Q576 406 566 380Q556 354 534 331.5Q512 309 477.5 291.5Q443 274 395 267Q411 241 440 190Q469 139 509 83Q525 59 549 46.5Q573 34 620 31L603 -5Q586 -6 563 -6.5Q540 -7 524 -7Q495 -7 477.5 -5Q460 -3 449 1Q438 5 432.5 11.5Q427 18 422 26Q413 41 395.5 72.5Q378 104 358.5 138.5Q339 173 321.5 205Q304 237 294 253L242 255Q237 239 224.5 195Q212 151 192 79Q191 75 190 70Q189 65 189 63Q189 44 220 40L268 33L258 -4L117 0L-19 -4L-8 32L27 39Q53 44 65 50.5Q77 57 85 79Q94 109 105 142Q114 171 125 206Q136 241 147 279Z" glyph-name="Rcaron.smcp" horiz-adv-x="633" /><glyph d="M197 -303Q263 -279 291.5 -248Q320 -217 320 -187Q320 -164 299.5 -148.5Q279 -133 250 -125Q250 -113 258 -100.5Q266 -88 277 -77.5Q288 -67 301 -60.5Q314 -54 324 -54Q337 -54 352 -60Q367 -66 380 -77.5Q393 -89 401.5 -106.5Q410 -124 410 -147Q410 -182 392 -211.5Q374 -241 345 -264Q316 -287 280.5 -303.5Q245 -320 210 -329ZM396 663Q384 663 380.5 659Q377 655 375 647L296 377Q304 374 312 371.5Q320 369 330.5 366.5Q341 364 355.5 362.5Q370 361 391 361Q426 361 459 373Q492 385 517.5 407.5Q543 430 558 461.5Q573 493 573 531Q573 597 535.5 630Q498 663 438 663ZM333 702Q343 702 357.5 702Q372 702 389 703Q397 703 430.5 707Q464 711 506 711Q540 711 573.5 699Q607 687 633.5 664.5Q660 642 676 611Q692 580 692 542Q692 508 679 473.5Q666 439 637 410Q608 381 562 360Q516 339 449 332Q464 310 482.5 282Q501 254 521.5 223.5Q542 193 564 160.5Q586 128 607 97Q627 68 657 51.5Q687 35 745 31L724 -4H643Q588 -4 561.5 4Q535 12 521 33Q513 46 498.5 69Q484 92 466.5 120Q449 148 429.5 178.5Q410 209 392.5 237Q375 265 360 288Q345 311 337 323Q323 323 309.5 323Q296 323 282 324Q268 279 256 236Q245 199 234.5 159Q224 119 216 91Q215 87 214.5 84Q214 81 214 78Q214 50 251 43L307 33L296 -5L132 0L-26 -5L-14 33L40 43Q67 48 80 58Q93 68 102 91Q111 119 123 158Q134 191 148.5 238.5Q163 286 182 349Q201 411 214.5 459Q228 507 237 540Q248 579 255 607Q256 613 256.5 617.5Q257 622 257 626Q257 640 249 646.5Q241 653 222 656L161 666L175 705Z" glyph-name="Rcommaaccent" horiz-adv-x="756" unicode="&#342;" /><glyph d="M144 -303Q210 -279 238.5 -248Q267 -217 267 -187Q267 -164 248.5 -149.5Q230 -135 201 -126L197 -123Q199 -112 207 -100Q215 -88 225.5 -77.5Q236 -67 248 -60.5Q260 -54 271 -54Q284 -54 299 -60Q314 -66 327 -77.5Q340 -89 348.5 -106.5Q357 -124 357 -147Q357 -182 339 -211.5Q321 -241 292.5 -264Q264 -287 228.5 -303.5Q193 -320 158 -329ZM337 525Q327 525 324.5 521Q322 517 320 512L256 304Q269 299 287 294.5Q305 290 331 290Q359 290 383.5 299.5Q408 309 426.5 326Q445 343 455.5 368Q466 393 466 424Q466 476 435 500.5Q404 525 358 525ZM147 279Q166 342 178 382.5Q190 423 196.5 447Q203 471 205 481.5Q207 492 207 496Q207 507 200 511.5Q193 516 177 519L137 527L148 564L303 561Q313 562 327.5 563Q342 564 358.5 565.5Q375 567 392 568Q409 569 424 569Q452 569 479 560Q506 551 527.5 533.5Q549 516 562.5 490.5Q576 465 576 432Q576 406 566 380Q556 354 534 331.5Q512 309 477.5 291.5Q443 274 395 267Q411 241 440 190Q469 139 509 83Q525 59 549 46.5Q573 34 620 31L603 -5Q586 -6 563 -6.5Q540 -7 524 -7Q495 -7 477.5 -5Q460 -3 449 1Q438 5 432.5 11.5Q427 18 422 26Q413 41 395.5 72.5Q378 104 358.5 138.5Q339 173 321.5 205Q304 237 294 253L242 255Q237 239 224.5 195Q212 151 192 79Q191 75 190 70Q189 65 189 63Q189 44 220 40L268 33L258 -4L117 0L-19 -4L-8 32L27 39Q53 44 65 50.5Q77 57 85 79Q94 109 105 142Q114 171 125 206Q136 241 147 279Z" glyph-name="Rcommaaccent.smcp" horiz-adv-x="633" /><glyph d="M120 71Q140 53 173.5 43Q207 33 244 33Q277 33 304.5 42Q332 51 352 67.5Q372 84 383 107.5Q394 131 394 160Q394 198 376 228.5Q358 259 331 286Q304 313 272.5 338.5Q241 364 214 392.5Q187 421 169 454.5Q151 488 151 530Q151 575 170 609.5Q189 644 222 667.5Q255 691 298.5 703Q342 715 391 715Q421 715 452 711Q483 707 509.5 700.5Q536 694 556.5 686.5Q577 679 588 672Q579 651 568 625Q559 603 548.5 573Q538 543 528 508H486L481 652Q461 659 437 664Q413 669 389 669Q335 669 297.5 643Q260 617 260 564Q260 531 278 503Q296 475 322.5 448.5Q349 422 380 395.5Q411 369 437.5 339.5Q464 310 482 275.5Q500 241 500 198Q500 145 478 105.5Q456 66 418.5 39Q381 12 332 -1.5Q283 -15 230 -15Q167 -15 108 -3.5Q49 8 6 28Q19 52 31 83Q42 109 54.5 145Q67 181 78 225L132 237Z" glyph-name="S" horiz-adv-x="567" unicode="S" /><glyph d="M103 59Q115 48 141.5 39Q168 30 201 30Q256 30 287 59Q318 88 318 130Q318 158 303.5 181.5Q289 205 267 227Q245 249 220 270Q195 291 173 314.5Q151 338 136.5 364.5Q122 391 122 424Q122 460 137.5 487.5Q153 515 179.5 533.5Q206 552 241.5 561.5Q277 571 317 571Q341 571 367 567.5Q393 564 416 559Q439 554 457 548Q475 542 483 536Q476 519 468 499Q461 482 452.5 457.5Q444 433 436 405H399L395 516Q379 521 360.5 524.5Q342 528 322 528Q280 528 252 509.5Q224 491 224 451Q224 427 238.5 406Q253 385 274 364Q295 343 320.5 322Q346 301 367 276.5Q388 252 402.5 224Q417 196 417 161Q417 120 399.5 88Q382 56 352.5 34Q323 12 283.5 0Q244 -12 201 -12Q175 -12 148 -9.5Q121 -7 95.5 -2.5Q70 2 47 8Q24 14 6 22Q16 41 27 66Q36 87 46 116Q56 145 65 180L112 190Z" glyph-name="S.smcp" horiz-adv-x="473" /><glyph d="M465 953H599L390 764L349 770ZM120 71Q140 53 173.5 43Q207 33 244 33Q277 33 304.5 42Q332 51 352 67.5Q372 84 383 107.5Q394 131 394 160Q394 198 376 228.5Q358 259 331 286Q304 313 272.5 338.5Q241 364 214 392.5Q187 421 169 454.5Q151 488 151 530Q151 575 170 609.5Q189 644 222 667.5Q255 691 298.5 703Q342 715 391 715Q421 715 452 711Q483 707 509.5 700.5Q536 694 556.5 686.5Q577 679 588 672Q579 651 568 625Q559 603 548.5 573Q538 543 528 508H486L481 652Q461 659 437 664Q413 669 389 669Q335 669 297.5 643Q260 617 260 564Q260 531 278 503Q296 475 322.5 448.5Q349 422 380 395.5Q411 369 437.5 339.5Q464 310 482 275.5Q500 241 500 198Q500 145 478 105.5Q456 66 418.5 39Q381 12 332 -1.5Q283 -15 230 -15Q167 -15 108 -3.5Q49 8 6 28Q19 52 31 83Q42 109 54.5 145Q67 181 78 225L132 237Z" glyph-name="Sacute" horiz-adv-x="567" unicode="&#346;" /><glyph d="M410 800H544L335 611L294 617ZM103 59Q115 48 141.5 39Q168 30 201 30Q256 30 287 59Q318 88 318 130Q318 158 303.5 181.5Q289 205 267 227Q245 249 220 270Q195 291 173 314.5Q151 338 136.5 364.5Q122 391 122 424Q122 460 137.5 487.5Q153 515 179.5 533.5Q206 552 241.5 561.5Q277 571 317 571Q341 571 367 567.5Q393 564 416 559Q439 554 457 548Q475 542 483 536Q476 519 468 499Q461 482 452.5 457.5Q444 433 436 405H399L395 516Q379 521 360.5 524.5Q342 528 322 528Q280 528 252 509.5Q224 491 224 451Q224 427 238.5 406Q253 385 274 364Q295 343 320.5 322Q346 301 367 276.5Q388 252 402.5 224Q417 196 417 161Q417 120 399.5 88Q382 56 352.5 34Q323 12 283.5 0Q244 -12 201 -12Q175 -12 148 -9.5Q121 -7 95.5 -2.5Q70 2 47 8Q24 14 6 22Q16 41 27 66Q36 87 46 116Q56 145 65 180L112 190Z" glyph-name="Sacute.smcp" horiz-adv-x="473" /><glyph d="M271 941 298 959 389 848H391L561 959L580 938L401 760H347ZM120 71Q140 53 173.5 43Q207 33 244 33Q277 33 304.5 42Q332 51 352 67.5Q372 84 383 107.5Q394 131 394 160Q394 198 376 228.5Q358 259 331 286Q304 313 272.5 338.5Q241 364 214 392.5Q187 421 169 454.5Q151 488 151 530Q151 575 170 609.5Q189 644 222 667.5Q255 691 298.5 703Q342 715 391 715Q421 715 452 711Q483 707 509.5 700.5Q536 694 556.5 686.5Q577 679 588 672Q579 651 568 625Q559 603 548.5 573Q538 543 528 508H486L481 652Q461 659 437 664Q413 669 389 669Q335 669 297.5 643Q260 617 260 564Q260 531 278 503Q296 475 322.5 448.5Q349 422 380 395.5Q411 369 437.5 339.5Q464 310 482 275.5Q500 241 500 198Q500 145 478 105.5Q456 66 418.5 39Q381 12 332 -1.5Q283 -15 230 -15Q167 -15 108 -3.5Q49 8 6 28Q19 52 31 83Q42 109 54.5 145Q67 181 78 225L132 237Z" glyph-name="Scaron" horiz-adv-x="567" unicode="&#352;" /><glyph d="M219 783 247 801 337 688H339L507 799L525 778L350 603H296ZM103 59Q115 48 141.5 39Q168 30 201 30Q256 30 287 59Q318 88 318 130Q318 158 303.5 181.5Q289 205 267 227Q245 249 220 270Q195 291 173 314.5Q151 338 136.5 364.5Q122 391 122 424Q122 460 137.5 487.5Q153 515 179.5 533.5Q206 552 241.5 561.5Q277 571 317 571Q341 571 367 567.5Q393 564 416 559Q439 554 457 548Q475 542 483 536Q476 519 468 499Q461 482 452.5 457.5Q444 433 436 405H399L395 516Q379 521 360.5 524.5Q342 528 322 528Q280 528 252 509.5Q224 491 224 451Q224 427 238.5 406Q253 385 274 364Q295 343 320.5 322Q346 301 367 276.5Q388 252 402.5 224Q417 196 417 161Q417 120 399.5 88Q382 56 352.5 34Q323 12 283.5 0Q244 -12 201 -12Q175 -12 148 -9.5Q121 -7 95.5 -2.5Q70 2 47 8Q24 14 6 22Q16 41 27 66Q36 87 46 116Q56 145 65 180L112 190Z" glyph-name="Scaron.smcp" horiz-adv-x="473" /><glyph d="M120 71Q140 53 173.5 43Q207 33 244 33Q277 33 304.5 42Q332 51 352 67.5Q372 84 383 107.5Q394 131 394 160Q394 198 376 228.5Q358 259 331 286Q304 313 272.5 338.5Q241 364 214 392.5Q187 421 169 454.5Q151 488 151 530Q151 575 170 609.5Q189 644 222 667.5Q255 691 298.5 703Q342 715 391 715Q421 715 452 711Q483 707 509.5 700.5Q536 694 556.5 686.5Q577 679 588 672Q579 651 568 625Q559 603 548.5 573Q538 543 528 508H486L481 652Q461 659 437 664Q413 669 389 669Q335 669 297.5 643Q260 617 260 564Q260 531 278 503Q296 475 322.5 448.5Q349 422 380 395.5Q411 369 437.5 339.5Q464 310 482 275.5Q500 241 500 198Q500 148 480.5 110Q461 72 427 45.5Q393 19 348.5 4Q304 -11 255 -14L205 -60Q251 -74 281.5 -101Q312 -128 312 -166Q312 -214 274 -246Q236 -278 166 -278Q134 -278 102 -269Q70 -260 51 -248L64 -216Q104 -236 143 -236Q180 -236 201 -220.5Q222 -205 222 -173Q222 -155 209 -140Q196 -125 177.5 -114Q159 -103 139.5 -94.5Q120 -86 107 -81L205 -14Q148 -12 96 -1Q44 10 6 28Q19 52 31 83Q42 109 54.5 145Q67 181 78 225L132 237Z" glyph-name="Scedilla" horiz-adv-x="567" unicode="&#350;" /><glyph d="M103 59Q115 48 141.5 39Q168 30 201 30Q256 30 287 59Q318 88 318 130Q318 158 303.5 181.5Q289 205 267 227Q245 249 220 270Q195 291 173 314.5Q151 338 136.5 364.5Q122 391 122 424Q122 460 137.5 487.5Q153 515 179.5 533.5Q206 552 241.5 561.5Q277 571 317 571Q341 571 367 567.5Q393 564 416 559Q439 554 457 548Q475 542 483 536Q476 519 468 499Q461 482 452.5 457.5Q444 433 436 405H399L395 516Q379 521 360.5 524.5Q342 528 322 528Q280 528 252 509.5Q224 491 224 451Q224 427 238.5 406Q253 385 274 364Q295 343 320.5 322Q346 301 367 276.5Q388 252 402.5 224Q417 196 417 161Q417 122 400.5 90.5Q384 59 356.5 37Q329 15 292 2.5Q255 -10 213 -12L160 -60Q206 -74 236.5 -101Q267 -128 267 -166Q267 -214 229 -246Q191 -278 121 -278Q89 -278 57 -269Q25 -260 6 -248L19 -216Q59 -236 99 -236Q136 -236 156.5 -220.5Q177 -205 177 -173Q177 -155 164 -140Q151 -125 132.5 -114Q114 -103 94.5 -94.5Q75 -86 62 -81L166 -11Q121 -8 78 0.5Q35 9 6 22Q16 41 27 66Q36 87 46 116Q56 145 65 180L112 190Z" glyph-name="Scedilla.smcp" horiz-adv-x="473" /><glyph d="M396 959H450L540 778L515 760L412 870H410L248 761L228 778ZM120 71Q140 53 173.5 43Q207 33 244 33Q277 33 304.5 42Q332 51 352 67.5Q372 84 383 107.5Q394 131 394 160Q394 198 376 228.5Q358 259 331 286Q304 313 272.5 338.5Q241 364 214 392.5Q187 421 169 454.5Q151 488 151 530Q151 575 170 609.5Q189 644 222 667.5Q255 691 298.5 703Q342 715 391 715Q421 715 452 711Q483 707 509.5 700.5Q536 694 556.5 686.5Q577 679 588 672Q579 651 568 625Q559 603 548.5 573Q538 543 528 508H486L481 652Q461 659 437 664Q413 669 389 669Q335 669 297.5 643Q260 617 260 564Q260 531 278 503Q296 475 322.5 448.5Q349 422 380 395.5Q411 369 437.5 339.5Q464 310 482 275.5Q500 241 500 198Q500 145 478 105.5Q456 66 418.5 39Q381 12 332 -1.5Q283 -15 230 -15Q167 -15 108 -3.5Q49 8 6 28Q19 52 31 83Q42 109 54.5 145Q67 181 78 225L132 237Z" glyph-name="Scircumflex" horiz-adv-x="567" unicode="&#348;" /><glyph d="M336 801H390L476 621L450 602L351 715H349L189 608L168 627ZM103 59Q115 48 141.5 39Q168 30 201 30Q256 30 287 59Q318 88 318 130Q318 158 303.5 181.5Q289 205 267 227Q245 249 220 270Q195 291 173 314.5Q151 338 136.5 364.5Q122 391 122 424Q122 460 137.5 487.5Q153 515 179.5 533.5Q206 552 241.5 561.5Q277 571 317 571Q341 571 367 567.5Q393 564 416 559Q439 554 457 548Q475 542 483 536Q476 519 468 499Q461 482 452.5 457.5Q444 433 436 405H399L395 516Q379 521 360.5 524.5Q342 528 322 528Q280 528 252 509.5Q224 491 224 451Q224 427 238.5 406Q253 385 274 364Q295 343 320.5 322Q346 301 367 276.5Q388 252 402.5 224Q417 196 417 161Q417 120 399.5 88Q382 56 352.5 34Q323 12 283.5 0Q244 -12 201 -12Q175 -12 148 -9.5Q121 -7 95.5 -2.5Q70 2 47 8Q24 14 6 22Q16 41 27 66Q36 87 46 116Q56 145 65 180L112 190Z" glyph-name="Scircumflex.smcp" horiz-adv-x="473" /><glyph d="M69 -303Q135 -279 163.5 -248Q192 -217 192 -187Q192 -164 171.5 -148.5Q151 -133 122 -125Q122 -113 130 -100.5Q138 -88 149 -77.5Q160 -67 173 -60.5Q186 -54 196 -54Q209 -54 224 -60Q239 -66 252 -77.5Q265 -89 273.5 -106.5Q282 -124 282 -147Q282 -182 264 -211.5Q246 -241 217 -264Q188 -287 152.5 -303.5Q117 -320 82 -329ZM120 71Q140 53 173.5 43Q207 33 244 33Q277 33 304.5 42Q332 51 352 67.5Q372 84 383 107.5Q394 131 394 160Q394 198 376 228.5Q358 259 331 286Q304 313 272.5 338.5Q241 364 214 392.5Q187 421 169 454.5Q151 488 151 530Q151 575 170 609.5Q189 644 222 667.5Q255 691 298.5 703Q342 715 391 715Q421 715 452 711Q483 707 509.5 700.5Q536 694 556.5 686.5Q577 679 588 672Q579 651 568 625Q559 603 548.5 573Q538 543 528 508H486L481 652Q461 659 437 664Q413 669 389 669Q335 669 297.5 643Q260 617 260 564Q260 531 278 503Q296 475 322.5 448.5Q349 422 380 395.5Q411 369 437.5 339.5Q464 310 482 275.5Q500 241 500 198Q500 145 478 105.5Q456 66 418.5 39Q381 12 332 -1.5Q283 -15 230 -15Q167 -15 108 -3.5Q49 8 6 28Q19 52 31 83Q42 109 54.5 145Q67 181 78 225L132 237Z" glyph-name="Scommaaccent" horiz-adv-x="567" unicode="&#536;" /><glyph d="M41 -303Q107 -279 135.5 -248Q164 -217 164 -187Q164 -164 145.5 -149.5Q127 -135 98 -126L94 -123Q96 -112 104 -100Q112 -88 122.5 -77.5Q133 -67 145 -60.5Q157 -54 168 -54Q181 -54 196 -60Q211 -66 224 -77.5Q237 -89 245.5 -106.5Q254 -124 254 -147Q254 -182 236 -211.5Q218 -241 189.5 -264Q161 -287 125.5 -303.5Q90 -320 55 -329ZM103 59Q115 48 141.5 39Q168 30 201 30Q256 30 287 59Q318 88 318 130Q318 158 303.5 181.5Q289 205 267 227Q245 249 220 270Q195 291 173 314.5Q151 338 136.5 364.5Q122 391 122 424Q122 460 137.5 487.5Q153 515 179.5 533.5Q206 552 241.5 561.5Q277 571 317 571Q341 571 367 567.5Q393 564 416 559Q439 554 457 548Q475 542 483 536Q476 519 468 499Q461 482 452.5 457.5Q444 433 436 405H399L395 516Q379 521 360.5 524.5Q342 528 322 528Q280 528 252 509.5Q224 491 224 451Q224 427 238.5 406Q253 385 274 364Q295 343 320.5 322Q346 301 367 276.5Q388 252 402.5 224Q417 196 417 161Q417 120 399.5 88Q382 56 352.5 34Q323 12 283.5 0Q244 -12 201 -12Q175 -12 148 -9.5Q121 -7 95.5 -2.5Q70 2 47 8Q24 14 6 22Q16 41 27 66Q36 87 46 116Q56 145 65 180L112 190Z" glyph-name="Scommaaccent.smcp" horiz-adv-x="473" /><glyph d="M400 81Q398 73 398 68Q398 57 404.5 51Q411 45 429 43L502 33L489 -5L316 0L154 -5L166 33L220 43Q248 48 261 58Q274 68 283 91Q291 114 302 143Q311 168 323.5 203.5Q336 239 352 284Q380 366 415 473L458 604L371 617Q335 622 300.5 625Q266 628 239 628Q196 628 167.5 601Q139 574 137 530Q144 541 156.5 548Q169 555 186 555Q210 555 225.5 538.5Q241 522 241 499Q241 475 222.5 458Q204 441 180 441Q148 441 124 468Q100 495 100 548Q100 576 111 606.5Q122 637 145.5 662.5Q169 688 206 705Q243 722 296 722Q345 722 408.5 709Q472 696 536.5 680.5Q601 665 660 652Q719 639 760 639Q776 639 787 643.5Q798 648 805 655Q812 662 814.5 670Q817 678 817 685Q817 698 813 707Q809 716 803.5 723.5Q798 731 794 738.5Q790 746 790 757Q790 770 799.5 781Q809 792 826 792Q848 792 865 776Q882 760 882 722Q882 696 869 670Q856 644 829.5 624Q803 604 763 591.5Q723 579 668 579Q648 579 618.5 581.5Q589 584 563 587L478 328Q460 273 447.5 234.5Q435 196 426 168Q417 140 411 119.5Q405 99 400 81Z" glyph-name="T" horiz-adv-x="740" unicode="T" /><glyph d="M343 85Q339 70 339 60Q339 43 364 40L422 32L410 -4L284 0L130 -4L140 32L183 40Q206 44 216.5 53Q227 62 234 79Q239 92 250 123Q261 154 280 209L369 474L327 481Q295 486 264.5 489.5Q234 493 208 493Q174 493 150 474Q126 455 124 422Q129 430 140 437Q151 444 166 444Q192 444 205 428Q218 412 218 393Q218 373 204 357Q190 341 162 341Q133 341 111.5 366Q90 391 90 434Q90 457 99.5 482.5Q109 508 129 529Q149 550 180 564Q211 578 254 578Q294 578 344.5 567.5Q395 557 447 544Q499 531 546.5 520.5Q594 510 627 510Q652 510 663 518.5Q674 527 674 541Q674 551 668.5 556.5Q663 562 656.5 567Q650 572 644.5 578Q639 584 639 595Q639 611 650.5 620.5Q662 630 677 630Q694 630 709 617.5Q724 605 724 576Q724 555 714.5 533Q705 511 684.5 492.5Q664 474 631.5 462Q599 450 552 450Q532 450 508.5 452.5Q485 455 464 458L399 260Q386 221 377.5 195Q369 169 363 150.5Q357 132 352.5 117Q348 102 343 85Z" glyph-name="T.smcp" horiz-adv-x="625" /><glyph d="M260 379H384L458 604L371 617Q335 622 300.5 625Q266 628 239 628Q196 628 167.5 601Q139 574 137 530Q144 541 156.5 548Q169 555 186 555Q210 555 225.5 538.5Q241 522 241 499Q241 475 222.5 458Q204 441 180 441Q148 441 124 468Q100 495 100 548Q100 576 111 606.5Q122 637 145.5 662.5Q169 688 206 705Q243 722 296 722Q345 722 408.5 709Q472 696 536.5 680.5Q601 665 660 652Q719 639 760 639Q776 639 787 643.5Q798 648 805 655Q812 662 814.5 670Q817 678 817 685Q817 698 813 707Q809 716 803.5 723.5Q798 731 794 738.5Q790 746 790 757Q790 770 799.5 781Q809 792 826 792Q848 792 865 776Q882 760 882 722Q882 696 869 670Q856 644 829.5 624Q803 604 763 591.5Q723 579 668 579Q648 579 618.5 581.5Q589 584 563 587L495 379H619L602 332H479L478 328Q460 273 447.5 234.5Q435 196 426 168Q417 140 411 119.5Q405 99 400 81Q398 73 398 68Q398 57 404.5 51Q411 45 429 43L502 33L489 -5L316 0L154 -5L166 33L220 43Q248 48 261 58Q274 68 283 91Q291 114 302 143Q311 168 323.5 203.5Q336 239 352 284Q356 295 360 307Q364 319 368 332H244Z" glyph-name="Tbar" horiz-adv-x="740" unicode="&#358;" /><glyph d="M343 85Q339 70 339 60Q339 43 364 40L422 32L410 -4L284 0L130 -4L140 32L183 40Q206 44 216.5 53Q227 62 234 79Q239 92 250 123Q261 154 280 209L297 260H203L217 303H311L369 474L327 481Q295 486 264.5 489.5Q234 493 208 493Q174 493 150 474Q126 455 124 422Q129 430 140 437Q151 444 166 444Q192 444 205 428Q218 412 218 393Q218 373 204 357Q190 341 162 341Q133 341 111.5 366Q90 391 90 434Q90 457 99.5 482.5Q109 508 129 529Q149 550 180 564Q211 578 254 578Q294 578 344.5 567.5Q395 557 447 544Q499 531 546.5 520.5Q594 510 627 510Q652 510 663 518.5Q674 527 674 541Q674 551 668.5 556.5Q663 562 656.5 567Q650 572 644.5 578Q639 584 639 595Q639 611 650.5 620.5Q662 630 677 630Q694 630 709 617.5Q724 605 724 576Q724 555 714.5 533Q705 511 684.5 492.5Q664 474 631.5 462Q599 450 552 450Q532 450 508.5 452.5Q485 455 464 458L413 303H507L493 260H399Q386 221 377.5 195Q369 169 363 150.5Q357 132 352.5 117Q348 102 343 85Z" glyph-name="Tbar.smcp" horiz-adv-x="625" /><glyph d="M432 941 459 959 550 848H552L722 959L741 938L562 760H508ZM400 81Q398 73 398 68Q398 57 404.5 51Q411 45 429 43L502 33L489 -5L316 0L154 -5L166 33L220 43Q248 48 261 58Q274 68 283 91Q291 114 302 143Q311 168 323.5 203.5Q336 239 352 284Q380 366 415 473L458 604L371 617Q335 622 300.5 625Q266 628 239 628Q196 628 167.5 601Q139 574 137 530Q144 541 156.5 548Q169 555 186 555Q210 555 225.5 538.5Q241 522 241 499Q241 475 222.5 458Q204 441 180 441Q148 441 124 468Q100 495 100 548Q100 576 111 606.5Q122 637 145.5 662.5Q169 688 206 705Q243 722 296 722Q345 722 408.5 709Q472 696 536.5 680.5Q601 665 660 652Q719 639 760 639Q776 639 787 643.5Q798 648 805 655Q812 662 814.5 670Q817 678 817 685Q817 698 813 707Q809 716 803.5 723.5Q798 731 794 738.5Q790 746 790 757Q790 770 799.5 781Q809 792 826 792Q848 792 865 776Q882 760 882 722Q882 696 869 670Q856 644 829.5 624Q803 604 763 591.5Q723 579 668 579Q648 579 618.5 581.5Q589 584 563 587L478 328Q460 273 447.5 234.5Q435 196 426 168Q417 140 411 119.5Q405 99 400 81Z" glyph-name="Tcaron" horiz-adv-x="740" unicode="&#356;" /><glyph d="M349 783 377 801 467 688H469L637 799L655 778L480 603H426ZM343 85Q339 70 339 60Q339 43 364 40L422 32L410 -4L284 0L130 -4L140 32L183 40Q206 44 216.5 53Q227 62 234 79Q239 92 250 123Q261 154 280 209L369 474L327 481Q295 486 264.5 489.5Q234 493 208 493Q174 493 150 474Q126 455 124 422Q129 430 140 437Q151 444 166 444Q192 444 205 428Q218 412 218 393Q218 373 204 357Q190 341 162 341Q133 341 111.5 366Q90 391 90 434Q90 457 99.5 482.5Q109 508 129 529Q149 550 180 564Q211 578 254 578Q294 578 344.5 567.5Q395 557 447 544Q499 531 546.5 520.5Q594 510 627 510Q652 510 663 518.5Q674 527 674 541Q674 551 668.5 556.5Q663 562 656.5 567Q650 572 644.5 578Q639 584 639 595Q639 611 650.5 620.5Q662 630 677 630Q694 630 709 617.5Q724 605 724 576Q724 555 714.5 533Q705 511 684.5 492.5Q664 474 631.5 462Q599 450 552 450Q532 450 508.5 452.5Q485 455 464 458L399 260Q386 221 377.5 195Q369 169 363 150.5Q357 132 352.5 117Q348 102 343 85Z" glyph-name="Tcaron.smcp" horiz-adv-x="625" /><glyph d="M146 -303Q212 -279 240.5 -248Q269 -217 269 -187Q269 -164 248.5 -148.5Q228 -133 199 -125Q199 -113 207 -100.5Q215 -88 226 -77.5Q237 -67 250 -60.5Q263 -54 273 -54Q286 -54 301 -60Q316 -66 329 -77.5Q342 -89 350.5 -106.5Q359 -124 359 -147Q359 -182 341 -211.5Q323 -241 294 -264Q265 -287 229.5 -303.5Q194 -320 159 -329ZM400 81Q398 73 398 68Q398 57 404.5 51Q411 45 429 43L502 33L489 -5L316 0L154 -5L166 33L220 43Q248 48 261 58Q274 68 283 91Q291 114 302 143Q311 168 323.5 203.5Q336 239 352 284Q380 366 415 473L458 604L371 617Q335 622 300.5 625Q266 628 239 628Q196 628 167.5 601Q139 574 137 530Q144 541 156.5 548Q169 555 186 555Q210 555 225.5 538.5Q241 522 241 499Q241 475 222.5 458Q204 441 180 441Q148 441 124 468Q100 495 100 548Q100 576 111 606.5Q122 637 145.5 662.5Q169 688 206 705Q243 722 296 722Q345 722 408.5 709Q472 696 536.5 680.5Q601 665 660 652Q719 639 760 639Q776 639 787 643.5Q798 648 805 655Q812 662 814.5 670Q817 678 817 685Q817 698 813 707Q809 716 803.5 723.5Q798 731 794 738.5Q790 746 790 757Q790 770 799.5 781Q809 792 826 792Q848 792 865 776Q882 760 882 722Q882 696 869 670Q856 644 829.5 624Q803 604 763 591.5Q723 579 668 579Q648 579 618.5 581.5Q589 584 563 587L478 328Q460 273 447.5 234.5Q435 196 426 168Q417 140 411 119.5Q405 99 400 81Z" glyph-name="Tcommaaccent" horiz-adv-x="740" unicode="&#354;" /><glyph d="M104 -303Q170 -279 198.5 -248Q227 -217 227 -187Q227 -164 208.5 -149.5Q190 -135 161 -126L157 -123Q159 -112 167 -100Q175 -88 185.5 -77.5Q196 -67 208 -60.5Q220 -54 231 -54Q244 -54 259 -60Q274 -66 287 -77.5Q300 -89 308.5 -106.5Q317 -124 317 -147Q317 -182 299 -211.5Q281 -241 252.5 -264Q224 -287 188.5 -303.5Q153 -320 118 -329ZM343 85Q339 70 339 60Q339 43 364 40L422 32L410 -4L284 0L130 -4L140 32L183 40Q206 44 216.5 53Q227 62 234 79Q239 92 250 123Q261 154 280 209L369 474L327 481Q295 486 264.5 489.5Q234 493 208 493Q174 493 150 474Q126 455 124 422Q129 430 140 437Q151 444 166 444Q192 444 205 428Q218 412 218 393Q218 373 204 357Q190 341 162 341Q133 341 111.5 366Q90 391 90 434Q90 457 99.5 482.5Q109 508 129 529Q149 550 180 564Q211 578 254 578Q294 578 344.5 567.5Q395 557 447 544Q499 531 546.5 520.5Q594 510 627 510Q652 510 663 518.5Q674 527 674 541Q674 551 668.5 556.5Q663 562 656.5 567Q650 572 644.5 578Q639 584 639 595Q639 611 650.5 620.5Q662 630 677 630Q694 630 709 617.5Q724 605 724 576Q724 555 714.5 533Q705 511 684.5 492.5Q664 474 631.5 462Q599 450 552 450Q532 450 508.5 452.5Q485 455 464 458L399 260Q386 221 377.5 195Q369 169 363 150.5Q357 132 352.5 117Q348 102 343 85Z" glyph-name="Tcommaaccent.smcp" horiz-adv-x="625" /><glyph d="M325 494Q330 495 340.5 497Q351 499 365 501Q379 503 394.5 504.5Q410 506 424 506Q481 506 524 489Q567 472 596 443Q625 414 639.5 376.5Q654 339 654 297Q654 248 637 207Q620 166 590 136Q560 106 519.5 89.5Q479 73 432 73Q396 73 369 82Q342 91 324 105Q306 119 297.5 135.5Q289 152 289 167Q289 187 301.5 200Q314 213 334 213Q350 213 361 202.5Q372 192 372 177Q372 157 358.5 145.5Q345 134 331 131Q346 123 362.5 118Q379 113 396 113Q425 113 452 125Q479 137 499.5 160Q520 183 532.5 216.5Q545 250 545 294Q545 343 528.5 375Q512 407 487.5 425.5Q463 444 435 451Q407 458 384 458H351Q327 458 318.5 450Q310 442 304 421L180 -9Q176 -22 175 -29Q174 -36 174 -41Q174 -63 209 -69L271 -79L259 -117L93 -112L-65 -117Q-63 -107 -60 -98Q-57 -89 -54 -79L1 -69Q27 -64 40.5 -54Q54 -44 62 -21Q76 21 96 88Q116 155 142 244Q160 308 179 372.5Q198 437 213.5 491Q229 545 238.5 582Q248 619 248 628Q248 642 240 647.5Q232 653 214 656L153 666L166 705L331 700L491 705L479 666L423 656Q394 651 381 641.5Q368 632 359 607Q353 591 348 573Q343 557 337 537Q331 517 325 494Z" glyph-name="Thorn" horiz-adv-x="680" unicode="&#222;" /><glyph d="M290 358Q276 358 270.5 352Q265 346 260 331L194 97Q180 45 171 11Q162 -23 162 -28Q162 -40 168 -45Q174 -50 189 -52L242 -60L232 -97L88 -93L-47 -97L-36 -60L-1 -53Q22 -48 34.5 -41.5Q47 -35 54 -14Q54 -14 65 22.5Q76 59 92 114Q108 169 127 233.5Q146 298 162 355Q178 412 188.5 452Q199 492 199 498Q199 515 171 519L122 527L135 564L275 560L410 564L398 527L353 519Q330 515 319 508.5Q308 502 302 481L276 391Q285 393 302 396Q319 399 344 399Q390 399 425.5 386.5Q461 374 485 351.5Q509 329 521.5 297.5Q534 266 534 229Q534 191 520.5 156.5Q507 122 482 95.5Q457 69 422 53.5Q387 38 344 38Q323 38 304.5 43Q286 48 272 58Q258 68 249.5 83Q241 98 241 117Q241 140 254.5 151.5Q268 163 284 163Q298 163 309 153.5Q320 144 320 127Q320 108 307.5 98.5Q295 89 280 87Q295 77 317 77Q343 77 364 89.5Q385 102 400 122.5Q415 143 423.5 170Q432 197 432 226Q432 268 419 294Q406 320 388 334Q370 348 351.5 353Q333 358 322 358Z" glyph-name="Thorn.smcp" horiz-adv-x="557" /><glyph d="M243 252Q232 213 232 185Q232 146 248 118.5Q264 91 289.5 73.5Q315 56 347.5 48.5Q380 41 413 41Q476 41 519.5 60.5Q563 80 593 113Q623 146 642.5 189Q662 232 677 278Q690 317 705 368Q720 419 733.5 467Q747 515 757.5 553.5Q768 592 772 607Q778 631 771 641Q764 651 739 656L679 666L692 705L833 700L961 705L950 666L893 656Q864 651 851.5 641Q839 631 831 607Q826 592 819 569Q812 546 804 519.5Q796 493 787.5 464.5Q779 436 770 408Q750 343 728 269Q708 201 680.5 148.5Q653 96 612.5 59.5Q572 23 515 4Q458 -15 377 -15Q320 -15 272 -2Q224 11 189.5 35.5Q155 60 136 95.5Q117 131 117 177Q117 211 129 250L236 607Q243 631 235 641Q227 651 202 656L142 666L154 705L312 700L479 705L467 666L413 656Q383 651 370 641Q357 631 350 607Z" glyph-name="U" horiz-adv-x="853" unicode="U" /><glyph d="M212 202Q203 175 203 152Q203 122 214 100Q225 78 244 64.5Q263 51 289 44.5Q315 38 345 38Q394 38 428.5 53Q463 68 487 93Q511 118 526.5 151.5Q542 185 554 222Q564 253 576 293Q588 333 598.5 370.5Q609 408 617 437.5Q625 467 628 479Q630 486 630 489Q630 492 630 495Q630 513 601 519L553 527L565 564L681 560L787 564L775 527L730 519Q706 514 696 506.5Q686 499 680 480Q672 455 658.5 411Q645 367 632 323Q616 272 600 215Q583 159 560 116.5Q537 74 502.5 45.5Q468 17 421 2.5Q374 -12 309 -12Q264 -12 225 -2Q186 8 157.5 27.5Q129 47 112.5 76Q96 105 96 143Q96 170 105 200L189 479Q192 488 192 496Q192 513 161 519L113 527L125 564L256 560L401 564L389 527L346 519Q321 514 311 506.5Q301 499 296 480Z" glyph-name="U.smcp" horiz-adv-x="704" /><glyph d="M627 963H761L552 774L511 780ZM243 252Q232 213 232 185Q232 146 248 118.5Q264 91 289.5 73.5Q315 56 347.5 48.5Q380 41 413 41Q476 41 519.5 60.5Q563 80 593 113Q623 146 642.5 189Q662 232 677 278Q690 317 705 368Q720 419 733.5 467Q747 515 757.5 553.5Q768 592 772 607Q778 631 771 641Q764 651 739 656L679 666L692 705L833 700L961 705L950 666L893 656Q864 651 851.5 641Q839 631 831 607Q826 592 819 569Q812 546 804 519.5Q796 493 787.5 464.5Q779 436 770 408Q750 343 728 269Q708 201 680.5 148.5Q653 96 612.5 59.5Q572 23 515 4Q458 -15 377 -15Q320 -15 272 -2Q224 11 189.5 35.5Q155 60 136 95.5Q117 131 117 177Q117 211 129 250L236 607Q243 631 235 641Q227 651 202 656L142 666L154 705L312 700L479 705L467 666L413 656Q383 651 370 641Q357 631 350 607Z" glyph-name="Uacute" horiz-adv-x="853" unicode="&#218;" /><glyph d="M535 808H669L460 619L419 625ZM212 202Q203 175 203 152Q203 122 214 100Q225 78 244 64.5Q263 51 289 44.5Q315 38 345 38Q394 38 428.5 53Q463 68 487 93Q511 118 526.5 151.5Q542 185 554 222Q564 253 576 293Q588 333 598.5 370.5Q609 408 617 437.5Q625 467 628 479Q630 486 630 489Q630 492 630 495Q630 513 601 519L553 527L565 564L681 560L787 564L775 527L730 519Q706 514 696 506.5Q686 499 680 480Q672 455 658.5 411Q645 367 632 323Q616 272 600 215Q583 159 560 116.5Q537 74 502.5 45.5Q468 17 421 2.5Q374 -12 309 -12Q264 -12 225 -2Q186 8 157.5 27.5Q129 47 112.5 76Q96 105 96 143Q96 170 105 200L189 479Q192 488 192 496Q192 513 161 519L113 527L125 564L256 560L401 564L389 527L346 519Q321 514 311 506.5Q301 499 296 480Z" glyph-name="Uacute.smcp" horiz-adv-x="704" /><glyph d="M575 845Q608 845 628.5 855Q649 865 660.5 880.5Q672 896 677 915.5Q682 935 685 954H726Q722 909 711.5 874Q701 839 682 814.5Q663 790 634.5 777Q606 764 566 764Q507 764 475.5 797.5Q444 831 444 880Q444 914 461 954H498Q495 941 494 930Q493 919 493 907Q493 882 511.5 863.5Q530 845 575 845ZM243 252Q232 213 232 185Q232 146 248 118.5Q264 91 289.5 73.5Q315 56 347.5 48.5Q380 41 413 41Q476 41 519.5 60.5Q563 80 593 113Q623 146 642.5 189Q662 232 677 278Q690 317 705 368Q720 419 733.5 467Q747 515 757.5 553.5Q768 592 772 607Q778 631 771 641Q764 651 739 656L679 666L692 705L833 700L961 705L950 666L893 656Q864 651 851.5 641Q839 631 831 607Q826 592 819 569Q812 546 804 519.5Q796 493 787.5 464.5Q779 436 770 408Q750 343 728 269Q708 201 680.5 148.5Q653 96 612.5 59.5Q572 23 515 4Q458 -15 377 -15Q320 -15 272 -2Q224 11 189.5 35.5Q155 60 136 95.5Q117 131 117 177Q117 211 129 250L236 607Q243 631 235 641Q227 651 202 656L142 666L154 705L312 700L479 705L467 666L413 656Q383 651 370 641Q357 631 350 607Z" glyph-name="Ubreve" horiz-adv-x="853" unicode="&#364;" /><glyph d="M480 693Q513 693 533 703Q553 713 564.5 728.5Q576 744 581 763.5Q586 783 588 802H628Q626 705 586 658Q546 611 474 611Q446 611 423 619.5Q400 628 383.5 642.5Q367 657 358 676.5Q349 696 349 719Q349 732 351.5 754Q354 776 363 802H401Q398 788 397 776.5Q396 765 396 753Q396 729 416.5 711Q437 693 480 693ZM212 202Q203 175 203 152Q203 122 214 100Q225 78 244 64.5Q263 51 289 44.5Q315 38 345 38Q394 38 428.5 53Q463 68 487 93Q511 118 526.5 151.5Q542 185 554 222Q564 253 576 293Q588 333 598.5 370.5Q609 408 617 437.5Q625 467 628 479Q630 486 630 489Q630 492 630 495Q630 513 601 519L553 527L565 564L681 560L787 564L775 527L730 519Q706 514 696 506.5Q686 499 680 480Q672 455 658.5 411Q645 367 632 323Q616 272 600 215Q583 159 560 116.5Q537 74 502.5 45.5Q468 17 421 2.5Q374 -12 309 -12Q264 -12 225 -2Q186 8 157.5 27.5Q129 47 112.5 76Q96 105 96 143Q96 170 105 200L189 479Q192 488 192 496Q192 513 161 519L113 527L125 564L256 560L401 564L389 527L346 519Q321 514 311 506.5Q301 499 296 480Z" glyph-name="Ubreve.smcp" horiz-adv-x="704" /><glyph d="M584 969H638L728 788L703 770L600 880H598L436 771L416 788ZM243 252Q232 213 232 185Q232 146 248 118.5Q264 91 289.5 73.5Q315 56 347.5 48.5Q380 41 413 41Q476 41 519.5 60.5Q563 80 593 113Q623 146 642.5 189Q662 232 677 278Q690 317 705 368Q720 419 733.5 467Q747 515 757.5 553.5Q768 592 772 607Q778 631 771 641Q764 651 739 656L679 666L692 705L833 700L961 705L950 666L893 656Q864 651 851.5 641Q839 631 831 607Q826 592 819 569Q812 546 804 519.5Q796 493 787.5 464.5Q779 436 770 408Q750 343 728 269Q708 201 680.5 148.5Q653 96 612.5 59.5Q572 23 515 4Q458 -15 377 -15Q320 -15 272 -2Q224 11 189.5 35.5Q155 60 136 95.5Q117 131 117 177Q117 211 129 250L236 607Q243 631 235 641Q227 651 202 656L142 666L154 705L312 700L479 705L467 666L413 656Q383 651 370 641Q357 631 350 607Z" glyph-name="Ucircumflex" horiz-adv-x="853" unicode="&#219;" /><glyph d="M492 809H546L632 629L606 610L507 723H505L345 616L324 635ZM212 202Q203 175 203 152Q203 122 214 100Q225 78 244 64.5Q263 51 289 44.5Q315 38 345 38Q394 38 428.5 53Q463 68 487 93Q511 118 526.5 151.5Q542 185 554 222Q564 253 576 293Q588 333 598.5 370.5Q609 408 617 437.5Q625 467 628 479Q630 486 630 489Q630 492 630 495Q630 513 601 519L553 527L565 564L681 560L787 564L775 527L730 519Q706 514 696 506.5Q686 499 680 480Q672 455 658.5 411Q645 367 632 323Q616 272 600 215Q583 159 560 116.5Q537 74 502.5 45.5Q468 17 421 2.5Q374 -12 309 -12Q264 -12 225 -2Q186 8 157.5 27.5Q129 47 112.5 76Q96 105 96 143Q96 170 105 200L189 479Q192 488 192 496Q192 513 161 519L113 527L125 564L256 560L401 564L389 527L346 519Q321 514 311 506.5Q301 499 296 480Z" glyph-name="Ucircumflex.smcp" horiz-adv-x="704" /><glyph d="M624 864Q624 894 645 915Q666 936 696 936Q726 936 747 915Q768 894 768 864Q768 834 747 813.5Q726 793 696 793Q666 793 645 813.5Q624 834 624 864ZM433 864Q433 894 454 915Q475 936 505 936Q535 936 556 915Q577 894 577 864Q577 834 556 813.5Q535 793 505 793Q475 793 454 813.5Q433 834 433 864ZM243 252Q232 213 232 185Q232 146 248 118.5Q264 91 289.5 73.5Q315 56 347.5 48.5Q380 41 413 41Q476 41 519.5 60.5Q563 80 593 113Q623 146 642.5 189Q662 232 677 278Q690 317 705 368Q720 419 733.5 467Q747 515 757.5 553.5Q768 592 772 607Q778 631 771 641Q764 651 739 656L679 666L692 705L833 700L961 705L950 666L893 656Q864 651 851.5 641Q839 631 831 607Q826 592 819 569Q812 546 804 519.5Q796 493 787.5 464.5Q779 436 770 408Q750 343 728 269Q708 201 680.5 148.5Q653 96 612.5 59.5Q572 23 515 4Q458 -15 377 -15Q320 -15 272 -2Q224 11 189.5 35.5Q155 60 136 95.5Q117 131 117 177Q117 211 129 250L236 607Q243 631 235 641Q227 651 202 656L142 666L154 705L312 700L479 705L467 666L413 656Q383 651 370 641Q357 631 350 607Z" glyph-name="Udieresis" horiz-adv-x="853" unicode="&#220;" /><glyph d="M508 701Q508 731 529 752Q550 773 580 773Q610 773 631 752Q652 731 652 701Q652 671 631 650Q610 629 580 629Q550 629 529 650Q508 671 508 701ZM317 701Q317 731 338 752Q359 773 389 773Q420 773 440.5 752Q461 731 461 701Q461 671 440.5 650Q420 629 389 629Q359 629 338 650Q317 671 317 701ZM212 202Q203 175 203 152Q203 122 214 100Q225 78 244 64.5Q263 51 289 44.5Q315 38 345 38Q394 38 428.5 53Q463 68 487 93Q511 118 526.5 151.5Q542 185 554 222Q564 253 576 293Q588 333 598.5 370.5Q609 408 617 437.5Q625 467 628 479Q630 486 630 489Q630 492 630 495Q630 513 601 519L553 527L565 564L681 560L787 564L775 527L730 519Q706 514 696 506.5Q686 499 680 480Q672 455 658.5 411Q645 367 632 323Q616 272 600 215Q583 159 560 116.5Q537 74 502.5 45.5Q468 17 421 2.5Q374 -12 309 -12Q264 -12 225 -2Q186 8 157.5 27.5Q129 47 112.5 76Q96 105 96 143Q96 170 105 200L189 479Q192 488 192 496Q192 513 161 519L113 527L125 564L256 560L401 564L389 527L346 519Q321 514 311 506.5Q301 499 296 480Z" glyph-name="Udieresis.smcp" horiz-adv-x="704" /><glyph d="M652 780 611 774 437 963H571ZM243 252Q232 213 232 185Q232 146 248 118.5Q264 91 289.5 73.5Q315 56 347.5 48.5Q380 41 413 41Q476 41 519.5 60.5Q563 80 593 113Q623 146 642.5 189Q662 232 677 278Q690 317 705 368Q720 419 733.5 467Q747 515 757.5 553.5Q768 592 772 607Q778 631 771 641Q764 651 739 656L679 666L692 705L833 700L961 705L950 666L893 656Q864 651 851.5 641Q839 631 831 607Q826 592 819 569Q812 546 804 519.5Q796 493 787.5 464.5Q779 436 770 408Q750 343 728 269Q708 201 680.5 148.5Q653 96 612.5 59.5Q572 23 515 4Q458 -15 377 -15Q320 -15 272 -2Q224 11 189.5 35.5Q155 60 136 95.5Q117 131 117 177Q117 211 129 250L236 607Q243 631 235 641Q227 651 202 656L142 666L154 705L312 700L479 705L467 666L413 656Q383 651 370 641Q357 631 350 607Z" glyph-name="Ugrave" horiz-adv-x="853" unicode="&#217;" /><glyph d="M538 623 497 617 323 806H457ZM212 202Q203 175 203 152Q203 122 214 100Q225 78 244 64.5Q263 51 289 44.5Q315 38 345 38Q394 38 428.5 53Q463 68 487 93Q511 118 526.5 151.5Q542 185 554 222Q564 253 576 293Q588 333 598.5 370.5Q609 408 617 437.5Q625 467 628 479Q630 486 630 489Q630 492 630 495Q630 513 601 519L553 527L565 564L681 560L787 564L775 527L730 519Q706 514 696 506.5Q686 499 680 480Q672 455 658.5 411Q645 367 632 323Q616 272 600 215Q583 159 560 116.5Q537 74 502.5 45.5Q468 17 421 2.5Q374 -12 309 -12Q264 -12 225 -2Q186 8 157.5 27.5Q129 47 112.5 76Q96 105 96 143Q96 170 105 200L189 479Q192 488 192 496Q192 513 161 519L113 527L125 564L256 560L401 564L389 527L346 519Q321 514 311 506.5Q301 499 296 480Z" glyph-name="Ugrave.smcp" horiz-adv-x="704" /><glyph d="M723 974H857L646 785L609 791ZM534 974H667L458 785L420 791ZM243 252Q232 213 232 185Q232 146 248 118.5Q264 91 289.5 73.5Q315 56 347.5 48.5Q380 41 413 41Q476 41 519.5 60.5Q563 80 593 113Q623 146 642.5 189Q662 232 677 278Q690 317 705 368Q720 419 733.5 467Q747 515 757.5 553.5Q768 592 772 607Q778 631 771 641Q764 651 739 656L679 666L692 705L833 700L961 705L950 666L893 656Q864 651 851.5 641Q839 631 831 607Q826 592 819 569Q812 546 804 519.5Q796 493 787.5 464.5Q779 436 770 408Q750 343 728 269Q708 201 680.5 148.5Q653 96 612.5 59.5Q572 23 515 4Q458 -15 377 -15Q320 -15 272 -2Q224 11 189.5 35.5Q155 60 136 95.5Q117 131 117 177Q117 211 129 250L236 607Q243 631 235 641Q227 651 202 656L142 666L154 705L312 700L479 705L467 666L413 656Q383 651 370 641Q357 631 350 607Z" glyph-name="Uhungarumlaut" horiz-adv-x="853" unicode="&#368;" /><glyph d="M603 799H737L527 610L490 616ZM415 799H548L339 610L300 616ZM212 202Q203 175 203 152Q203 122 214 100Q225 78 244 64.5Q263 51 289 44.5Q315 38 345 38Q394 38 428.5 53Q463 68 487 93Q511 118 526.5 151.5Q542 185 554 222Q564 253 576 293Q588 333 598.5 370.5Q609 408 617 437.5Q625 467 628 479Q630 486 630 489Q630 492 630 495Q630 513 601 519L553 527L565 564L681 560L787 564L775 527L730 519Q706 514 696 506.5Q686 499 680 480Q672 455 658.5 411Q645 367 632 323Q616 272 600 215Q583 159 560 116.5Q537 74 502.5 45.5Q468 17 421 2.5Q374 -12 309 -12Q264 -12 225 -2Q186 8 157.5 27.5Q129 47 112.5 76Q96 105 96 143Q96 170 105 200L189 479Q192 488 192 496Q192 513 161 519L113 527L125 564L256 560L401 564L389 527L346 519Q321 514 311 506.5Q301 499 296 480Z" glyph-name="Uhungarumlaut.smcp" horiz-adv-x="704" /><glyph d="M434 793 451 852H735L718 793ZM243 252Q232 213 232 185Q232 146 248 118.5Q264 91 289.5 73.5Q315 56 347.5 48.5Q380 41 413 41Q476 41 519.5 60.5Q563 80 593 113Q623 146 642.5 189Q662 232 677 278Q690 317 705 368Q720 419 733.5 467Q747 515 757.5 553.5Q768 592 772 607Q778 631 771 641Q764 651 739 656L679 666L692 705L833 700L961 705L950 666L893 656Q864 651 851.5 641Q839 631 831 607Q826 592 819 569Q812 546 804 519.5Q796 493 787.5 464.5Q779 436 770 408Q750 343 728 269Q708 201 680.5 148.5Q653 96 612.5 59.5Q572 23 515 4Q458 -15 377 -15Q320 -15 272 -2Q224 11 189.5 35.5Q155 60 136 95.5Q117 131 117 177Q117 211 129 250L236 607Q243 631 235 641Q227 651 202 656L142 666L154 705L312 700L479 705L467 666L413 656Q383 651 370 641Q357 631 350 607Z" glyph-name="Umacron" horiz-adv-x="853" unicode="&#362;" /><glyph d="M350 629 368 692H652L634 629ZM212 202Q203 175 203 152Q203 122 214 100Q225 78 244 64.5Q263 51 289 44.5Q315 38 345 38Q394 38 428.5 53Q463 68 487 93Q511 118 526.5 151.5Q542 185 554 222Q564 253 576 293Q588 333 598.5 370.5Q609 408 617 437.5Q625 467 628 479Q630 486 630 489Q630 492 630 495Q630 513 601 519L553 527L565 564L681 560L787 564L775 527L730 519Q706 514 696 506.5Q686 499 680 480Q672 455 658.5 411Q645 367 632 323Q616 272 600 215Q583 159 560 116.5Q537 74 502.5 45.5Q468 17 421 2.5Q374 -12 309 -12Q264 -12 225 -2Q186 8 157.5 27.5Q129 47 112.5 76Q96 105 96 143Q96 170 105 200L189 479Q192 488 192 496Q192 513 161 519L113 527L125 564L256 560L401 564L389 527L346 519Q321 514 311 506.5Q301 499 296 480Z" glyph-name="Umacron.smcp" horiz-adv-x="704" /><glyph d="M243 252Q232 213 232 185Q232 146 248 118.5Q264 91 289.5 73.5Q315 56 347.5 48.5Q380 41 413 41Q476 41 519.5 60.5Q563 80 593 113Q623 146 642.5 189Q662 232 677 278Q690 317 705 368Q720 419 733.5 467Q747 515 757.5 553.5Q768 592 772 607Q778 631 771 641Q764 651 739 656L679 666L692 705L833 700L961 705L950 666L893 656Q864 651 851.5 641Q839 631 831 607Q826 592 819 569Q812 546 804 519.5Q796 493 787.5 464.5Q779 436 770 408Q750 343 728 269Q708 201 680.5 148.5Q653 96 612.5 59.5Q572 23 515 4Q458 -15 377 -15H371Q354 -30 336.5 -49.5Q319 -69 304.5 -90Q290 -111 280.5 -132.5Q271 -154 271 -175Q271 -190 278.5 -199Q286 -208 298 -213.5Q310 -219 325.5 -220.5Q341 -222 356 -222Q364 -222 373 -221.5Q382 -221 390 -219L365 -253Q348 -259 326 -263Q304 -267 282 -267Q261 -267 242 -262.5Q223 -258 208.5 -248.5Q194 -239 185 -223Q176 -207 176 -184Q176 -158 187.5 -133.5Q199 -109 218.5 -87Q238 -65 264 -46Q290 -27 319 -11Q228 0 172.5 48.5Q117 97 117 177Q117 211 129 250L236 607Q243 631 235 641Q227 651 202 656L142 666L154 705L312 700L479 705L467 666L413 656Q383 651 370 641Q357 631 350 607Z" glyph-name="Uogonek" horiz-adv-x="853" unicode="&#370;" /><glyph d="M212 202Q203 175 203 152Q203 122 214 100Q225 78 244 64.5Q263 51 289 44.5Q315 38 345 38Q394 38 428.5 53Q463 68 487 93Q511 118 526.5 151.5Q542 185 554 222Q564 253 576 293Q588 333 598.5 370.5Q609 408 617 437.5Q625 467 628 479Q630 486 630 489Q630 492 630 495Q630 513 601 519L553 527L565 564L681 560L787 564L775 527L730 519Q706 514 696 506.5Q686 499 680 480Q672 455 658.5 411Q645 367 632 323Q616 272 600 215Q584 161 562 120Q540 79 508.5 51Q477 23 434 7.5Q391 -8 333 -11Q316 -26 297.5 -46Q279 -66 264 -87.5Q249 -109 239 -131.5Q229 -154 229 -175Q229 -190 236.5 -199Q244 -208 256 -213.5Q268 -219 283.5 -220.5Q299 -222 314 -222Q322 -222 331 -221.5Q340 -221 348 -219L323 -253Q306 -259 284 -263Q262 -267 240 -267Q219 -267 200 -262.5Q181 -258 166.5 -248.5Q152 -239 143 -223Q134 -207 134 -184Q134 -158 145.5 -133.5Q157 -109 177 -87Q197 -65 223.5 -45.5Q250 -26 279 -11Q239 -8 205.5 3.5Q172 15 147.5 34.5Q123 54 109.5 81Q96 108 96 143Q96 170 105 200L189 479Q192 488 192 496Q192 513 161 519L113 527L125 564L256 560L401 564L389 527L346 519Q321 514 311 506.5Q301 499 296 480Z" glyph-name="Uogonek.smcp" horiz-adv-x="704" /><glyph d="M445 871Q445 898 455 921.5Q465 945 482.5 962Q500 979 523.5 988.5Q547 998 574 998Q601 998 624.5 988.5Q648 979 665.5 962Q683 945 693 921.5Q703 898 703 871Q703 844 693 820.5Q683 797 665.5 780Q648 763 624.5 753.5Q601 744 574 744Q547 744 523.5 753.5Q500 763 482.5 780Q465 797 455 820.5Q445 844 445 871ZM489 871Q489 833 511.5 807Q534 781 574 781Q614 781 636.5 807Q659 833 659 871Q659 909 636.5 935Q614 961 574 961Q534 961 511.5 935Q489 909 489 871ZM243 252Q232 213 232 185Q232 146 248 118.5Q264 91 289.5 73.5Q315 56 347.5 48.5Q380 41 413 41Q476 41 519.5 60.5Q563 80 593 113Q623 146 642.5 189Q662 232 677 278Q690 317 705 368Q720 419 733.5 467Q747 515 757.5 553.5Q768 592 772 607Q778 631 771 641Q764 651 739 656L679 666L692 705L833 700L961 705L950 666L893 656Q864 651 851.5 641Q839 631 831 607Q826 592 819 569Q812 546 804 519.5Q796 493 787.5 464.5Q779 436 770 408Q750 343 728 269Q708 201 680.5 148.5Q653 96 612.5 59.5Q572 23 515 4Q458 -15 377 -15Q320 -15 272 -2Q224 11 189.5 35.5Q155 60 136 95.5Q117 131 117 177Q117 211 129 250L236 607Q243 631 235 641Q227 651 202 656L142 666L154 705L312 700L479 705L467 666L413 656Q383 651 370 641Q357 631 350 607Z" glyph-name="Uring" horiz-adv-x="853" unicode="&#366;" /><glyph d="M482 639Q522 639 545 665Q568 691 568 729Q568 767 545 792.5Q522 818 482 818Q442 818 420 792.5Q398 767 398 729Q398 691 420 665Q442 639 482 639ZM482 856Q509 856 533 846.5Q557 837 574 820Q591 803 601 779.5Q611 756 611 729Q611 702 601 678.5Q591 655 574 638Q557 621 533 611.5Q509 602 482 602Q456 602 432.5 611.5Q409 621 391.5 638Q374 655 364 678.5Q354 702 354 729Q354 756 364 779.5Q374 803 391.5 820Q409 837 432.5 846.5Q456 856 482 856ZM212 202Q203 175 203 152Q203 122 214 100Q225 78 244 64.5Q263 51 289 44.5Q315 38 345 38Q394 38 428.5 53Q463 68 487 93Q511 118 526.5 151.5Q542 185 554 222Q564 253 576 293Q588 333 598.5 370.5Q609 408 617 437.5Q625 467 628 479Q630 486 630 489Q630 492 630 495Q630 513 601 519L553 527L565 564L681 560L787 564L775 527L730 519Q706 514 696 506.5Q686 499 680 480Q672 455 658.5 411Q645 367 632 323Q616 272 600 215Q583 159 560 116.5Q537 74 502.5 45.5Q468 17 421 2.5Q374 -12 309 -12Q264 -12 225 -2Q186 8 157.5 27.5Q129 47 112.5 76Q96 105 96 143Q96 170 105 200L189 479Q192 488 192 496Q192 513 161 519L113 527L125 564L256 560L401 564L389 527L346 519Q321 514 311 506.5Q301 499 296 480Z" glyph-name="Uring.smcp" horiz-adv-x="704" /><glyph d="M655 866Q674 866 687 872.5Q700 879 718 906L737 895Q730 877 720.5 859Q711 841 697.5 826Q684 811 667 802Q650 793 628 793Q610 793 593 798.5Q576 804 560 811Q544 818 530 823.5Q516 829 505 829Q488 829 470.5 822.5Q453 816 436 790L416 801Q423 819 433.5 837.5Q444 856 457.5 871Q471 886 488.5 895Q506 904 527 904Q543 904 561 898Q579 892 595.5 885Q612 878 627.5 872Q643 866 655 866ZM243 252Q232 213 232 185Q232 146 248 118.5Q264 91 289.5 73.5Q315 56 347.5 48.5Q380 41 413 41Q476 41 519.5 60.5Q563 80 593 113Q623 146 642.5 189Q662 232 677 278Q690 317 705 368Q720 419 733.5 467Q747 515 757.5 553.5Q768 592 772 607Q778 631 771 641Q764 651 739 656L679 666L692 705L833 700L961 705L950 666L893 656Q864 651 851.5 641Q839 631 831 607Q826 592 819 569Q812 546 804 519.5Q796 493 787.5 464.5Q779 436 770 408Q750 343 728 269Q708 201 680.5 148.5Q653 96 612.5 59.5Q572 23 515 4Q458 -15 377 -15Q320 -15 272 -2Q224 11 189.5 35.5Q155 60 136 95.5Q117 131 117 177Q117 211 129 250L236 607Q243 631 235 641Q227 651 202 656L142 666L154 705L312 700L479 705L467 666L413 656Q383 651 370 641Q357 631 350 607Z" glyph-name="Utilde" horiz-adv-x="853" unicode="&#360;" /><glyph d="M563 702Q583 702 596 708.5Q609 715 626 742L646 731Q638 713 629 695Q620 677 607 662Q594 647 576.5 638Q559 629 536 629Q518 629 501 635Q484 641 468 647.5Q452 654 437.5 660Q423 666 411 666Q394 666 376.5 659Q359 652 342 626L322 637Q329 656 339.5 675Q350 694 363.5 708Q377 722 394.5 731Q412 740 433 740Q449 740 466.5 734Q484 728 500.5 721Q517 714 533 708Q549 702 563 702ZM212 202Q203 175 203 152Q203 122 214 100Q225 78 244 64.5Q263 51 289 44.5Q315 38 345 38Q394 38 428.5 53Q463 68 487 93Q511 118 526.5 151.5Q542 185 554 222Q564 253 576 293Q588 333 598.5 370.5Q609 408 617 437.5Q625 467 628 479Q630 486 630 489Q630 492 630 495Q630 513 601 519L553 527L565 564L681 560L787 564L775 527L730 519Q706 514 696 506.5Q686 499 680 480Q672 455 658.5 411Q645 367 632 323Q616 272 600 215Q583 159 560 116.5Q537 74 502.5 45.5Q468 17 421 2.5Q374 -12 309 -12Q264 -12 225 -2Q186 8 157.5 27.5Q129 47 112.5 76Q96 105 96 143Q96 170 105 200L189 479Q192 488 192 496Q192 513 161 519L113 527L125 564L256 560L401 564L389 527L346 519Q321 514 311 506.5Q301 499 296 480Z" glyph-name="Utilde.smcp" horiz-adv-x="704" /><glyph d="M191 -16Q191 -16 192 18Q193 52 194.5 105.5Q196 159 197 225.5Q198 292 198 357Q198 416 198 479Q198 542 196 608Q195 630 188 640.5Q181 651 160 656L116 666L130 705L271 700L446 705L432 666L373 656Q344 651 330 642.5Q316 634 315 608Q313 559 312 503.5Q311 448 310 392.5Q309 337 308 285Q307 233 306.5 191.5Q306 150 305.5 122Q305 94 305 86L664 589Q678 609 681.5 617Q685 625 685 632Q685 642 676 647Q667 652 650 656L603 666L618 705L777 700L889 705L875 666L820 656Q795 651 781 641Q767 631 750 609Q632 451 545.5 336Q459 221 402 145Q335 55 290 -6Z" glyph-name="V" horiz-adv-x="738" unicode="V" /><glyph d="M153 -13Q154 32 155 87Q156 134 156.5 197Q157 260 157 333V407Q157 426 157 444Q157 462 156 481Q155 499 150 507.5Q145 516 128 519L92 527L104 564L217 560L373 564L361 527L314 519Q291 515 279.5 506.5Q268 498 267 481Q265 434 264 377.5Q263 321 262.5 267Q262 213 261.5 166.5Q261 120 261 93L546 481Q567 510 526 519L483 527L497 564L612 560L724 564L712 527L668 519Q648 516 636.5 507.5Q625 499 612 482Q540 389 473 302.5Q406 216 354 147Q292 67 239 -5Z" glyph-name="V.smcp" horiz-adv-x="612" /><glyph d="M581 -16Q584 78 587 162Q588 198 589.5 234.5Q591 271 592 304.5Q593 338 593.5 366.5Q594 395 594 413Q516 308 457 230Q398 152 359 99Q312 37 280 -6L177 -16Q181 94 185 205Q186 252 188 304Q190 356 192 408.5Q194 461 195.5 512Q197 563 199 608Q200 630 191 640.5Q182 651 161 656L116 666L131 705L273 700L444 705L431 666L372 656Q343 651 329.5 640.5Q316 630 314 608Q309 525 304.5 431.5Q300 338 297 258Q293 165 290 74L595 479L597 608Q597 631 590 641Q583 651 562 656L508 666L521 705L684 701L859 705L844 666L780 656Q766 654 753.5 650.5Q741 647 731.5 639.5Q722 632 716.5 619Q711 606 710 585Q709 560 708 515.5Q707 471 705 418Q703 365 701.5 309Q700 253 699 206Q698 159 697 126Q696 93 696 87L1057 608Q1072 630 1063.5 640.5Q1055 651 1030 656L972 666L985 705L1144 700L1266 705L1253 666L1200 656Q1175 651 1160 641Q1145 631 1128 609Q1023 470 940.5 357.5Q858 245 800 164Q732 69 681 -6Z" glyph-name="W" horiz-adv-x="1117" unicode="W" /><glyph d="M477 -13Q478 55 480 117Q481 144 481.5 172Q482 200 482.5 227.5Q483 255 483.5 279.5Q484 304 485 323Q451 278 410 222Q369 166 333 115Q291 56 248 -5L142 -13Q143 74 146 161Q147 198 148.5 239Q150 280 151.5 321.5Q153 363 154 404Q155 445 157 481Q158 498 151 506.5Q144 515 127 519L91 527L105 564L218 560L368 564L355 527L308 519Q285 515 273.5 506.5Q262 498 261 481Q259 415 255.5 342Q252 269 250 206Q246 132 244 60L486 391L488 481Q488 499 482.5 507.5Q477 516 460 519L416 527L429 564L558 561L711 564L698 527L647 519Q624 516 608.5 502.5Q593 489 591 448Q590 424 589 389.5Q588 355 586.5 316.5Q585 278 584 239Q583 200 582 166.5Q581 133 580.5 109Q580 85 580 76L864 481Q876 498 869 507Q862 516 842 519L796 527L808 564L938 560L1040 564L1028 527L986 519Q966 515 954 507.5Q942 500 928 482Q909 457 884 423Q859 389 830.5 350Q802 311 771.5 269.5Q741 228 712 189Q644 97 571 -5Z" glyph-name="W.smcp" horiz-adv-x="930" /></font>
</defs>
</svg>
