<?xml version="1.0" standalone="no"?>
<!DOCTYPE svg PUBLIC "-//W3C//DTD SVG 1.1//EN" "http://www.w3.org/Graphics/SVG/1.1/DTD/svg11.dtd" >
<svg xmlns="http://www.w3.org/2000/svg">
<metadata></metadata>
<defs>
<font id="hurmegeometricsans3_regularRg" horiz-adv-x="1290" >
<font-face units-per-em="2048" ascent="1653" descent="-395" />
<missing-glyph horiz-adv-x="573" />
<glyph unicode="&#xfb01;" horiz-adv-x="1028" d="M254 0v891h-166v141h166v86q0 111 23.5 174.5t76.5 106.5q82 59 252 59q61 0 101 -8v-143q-46 10 -117 10q-97 0 -140.5 -40.5t-43.5 -137.5v-107h479v-1032h-152v891h-327v-891h-152z" />
<glyph unicode="&#xfb02;" horiz-adv-x="1079" d="M254 0v891h-166v141h166v86q0 111 23.5 174.5t76.5 106.5q42 37 94 48t117 11q48 0 80 -8v-143q-39 10 -96 10q-75 0 -109 -40.5t-34 -137.5v-107h194v-141h-194v-891h-152zM784 0v1427h152v-1427h-152z" />
<glyph unicode="&#xfb03;" horiz-adv-x="1507" d="M254 0v891h-166v141h166v86q0 72 13 128.5t37 92.5t53 60.5t66 37t70 17t72 4.5q48 0 80 -8v-143q-39 10 -96 10q-75 0 -109 -40.5t-34 -137.5v-107h327v86q0 111 24 174.5t77 106.5q51 37 112.5 48t138.5 11q61 0 101 -8v-143q-46 10 -117 10q-97 0 -140.5 -40.5 t-43.5 -137.5v-107h479v-1032h-152v891h-327v-891h-152v891h-327v-891h-152z" />
<glyph unicode="&#xfb04;" horiz-adv-x="1538" d="M254 0v891h-166v141h166v86q0 72 13 128.5t37 92.5t53 60.5t66 37t70 17t72 4.5q48 0 80 -8v-143q-39 10 -96 10q-75 0 -109 -40.5t-34 -137.5v-107h327v86q0 72 13 128.5t37 92.5t53 60.5t66 37t70 17t72 4.5q48 0 80 -8v-143q-39 10 -96 10q-75 0 -109 -40.5 t-34 -137.5v-107h194v-141h-194v-891h-152v891h-327v-891h-152zM1243 0v1427h152v-1427h-152z" />
<glyph horiz-adv-x="0" />
<glyph horiz-adv-x="0" />
<glyph horiz-adv-x="682" />
<glyph unicode="&#xd;" horiz-adv-x="0" />
<glyph unicode=" "  horiz-adv-x="573" />
<glyph unicode="&#x09;" horiz-adv-x="573" />
<glyph unicode="&#xa0;" horiz-adv-x="573" />
<glyph unicode="!" horiz-adv-x="540" d="M207 317l-33 1110h193l-33 -1110h-127zM168 72q0 43 30.5 72.5t71.5 29.5t72 -29.5t31 -72.5t-31 -73t-72 -30t-71.5 30t-30.5 73z" />
<glyph unicode="&#x22;" horiz-adv-x="641" d="M397 911l-24 516h153l-24 -516h-105zM139 911l-24 516h153l-24 -516h-105z" />
<glyph unicode="#" horiz-adv-x="1169" d="M203 238l57 221h-180v127h213l61 241h-182v127h215l55 220h142l-58 -220h242l57 220h140l-56 -220h181v-127h-213l-62 -241h184v-127h-215l-57 -221h-141l57 221h-242l-57 -221h-141zM432 586h242l63 241h-243z" />
<glyph unicode="$" horiz-adv-x="1163" d="M117 317l149 70q37 -100 102.5 -166.5t159.5 -89.5v582q-83 38 -137 70.5t-103 79.5t-72 108t-23 141q0 139 93.5 234.5t241.5 109.5v197h131v-201q204 -30 304 -217l-136 -70q-57 109 -168 135v-479q86 -39 142.5 -69.5t109.5 -70.5t83 -82.5t47.5 -100t17.5 -129.5 q0 -163 -105 -271.5t-295 -120.5v-196h-131v201q-141 19 -247.5 103t-163.5 232zM528 881v428q-79 -11 -127.5 -62t-48.5 -135t43 -135t133 -96zM659 125q61 5 107 26t70.5 47t39.5 60.5t19 59.5t4 51q0 105 -56.5 164.5t-183.5 119.5v-528z" />
<glyph unicode="%" horiz-adv-x="1550" d="M418 819q-132 0 -226 94t-94 226t94 225.5t226 93.5t225.5 -93.5t93.5 -225.5t-93.5 -226t-225.5 -94zM238 0l923 1427h158l-924 -1427h-157zM418 944q75 0 129.5 57t54.5 138q0 79 -54.5 136.5t-129.5 57.5q-76 0 -130.5 -57t-54.5 -137q0 -81 54 -138t131 -57zM813 289 q0 132 94 225.5t226 93.5t225.5 -93.5t93.5 -225.5t-93.5 -226t-225.5 -94t-226 94t-94 226zM948 289q0 -81 54 -138t131 -57q75 0 129.5 57t54.5 138q0 79 -54.5 136.5t-129.5 57.5q-76 0 -130.5 -57t-54.5 -137z" />
<glyph unicode="&#x26;" horiz-adv-x="1341" d="M541 -31q-195 0 -319 109.5t-124 300.5q0 85 24 153.5t71 121t102 91.5t133 78q-34 38 -54 65t-44.5 68.5t-36.5 88t-12 98.5q0 126 93 218.5t247 92.5q81 0 145.5 -25t105 -68t61.5 -96.5t21 -113.5q0 -236 -288 -379l280 -348q66 123 66 295h159q-3 -109 -31.5 -221 t-82.5 -201l243 -297h-202l-135 164q-143 -195 -422 -195zM555 117q92 0 174 42t131 124l-344 424q-124 -63 -191 -137t-67 -183q0 -127 85.5 -198.5t211.5 -71.5zM573 889q222 107 222 248q0 78 -52 124t-122 46q-79 0 -130 -45t-51 -121q0 -61 27.5 -109.5t105.5 -142.5z " />
<glyph unicode="'" horiz-adv-x="382" d="M139 911l-24 516h153l-24 -516h-105z" />
<glyph unicode="(" horiz-adv-x="651" d="M121 633q0 283 117.5 532.5t345.5 450.5l75 -82q-193 -190 -290 -410t-97 -491t97 -491t290 -410l-75 -82q-228 201 -345.5 450.5t-117.5 532.5z" />
<glyph unicode=")" horiz-adv-x="651" d="M-8 -268q193 190 290 410t97 491t-97 491t-290 410l76 82q228 -200 345 -450t117 -533t-117 -533t-345 -450z" />
<glyph unicode="*" horiz-adv-x="843" d="M283 850l-95 74l154 176l-225 69l43 115l213 -90l-11 233h121l-12 -233l215 90l41 -115l-225 -69l155 -176l-96 -74l-139 192z" />
<glyph unicode="+" horiz-adv-x="835" d="M340 389v252h-229v141h229v254h156v-254h229v-141h-229v-252h-156z" />
<glyph unicode="," horiz-adv-x="442" d="M-49 -262l184 489h203l-258 -489h-129z" />
<glyph unicode="-" horiz-adv-x="835" d="M111 469v141h614v-141h-614z" />
<glyph unicode="." horiz-adv-x="434" d="M115 88q0 43 30.5 72.5t71.5 29.5t71.5 -29.5t30.5 -72.5t-30.5 -72.5t-71.5 -29.5t-71.5 29.5t-30.5 72.5z" />
<glyph unicode="/" horiz-adv-x="913" d="M27 -279l639 1760h145l-643 -1760h-141z" />
<glyph unicode="0" horiz-adv-x="1183" d="M113 408q-7 79 -7 307q0 226 7 305q22 207 148.5 322.5t330.5 115.5t330.5 -115.5t148.5 -322.5q6 -68 6 -305q0 -239 -6 -307q-22 -207 -148.5 -323t-330.5 -116t-330.5 116t-148.5 323zM264 418q12 -139 99.5 -218t228.5 -79t228.5 79t99.5 218q6 59 6 297 q0 236 -6 295q-12 139 -99.5 218t-228.5 79t-228.5 -79t-99.5 -218q-6 -59 -6 -295q0 -238 6 -297z" />
<glyph unicode="1" horiz-adv-x="665" d="M299 0v1280h-197v147h357v-1427h-160z" />
<glyph unicode="2" horiz-adv-x="1077" d="M51 0v104l641 723q94 110 94 228q0 104 -75 178t-179 74t-177.5 -74.5t-73.5 -179.5h-158q0 167 121 286t291 119t290.5 -119t120.5 -286q0 -172 -147 -338l-510 -568h692v-147h-930z" />
<glyph unicode="3" horiz-adv-x="1198" d="M49 266l137 64q41 -98 145 -153.5t247 -55.5q159 0 259.5 91t100.5 237q0 142 -103 231.5t-278 89.5q-84 0 -164 -25l-57 103l461 432h-617v147h858v-106l-454 -422q12 4 41 4q197 0 331 -129t134 -325q0 -212 -144.5 -346t-367.5 -134q-187 0 -328 79.5t-201 217.5z" />
<glyph unicode="4" horiz-adv-x="1218" d="M133 317v107l496 1003h172l-477 -962h555v311h159v-776h-159v317h-746z" />
<glyph unicode="5" horiz-adv-x="1185" d="M82 260l137 66q44 -93 135 -149t199 -56q173 0 267.5 93t94.5 253q0 158 -98.5 254t-259.5 96q-148 0 -250 -92l-112 27l120 675h662v-147h-526l-64 -350q83 39 184 39q227 0 367.5 -136t140.5 -354q0 -234 -139.5 -372t-386.5 -138q-152 0 -279.5 79.5t-191.5 211.5z " />
<glyph unicode="6" horiz-adv-x="1202" d="M106 471q0 71 29 149t62.5 133t103.5 158q10 13 342 516h191l-328 -487q55 12 117 12q124 0 233.5 -62.5t176.5 -174t67 -242.5q0 -212 -145.5 -358t-350.5 -146q-134 0 -248.5 66.5t-182 182t-67.5 253.5zM268 465q0 -148 97 -246t239 -98q141 0 242.5 101.5 t101.5 242.5t-101.5 241.5t-242.5 100.5q-146 0 -241 -97t-95 -245z" />
<glyph unicode="7" horiz-adv-x="1171" d="M252 0l631 1280h-785v147h975v-110l-645 -1317h-176z" />
<glyph unicode="8" horiz-adv-x="1159" d="M102 432q0 145 72 246.5t182 146.5q-67 46 -106 115t-39 150q0 152 108.5 260t260.5 108t260 -108t108 -260q0 -81 -39 -150t-106 -115q110 -45 182 -146.5t72 -246.5q0 -125 -63 -231.5t-173 -169t-241 -62.5t-241 62.5t-173.5 169t-63.5 231.5zM580 872q87 0 149 64 t62 154q0 89 -61.5 153t-149.5 64t-149.5 -64t-61.5 -153q0 -90 62 -154t149 -64zM262 432q0 -129 93.5 -220t224.5 -91t224 91t93 220t-93 220t-224 91t-224.5 -91t-93.5 -220z" />
<glyph unicode="9" horiz-adv-x="1179" d="M348 0l350 516q-63 -18 -123 -18q-119 0 -226 57.5t-176 166.5t-69 243q0 137 66 250.5t177.5 178t242.5 64.5q140 0 252 -66t172.5 -176.5t60.5 -242.5q0 -59 -14 -115t-48 -122t-62 -110t-85 -130q-3 -5 -38 -58q-118 -179 -289 -438h-191zM590 639q155 0 244.5 95.5 t89.5 238.5q0 138 -98 236t-236 98t-236 -98t-98 -236t98 -236t236 -98z" />
<glyph unicode=":" horiz-adv-x="434" d="M217 696q-41 0 -71.5 30t-30.5 73t30.5 72.5t71.5 29.5t71.5 -29.5t30.5 -72.5t-30.5 -73t-71.5 -30zM217 131q-41 0 -71.5 29.5t-30.5 72.5t30.5 73t71.5 30t71.5 -30t30.5 -73t-30.5 -72.5t-71.5 -29.5z" />
<glyph unicode=";" horiz-adv-x="516" d="M258 696q-41 0 -71.5 30t-30.5 73t30.5 72.5t71.5 29.5t71.5 -29.5t30.5 -72.5t-30.5 -73t-71.5 -30zM-6 -229l172 456h203l-240 -456h-135z" />
<glyph unicode="&#x3c;" horiz-adv-x="897" d="M115 674v110l651 402v-160l-490 -297l490 -295v-160z" />
<glyph unicode="=" horiz-adv-x="921" d="M111 823v142h700v-142h-700zM111 487v142h700v-142h-700z" />
<glyph unicode="&#x3e;" horiz-adv-x="894" d="M131 274v160l490 295l-490 297v160l651 -402v-110z" />
<glyph unicode="?" horiz-adv-x="1120" d="M406 72q0 43 30.5 72.5t71.5 29.5t71.5 -29.5t30.5 -72.5t-30.5 -73t-71.5 -30t-71.5 30t-30.5 73zM426 342q2 169 55.5 268t198.5 199q37 30 53 43t42.5 40.5t38 48t21 52t9.5 66.5q0 108 -83.5 182t-230.5 74q-119 0 -213 -63t-139 -183l-137 53q55 164 189 252t307 88 q218 0 342.5 -114t124.5 -287q0 -115 -52.5 -196t-142.5 -148q-73 -53 -110 -85t-65.5 -74.5t-37.5 -88.5t-10 -119v-33h-160v25z" />
<glyph unicode="@" horiz-adv-x="1693" d="M102 598q0 142 55.5 277t151.5 238.5t236.5 166.5t300.5 63q146 0 282 -54t238 -147t163.5 -226.5t61.5 -282.5q0 -208 -82.5 -320t-228.5 -112q-78 0 -133.5 35.5t-81.5 101.5q-89 -109 -225 -109q-149 0 -251 103t-102 256t102 255.5t251 102.5q66 0 114.5 -21.5 t89.5 -68.5v72h140v-469q0 -45 10 -74t28 -39.5t29.5 -13t28.5 -2.5q18 0 31.5 2.5t36 10.5t39 28.5t32.5 51.5t24.5 85t8.5 125q0 158 -81.5 292t-221 211.5t-303.5 77.5q-122 0 -234 -49t-193 -131.5t-129 -196.5t-48 -239q0 -166 81 -307.5t220.5 -224t302.5 -82.5 q149 0 282 79l66 -122q-160 -86 -348 -86q-113 0 -222.5 35t-203 101.5t-165.5 156t-112.5 206.5t-40.5 244zM625 588q0 -96 61 -159.5t154 -63.5q91 0 153 64t62 159q0 97 -62 161t-153 64q-94 0 -154.5 -63.5t-60.5 -161.5z" />
<glyph unicode="A" horiz-adv-x="1523" d="M96 0l604 1427h123l604 -1427h-172l-147 352h-692l-148 -352h-172zM477 500h570l-285 680z" />
<glyph unicode="B" horiz-adv-x="1261" d="M213 0v1427h436q162 0 272.5 -103.5t110.5 -260.5q0 -103 -48 -178t-134 -109q138 -29 212.5 -123.5t74.5 -230.5q0 -182 -124 -302t-311 -120h-489zM373 831h266q101 0 167 64.5t66 161.5q0 96 -65 159.5t-166 63.5h-268v-449zM373 147h319q123 0 204 78t81 197 q0 115 -81 190.5t-206 75.5h-317v-541z" />
<glyph unicode="C" horiz-adv-x="1505" d="M121 713q0 157 58.5 295.5t158 236t236.5 153.5t290 56q162 0 302 -63t243 -179l-109 -98q-79 92 -191 142.5t-245 50.5q-124 0 -232.5 -45.5t-185.5 -124t-121 -188.5t-44 -236t44 -236t121 -188.5t185.5 -124t232.5 -45.5q135 0 250 52t193 148l108 -98 q-102 -119 -245 -184.5t-306 -65.5q-204 0 -374 95.5t-269.5 266t-99.5 380.5z" />
<glyph unicode="D" horiz-adv-x="1536" d="M213 0v1427h459q342 0 539.5 -196.5t197.5 -517.5t-196.5 -517t-538.5 -196h-461zM373 147h289q288 0 437.5 153.5t149.5 412.5q0 260 -150 413.5t-440 153.5h-286v-1133z" />
<glyph unicode="E" horiz-adv-x="1173" d="M213 0v1427h807v-147h-647v-453h608v-147h-608v-533h661v-147h-821z" />
<glyph unicode="F" horiz-adv-x="1085" d="M213 0v1427h745v-147h-585v-461h534v-147h-534v-672h-160z" />
<glyph unicode="G" horiz-adv-x="1564" d="M121 713q0 157 58.5 295.5t158 236t236.5 153.5t290 56q293 0 494 -186l-101 -111q-163 150 -393 150q-165 0 -299 -77.5t-209 -213.5t-75 -303q0 -126 44 -236t121 -188.5t185.5 -124t232.5 -45.5q229 0 391 143v369h-436v147h596v-571q-104 -112 -246.5 -174 t-304.5 -62q-204 0 -374 95.5t-269.5 266t-99.5 380.5z" />
<glyph unicode="H" horiz-adv-x="1538" d="M213 0v1427h160v-596h792v596h160v-1427h-160v684h-792v-684h-160z" />
<glyph unicode="I" horiz-adv-x="602" d="M221 0v1427h160v-1427h-160z" />
<glyph unicode="J" horiz-adv-x="684" d="M53 -10v151q52 -20 109 -20q50 0 83 20.5t49 60t22 82.5t6 103v1040h159v-1034q0 -52 -2 -90t-9 -84.5t-20 -80t-36 -67t-55 -54t-79.5 -33.5t-107.5 -13q-57 0 -119 19z" />
<glyph unicode="K" horiz-adv-x="1355" d="M213 0v1427h160v-757l686 757h196l-569 -622l586 -805h-193l-499 688l-207 -225v-463h-160z" />
<glyph unicode="L" horiz-adv-x="1064" d="M213 0v1427h160v-1280h588v-147h-748z" />
<glyph unicode="M" horiz-adv-x="1808" d="M213 0v1427h147l545 -905l545 905h145v-1427h-157v1112l-533 -872l-534 870v-1110h-158z" />
<glyph unicode="N" horiz-adv-x="1587" d="M213 0v1427h139l862 -1142v1142h160v-1427h-129l-872 1155v-1155h-160z" />
<glyph unicode="O" horiz-adv-x="1728" d="M121 713q0 157 58.5 295.5t158 236t236.5 153.5t290 56t290 -56t237 -153.5t158.5 -236t58.5 -295.5q0 -210 -99.5 -380.5t-270 -266t-374.5 -95.5t-374 95.5t-269.5 266t-99.5 380.5zM279 713q0 -126 44.5 -236t121.5 -188.5t186 -124t233 -45.5q166 0 299.5 77t209 213 t75.5 304t-75.5 304t-209 213t-299.5 77q-124 0 -233 -45.5t-186 -124t-121.5 -188.5t-44.5 -236z" />
<glyph unicode="P" horiz-adv-x="1222" d="M213 0v1427h457q119 0 219 -56t158.5 -156t58.5 -222q0 -187 -127 -310.5t-309 -123.5h-297v-559h-160zM373 707h291q121 0 201.5 81.5t80.5 204.5t-80.5 205t-201.5 82h-291v-573z" />
<glyph unicode="Q" horiz-adv-x="1728" d="M121 713q0 157 58.5 295.5t158 236t236.5 153.5t290 56t290 -56t237 -153.5t158.5 -236t58.5 -295.5q0 -155 -55 -289.5t-154 -235.5l151 -186l-112 -92l-152 186q-186 -125 -422 -125q-204 0 -374 95.5t-269.5 266t-99.5 380.5zM279 713q0 -126 44.5 -236t121.5 -188.5 t186 -124t233 -45.5q179 0 326 94l-234 287l113 92l231 -285q148 167 148 406q0 168 -75.5 304t-209 213t-299.5 77q-124 0 -233 -45.5t-186 -124t-121.5 -188.5t-44.5 -236z" />
<glyph unicode="R" d="M213 0v1427h487q179 0 303.5 -121.5t124.5 -304.5q0 -140 -75 -249t-197 -156l344 -596h-182l-322 565h-2h-321v-565h-160zM373 713h311q123 0 204 82t81 206q0 119 -78.5 199t-196.5 80h-321v-567z" />
<glyph unicode="S" horiz-adv-x="1175" d="M109 313l137 64q46 -125 141 -191.5t217 -66.5q139 0 213 67.5t74 173.5q0 49 -15 89.5t-37.5 68.5t-68 58t-85 50t-110.5 52q-75 34 -123.5 59.5t-101.5 63t-82.5 76t-49 93t-19.5 120.5q0 158 114.5 261t288.5 103q260 0 389 -233l-133 -76q-84 162 -258 162 q-100 0 -171 -60.5t-71 -152.5q0 -30 8 -56.5t19.5 -47.5t34.5 -41.5t43 -35.5t55 -33.5t61.5 -30.5t71.5 -32q85 -37 143 -68.5t110 -71.5t82 -84t47.5 -101.5t17.5 -129.5q0 -172 -118 -281.5t-331 -109.5q-172 0 -302.5 88t-190.5 254z" />
<glyph unicode="T" horiz-adv-x="1110" d="M475 0v1280h-389v147h938v-147h-389v-1280h-160z" />
<glyph unicode="U" horiz-adv-x="1474" d="M203 500v927h159v-911q0 -192 100 -292.5t275 -100.5t275 100.5t100 292.5v911h160v-927q0 -168 -70.5 -288.5t-189.5 -178.5t-275 -58q-116 0 -213 34t-169 98.5t-112 165t-40 227.5z" />
<glyph unicode="V" horiz-adv-x="1501" d="M694 0l-598 1427h172l484 -1159l479 1159h174l-598 -1427h-113z" />
<glyph unicode="W" horiz-adv-x="1933" d="M498 0l-418 1427h162l317 -1079l352 1079h111l352 -1079l318 1079h161l-417 -1427h-103l-366 1104l-367 -1104h-102z" />
<glyph unicode="X" horiz-adv-x="1386" d="M111 0l479 739l-451 688h178l377 -579l375 579h172l-448 -690l483 -737h-180l-410 627l-405 -627h-170z" />
<glyph unicode="Y" horiz-adv-x="1323" d="M584 0v586l-502 841h176l408 -684l403 684h172l-498 -841v-586h-159z" />
<glyph unicode="Z" horiz-adv-x="1339" d="M115 0v98l876 1182h-776v147h991v-106l-870 -1174h885v-147h-1106z" />
<glyph unicode="[" horiz-adv-x="677" d="M356 -248h301v-147h-460v1822h460v-147h-301v-1528z" />
<glyph unicode="\" horiz-adv-x="913" d="M721 -279l-643 1760h141l643 -1760h-141z" />
<glyph unicode="]" horiz-adv-x="677" d="M20 -248h302v1528h-302v147h461v-1822h-461v147z" />
<glyph unicode="^" horiz-adv-x="1114" d="M72 717l428 710h114l428 -710h-161l-324 549l-326 -549h-159z" />
<glyph unicode="_" horiz-adv-x="655" d="M20 -254h615v-141h-615v141z" />
<glyph unicode="`" horiz-adv-x="1150" d="M535 1130l-191 297h203l108 -297h-120z" />
<glyph unicode="a" horiz-adv-x="1275" d="M96 516q0 154 70 280t189.5 196.5t262.5 70.5q139 0 230.5 -53.5t136.5 -130.5v153h152v-1032h-152v154q-45 -78 -136.5 -131.5t-230.5 -53.5q-143 0 -262.5 70.5t-189.5 196.5t-70 280zM248 516q0 -174 105.5 -289.5t264.5 -115.5q166 0 276 116t110 289q0 174 -110 290 t-276 116q-159 0 -264.5 -116t-105.5 -290z" />
<glyph unicode="b" horiz-adv-x="1277" d="M141 0v1427h152v-548q45 78 136 131t230 53q143 0 263 -70.5t190 -196.5t70 -280t-70 -280t-190 -196.5t-263 -70.5q-139 0 -230 53.5t-136 131.5v-154h-152zM274 516q0 -174 109.5 -289.5t275.5 -115.5q160 0 265.5 115.5t105.5 289.5t-106 290t-265 116 q-165 0 -275 -116t-110 -290z" />
<glyph unicode="c" horiz-adv-x="1107" d="M96 516q0 154 74 280t199.5 196.5t275.5 70.5q238 0 391 -156l-92 -106q-118 121 -299 121q-171 0 -284 -116t-113 -290t113 -289.5t284 -115.5q182 0 299 120l92 -106q-153 -156 -391 -156q-150 0 -275.5 70.5t-199.5 196.5t-74 280z" />
<glyph unicode="d" horiz-adv-x="1277" d="M96 516q0 154 70 280t189.5 196.5t262.5 70.5q139 0 230.5 -53.5t136.5 -130.5v548h152v-1427h-152v154q-45 -78 -136.5 -131.5t-230.5 -53.5q-143 0 -262.5 70.5t-189.5 196.5t-70 280zM248 516q0 -174 105.5 -289.5t264.5 -115.5q166 0 276 116t110 289q0 174 -110 290 t-276 116q-159 0 -264.5 -116t-105.5 -290z" />
<glyph unicode="e" horiz-adv-x="1177" d="M96 504v8q0 247 146 399t370 152q211 0 343 -148t132 -366q0 -35 -2 -66h-837q6 -170 105.5 -271t262.5 -101q106 0 177 34.5t141 108.5l100 -98q-91 -101 -193.5 -142t-224.5 -41q-232 0 -376 145.5t-144 385.5zM258 616h668q0 125 -92 215.5t-222 90.5 q-140 0 -243 -89.5t-111 -216.5z" />
<glyph unicode="f" horiz-adv-x="690" d="M254 0v891h-166v141h166v86q0 111 23.5 174.5t76.5 106.5q42 37 94 48t117 11q48 0 80 -8v-143q-39 10 -96 10q-75 0 -109 -40.5t-34 -137.5v-107h194v-141h-194v-891h-152z" />
<glyph unicode="g" horiz-adv-x="1277" d="M213 -172q94 -68 191.5 -102.5t218.5 -34.5q162 0 256 76q64 53 85 133.5t21 185.5v86q-45 -77 -136.5 -130.5t-230.5 -53.5q-143 0 -262.5 68.5t-189.5 192t-70 275.5q0 114 41 215t111.5 171.5t166.5 111.5t203 41q139 0 230.5 -53.5t136.5 -130.5v153h152v-860 q0 -78 -2 -128.5t-11.5 -112.5t-26.5 -105.5t-48 -88t-76 -79.5q-137 -109 -348 -109q-272 0 -490 158zM248 524q0 -170 105 -282.5t265 -112.5q166 0 276 112.5t110 282.5t-110 284t-276 114q-159 0 -264.5 -113.5t-105.5 -284.5z" />
<glyph unicode="h" horiz-adv-x="1122" d="M141 0v1427h152v-569q40 87 122 139t195 52q170 0 270.5 -107.5t100.5 -282.5v-659h-152v627q0 130 -68 205t-188 75q-124 0 -202 -80.5t-78 -210.5v-616h-152z" />
<glyph unicode="i" horiz-adv-x="438" d="M219 1204q-41 0 -71.5 30t-30.5 73t30.5 72.5t71.5 29.5t72 -29.5t31 -72.5t-31 -73t-72 -30zM143 0v1032h152v-1032h-152z" />
<glyph unicode="j" horiz-adv-x="434" d="M217 1200q-41 0 -71.5 30t-30.5 73t30.5 72.5t71.5 29.5t71.5 -29.5t30.5 -72.5t-30.5 -73t-71.5 -30zM141 -106v1138h152v-1138q0 -320 -311 -320q-32 0 -56 4v143q34 -6 72 -6q75 0 109 41t34 138z" />
<glyph unicode="k" horiz-adv-x="1003" d="M141 0v1427h152v-905l442 510h174l-391 -452l447 -580h-181l-362 471l-129 -149v-322h-152z" />
<glyph unicode="l" horiz-adv-x="438" d="M143 0v1427h152v-1427h-152z" />
<glyph unicode="m" horiz-adv-x="1691" d="M141 0v1032h152v-174q37 87 112 139t179 52q108 0 186 -54t117 -151q45 97 130 151t200 54q158 0 251 -107.5t93 -282.5v-659h-152v627q0 130 -61.5 205t-171.5 75t-182 -81t-72 -210v-616h-152v627q0 130 -60.5 205t-168.5 75q-107 0 -177.5 -81t-70.5 -210v-616h-152z " />
<glyph unicode="n" horiz-adv-x="1138" d="M141 0v1032h152v-174q41 87 127.5 139t204.5 52q177 0 280 -107.5t103 -282.5v-659h-152v627q0 129 -72 204.5t-198 75.5q-130 0 -211.5 -80.5t-81.5 -210.5v-616h-152z" />
<glyph unicode="o" d="M96 516q0 154 74 280t199.5 196.5t275.5 70.5t275.5 -70.5t199.5 -196.5t74 -280t-74 -280t-199.5 -196.5t-275.5 -70.5t-275.5 70.5t-199.5 196.5t-74 280zM248 516q0 -174 113 -289.5t284 -115.5t284 115.5t113 289.5t-113 290t-284 116t-284 -116t-113 -290z" />
<glyph unicode="p" horiz-adv-x="1277" d="M141 -395v1427h152v-153q45 78 136 131t230 53q143 0 263 -70.5t190 -196.5t70 -280t-70 -280t-190 -196.5t-263 -70.5q-139 0 -230 53.5t-136 131.5v-549h-152zM274 516q0 -174 109.5 -289.5t275.5 -115.5q160 0 265.5 115.5t105.5 289.5t-106 290t-265 116 q-165 0 -275 -116t-110 -290z" />
<glyph unicode="q" horiz-adv-x="1277" d="M96 516q0 154 70 280t189.5 196.5t262.5 70.5q139 0 230.5 -53.5t136.5 -130.5v153h152v-1427h-152v549q-45 -78 -136.5 -131.5t-230.5 -53.5q-143 0 -262.5 70.5t-189.5 196.5t-70 280zM248 516q0 -174 105.5 -289.5t264.5 -115.5q166 0 276 116t110 289q0 174 -110 290 t-276 116q-159 0 -264.5 -116t-105.5 -290z" />
<glyph unicode="r" horiz-adv-x="788" d="M141 0v1032h152v-174q40 87 122 139t195 52q29 0 64 -5v-163q-42 10 -103 10q-121 0 -199.5 -81t-78.5 -210v-600h-152z" />
<glyph unicode="s" horiz-adv-x="897" d="M61 229l129 54q31 -77 101 -121.5t166 -44.5q116 0 168.5 42t52.5 111q0 76 -57.5 119.5t-190.5 89.5q-69 25 -117.5 50.5t-90 60.5t-62.5 81.5t-21 104.5q0 127 89.5 207t232.5 80q99 0 179 -48t126 -134l-117 -74q-26 54 -75.5 85.5t-108.5 31.5q-81 0 -127.5 -40.5 t-46.5 -99.5q0 -24 6.5 -43t22 -35.5t30.5 -28.5t44 -25.5t50 -22t60 -23.5q87 -32 144 -62t100 -69.5t62 -89.5t19 -117q0 -134 -95.5 -213.5t-274.5 -79.5q-142 0 -248.5 65t-149.5 189z" />
<glyph unicode="t" horiz-adv-x="679" d="M217 0v891h-131v141h131v395h152v-395h229v-141h-229v-891h-152z" />
<glyph unicode="u" horiz-adv-x="1124" d="M129 399v633h152v-618q0 -145 75 -221t205 -76q132 0 207.5 76.5t75.5 222.5v616h151v-618q0 -210 -122 -324.5t-318 -114.5q-190 0 -308 110t-118 314z" />
<glyph unicode="v" horiz-adv-x="1097" d="M498 0l-443 1032h158l338 -790l336 790h157l-442 -1032h-104z" />
<glyph unicode="w" horiz-adv-x="1576" d="M428 0l-373 1032h156l264 -751l260 751h107l258 -751l264 751h158l-373 -1032h-100l-261 752l-260 -752h-100z" />
<glyph unicode="x" horiz-adv-x="1099" d="M76 0l393 549l-360 483h167l273 -366l272 366h168l-358 -481l393 -551h-166l-307 432l-309 -432h-166z" />
<glyph unicode="y" horiz-adv-x="1114" d="M467 -6l-412 1038h154l338 -856l356 856h156l-606 -1427h-152z" />
<glyph unicode="z" horiz-adv-x="1071" d="M82 0v90l633 801h-565v141h780v-100l-629 -791h662v-141h-881z" />
<glyph unicode="{" horiz-adv-x="700" d="M256 -133v389q0 133 -82 182q-20 12 -43 19t-36 9l-13 1v98q47 2 92 29q82 49 82 182v389q0 114 69.5 188t176.5 74h92v-120h-76q-57 0 -83.5 -41.5t-26.5 -100.5v-366q0 -156 -70 -226q-36 -36 -82 -57q46 -21 82 -57q70 -70 70 -226v-366q0 -58 26.5 -99.5t83.5 -41.5 h76v-121h-92q-107 0 -176.5 74t-69.5 188z" />
<glyph unicode="|" horiz-adv-x="557" d="M203 -51v1530h151v-1530h-151z" />
<glyph unicode="}" horiz-adv-x="700" d="M106 -274h76q57 0 84 41.5t27 99.5v366q0 157 69 226q36 36 82 57q-46 21 -82 57q-69 69 -69 226v366q0 58 -27 100t-84 42h-76v120h93q107 0 176 -74t69 -188v-389q0 -133 82 -182q20 -12 43 -19t36 -9l13 -1v-98q-47 -2 -92 -29q-82 -49 -82 -182v-389q0 -114 -69 -188 t-176 -74h-93v121z" />
<glyph unicode="~" horiz-adv-x="905" d="M82 621q11 82 65.5 135t139.5 53q59 0 117.5 -20t110.5 -40t93 -20q87 0 115 84l100 -8q-26 -201 -209 -201q-62 0 -120.5 20t-109.5 40t-93 20q-89 0 -109 -72z" />
<glyph unicode="&#xa1;" horiz-adv-x="540" d="M270 842q-41 0 -71.5 29.5t-30.5 72.5t30.5 73t71.5 30t72 -30t31 -73t-31 -72.5t-72 -29.5zM174 -412l33 1110h127l33 -1110h-193z" />
<glyph unicode="&#xa2;" horiz-adv-x="1140" d="M410 0l45 209q-158 57 -255.5 193.5t-97.5 316.5q0 114 37 209t95 156t132.5 103.5t146.5 60.5t140 18h21l33 161h139l-39 -180q142 -36 240 -129l-93 -106q-72 72 -176 96l-164 -793q1 0 7.5 -1t17.5 -2t23 -1q173 0 290 115l95 -109q-85 -81 -192.5 -113t-205.5 -32 q-35 0 -63 4l-37 -176h-139zM483 348l162 776h-2q-169 -3 -279 -118t-110 -287q0 -126 62 -225.5t167 -145.5z" />
<glyph unicode="&#xa3;" horiz-adv-x="1249" d="M106 0v137h19q81 0 144.5 19.5t101 50t61.5 72.5t32.5 82t8.5 83q0 64 -51 164h-211v148h129q-98 170 -98 282q0 173 123.5 296.5t296.5 123.5t296 -123.5t123 -296.5h-157q0 110 -76 191.5t-184 81.5q-109 0 -186 -80t-77 -193q0 -96 115 -282h313v-148h-235 q39 -90 39 -164q0 -108 -35 -184.5t-86 -112.5h623v-147h-1029z" />
<glyph unicode="&#xa4;" horiz-adv-x="1370" d="M133 213l178 166q-106 127 -106 303q0 173 106 303l-178 168l105 102l161 -186q129 96 287 96q157 0 289 -96l162 186l104 -102l-180 -166q108 -133 108 -305q0 -173 -108 -303l180 -168l-104 -100q-103 110 -164 182q-124 -92 -287 -92q-164 0 -289 96l-159 -186z M686 334q140 0 240 102t100 246t-100 247t-240 103t-239 -102.5t-99 -247.5q0 -144 99 -246t239 -102z" />
<glyph unicode="&#xa5;" horiz-adv-x="1306" d="M575 0v432h-434v148h439l-109 180h-330v147h244l-311 520h176l407 -684l404 684h172l-307 -520h243v-147h-331l-107 -180h438v-148h-434v-432h-160z" />
<glyph unicode="&#xa6;" horiz-adv-x="557" d="M203 850v577h151v-577h-151zM203 0v602h151v-602h-151z" />
<glyph unicode="&#xa7;" horiz-adv-x="1107" d="M193 -47h159q0 -30 4 -57.5t17 -60.5t33.5 -57t58 -40.5t86.5 -16.5q80 0 138.5 47.5t58.5 135.5q0 26 -6.5 49.5t-15.5 41.5t-28.5 37t-34 31t-45 30t-48.5 27.5t-56 29.5q-220 112 -293 176q-133 118 -133 280q0 111 52.5 182.5t129.5 110.5q-88 91 -88 229 q0 144 102 237t255 93q171 0 264.5 -107t93.5 -272h-160q0 30 -4 57.5t-16.5 61t-33 57t-58 40t-86.5 16.5q-80 0 -138.5 -47.5t-58.5 -135.5q0 -30 5.5 -54t19 -44.5t27 -35.5t40.5 -32t47.5 -28.5t57.5 -30.5q242 -122 329 -196q133 -118 133 -281q0 -107 -51 -180 t-131 -113q88 -91 88 -229q0 -146 -102 -238t-254 -92q-168 0 -263 106t-95 273zM563 293q48 -22 101 -53q178 41 178 186q0 29 -7.5 55t-19 47.5t-35 44.5t-45 40t-59.5 40.5t-68.5 40.5t-81.5 45q-47 23 -100 54q-178 -41 -178 -187q0 -34 8.5 -62.5t29.5 -55.5t43 -48.5 t64 -48t76 -46.5t94 -52z" />
<glyph unicode="&#xa8;" d="M856 1200q-41 0 -71.5 30t-30.5 73t30.5 72.5t71.5 29.5t71.5 -29.5t30.5 -72.5t-30.5 -73t-71.5 -30zM434 1200q-41 0 -71.5 30t-30.5 73t30.5 72.5t71.5 29.5t72 -29.5t31 -72.5t-31 -73t-72 -30z" />
<glyph unicode="&#xa9;" horiz-adv-x="1712" d="M111 713q0 151 59 288.5t159 237t238 158.5t289 59q202 0 373.5 -99.5t272 -270.5t100.5 -373q0 -151 -59.5 -289t-159.5 -238t-238 -159.5t-289 -59.5t-289 59.5t-238 159.5t-159 238t-59 289zM201 713q0 -134 52 -257t140 -211.5t209 -141t254 -52.5t254 52.5t209 141 t140 211.5t52 257q0 179 -88 331t-239 240t-328 88t-328 -88t-239 -240t-88 -331zM453 723q0 177 120 294.5t295 117.5q182 0 312 -127l-95 -103q-97 90 -217 90q-115 0 -190.5 -78t-75.5 -194q0 -117 75.5 -194.5t190.5 -77.5q125 0 217 92l95 -109q-125 -125 -312 -125 q-175 0 -295 118.5t-120 295.5z" />
<glyph unicode="&#xaa;" horiz-adv-x="964" d="M121 870q0 105 80 169.5t229 68.5q105 3 144.5 23t39.5 79q0 36 -16 61t-41.5 36t-47.5 15.5t-44 4.5q-124 0 -211 -108l-88 73q108 154 299 154q121 0 192.5 -65t71.5 -171v-403q0 -24 10 -36.5t23 -12.5h43v-84q-33 -21 -76 -21q-46 0 -67 25q-21 23 -29 55 q-76 -88 -244 -88q-119 0 -193.5 61.5t-74.5 163.5zM238 874q0 -54 43 -84t118 -30q102 0 158.5 43t56.5 115v120q-42 -36 -184 -39q-192 -7 -192 -125z" />
<glyph unicode="&#xab;" horiz-adv-x="897" d="M641 160l-225 358l225 359h160l-226 -359l226 -358h-160zM322 160l-226 358l226 359h159l-225 -359l225 -358h-159z" />
<glyph unicode="&#xac;" horiz-adv-x="1212" d="M111 782v142h991v-553h-156v411h-835z" />
<glyph unicode="&#xad;" horiz-adv-x="835" d="M111 469v141h614v-141h-614z" />
<glyph unicode="&#xae;" horiz-adv-x="856" d="M426 807q-138 0 -234 92.5t-96 233.5t96 233t234 92q140 0 237 -92t97 -233t-97 -233.5t-237 -92.5zM426 868q115 0 190.5 74.5t75.5 190.5q0 119 -75.5 193.5t-190.5 74.5t-189.5 -74.5t-74.5 -193.5q0 -116 74.5 -190.5t189.5 -74.5zM305 952v375h133q54 0 87.5 -33 t33.5 -84q0 -72 -61 -108l90 -150h-82l-82 138h-49v-138h-70zM375 1147h61q23 0 38 17t15 42q0 24 -15 40t-38 16h-61v-115z" />
<glyph unicode="&#xaf;" horiz-adv-x="1318" d="M358 1286v141h603v-141h-603z" />
<glyph unicode="&#xb0;" horiz-adv-x="786" d="M393 893q-113 0 -191.5 78.5t-78.5 191.5t79 192t191 79q113 0 192 -79t79 -192q0 -112 -79 -191t-192 -79zM393 1028q51 0 88 40t37 95t-37 95t-88 40t-88 -40t-37 -95t37 -95t88 -40z" />
<glyph unicode="&#xb1;" horiz-adv-x="835" d="M340 389v252h-229v141h229v254h156v-254h229v-141h-229v-252h-156zM111 0v141h614v-141h-614z" />
<glyph unicode="&#xb2;" horiz-adv-x="714" d="M115 672v82l313 362q49 58 49 107q0 45 -32.5 77.5t-77.5 32.5q-46 0 -78.5 -38t-32.5 -91h-115q0 100 66 170t160 70t160.5 -64.5t66.5 -156.5q0 -29 -3 -49t-19 -55t-48 -72l-237 -265h325v-110h-497z" />
<glyph unicode="&#xb3;" horiz-adv-x="757" d="M360 655q-99 0 -175 51t-107 136l102 39q20 -53 68 -83t112 -30q76 0 124 42t48 108q0 67 -49.5 111t-130.5 44q-74 0 -106 -16l-41 53l217 209h-272v108h458v-67l-207 -191q41 0 82 -12q72 -27 117 -92t45 -147q0 -115 -80.5 -189t-204.5 -74z" />
<glyph unicode="&#xb4;" horiz-adv-x="1150" d="M498 1130l108 297h203l-191 -297h-120z" />
<glyph unicode="&#xb5;" horiz-adv-x="1124" d="M281 76v-471h-152v1427h152v-618q0 -145 75 -221t205 -76q132 0 207.5 76.5t75.5 222.5v616h151v-618q0 -210 -122 -324.5t-318 -114.5q-73 0 -147 27.5t-127 73.5z" />
<glyph unicode="&#xb6;" horiz-adv-x="1153" d="M500 0v547q-175 9 -296.5 136t-121.5 304q0 183 128.5 311.5t311.5 128.5h584v-147h-135v-1280h-160v1280h-152v-1280h-159z" />
<glyph unicode="&#xb7;" horiz-adv-x="434" d="M217 414q-41 0 -71.5 29.5t-30.5 72.5t30.5 72.5t71.5 29.5t71.5 -29.5t30.5 -72.5t-30.5 -72.5t-71.5 -29.5z" />
<glyph unicode="&#xb8;" horiz-adv-x="1132" d="M475 -156l66 156h114l-43 -94q57 0 96.5 -40t39.5 -106q0 -166 -211 -166q-42 0 -85 14.5t-67 33.5l39 79q55 -34 111 -34q39 0 64.5 20t25.5 53q0 49 -36.5 66.5t-113.5 17.5z" />
<glyph unicode="&#xb9;" horiz-adv-x="503" d="M205 672v647h-99v108h216v-755h-117z" />
<glyph unicode="&#xba;" horiz-adv-x="983" d="M492 651q-165 0 -282.5 116t-117.5 282t117.5 281.5t282.5 115.5t282 -115.5t117 -281.5t-117 -282t-282 -116zM492 776q109 0 186.5 81t77.5 192t-77 191.5t-187 80.5t-187.5 -80.5t-77.5 -191.5t77.5 -192t187.5 -81z" />
<glyph unicode="&#xbb;" horiz-adv-x="897" d="M416 160l225 358l-225 359h159l226 -359l-226 -358h-159zM96 160l226 358l-226 359h160l225 -359l-225 -358h-160z" />
<glyph unicode="&#xbc;" horiz-adv-x="1425" d="M184 0l799 1427h152l-799 -1427h-152zM246 672v647h-99v108h215v-755h-116zM727 150v79l262 527h121l-248 -496h283v152h117v-412h-117v150h-418z" />
<glyph unicode="&#xbd;" horiz-adv-x="1490" d="M184 0l799 1427h152l-799 -1427h-152zM246 672v647h-99v108h215v-755h-116zM850 0v82l313 362q49 58 49 107q0 45 -33 78t-77 33q-46 0 -78.5 -38.5t-32.5 -91.5h-114q0 100 65.5 170t159.5 70t160.5 -64.5t66.5 -156.5q0 -30 -2.5 -49t-18.5 -54.5t-48 -72.5l-238 -264 h326v-111h-498z" />
<glyph unicode="&#xbe;" horiz-adv-x="1626" d="M385 0l799 1427h151l-798 -1427h-152zM381 655q-99 0 -175.5 51t-107.5 136l103 39q20 -53 68 -83t112 -30q76 0 124 42t48 108q0 67 -49.5 111t-130.5 44q-75 0 -107 -16l-41 53l217 209h-272v108h459v-67l-207 -191q41 0 82 -12q72 -27 117 -92t45 -147 q0 -115 -80.5 -189t-204.5 -74zM928 150v79l262 527h121l-248 -496h283v152h116v-412h-116v150h-418z" />
<glyph unicode="&#xbf;" horiz-adv-x="1120" d="M715 944q0 -43 -31 -72.5t-72 -29.5t-71.5 29.5t-30.5 72.5t30.5 73t71.5 30t72 -30t31 -73zM694 698v-20q-2 -169 -55.5 -268t-198.5 -199q-37 -30 -53 -43t-42.5 -40.5t-38 -48t-21 -52t-9.5 -66.5q0 -108 83.5 -182t230.5 -74q119 0 213 63t139 183l137 -53 q-55 -164 -188.5 -252t-306.5 -88q-218 0 -342.5 114t-124.5 287q0 115 52 196t142 148q73 53 110 85t66 74.5t38 88.5t10 119v28h159z" />
<glyph unicode="&#xc0;" horiz-adv-x="1523" d="M715 1526l-191 297h203l109 -297h-121zM96 0l604 1427h123l604 -1427h-172l-147 352h-692l-148 -352h-172zM477 500h570l-285 680z" />
<glyph unicode="&#xc1;" horiz-adv-x="1523" d="M682 1526l109 297h202l-190 -297h-121zM96 0l604 1427h123l604 -1427h-172l-147 352h-692l-148 -352h-172zM477 500h570l-285 680z" />
<glyph unicode="&#xc2;" horiz-adv-x="1523" d="M440 1575l258 248h127l258 -248h-186l-135 135l-135 -135h-187zM96 0l604 1427h123l604 -1427h-172l-147 352h-692l-148 -352h-172zM477 500h570l-285 680z" />
<glyph unicode="&#xc3;" horiz-adv-x="1523" d="M461 1561q9 82 58.5 135t125.5 53q56 0 130.5 -40t109.5 -40q38 0 61 20t33 64l100 -8q-23 -201 -188 -201q-46 0 -90 20t-82 40t-70 20q-71 0 -88 -72zM96 0l604 1427h123l604 -1427h-172l-147 352h-692l-148 -352h-172zM477 500h570l-285 680z" />
<glyph unicode="&#xc4;" horiz-adv-x="1523" d="M973 1524q-41 0 -72 29.5t-31 72.5t31 73t72 30t71.5 -30t30.5 -73t-30.5 -72.5t-71.5 -29.5zM551 1524q-41 0 -71.5 29.5t-30.5 72.5t30.5 73t71.5 30t71.5 -30t30.5 -73t-30.5 -72.5t-71.5 -29.5zM96 0l604 1427h123l604 -1427h-172l-147 352h-692l-148 -352h-172z M477 500h570l-285 680z" />
<glyph unicode="&#xc5;" horiz-adv-x="1484" d="M96 0l594 1362q-64 18 -105.5 71t-41.5 121q0 82 58.5 140.5t141.5 58.5q82 0 140.5 -58.5t58.5 -140.5q0 -70 -42 -123.5t-107 -70.5l596 -1360h-175l-153 352h-643l-154 -352h-168zM743 1458q38 0 66.5 29t28.5 67t-28.5 66.5t-66.5 28.5t-67 -28.5t-29 -66.5t29 -67 t67 -29zM481 500h516l-258 606z" />
<glyph unicode="&#xc6;" horiz-adv-x="1871" d="M-8 0l1093 1427h635v-147h-516v-453h477v-147h-477v-533h531v-147h-691v352h-581l-270 -352h-201zM575 500h469v624z" />
<glyph unicode="&#xc7;" horiz-adv-x="1505" d="M121 713q0 157 58.5 295.5t158 236t236.5 153.5t290 56q162 0 302 -63t243 -179l-109 -98q-79 92 -191 142.5t-245 50.5q-124 0 -232.5 -45.5t-185.5 -124t-121 -188.5t-44 -236t44 -236t121 -188.5t185.5 -124t232.5 -45.5q135 0 250 52t193 148l108 -98 q-102 -119 -245 -184.5t-306 -65.5q-35 0 -53 2l-31 -67q57 0 96 -40t39 -106q0 -166 -210 -166q-42 0 -85 14.5t-67 33.5l39 79q55 -34 110 -34q39 0 65 20t26 53q0 49 -36.5 66.5t-113.5 17.5l59 144q-255 53 -418 252t-163 473z" />
<glyph unicode="&#xc8;" horiz-adv-x="1173" d="M592 1526l-191 297h203l109 -297h-121zM213 0v1427h807v-147h-647v-453h608v-147h-608v-533h661v-147h-821z" />
<glyph unicode="&#xc9;" horiz-adv-x="1173" d="M535 1526l108 297h203l-191 -297h-120zM213 0v1427h807v-147h-647v-453h608v-147h-608v-533h661v-147h-821z" />
<glyph unicode="&#xca;" horiz-adv-x="1173" d="M297 1575l258 248h127l258 -248h-186l-136 135l-135 -135h-186zM213 0v1427h807v-147h-647v-453h608v-147h-608v-533h661v-147h-821z" />
<glyph unicode="&#xcb;" horiz-adv-x="1173" d="M829 1563q-41 0 -71.5 29.5t-30.5 72.5t30.5 72.5t71.5 29.5t72 -29.5t31 -72.5t-31 -72.5t-72 -29.5zM408 1563q-41 0 -72 29.5t-31 72.5t31 72.5t72 29.5t71.5 -29.5t30.5 -72.5t-30.5 -72.5t-71.5 -29.5zM213 0v1427h807v-147h-647v-453h608v-147h-608v-533h661v-147 h-821z" />
<glyph unicode="&#xcc;" horiz-adv-x="602" d="M242 1526l-191 297h203l108 -297h-120zM221 0v1427h160v-1427h-160z" />
<glyph unicode="&#xcd;" horiz-adv-x="602" d="M238 1526l108 297h203l-191 -297h-120zM221 0v1427h160v-1427h-160z" />
<glyph unicode="&#xce;" horiz-adv-x="602" d="M-20 1575l258 248h127l258 -248h-187l-135 135l-135 -135h-186zM221 0v1427h160v-1427h-160z" />
<glyph unicode="&#xcf;" horiz-adv-x="602" d="M492 1563q-41 0 -72 29.5t-31 72.5t31 72.5t72 29.5t71.5 -29.5t30.5 -72.5t-30.5 -72.5t-71.5 -29.5zM111 1563q-41 0 -72 29.5t-31 72.5t31 72.5t72 29.5t71.5 -29.5t30.5 -72.5t-30.5 -72.5t-71.5 -29.5zM221 0v1427h160v-1427h-160z" />
<glyph unicode="&#xd0;" horiz-adv-x="1527" d="M213 0v659h-133v148h133v620h459q342 0 539.5 -196.5t197.5 -517.5t-196.5 -517t-538.5 -196h-461zM373 147h289q288 0 437.5 153.5t149.5 412.5q0 260 -150 413.5t-440 153.5h-286v-473h297v-148h-297v-512z" />
<glyph unicode="&#xd1;" horiz-adv-x="1587" d="M483 1561q9 82 59 135t126 53q56 0 130 -40t109 -40q38 0 61 20t33 64l101 -8q-23 -201 -189 -201q-46 0 -90 20t-81.5 40t-69.5 20q-71 0 -88 -72zM213 0v1427h139l862 -1142v1142h160v-1427h-129l-872 1155v-1155h-160z" />
<glyph unicode="&#xd2;" horiz-adv-x="1728" d="M813 1526l-190 297h202l109 -297h-121zM121 713q0 157 58.5 295.5t158 236t236.5 153.5t290 56t290 -56t237 -153.5t158.5 -236t58.5 -295.5q0 -210 -99.5 -380.5t-270 -266t-374.5 -95.5t-374 95.5t-269.5 266t-99.5 380.5zM279 713q0 -126 44.5 -236t121.5 -188.5 t186 -124t233 -45.5q166 0 299.5 77t209 213t75.5 304t-75.5 304t-209 213t-299.5 77q-124 0 -233 -45.5t-186 -124t-121.5 -188.5t-44.5 -236z" />
<glyph unicode="&#xd3;" horiz-adv-x="1728" d="M774 1526l109 297h202l-190 -297h-121zM121 713q0 157 58.5 295.5t158 236t236.5 153.5t290 56t290 -56t237 -153.5t158.5 -236t58.5 -295.5q0 -210 -99.5 -380.5t-270 -266t-374.5 -95.5t-374 95.5t-269.5 266t-99.5 380.5zM279 713q0 -126 44.5 -236t121.5 -188.5 t186 -124t233 -45.5q166 0 299.5 77t209 213t75.5 304t-75.5 304t-209 213t-299.5 77q-124 0 -233 -45.5t-186 -124t-121.5 -188.5t-44.5 -236z" />
<glyph unicode="&#xd4;" horiz-adv-x="1728" d="M543 1575l258 248h127l258 -248h-187l-135 135l-135 -135h-186zM121 713q0 157 58.5 295.5t158 236t236.5 153.5t290 56t290 -56t237 -153.5t158.5 -236t58.5 -295.5q0 -210 -99.5 -380.5t-270 -266t-374.5 -95.5t-374 95.5t-269.5 266t-99.5 380.5zM279 713 q0 -126 44.5 -236t121.5 -188.5t186 -124t233 -45.5q166 0 299.5 77t209 213t75.5 304t-75.5 304t-209 213t-299.5 77q-124 0 -233 -45.5t-186 -124t-121.5 -188.5t-44.5 -236z" />
<glyph unicode="&#xd5;" horiz-adv-x="1728" d="M555 1561q9 82 58.5 135t125.5 53q55 0 130 -40t110 -40q38 0 61 20t33 64l101 -8q-23 -201 -189 -201q-46 0 -90 20t-82 40t-70 20q-71 0 -88 -72zM121 713q0 157 58.5 295.5t158 236t236.5 153.5t290 56t290 -56t237 -153.5t158.5 -236t58.5 -295.5 q0 -210 -99.5 -380.5t-270 -266t-374.5 -95.5t-374 95.5t-269.5 266t-99.5 380.5zM279 713q0 -126 44.5 -236t121.5 -188.5t186 -124t233 -45.5q166 0 299.5 77t209 213t75.5 304t-75.5 304t-209 213t-299.5 77q-124 0 -233 -45.5t-186 -124t-121.5 -188.5t-44.5 -236z" />
<glyph unicode="&#xd6;" horiz-adv-x="1728" d="M1075 1524q-41 0 -71.5 29.5t-30.5 72.5t30.5 73t71.5 30t72 -30t31 -73t-31 -72.5t-72 -29.5zM653 1524q-41 0 -71.5 29.5t-30.5 72.5t30.5 73t71.5 30t72 -30t31 -73t-31 -72.5t-72 -29.5zM121 713q0 157 58.5 295.5t158 236t236.5 153.5t290 56t290 -56t237 -153.5 t158.5 -236t58.5 -295.5q0 -210 -99.5 -380.5t-270 -266t-374.5 -95.5t-374 95.5t-269.5 266t-99.5 380.5zM279 713q0 -126 44.5 -236t121.5 -188.5t186 -124t233 -45.5q166 0 299.5 77t209 213t75.5 304t-75.5 304t-209 213t-299.5 77q-124 0 -233 -45.5t-186 -124 t-121.5 -188.5t-44.5 -236z" />
<glyph unicode="&#xd7;" horiz-adv-x="835" d="M195 365l-93 96l222 221l-222 221l93 94l223 -223l221 223l94 -94l-221 -221l221 -221l-94 -96l-221 223z" />
<glyph unicode="&#xd8;" horiz-adv-x="1728" d="M258 0l113 152q-118 102 -184 246.5t-66 314.5q0 157 58.5 295.5t158 236t236.5 153.5t290 56q216 0 398 -111l118 160l117 -88l-119 -160q109 -102 169.5 -241t60.5 -301q0 -210 -99.5 -380.5t-270 -266t-374.5 -95.5q-198 0 -375 97l-114 -154zM461 272l713 951 q-139 84 -310 84q-124 0 -233 -45.5t-186 -124t-121.5 -188.5t-44.5 -236q0 -133 47.5 -247t134.5 -194zM580 188q129 -69 284 -69q166 0 299.5 77t209 213t75.5 304q0 252 -162 420z" />
<glyph unicode="&#xd9;" horiz-adv-x="1474" d="M690 1526l-190 297h202l109 -297h-121zM203 500v927h159v-911q0 -192 100 -292.5t275 -100.5t275 100.5t100 292.5v911h160v-927q0 -168 -70.5 -288.5t-189.5 -178.5t-275 -58q-116 0 -213 34t-169 98.5t-112 165t-40 227.5z" />
<glyph unicode="&#xda;" horiz-adv-x="1474" d="M670 1526l108 297h203l-190 -297h-121zM203 500v927h159v-911q0 -192 100 -292.5t275 -100.5t275 100.5t100 292.5v911h160v-927q0 -168 -70.5 -288.5t-189.5 -178.5t-275 -58q-116 0 -213 34t-169 98.5t-112 165t-40 227.5z" />
<glyph unicode="&#xdb;" horiz-adv-x="1474" d="M416 1575l258 248h127l258 -248h-187l-135 135l-135 -135h-186zM203 500v927h159v-911q0 -192 100 -292.5t275 -100.5t275 100.5t100 292.5v911h160v-927q0 -168 -70.5 -288.5t-189.5 -178.5t-275 -58q-116 0 -213 34t-169 98.5t-112 165t-40 227.5z" />
<glyph unicode="&#xdc;" horiz-adv-x="1474" d="M948 1524q-41 0 -71.5 29.5t-30.5 72.5t30.5 73t71.5 30t72 -30t31 -73t-31 -72.5t-72 -29.5zM526 1524q-41 0 -71.5 29.5t-30.5 72.5t30.5 73t71.5 30t72 -30t31 -73t-31 -72.5t-72 -29.5zM203 500v927h159v-911q0 -192 100 -292.5t275 -100.5t275 100.5t100 292.5v911 h160v-927q0 -168 -70.5 -288.5t-189.5 -178.5t-275 -58q-116 0 -213 34t-169 98.5t-112 165t-40 227.5z" />
<glyph unicode="&#xdd;" horiz-adv-x="1323" d="M596 1526l109 297h202l-190 -297h-121zM584 0v586l-502 841h176l408 -684l403 684h172l-498 -841v-586h-159z" />
<glyph unicode="&#xde;" horiz-adv-x="1052" d="M213 0v1427h160v-305h133q210 0 324 -116.5t114 -303.5q0 -180 -110 -292.5t-314 -112.5h-147v-297h-160zM373 446h133q135 0 206.5 70t71.5 193q0 124 -71.5 194t-208.5 70h-131v-527z" />
<glyph unicode="&#xdf;" horiz-adv-x="1175" d="M139 0v1106q0 148 102 250t251 102q146 0 248 -102t102 -248q0 -133 -92 -225q59 -11 117 -44t109 -85.5t82.5 -133t31.5 -174.5q0 -203 -140.5 -340t-355.5 -137q-41 0 -105 11v155q49 -18 105 -18q138 0 237 96.5t99 232.5q0 135 -99 230.5t-237 95.5q-56 0 -105 -18 v143q93 18 143 70.5t50 138.5q0 85 -56 145t-134 60q-82 0 -137.5 -59.5t-55.5 -145.5v-1106h-160z" />
<glyph unicode="&#xe0;" horiz-adv-x="1275" d="M569 1130l-190 297h203l108 -297h-121zM96 516q0 154 70 280t189.5 196.5t262.5 70.5q139 0 230.5 -53.5t136.5 -130.5v153h152v-1032h-152v154q-45 -78 -136.5 -131.5t-230.5 -53.5q-143 0 -262.5 70.5t-189.5 196.5t-70 280zM248 516q0 -174 105.5 -289.5t264.5 -115.5 q166 0 276 116t110 289q0 174 -110 290t-276 116q-159 0 -264.5 -116t-105.5 -290z" />
<glyph unicode="&#xe1;" horiz-adv-x="1275" d="M559 1130l109 297h202l-190 -297h-121zM96 516q0 154 70 280t189.5 196.5t262.5 70.5q139 0 230.5 -53.5t136.5 -130.5v153h152v-1032h-152v154q-45 -78 -136.5 -131.5t-230.5 -53.5q-143 0 -262.5 70.5t-189.5 196.5t-70 280zM248 516q0 -174 105.5 -289.5t264.5 -115.5 q166 0 276 116t110 289q0 174 -110 290t-276 116q-159 0 -264.5 -116t-105.5 -290z" />
<glyph unicode="&#xe2;" horiz-adv-x="1275" d="M332 1180l258 247h127l258 -247h-187l-135 135l-135 -135h-186zM96 516q0 154 70 280t189.5 196.5t262.5 70.5q139 0 230.5 -53.5t136.5 -130.5v153h152v-1032h-152v154q-45 -78 -136.5 -131.5t-230.5 -53.5q-143 0 -262.5 70.5t-189.5 196.5t-70 280zM248 516 q0 -174 105.5 -289.5t264.5 -115.5q166 0 276 116t110 289q0 174 -110 290t-276 116q-159 0 -264.5 -116t-105.5 -290z" />
<glyph unicode="&#xe3;" horiz-adv-x="1275" d="M338 1225q9 82 58.5 135t125.5 53q44 0 88 -20t82.5 -40t69.5 -20q38 0 61 20t33 64l100 -8q-23 -201 -188 -201q-46 0 -90 20t-82 40t-70 20q-71 0 -88 -71zM96 516q0 154 70 280t189.5 196.5t262.5 70.5q139 0 230.5 -53.5t136.5 -130.5v153h152v-1032h-152v154 q-45 -78 -136.5 -131.5t-230.5 -53.5q-143 0 -262.5 70.5t-189.5 196.5t-70 280zM248 516q0 -174 105.5 -289.5t264.5 -115.5q166 0 276 116t110 289q0 174 -110 290t-276 116q-159 0 -264.5 -116t-105.5 -290z" />
<glyph unicode="&#xe4;" horiz-adv-x="1275" d="M854 1200q-41 0 -71.5 30t-30.5 73t30.5 72.5t71.5 29.5t71.5 -29.5t30.5 -72.5t-30.5 -73t-71.5 -30zM432 1200q-41 0 -71.5 30t-30.5 73t30.5 72.5t71.5 29.5t72 -29.5t31 -72.5t-31 -73t-72 -30zM96 516q0 154 70 280t189.5 196.5t262.5 70.5q139 0 230.5 -53.5 t136.5 -130.5v153h152v-1032h-152v154q-45 -78 -136.5 -131.5t-230.5 -53.5q-143 0 -262.5 70.5t-189.5 196.5t-70 280zM248 516q0 -174 105.5 -289.5t264.5 -115.5q166 0 276 116t110 289q0 174 -110 290t-276 116q-159 0 -264.5 -116t-105.5 -290z" />
<glyph unicode="&#xe5;" horiz-adv-x="1275" d="M649 1139q-83 0 -141.5 58.5t-58.5 141.5q0 82 58.5 140.5t141.5 58.5q82 0 140.5 -58.5t58.5 -140.5q0 -83 -58 -141.5t-141 -58.5zM649 1243q38 0 66 29t28 67t-28 66.5t-66 28.5t-67 -28.5t-29 -66.5t29 -67t67 -29zM96 516q0 154 70 280t189.5 196.5t262.5 70.5 q139 0 230.5 -53.5t136.5 -130.5v153h152v-1032h-152v154q-45 -78 -136.5 -131.5t-230.5 -53.5q-143 0 -262.5 70.5t-189.5 196.5t-70 280zM248 516q0 -174 105.5 -289.5t264.5 -115.5q166 0 276 116t110 289q0 174 -110 290t-276 116q-159 0 -264.5 -116t-105.5 -290z" />
<glyph unicode="&#xe6;" horiz-adv-x="1871" d="M98 285q0 142 99 228.5t262 86.5h174q53 0 87.5 11t50 32.5t21 43t5.5 52.5q0 46 -17 81t-41.5 53.5t-57.5 30.5t-58 15t-50 3q-180 0 -299 -166l-104 86q71 107 174 164t229 57q124 0 212.5 -52t127.5 -143q67 92 164.5 143.5t214.5 51.5q132 0 243 -70.5t177 -196.5 t66 -280q0 -17 -2 -33h-838q6 -170 102.5 -271t255.5 -101q109 0 179 34t149 109l100 -98q-96 -104 -199 -145.5t-229 -41.5q-132 0 -233.5 52t-167.5 149q-120 -201 -440 -201q-168 0 -262.5 88t-94.5 228zM250 285q0 -90 55.5 -127t171.5 -37q152 0 236 64.5t84 162.5v133 q-60 -32 -164 -32h-174q-100 0 -154.5 -40.5t-54.5 -123.5zM948 616h668q-25 136 -114 221t-210 85q-128 0 -223 -85t-121 -221z" />
<glyph unicode="&#xe7;" horiz-adv-x="1107" d="M96 516q0 154 74 280t199.5 196.5t275.5 70.5q238 0 391 -156l-92 -106q-118 121 -299 121q-171 0 -284 -116t-113 -290t113 -289.5t284 -115.5q182 0 299 120l92 -106q-153 -156 -391 -156h-18l-29 -63q57 0 96 -40t39 -106q0 -166 -211 -166q-42 0 -84.5 14.5 t-66.5 33.5l39 79q55 -34 110 -34q39 0 64.5 20t25.5 53q0 49 -36 66.5t-113 17.5l57 140q-185 40 -303.5 186.5t-118.5 345.5z" />
<glyph unicode="&#xe8;" horiz-adv-x="1177" d="M582 1130l-191 297h203l108 -297h-120zM96 504v8q0 247 146 399t370 152q211 0 343 -148t132 -366q0 -35 -2 -66h-837q6 -170 105.5 -271t262.5 -101q106 0 177 34.5t141 108.5l100 -98q-91 -101 -193.5 -142t-224.5 -41q-232 0 -376 145.5t-144 385.5zM258 616h668 q0 125 -92 215.5t-222 90.5q-140 0 -243 -89.5t-111 -216.5z" />
<glyph unicode="&#xe9;" horiz-adv-x="1177" d="M553 1130l109 297h202l-190 -297h-121zM96 504v8q0 247 146 399t370 152q211 0 343 -148t132 -366q0 -35 -2 -66h-837q6 -170 105.5 -271t262.5 -101q106 0 177 34.5t141 108.5l100 -98q-91 -101 -193.5 -142t-224.5 -41q-232 0 -376 145.5t-144 385.5zM258 616h668 q0 125 -92 215.5t-222 90.5q-140 0 -243 -89.5t-111 -216.5z" />
<glyph unicode="&#xea;" horiz-adv-x="1177" d="M295 1180l258 247h127l258 -247h-186l-136 135l-135 -135h-186zM96 504v8q0 247 146 399t370 152q211 0 343 -148t132 -366q0 -35 -2 -66h-837q6 -170 105.5 -271t262.5 -101q106 0 177 34.5t141 108.5l100 -98q-91 -101 -193.5 -142t-224.5 -41q-232 0 -376 145.5 t-144 385.5zM258 616h668q0 125 -92 215.5t-222 90.5q-140 0 -243 -89.5t-111 -216.5z" />
<glyph unicode="&#xeb;" horiz-adv-x="1177" d="M825 1200q-41 0 -71.5 30t-30.5 73t30.5 72.5t71.5 29.5t72 -29.5t31 -72.5t-31 -73t-72 -30zM403 1200q-41 0 -71.5 30t-30.5 73t30.5 72.5t71.5 29.5t72 -29.5t31 -72.5t-31 -73t-72 -30zM96 504v8q0 247 146 399t370 152q211 0 343 -148t132 -366q0 -35 -2 -66h-837 q6 -170 105.5 -271t262.5 -101q106 0 177 34.5t141 108.5l100 -98q-91 -101 -193.5 -142t-224.5 -41q-232 0 -376 145.5t-144 385.5zM258 616h668q0 125 -92 215.5t-222 90.5q-140 0 -243 -89.5t-111 -216.5z" />
<glyph unicode="&#xec;" horiz-adv-x="438" d="M172 1130l-190 297h202l109 -297h-121zM143 0v1032h152v-1032h-152z" />
<glyph unicode="&#xed;" horiz-adv-x="438" d="M147 1130l109 297h203l-191 -297h-121zM143 0v1032h152v-1032h-152z" />
<glyph unicode="&#xee;" horiz-adv-x="438" d="M-51 1180l207 247h127l206 -247h-176l-94 147l-94 -147h-176zM143 0v1032h152v-1032h-152z" />
<glyph unicode="&#xef;" horiz-adv-x="438" d="M367 1200q-41 0 -72 30t-31 73t31 72.5t72 29.5t71.5 -29.5t30.5 -72.5t-30.5 -73t-71.5 -30zM72 1200q-41 0 -72 30t-31 73t31 72.5t72 29.5t71.5 -29.5t30.5 -72.5t-30.5 -73t-71.5 -30zM143 0v1032h152v-1032h-152z" />
<glyph unicode="&#xf0;" horiz-adv-x="1146" d="M96 444q0 100 38 189.5t100.5 151.5t146 98.5t172.5 36.5q98 0 185 -39t134 -105q-33 101 -109.5 200.5t-158.5 162.5l-160 -152l-98 105l137 131q-125 72 -243 94l28 143q160 -28 328 -131l174 164l98 -104l-153 -146q257 -215 317 -536q19 -114 19 -207 q0 -240 -126 -385.5t-352 -145.5q-131 0 -240 61t-173 170.5t-64 243.5zM256 444q0 -140 90.5 -233.5t226.5 -93.5t227 93.5t91 233.5t-91 234t-227 94t-226.5 -94t-90.5 -234z" />
<glyph unicode="&#xf1;" horiz-adv-x="1138" d="M287 1225q9 82 58.5 135t125.5 53q55 0 130 -40t110 -40q38 0 61 20t33 64l100 -8q-23 -201 -188 -201q-46 0 -90 20t-82 40t-70 20q-71 0 -88 -71zM141 0v1032h152v-174q41 87 127.5 139t204.5 52q177 0 280 -107.5t103 -282.5v-659h-152v627q0 129 -72 204.5t-198 75.5 q-130 0 -211.5 -80.5t-81.5 -210.5v-616h-152z" />
<glyph unicode="&#xf2;" d="M582 1130l-191 297h203l108 -297h-120zM96 516q0 154 74 280t199.5 196.5t275.5 70.5t275.5 -70.5t199.5 -196.5t74 -280t-74 -280t-199.5 -196.5t-275.5 -70.5t-275.5 70.5t-199.5 196.5t-74 280zM248 516q0 -174 113 -289.5t284 -115.5t284 115.5t113 289.5t-113 290 t-284 116t-284 -116t-113 -290z" />
<glyph unicode="&#xf3;" d="M588 1130l108 297h203l-190 -297h-121zM96 516q0 154 74 280t199.5 196.5t275.5 70.5t275.5 -70.5t199.5 -196.5t74 -280t-74 -280t-199.5 -196.5t-275.5 -70.5t-275.5 70.5t-199.5 196.5t-74 280zM248 516q0 -174 113 -289.5t284 -115.5t284 115.5t113 289.5t-113 290 t-284 116t-284 -116t-113 -290z" />
<glyph unicode="&#xf4;" d="M324 1180l258 247h127l258 -247h-187l-135 135l-135 -135h-186zM96 516q0 154 74 280t199.5 196.5t275.5 70.5t275.5 -70.5t199.5 -196.5t74 -280t-74 -280t-199.5 -196.5t-275.5 -70.5t-275.5 70.5t-199.5 196.5t-74 280zM248 516q0 -174 113 -289.5t284 -115.5 t284 115.5t113 289.5t-113 290t-284 116t-284 -116t-113 -290z" />
<glyph unicode="&#xf5;" d="M334 1225q9 82 58.5 135t125.5 53q44 0 88 -20t82.5 -40t69.5 -20q38 0 61 20t33 64l100 -8q-23 -201 -188 -201q-46 0 -90 20t-82 40t-70 20q-71 0 -88 -71zM96 516q0 154 74 280t199.5 196.5t275.5 70.5t275.5 -70.5t199.5 -196.5t74 -280t-74 -280t-199.5 -196.5 t-275.5 -70.5t-275.5 70.5t-199.5 196.5t-74 280zM248 516q0 -174 113 -289.5t284 -115.5t284 115.5t113 289.5t-113 290t-284 116t-284 -116t-113 -290z" />
<glyph unicode="&#xf6;" d="M856 1200q-41 0 -71.5 30t-30.5 73t30.5 72.5t71.5 29.5t71.5 -29.5t30.5 -72.5t-30.5 -73t-71.5 -30zM434 1200q-41 0 -71.5 30t-30.5 73t30.5 72.5t71.5 29.5t72 -29.5t31 -72.5t-31 -73t-72 -30zM96 516q0 154 74 280t199.5 196.5t275.5 70.5t275.5 -70.5 t199.5 -196.5t74 -280t-74 -280t-199.5 -196.5t-275.5 -70.5t-275.5 70.5t-199.5 196.5t-74 280zM248 516q0 -174 113 -289.5t284 -115.5t284 115.5t113 289.5t-113 290t-284 116t-284 -116t-113 -290z" />
<glyph unicode="&#xf7;" horiz-adv-x="921" d="M461 893q-41 0 -72 29.5t-31 72.5t31 73t72 30t71.5 -30t30.5 -73t-30.5 -72.5t-71.5 -29.5zM111 641v141h700v-141h-700zM461 326q-41 0 -72 29.5t-31 72.5t31 72.5t72 29.5t71.5 -29.5t30.5 -72.5t-30.5 -72.5t-71.5 -29.5z" />
<glyph unicode="&#xf8;" d="M186 2l82 111q-81 75 -126.5 178.5t-45.5 224.5q0 154 74 280t199.5 196.5t275.5 70.5q143 0 270 -68l76 105l111 -80l-78 -102q80 -75 125 -179t45 -223q0 -154 -74 -280t-199.5 -196.5t-275.5 -70.5q-140 0 -266 66l-84 -115zM356 231l473 648q-84 43 -184 43 q-171 0 -284 -116t-113 -290q0 -171 108 -285zM465 152q80 -41 180 -41q171 0 284 115.5t113 289.5q0 168 -104 281z" />
<glyph unicode="&#xf9;" horiz-adv-x="1124" d="M510 1130l-191 297h203l109 -297h-121zM129 399v633h152v-618q0 -145 75 -221t205 -76q132 0 207.5 76.5t75.5 222.5v616h151v-618q0 -210 -122 -324.5t-318 -114.5q-190 0 -308 110t-118 314z" />
<glyph unicode="&#xfa;" horiz-adv-x="1124" d="M492 1130l108 297h203l-191 -297h-120zM129 399v633h152v-618q0 -145 75 -221t205 -76q132 0 207.5 76.5t75.5 222.5v616h151v-618q0 -210 -122 -324.5t-318 -114.5q-190 0 -308 110t-118 314z" />
<glyph unicode="&#xfb;" horiz-adv-x="1124" d="M240 1180l258 247h127l258 -247h-187l-135 135l-135 -135h-186zM129 399v633h152v-618q0 -145 75 -221t205 -76q132 0 207.5 76.5t75.5 222.5v616h151v-618q0 -210 -122 -324.5t-318 -114.5q-190 0 -308 110t-118 314z" />
<glyph unicode="&#xfc;" horiz-adv-x="1124" d="M774 1200q-41 0 -71.5 30t-30.5 73t30.5 72.5t71.5 29.5t72 -29.5t31 -72.5t-31 -73t-72 -30zM352 1200q-41 0 -71.5 30t-30.5 73t30.5 72.5t71.5 29.5t72 -29.5t31 -72.5t-31 -73t-72 -30zM129 399v633h152v-618q0 -145 75 -221t205 -76q132 0 207.5 76.5t75.5 222.5 v616h151v-618q0 -210 -122 -324.5t-318 -114.5q-190 0 -308 110t-118 314z" />
<glyph unicode="&#xfd;" horiz-adv-x="1105" d="M481 1130l109 297h203l-191 -297h-121zM467 -6l-412 1038h154l336 -860l358 860h148l-602 -1427h-148z" />
<glyph unicode="&#xfe;" horiz-adv-x="1277" d="M141 -395v1822h152v-548q45 78 136 131t230 53q143 0 263 -70.5t190 -196.5t70 -280t-70 -280t-190 -196.5t-263 -70.5q-139 0 -230 53.5t-136 131.5v-549h-152zM274 516q0 -174 109.5 -289.5t275.5 -115.5q160 0 265.5 115.5t105.5 289.5t-106 290t-265 116 q-165 0 -275 -116t-110 -290z" />
<glyph unicode="&#xff;" horiz-adv-x="1105" d="M764 1200q-41 0 -71.5 30t-30.5 73t30.5 72.5t71.5 29.5t71.5 -29.5t30.5 -72.5t-30.5 -73t-71.5 -30zM342 1200q-41 0 -71.5 30t-30.5 73t30.5 72.5t71.5 29.5t71.5 -29.5t30.5 -72.5t-30.5 -73t-71.5 -30zM467 -6l-412 1038h154l336 -860l358 860h148l-602 -1427h-148z " />
<glyph unicode="&#x152;" horiz-adv-x="2269" d="M121 713q0 157 58.5 295.5t158 236t236.5 153.5t290 56q381 0 576 -301v274h676v-147h-517v-453h478v-147h-478v-533h531v-147h-690v281q-188 -310 -576 -310q-204 0 -374 95.5t-269.5 266t-99.5 380.5zM279 713q0 -126 44.5 -236t121.5 -188.5t186 -124t233 -45.5 q166 0 299.5 77t209 213t75.5 304t-75.5 304t-209 213t-299.5 77q-124 0 -233 -45.5t-186 -124t-121.5 -188.5t-44.5 -236z" />
<glyph unicode="&#x153;" horiz-adv-x="2131" d="M96 516q0 154 74 280t199.5 196.5t275.5 70.5q152 0 274.5 -71t192.5 -197q67 125 182 196.5t258 71.5q141 0 259 -70.5t187.5 -196.5t69.5 -280q0 -17 -2 -33h-878q6 -168 108 -265t271 -97q111 0 202 36t152 101l102 -111q-86 -86 -203.5 -132t-252.5 -46 q-160 0 -278 67.5t-181 192.5q-70 -122 -191 -191t-272 -69q-150 0 -275.5 70.5t-199.5 196.5t-74 280zM1198 616h709q-28 136 -125.5 221t-229.5 85t-229 -85t-125 -221zM248 516q0 -174 113 -289.5t284 -115.5t284 115.5t113 289.5t-113 290t-284 116t-284 -116t-113 -290 z" />
<glyph unicode="&#x178;" horiz-adv-x="1323" d="M872 1522q-41 0 -71.5 29.5t-30.5 72.5t30.5 72.5t71.5 29.5t72 -29.5t31 -72.5t-31 -72.5t-72 -29.5zM451 1522q-41 0 -72 29.5t-31 72.5t31 72.5t72 29.5t71.5 -29.5t30.5 -72.5t-30.5 -72.5t-71.5 -29.5zM584 0v586l-502 841h176l408 -684l403 684h172l-498 -841v-586 h-159z" />
<glyph unicode="&#x2c6;" horiz-adv-x="1298" d="M309 1180l250 247h180l250 -247h-186l-154 151l-153 -151h-187z" />
<glyph unicode="&#x2dc;" horiz-adv-x="1241" d="M311 1270q9 82 59 135t126 53q56 0 130 -40t109 -40q38 0 61 20t33 64l101 -8q-23 -201 -189 -201q-46 0 -90 20t-81.5 40t-69.5 20q-71 0 -88 -71z" />
<glyph unicode="&#x2000;" horiz-adv-x="911" />
<glyph unicode="&#x2001;" horiz-adv-x="1823" />
<glyph unicode="&#x2002;" horiz-adv-x="911" />
<glyph unicode="&#x2003;" horiz-adv-x="1823" />
<glyph unicode="&#x2004;" horiz-adv-x="607" />
<glyph unicode="&#x2005;" horiz-adv-x="455" />
<glyph unicode="&#x2006;" horiz-adv-x="303" />
<glyph unicode="&#x2007;" horiz-adv-x="303" />
<glyph unicode="&#x2008;" horiz-adv-x="227" />
<glyph unicode="&#x2009;" horiz-adv-x="364" />
<glyph unicode="&#x200a;" horiz-adv-x="101" />
<glyph unicode="&#x2010;" horiz-adv-x="835" d="M111 469v141h614v-141h-614z" />
<glyph unicode="&#x2011;" horiz-adv-x="835" d="M111 469v141h614v-141h-614z" />
<glyph unicode="&#x2012;" horiz-adv-x="835" d="M111 469v141h614v-141h-614z" />
<glyph unicode="&#x2013;" horiz-adv-x="983" d="M109 469v141h765v-141h-765z" />
<glyph unicode="&#x2014;" horiz-adv-x="1523" d="M109 469v141h1306v-141h-1306z" />
<glyph unicode="&#x2018;" horiz-adv-x="415" d="M33 911l268 516h129l-194 -516h-203z" />
<glyph unicode="&#x2019;" horiz-adv-x="432" d="M16 911l195 516h203l-269 -516h-129z" />
<glyph unicode="&#x201a;" horiz-adv-x="432" d="M-49 -262l184 489h203l-258 -489h-129z" />
<glyph unicode="&#x201c;" horiz-adv-x="755" d="M373 911l268 516h129l-195 -516h-202zM33 911l268 516h129l-194 -516h-203z" />
<glyph unicode="&#x201d;" horiz-adv-x="772" d="M356 911l195 516h203l-269 -516h-129zM16 911l195 516h203l-269 -516h-129z" />
<glyph unicode="&#x201e;" horiz-adv-x="747" d="M291 -262l184 489h203l-258 -489h-129zM-49 -262l184 489h203l-258 -489h-129z" />
<glyph unicode="&#x2022;" horiz-adv-x="585" d="M293 352q-68 0 -118 48t-50 120t50 120t118 48t118 -48t50 -120t-50 -120t-118 -48z" />
<glyph unicode="&#x2026;" horiz-adv-x="1163" d="M844 88q0 43 30.5 72.5t71.5 29.5t72 -29.5t31 -72.5t-31 -72.5t-72 -29.5t-71.5 29.5t-30.5 72.5zM479 88q0 43 31 72.5t72 29.5t71.5 -29.5t30.5 -72.5t-30.5 -72.5t-71.5 -29.5t-72 29.5t-31 72.5zM115 88q0 43 30.5 72.5t71.5 29.5t71.5 -29.5t30.5 -72.5 t-30.5 -72.5t-71.5 -29.5t-71.5 29.5t-30.5 72.5z" />
<glyph unicode="&#x202f;" horiz-adv-x="364" />
<glyph unicode="&#x2039;" horiz-adv-x="577" d="M322 160l-226 358l226 359h159l-225 -359l225 -358h-159z" />
<glyph unicode="&#x203a;" horiz-adv-x="577" d="M96 160l226 358l-226 359h160l225 -359l-225 -358h-160z" />
<glyph unicode="&#x205f;" horiz-adv-x="455" />
<glyph unicode="&#x20ac;" horiz-adv-x="1574" d="M41 492l61 141h166q-4 54 -4 80q0 49 6 96h-186l61 141h152q68 227 245.5 365.5t403.5 138.5q147 0 276 -57t224 -160l-113 -100q-72 81 -171 125.5t-216 44.5q-168 0 -296.5 -97.5t-186.5 -259.5h557l-62 -141h-528q-6 -47 -6 -96q0 -26 4 -80h461l-62 -141h-370 q55 -170 186 -271.5t303 -101.5q123 0 227 46.5t177 131.5l114 -102q-98 -107 -231.5 -165.5t-286.5 -58.5q-230 0 -410 144t-243 377h-252z" />
<glyph unicode="&#x2122;" horiz-adv-x="1773" d="M801 668v762h14l399 -408l400 408h14v-762h-153v417l-261 -286l-260 286v-417h-153zM311 668v612h-241v147h637v-147h-242v-612h-154z" />
<glyph unicode="&#x25fc;" horiz-adv-x="1034" d="M0 1034h1034v-1034h-1034v1034z" />
</font>
</defs>
</svg>
